<?xml version="1.0" encoding="UTF-8"?>
<svg id="Layer_2" data-name="Layer 2" xmlns="http://www.w3.org/2000/svg" viewBox="0 0 299.68 300">
  <defs>
    <style>
      .cls-1 {
        fill: #a89c33;
        stroke-width: 0px;
      }
    </style>
  </defs>
  <g id="Layer_1-2" data-name="Layer 1">
    <path class="cls-1" d="M0,140.37C3.01,92.15,28.78,50.1,66.7,24.84l16.15,27.97c-14.1,9.73-25.99,22.46-34.71,37.24-9.04,15.33-14.47,32.56-15.9,50.33H0ZM200.42,256.45c-16.1,7.65-33.74,11.56-51.54,11.4-17.15-.16-34.12-4.1-49.6-11.44l-16.16,27.99c20.1,9.99,42.75,15.6,66.72,15.6s46.62-5.61,66.71-15.6l-16.13-27.95ZM216.86,52.76c14.68,10.12,26.89,23.44,35.64,38.93,8.43,14.94,13.51,31.6,14.89,48.68h32.29c-3.01-48.22-28.78-90.28-66.7-115.54l-16.12,27.93ZM112.43,197c9.95-5.74,13.37-18.5,7.62-28.45-2.78-4.82-7.27-8.26-12.65-9.7-1.79-.48-3.62-.72-5.42-.72-3.61,0-7.17.95-10.38,2.8-9.95,5.74-13.37,18.51-7.62,28.45h0c5.74,9.95,18.51,13.36,28.45,7.62ZM208.08,160.42c-3.27-1.89-6.85-2.79-10.38-2.79-7.2,0-14.22,3.74-18.07,10.41-5.74,9.95-2.32,22.71,7.62,28.45,4.82,2.78,10.43,3.52,15.8,2.08,5.37-1.44,9.87-4.89,12.65-9.7h0c2.78-4.82,3.52-10.43,2.08-15.8-1.44-5.37-4.89-9.87-9.7-12.65ZM235.92,189.57c2.02-6.92,2.13-14.28.21-21.43-2.75-10.28-9.35-18.87-18.56-24.19-19.02-10.98-43.43-4.44-54.41,14.58-10.98,19.02-4.44,43.43,14.58,54.41,6.14,3.54,12.95,5.35,19.85,5.35,3.46,0,6.94-.46,10.37-1.38,7.14-1.91,13.47-5.68,18.45-10.9l47.96,27.69c-10.97,16.27-25.06,30.27-41.39,41.16l-20.68-35.83c-1.26-2.18-3.34-3.78-5.77-4.43-2.44-.65-5.03-.31-7.21.95-30.5,17.61-68.43,17.59-98.98-.04-4.51-2.6-10.27-1.09-12.92,3.38l-.02.04s-.04.06-.06.1l-20.68,35.82c-16.21-10.8-30.2-24.67-41.14-40.78l47.73-27.56c7.6,7.93,18.1,12.25,28.82,12.25,6.75,0,13.59-1.72,19.85-5.33,19.02-10.98,25.56-35.39,14.58-54.41-5.32-9.21-13.91-15.8-24.18-18.56-10.28-2.75-21.01-1.34-30.23,3.98-16.18,9.34-23.33,28.41-18.34,45.6l-47.88,27.65C6.89,200.01,1.31,180.27,0,159.38h41.35c5.25,0,9.5-4.25,9.5-9.5,0-35.22,18.98-68.06,49.52-85.7,2.18-1.26,3.78-3.34,4.43-5.78.65-2.44.31-5.03-.96-7.22l-20.71-35.87C100.44,6.73,119.62,1.38,139.9.05v57.14c-17.39,4.28-30.33,20-30.33,38.69,0,21.96,17.87,39.83,39.83,39.83s39.83-17.87,39.83-39.83c0-18.69-12.94-34.41-30.33-38.69V0c20.61,1.23,40.09,6.61,57.63,15.32l-20.69,35.84c-1.26,2.18-1.6,4.78-.95,7.21.65,2.43,2.24,4.51,4.43,5.77,30.5,17.61,49.45,50.46,49.45,85.74,0,5.25,4.25,9.5,9.5,9.5h41.41c-1.3,20.74-6.81,40.34-15.68,57.95l-48.07-27.76ZM149.4,75.05c-11.48,0-20.83,9.34-20.83,20.83s9.34,20.83,20.83,20.83,20.83-9.34,20.83-20.83-9.34-20.83-20.83-20.83Z"/>
  </g>
</svg>