<?xml version="1.0" encoding="UTF-8"?>
<svg id="Layer_2" data-name="Layer 2" xmlns="http://www.w3.org/2000/svg" viewBox="0 0 132.08 160.5">
  <defs>
    <style>
      .cls-1 {
        stroke-width: 0px;
      }
    </style>
  </defs>
  <g id="Layer_1-2" data-name="Layer 1">
    <path class="cls-1" d="m51.79,6.92c.48,0,.9-.03,1.25-.09.36-.06.6-.09.72-.09.24,0,.57.15.99.45.42.3.75.75.99,1.34.12.12.3.24.54.36.24.12.54.18.9.18.24.12.45.21.63.27.18.06.33.15.45.27.24.6.39,2.9.45,6.9.06,4-.03,6.78-.27,8.33-.12.48-.39.84-.81,1.08-.42.24-1.88.72-4.39,1.43-2.75.96-5.29,2.06-7.62,3.32-2.33,1.25-4.51,2.66-6.54,4.21-2.03,1.67-4.12,3.74-6.27,6.18-2.15,2.45-3.7,4.57-4.66,6.36-.48.84-1.14,2.33-1.97,4.48-.84,2.15-1.5,3.94-1.97,5.38-.96,3.11-1.43,6.48-1.43,10.12s.42,7.32,1.25,11.02c.24.6.42,1.25.54,1.97.12.72.18,1.2.18,1.43.12.6.12.99,0,1.17-.12.18-.48.45-1.08.81-.84.72-1.88,1.43-3.14,2.15-1.25.72-2.96,1.67-5.11,2.87-2.03,1.08-4.18,2.18-6.45,3.32-2.27,1.14-3.53,1.7-3.76,1.7s-.78-.42-1.61-1.25c-.84-.83-1.38-1.43-1.61-1.79-.12-.12-.21-.36-.27-.72-.06-.36-.09-.72-.09-1.08,0-.72-.06-1.55-.18-2.51-.12-.96-.24-1.55-.36-1.79-.24-.24-.42-1.04-.54-2.42-.12-1.37-.18-4.69-.18-9.95l-.36-10.93,1.43-1.97c.83-1.19,1.34-2.15,1.52-2.87.18-.72.21-1.85.09-3.41-.12-.95-.24-1.7-.36-2.24-.12-.54-.24-1.1-.36-1.7-.84-1.67-1.32-2.87-1.43-3.58-.12-.72-.18-1.91-.18-3.58,0-2.03.15-3.5.45-4.39.3-.9,1.1-1.94,2.42-3.14,1.55-1.43,2.69-2.78,3.4-4.03.72-1.25.96-2.3.72-3.14-.24-.83-.33-1.4-.27-1.7.06-.3.39-.69.99-1.17.24-.12.6-.42,1.08-.9s.96-.9,1.43-1.25c1.19-1.19,2.69-2.36,4.48-3.49,1.79-1.13,2.99-1.7,3.58-1.7s.87.27.81.81c-.06.54-.39,1.46-.99,2.78-.6,1.32-.87,2.27-.81,2.87.06.6.51.78,1.34.54.48,0,1.08-.3,1.79-.9.72-.6,1.85-1.61,3.41-3.05,1.43-1.19,2.54-2.09,3.32-2.69.78-.6,1.34-.9,1.7-.9.12,0,.33.09.63.27.3.18.57.39.81.63.36.36.75.57,1.17.63.42.06.69-.03.81-.27.24-.72.36-1.31.36-1.79.12-.48.21-.87.27-1.17.06-.3.21-.57.45-.81.24-.36.81-.78,1.7-1.25.9-.48,1.64-.72,2.24-.72.12-.12.36-.24.72-.36.36-.12.66-.24.9-.36.95-.72,1.67-1.01,2.15-.9.48.12,1.37.72,2.69,1.79.83.72,1.61,1.34,2.33,1.88.72.54,1.19.81,1.43.81.12,0,.09-.51-.09-1.52-.18-1.01-.39-1.82-.63-2.42-.36-.6-.57-1.13-.63-1.61-.06-.48.03-.83.27-1.08.24-.24.78-.48,1.61-.72.83-.24,1.85-.48,3.05-.72ZM2.33,31.11c.12-.12.24-.15.36-.09.12.06.12.27,0,.63,0,.36-.09.57-.27.63-.18.06-.27-.09-.27-.45v-.45c0-.18.06-.27.18-.27Zm10.39,1.97c0-.36-.15-.54-.45-.54s-.69.18-1.17.54c-.36.24-.66.51-.9.81-.24.3-.3.57-.18.81.12.12.42.18.9.18s.78-.06.9-.18c.24-.12.45-.36.63-.72.18-.36.27-.66.27-.9Zm83.51,64.34l2.87-2.87,5.56,2.87c5.02,2.51,8.57,4.45,10.66,5.82,2.09,1.37,3.14,2.36,3.14,2.96,0,.12-.06.27-.18.45-.12.18-.3.39-.54.63-.24.24-.51.39-.81.45-.3.06-.69.09-1.17.09s-.87.06-1.16.18c-.3.12-.69.36-1.17.72-.96.72-2.57,2.27-4.84,4.66-2.27,2.39-3.53,3.76-3.76,4.12,0,.24-.03.51-.09.81-.06.3-.09.63-.09.99,0,.6-.15,1.11-.45,1.52-.3.42-.93,1.05-1.88,1.88-1.43,1.08-2.6,1.73-3.49,1.97-.9.24-1.88.06-2.96-.54-.48-.24-.84-.39-1.08-.45-.24-.06-.6-.03-1.08.09-1.2.24-1.94.27-2.24.09-.3-.18-.69-.81-1.17-1.88-.6-.96-1.16-1.79-1.7-2.51-.54-.72-.93-1.08-1.17-1.08s-.42.18-.54.54c-.12.36-.06.84.18,1.43,0,.36.03.75.09,1.16.06.42.03.81-.09,1.17v1.08c0,.24.12.54.36.9.6.96,1.25,2.42,1.97,4.39.72,1.97,1.19,3.44,1.43,4.39.12,1.08.06,1.91-.18,2.51-.24.6-.84,1.2-1.79,1.79-1.08.84-2.06,1.52-2.96,2.06-.9.54-1.41.75-1.52.63-.12-.36-.18-.6-.18-.72,0-.36-.12-.69-.36-.99-.24-.3-.72-.69-1.43-1.17-.6-.36-.93-.69-.99-.99-.06-.3.09-.81.45-1.52.24-.48.42-1.08.54-1.79.12-.72.12-1.13,0-1.25-.24-.12-.72-.15-1.43-.09-.72.06-1.25.15-1.61.27-.6.24-1.97.45-4.12.63-2.15.18-5.5.33-10.04.45-2.75,0-4.87.06-6.36.18-1.5.12-2.3.18-2.42.18-.12.24-.18.81-.18,1.7s.06,2.78.18,5.65c.12,1.43.18,3.14.18,5.11v9.95l-.72,1.43c-.48.95-.99,1.7-1.52,2.24s-1.05.81-1.52.81c-.72,0-1.32-.18-1.79-.54-.48-.36-.96-.96-1.43-1.79-.36-.84-.54-1.67-.54-2.51s.06-3.94.18-9.32v-5.38c0-1.08-.06-2.09-.18-3.05-.12-.6-.24-1.31-.36-2.15-.12-.83-.18-1.49-.18-1.97,0-.6-.06-1.1-.18-1.52-.12-.42-.24-.69-.36-.81-.24-.24-.75-.51-1.52-.81-.78-.3-2.18-.69-4.21-1.17-1.08-.24-2.15-.54-3.23-.9s-1.85-.66-2.33-.9c-.36-.12-1.02-.36-1.97-.72-.96-.36-1.85-.66-2.69-.9-.84-.24-1.64-.51-2.42-.81-.78-.3-1.29-.51-1.52-.63-.12-.12-.51-.45-1.17-.99-.66-.54-1.29-1.1-1.88-1.7-.72-.48-1.38-.99-1.97-1.52-.6-.54-1.02-.87-1.25-.99-.72-.48-1.73-1.58-3.05-3.32-1.32-1.73-2.39-3.37-3.23-4.93-.48-1.08-.93-1.88-1.34-2.42-.42-.54-.81-.87-1.16-.99-.96-.36-1.02-1.01-.18-1.97.83-.95,2.57-2.21,5.2-3.76,1.91-1.08,4-2.27,6.27-3.58,2.27-1.31,3.76-2.21,4.48-2.69.36-.24.72-.45,1.08-.63.36-.18.66-.27.9-.27.36-.12.83,0,1.43.36.6.36,1.61,1.32,3.05,2.87,2.87,2.63,5.43,4.66,7.71,6.09,2.27,1.43,5.08,2.75,8.42,3.94,2.39.96,4.36,1.52,5.91,1.7,1.55.18,4.54.27,8.96.27,4.18,0,6.87-.06,8.06-.18,1.19-.12,2.93-.66,5.2-1.61,3.46-1.31,6.51-2.84,9.14-4.57,2.63-1.73,5.13-3.85,7.53-6.36ZM29.48,30.75c-.3,0-.63.18-.99.54-.48.48-.75.93-.81,1.34-.06.42.03.99.27,1.7.48.84.99,1.29,1.52,1.34.54.06.99-.39,1.34-1.34.12-.36.12-.83,0-1.43-.12-.6-.3-1.13-.54-1.61-.24-.36-.51-.54-.81-.54Zm29.12,2.87c1.31-.12,3.82-.15,7.53-.09,3.7.06,5.85.21,6.45.45,1.19.24,2.63.66,4.3,1.25,1.67.6,3.05,1.2,4.12,1.79,1.67.72,3.16,1.52,4.48,2.42,1.31.9,2.63,2,3.94,3.32l2.33,2.15-.9,1.43c-.6.96-1.32,1.88-2.15,2.78-.84.9-1.38,1.29-1.61,1.17-.12,0-.27-.15-.45-.45-.18-.3-.39-.57-.63-.81-.24-.36-.45-.66-.63-.9-.18-.24-.33-.36-.45-.36s-.24.09-.36.27c-.12.18-.3.39-.54.63-.12.24-.24.45-.36.63-.12.18-.24.27-.36.27-.48-.36-.9-.66-1.25-.9-.24-.12-.63-.39-1.17-.81-.54-.42-1.05-.75-1.52-.99-1.08-.72-1.79-1.25-2.15-1.61s-.54-.72-.54-1.08c0-.48-.09-.87-.27-1.17-.18-.3-.39-.45-.63-.45-.12,0-.3.06-.54.18-.24.12-.54.24-.9.36-.48.36-.87.48-1.17.36-.3-.12-.51-.42-.63-.9,0-.48-.15-1.01-.45-1.61-.3-.6-.51-.9-.63-.9s-.24.06-.36.18c-.12.12-.24.36-.36.72-.12.24-.24.48-.36.72-.12.24-.18.42-.18.54-.96.12-2.09.18-3.41.18-1.67,0-2.99.06-3.94.18-.96.12-1.73.3-2.33.54-.24,0-.57.06-.99.18-.42.12-.87.24-1.34.36-.96.24-2.33.78-4.12,1.61-1.79.84-3.23,1.61-4.3,2.33-.72.48-1.34,1.02-1.88,1.61-.54.6-1.52,1.79-2.96,3.58-1.43,1.91-2.66,4.36-3.67,7.35-1.02,2.99-1.52,5.73-1.52,8.24,0,3.47.9,7.08,2.69,10.84,1.79,3.76,4,6.6,6.63,8.51,1.67,1.32,4,2.54,6.99,3.67,2.99,1.14,5.32,1.7,6.99,1.7.83,0,1.28-.12,1.34-.36.06-.24-.15-.9-.63-1.97-.12-.48-.27-.92-.45-1.34-.18-.42-.27-.69-.27-.81,0-.72.57-1.4,1.7-2.06,1.13-.66,2.24-.99,3.31-.99.48,0,.96.12,1.43.36.48.24.72.48.72.72,0,.12-.06.36-.18.72-.12.36-.3.72-.54,1.08-.24.6-.42,1.08-.54,1.43-.12.36-.18.72-.18,1.08,0,.72.12,1.2.36,1.43.24.24.72.36,1.43.36.6-.12,1.88-.51,3.85-1.16,1.97-.66,3.61-1.34,4.93-2.06,2.39-1.19,4.72-3.49,6.99-6.9,2.27-3.4,3.76-6.72,4.48-9.95.12-.6.24-1.08.36-1.43.12-.36.3-.66.54-.9.48-.6.72-1.22.72-1.88s-.24-1.22-.72-1.7c-.24-.24-.39-.48-.45-.72-.06-.24-.09-.6-.09-1.08,0-.72.09-1.46.27-2.24.18-.78.57-1.82,1.17-3.14.36-.48.63-1.01.81-1.61.18-.6.27-1.01.27-1.25.12-1.08.24-1.76.36-2.06.12-.3.36-.63.72-.99.48-.48.99-.72,1.52-.72s.92.24,1.17.72c.36.6.87,1.97,1.52,4.12.66,2.15,1.1,3.71,1.34,4.66.12.84.15,2.63.09,5.38-.06,2.75-.21,5.02-.45,6.81-.12,1.2-.39,2.51-.81,3.94-.42,1.43-.99,2.99-1.7,4.66-.96,2.03-2.06,3.82-3.32,5.38-1.25,1.55-2.84,3.17-4.75,4.84-2.75,2.39-5.53,4.3-8.33,5.74-2.81,1.43-5.71,2.45-8.69,3.05-1.55.24-4,.36-7.35.36s-5.68-.12-6.99-.36c-3.58-.83-6.87-2.15-9.86-3.94-2.99-1.79-6.09-4.3-9.32-7.53-1.2-1.19-2.12-2.3-2.78-3.32-.66-1.01-1.46-2.48-2.42-4.39-1.2-2.63-2-4.87-2.42-6.72-.42-1.85-.63-4.57-.63-8.15,0-2.03.03-3.49.09-4.39.06-.9.21-1.76.45-2.6.6-2.87,1.49-5.52,2.69-7.97,1.19-2.45,2.81-4.87,4.84-7.26,1.91-2.27,3.97-4.21,6.18-5.82,2.21-1.61,4.75-3.02,7.62-4.21.72-.36,1.4-.69,2.06-.99.66-.3,1.1-.51,1.34-.63.24-.12.63-.24,1.17-.36.54-.12,1.04-.24,1.52-.36ZM42.11.65c.24-.36.48-.57.72-.63.24-.06.78.03,1.61.27.48.12,1.08.21,1.79.27.72.06,1.49.09,2.33.09h2.69l.72.9c.24.24.54.54.9.9,0,.12-.33.45-.99.99-.66.54-1.34,1.05-2.06,1.52-.36.24-.69.42-.99.54-.3.12-.63.18-.99.18-.96,0-2.12-.45-3.49-1.34-1.38-.9-2.18-1.7-2.42-2.42-.12-.36-.18-.6-.18-.72s.12-.3.36-.54Zm14.78,49.82c.3,0,.45.12.45.36-.12.24-.24.42-.36.54-.12.24-.3.27-.54.09-.24-.18-.3-.39-.18-.63.12-.24.33-.36.63-.36Zm13.8-13.71c-.18-.06-.39-.09-.63-.09-.36,0-.66.09-.9.27-.24.18-.36.45-.36.81,0,.6.24.99.72,1.16.48.18.96.03,1.43-.45.24-.24.39-.51.45-.81.06-.3-.03-.51-.27-.63-.12-.12-.27-.21-.45-.27ZM80.1,1.18c0-.24.21-.3.63-.18.42.12,1.17.36,2.24.72,1.91.84,3.23,1.34,3.94,1.52.72.18,1.61.27,2.69.27,1.19,0,2.12.15,2.78.45.66.3,1.28.75,1.88,1.34.48.48.83.75,1.08.81.24.06.66-.09,1.25-.45.48-.24.9-.36,1.25-.36s.78.12,1.25.36c.83.48,1.55.96,2.15,1.43.6.48,1.13,1.08,1.61,1.79.48.84,1.22,1.76,2.24,2.78,1.01,1.02,1.76,1.64,2.24,1.88.24.12.54.36.9.72s.66.78.9,1.25c.24.36.51.69.81.99.3.3.51.51.63.63.24.24.36.42.36.54,0,.36.12.69.36.99.24.3.66.69,1.25,1.17.36.24.72.54,1.08.9s.6.66.72.9c.24.24.6.72,1.08,1.43.48.72,1.01,1.43,1.61,2.15,1.79,2.39,3.43,5.02,4.93,7.88,1.49,2.87,3.2,6.81,5.11,11.83.48,1.08,1.08,3.02,1.79,5.82.72,2.81,1.13,4.87,1.25,6.18.24,1.79.45,3.2.63,4.21.18,1.02.45,1.94.81,2.78.24.72.39,1.38.45,1.97.06.6.09,1.97.09,4.12,0,1.32-.06,2.6-.18,3.85-.12,1.25-.18,2.24-.18,2.96-.36,1.55-.84,3.32-1.43,5.29-.6,1.97-1.14,3.32-1.61,4.03-.6.84-1.11,1.73-1.52,2.69-.42.96-.75,1.79-.99,2.51-.12.36-.24.72-.36,1.08-.12.36-.24.54-.36.54-.24.24-.6.27-1.08.09-.48-.18-1.55-.69-3.23-1.52-.6-.36-1.2-.69-1.79-.99-.6-.3-.96-.51-1.08-.63-1.08-.36-3.17-1.46-6.27-3.32-3.11-1.85-4.9-3.02-5.38-3.49-.36-.24-.54-.51-.54-.81s.18-.99.54-2.06c.48-1.55.87-3.64,1.16-6.27.3-2.63.39-5.2.27-7.71-.12-1.91-.3-3.85-.54-5.82-.24-1.97-.54-3.37-.9-4.21-.12-.24-.27-.6-.45-1.08-.18-.48-.33-.96-.45-1.43-.48-1.31-1.29-3.05-2.42-5.2-1.14-2.15-2.18-3.88-3.14-5.2-.24-.36-.54-.81-.9-1.34-.36-.54-.66-1.04-.9-1.52-.24-.48-.48-.87-.72-1.17-.24-.3-.42-.51-.54-.63-.48-.24-.81-.54-.99-.9-.18-.36-.39-1.13-.63-2.33-.36-2.99-.81-5.14-1.34-6.45-.54-1.31-1.23-2.15-2.06-2.51-.96-.48-1.58-.6-1.88-.36-.3.24-.51.96-.63,2.15-.12.48-.24.9-.36,1.25-.12.36-.18.6-.18.72-.24.24-.72.3-1.43.18-.72-.12-1.97-.48-3.76-1.08-.96-.24-2.06-.57-3.32-.99-1.25-.42-2.36-.74-3.32-.99-.84-.36-1.64-.66-2.42-.9-.78-.24-1.29-.42-1.52-.54l-.9-.36v-9.68c0-5.14.06-8.21.18-9.23.12-1.01.42-1.52.9-1.52.12,0,.39.09.81.27.42.18.87.39,1.34.63.48.24.95.45,1.43.63.48.18.9.27,1.25.27.24.12.81.27,1.7.45.9.18,1.76.33,2.6.45,1.91.36,3.23.57,3.94.63.72.06,1.08-.15,1.08-.63.12-.48-.48-1.31-1.79-2.51-1.32-1.19-2.33-1.85-3.05-1.97-.6-.12-1.2-.42-1.79-.9-.6-.48-.9-.9-.9-1.25Zm-1.34,59.68c.18,0,.39.12.63.36.36.36.54.9.54,1.61s-.18,1.5-.54,2.33c-.36.72-.72,1.2-1.08,1.43-.36.24-.9.36-1.61.36h-1.08v-1.43c-.12-.72-.12-1.19,0-1.43.12-.24.42-.66.9-1.25.36-.24.69-.54.99-.9.3-.36.51-.6.63-.72.24-.24.45-.36.63-.36Zm1.17,13.98c.6-.24,1.08-.33,1.43-.27.36.06.66.15.9.27.24.24.36.42.36.54s-.06.36-.18.72c-.36.6-.96.99-1.79,1.17-.84.18-1.38.03-1.61-.45-.24-.36-.24-.74,0-1.17.24-.42.54-.69.9-.81Z"/>
  </g>
</svg>