<?xml version="1.0" encoding="UTF-8"?>
<svg id="Layer_2" data-name="Layer 2" xmlns="http://www.w3.org/2000/svg" viewBox="0 0 300 300">
  <defs>
    <style>
      .cls-1 {
        fill: var(--color--anarch);
        stroke-width: 0px;
      }
    </style>
  </defs>
  <g id="Layer_1-2" data-name="Layer 1">
    <path class="cls-1" d="M199.64,139.67l-3.5,8.1,26.29-2.37c12.75,10.29,25.74,20.34,38.88,30.07l-67.43-17.93-.36,7.93,106.48,28.32-17.35-12.38c-19.63-14.01-38.96-28.74-57.78-44.01l-19.85,1.78-5.38.48ZM71.96,136.78l4.04-7.31-11.52-1.43c.23-.84.46-1.67.69-2.51,7.85-29.29,14.66-59.18,20.3-89.09l15.26,58.95,4.45-13.78L84.04,0l-3.07,17.71c-6.15,35.46-13.99,71.06-23.3,105.81-.99,3.69-2.02,7.4-3.08,11.11l12.59,1.57,4.78.59ZM71.41,189.72l-43.98,48.1c11.06-28.9,21.93-58.86,30.96-88.67l6.3.78,4.04-7.32-8.09-1.01-7.8-.97c-11.27,38.28-25.83,77.04-40.08,113.61l-7.55,19.37,70.94-77.58-4.73-6.32ZM119.26,82.08l-10.77-41.61c25.75,27.02,52.96,53.02,81.07,77.43,3.04,2.64,6.11,5.27,9.18,7.89l-12.3,1.11,10.96,6.8,7.27-.65,13.39-1.21c-7.91-6.51-15.72-13.11-23.42-19.8-31.71-27.54-62.28-57.11-90.86-87.9l-10.45-11.25,16.92,65.36,9,3.82ZM192.89,179.29l54.6,14.22c-18.68,2.27-37.28,5.39-55.67,9.36l-.36,8.02c25.73-5.64,51.86-9.61,78.09-11.86l22.48-1.93-98.78-25.72-.36,7.92ZM97.82,230.8c-23.8,8.98-44.04,18.14-61.22,26.59l47.58-50.62-4.72-6.3L0,284.99l20.37-10.65c19.96-10.44,45.17-22.86,76.92-35.03l.53-8.5ZM185.43,172.55l-3.48,8.06-18.62-9.74-1.99,4.39-22.92-10.23-4.78,9.22-29.17-13.01,8.5-16.06,8.9,2.82,14.35-5.77.7-6.32-44.95-19.29-27.85,50.42,41.96,56.03-2.39,38.27,34.88-13.44-.06,11.89,33.48-13.45-1.5-22.14,13.31-15.63,1.64-36.01ZM122.17,156.24l-5.38-1.71-1.59,3,14.91,6.65,4.78-9.22,22.56,10.07,2.19-4.84,18.49,9.67,13.28-30.74-17.27-10.72,2.52-5.56-20.32-7.62,2.41-4.46-25.15-8.88,2.13-4.37-24.23-10.29-8.32,25.77,42.05,18.05-1.84,16.65-21.24,8.55Z"/>
  </g>
</svg>