<?xml version="1.0" encoding="UTF-8"?>
<svg id="Layer_2" data-name="Layer 2" xmlns="http://www.w3.org/2000/svg" viewBox="0 0 183.51 146.59">
  <defs>
    <style>
      .cls-1 {
        stroke-width: 0px;
      }
    </style>
  </defs>
  <g id="Layer_1-2" data-name="Layer 1">
    <path class="cls-1" d="m6.27,47.49c-2.99,1.2-5.08,1.38-6.27.54,2.15-.72,4.18-1.49,6.09-2.33,1.91-.83,3.94-1.61,6.09-2.33-.96,1.55-2.93,2.93-5.91,4.12Zm.81-4.39c-1.02.18-1.94.27-2.78.27v-1.43c.96,0,1.88-.09,2.78-.27.9-.18,1.88-.33,2.96-.45v1.43c-.96.12-1.94.27-2.96.45Zm4.39,15.32c.6.36,1.1.72,1.52,1.08.42.36.87.72,1.34,1.08-.36.36-.72.69-1.08.99-.36.3-.6.45-.72.45-.36-.36-.72-.72-1.08-1.08l-1.08-1.08c0-.24.36-.72,1.08-1.43Zm151.16,38.08c-.42.18-.87.39-1.34.63.95.48,1.82,1.02,2.6,1.61.78.6,1.7,1.25,2.78,1.97-1.79.72-3.38,1.34-4.75,1.88-1.38.54-2.78.99-4.21,1.34-5.38,1.55-10.69,3.05-15.95,4.48-5.26,1.43-10.57,2.81-15.95,4.12-2.39.72-4.81,1.2-7.26,1.43-2.45.24-4.93.36-7.44.36-4.54,0-8.96-.3-13.26-.9-4.3-.6-8.6-1.49-12.9-2.69-1.08-.36-2.18-.24-3.32.36-1.14.6-1.94,1.43-2.42,2.51-.6,1.08-1.2,2.09-1.79,3.05-.6.96-1.08,1.97-1.43,3.05-1.32,3.23-2.57,6.45-3.76,9.68-1.2,3.23-2.33,6.45-3.41,9.68-.6,1.79-1.38,3.41-2.33,4.84-.96,1.43-2.69,2.33-5.2,2.69.24-.96.39-1.73.45-2.33.06-.6.15-1.25.27-1.97.36-.96.72-1.88,1.08-2.78.36-.9.72-1.76,1.08-2.6.36-1.43.87-2.96,1.52-4.57.65-1.61.99-3.2.99-4.75.36-3.23,1.08-6.33,2.15-9.32,1.08-2.99,2.03-6.09,2.87-9.32.12-.36.12-.78,0-1.25-.12-.48-.24-.78-.36-.9-2.39-1.43-4.72-2.93-6.99-4.48-2.27-1.55-4.72-2.69-7.35-3.4-1.43-.36-2.66-.99-3.67-1.88-1.02-.9-1.94-1.94-2.78-3.14-1.67-1.79-3.44-3.52-5.29-5.2-1.85-1.67-3.67-3.29-5.47-4.84-2.15-1.67-4.24-3.32-6.27-4.93-2.03-1.61-4.12-3.2-6.27-4.75-.36-.24-.72-.39-1.08-.45-.36-.06-.72-.15-1.08-.27-.36-.24-.72-.45-1.08-.63-.36-.18-.6-.45-.72-.81-.36-.36-.78-.81-1.25-1.34-.48-.54-.9-1.04-1.25-1.52-.24.12-.39.21-.45.27-.06.06-.15.21-.27.45-.24-1.31-.51-2.51-.81-3.58-.3-1.08-.51-2.15-.63-3.23l.45-.45.27-.27c.96.48,1.88.93,2.78,1.34.9.42,1.76.93,2.6,1.52.72.48,1.46,1.02,2.24,1.61.78.6,1.58,1.02,2.42,1.25,1.67.72,3.2,1.5,4.57,2.33,1.37.84,2.6,1.97,3.67,3.41.72.72,1.64,1.34,2.78,1.88,1.13.54,2.24,1.11,3.32,1.7,1.31.84,2.66,1.7,4.03,2.6,1.37.9,2.78,1.82,4.21,2.78.24.12.54.36.9.72s.78.72,1.25,1.08c-.36-1.67-.3-3.23.18-4.66.48-1.43.18-2.75-.9-3.94-.36-.36-.3-.99.18-1.88.48-.9.78-1.58.9-2.06.72-.72,1.4-1.37,2.06-1.97.66-.6,1.4-1.25,2.24-1.97.24,1.43.42,2.72.54,3.85.12,1.14.18,2.24.18,3.32-.12,1.91.18,3.65.9,5.2.72,1.55,1.61,3.05,2.69,4.48,1.08,1.2,2.15,2.36,3.23,3.5,1.08,1.14,2.15,2.36,3.23,3.67,1.67,1.91,3.16,2.81,4.48,2.69,1.31-.12,2.57-1.25,3.76-3.41.36-.95.78-1.94,1.25-2.96.48-1.01,1.49-1.34,3.05-.99-1.43-2.87-2.87-5.64-4.3-8.33-1.43-2.69-2.87-5.29-4.3-7.79-1.67-2.51-3.38-5.05-5.11-7.62-1.73-2.57-3.38-5.17-4.93-7.79-.96,1.08-1.79,2-2.51,2.78-.72.78-1.32,1.64-1.79,2.6-.24-.24-.45-.36-.63-.36h-.45v-7.17c-1.08-.24-2.18-.45-3.31-.63-1.14-.18-2.3-.33-3.5-.45.36-2.39.75-3.76,1.17-4.12.42-.36,1.7-.42,3.85-.18.36,0,.66-.06.9-.18.24-.12.54-.18.9-.18,0-.36-.03-.72-.09-1.08-.06-.36-.15-.6-.27-.72-.96-2.15-2.21-3.79-3.76-4.93-1.55-1.13-3.41-1.76-5.56-1.88-2.75-.36-5.44-.74-8.06-1.17-2.63-.42-5.08-.27-7.35.45-2.75.72-5.53,1.29-8.33,1.7-2.81.42-5.53,1.16-8.15,2.24-1.32.36-2.6,0-3.85-1.08-1.25-1.08-1.88-2.51-1.88-4.3.36,0,.81-.03,1.34-.09.54-.06,1.04-.15,1.52-.27-.24,0-.36-.09-.36-.27v-.45c.6-.36,1.16-.81,1.7-1.34.54-.54,1.17-.81,1.88-.81,3.11-.72,6.12-1.43,9.05-2.15,2.93-.72,6-.96,9.23-.72,1.31.12,2.6,0,3.85-.36,1.25-.36,2.6-.6,4.03-.72h6.81c-2.15-2.03-3.38-4.18-3.67-6.45-.3-2.27-.63-4.54-.99-6.81.96,0,1.64.24,2.06.72.42.48,1.4,2.15,2.96,5.02.72,1.2,1.43,2.39,2.15,3.58.72,1.2,1.43,2.51,2.15,3.94.96-1.31,1.88-1.91,2.78-1.79.9.12,1.88.36,2.96.72,1.43.72,2.81,1.38,4.12,1.97,1.31.6,2.69,1.25,4.12,1.97,2.51,1.2,4.96,2.42,7.35,3.67,2.39,1.25,4.84,2.54,7.35,3.85.96.48,1.94.99,2.96,1.52,1.01.54,2.06.99,3.14,1.34.95.36,1.94.51,2.96.45,1.01-.06,1.94.03,2.78.27.72.12,1.43.36,2.15.72s1.31.72,1.79,1.08c2.87,2.15,5.79,4.36,8.78,6.63,2.99,2.27,5.91,4.6,8.78,6.99,1.43.84,2.75,1.76,3.94,2.78,1.19,1.02,2.51,2,3.94,2.96,1.08.72,2.09.9,3.05.54.96-.36,1.85-.9,2.69-1.61.6-.6,1.17-1.13,1.7-1.61.54-.48,1.04-.78,1.52-.9,4.18-1.31,8.33-2.6,12.45-3.85,4.12-1.25,8.21-2.48,12.28-3.67v.72c.6.12,1.22.21,1.88.27.66.06,1.22.21,1.7.45.6,0,1.1.12,1.52.36.42.24.87.48,1.34.72-.36.36-.72.87-1.08,1.52-.36.66-.72.99-1.08.99-1.08.12-2.12.33-3.14.63-1.02.3-1.88,1.17-2.6,2.6-.36.72-1.2,1.23-2.51,1.52-1.32.3-2.51.63-3.58.99-2.87,1.08-5.76,2.09-8.69,3.05-2.93.96-5.89,2.09-8.87,3.41,1.31,1.08,2.3,2.36,2.96,3.85.66,1.5,1.94,2.36,3.85,2.6.24,0,.6.12,1.08.36.36,2.51,1.67,4.15,3.94,4.93,2.27.78,3.82,2.24,4.66,4.39.6,1.2,1.67,2.27,3.23,3.23,1.55.96,3.11,1.55,4.66,1.79,1.08,0,2.15.27,3.23.81,1.08.54,2.03,1.11,2.87,1.7.24.12.36.27.36.45v.63c-.36.12-.75.27-1.17.45ZM18.91,58.6c-.06-.24-.15-.42-.27-.54,5.61-.36,12.46-.87,20.52-1.52,8.06-.66,12.1-.87,12.1-.63v1.08c-5.38.84-10.75,1.58-16.13,2.24-5.38.66-10.75.75-16.13.27,0-.36-.03-.66-.09-.9Zm28.76-5.11v.63c-2.87.48-5.73.63-8.6.45-2.87-.18-5.62-.69-8.24-1.52h16.85v.45ZM37.81,3.67c.6,1.61.54,3.26-.18,4.93-.72-1.67-1.38-3.16-1.97-4.48-.6-1.31-1.14-2.69-1.61-4.12h.72c1.43.84,2.45,2.06,3.05,3.67Zm33.78,41.22c2.33.18,4.39,1.46,6.18,3.85-2.03-1.43-4.3-1.97-6.81-1.61s-4.66-.54-6.45-2.69c2.39.12,4.75.27,7.08.45Zm-.54,2.24c2.57-.36,4.81.18,6.72,1.61-1.79-2.39-3.88-3.67-6.27-3.85-2.39-.18-4.72-.33-6.99-.45,1.79,2.15,3.97,3.05,6.54,2.69Zm8.51,22.22c2.15,3.11,4.3,6.27,6.45,9.5.24.36.72.6,1.43.72.72.12,1.31.12,1.79,0,2.51-.96,5.08-1.94,7.71-2.96,2.63-1.01,5.2-2.06,7.71-3.14,1.19-.36,1.7-.87,1.52-1.52-.18-.66-.45-1.22-.81-1.7-1.08-1.08-2.24-2.09-3.49-3.05-1.25-.96-2.84-1.25-4.75-.9-.36,0-.78-.09-1.25-.27-.48-.18-.9-.33-1.25-.45-3.58-1.67-7.17-3.34-10.75-5.02-3.58-1.67-7.53-2.51-11.83-2.51.24.12.45.36.63.72.18.36.33.72.45,1.08,2.15,3.23,4.3,6.39,6.45,9.5Zm18.82,28.67c3.7-.24,7.23-1.25,10.57-3.05,2.15-1.08,3.67-2.63,4.57-4.66.9-2.03.81-3.94-.27-5.73-.6-.96-1.29-1.82-2.06-2.6-.78-.78-1.52-1.58-2.24-2.42-2.75,2.15-5.62,3.79-8.6,4.93-2.99,1.14-6.09,1.88-9.32,2.24-1.08.12-2.09.42-3.05.9-.96.48-1.85.9-2.69,1.25.24.12.45.21.63.27.18.06.33.21.45.45-.24.48-.39,1.05-.45,1.7-.06.66-.27,1.29-.63,1.88-.84,1.43-1.14,2.48-.9,3.14.24.66,1.13,1.17,2.69,1.52,3.82.36,7.58.42,11.29.18Zm28.85,6.18c5.61-2.45,11.35-4.57,17.2-6.36-3.23-2.51-6.39-4.96-9.5-7.35-3.11-2.39-6.27-4.72-9.5-6.99-.24.72-.45,1.41-.63,2.06-.18.66-.33,1.29-.45,1.88h-.36c-.36-.96-.66-1.91-.9-2.87-.24-.96-.42-1.67-.54-2.15-.6,2.15-1.02,4.48-1.25,6.99-.24,2.51-.9,4.84-1.97,6.99s-2.57,4.03-4.48,5.64c-1.91,1.61-3.76,3.32-5.55,5.11,6.33.48,12.3-.51,17.92-2.96Zm46.15-55.82c-3.29,1.43-6.6,2.87-9.95,4.3,0-.24-.06-.45-.18-.63-.12-.18-.18-.33-.18-.45,3.23-1.67,6.48-3.32,9.77-4.93,3.28-1.61,6.6-2.96,9.95-4.03.24.36.39.63.45.81.06.18.15.39.27.63-3.47,1.43-6.84,2.87-10.12,4.3Zm-2.15,3.05c1.61-.48,3.2-.9,4.75-1.25,0,.12.06.3.18.54.12.24.18.54.18.9-1.67.36-3.32.78-4.93,1.25-1.61.48-3.2,1.02-4.75,1.61,0-.36-.06-.66-.18-.9-.12-.24-.18-.54-.18-.9,1.67-.36,3.32-.78,4.93-1.25Z"/>
  </g>
</svg>