<?xml version="1.0" encoding="UTF-8"?>
<svg id="Layer_2" data-name="Layer 2" xmlns="http://www.w3.org/2000/svg" viewBox="0 0 183.51 154.5">
  <defs>
    <style>
      .cls-1 {
        stroke-width: 0px;
      }
    </style>
  </defs>
  <g id="Layer_1-2" data-name="Layer 1">
    <path class="cls-1" d="m27.42,57.5c.83-.12,1.85-.18,3.05-.18s2.57.06,4.12.18c1.79.12,2.93.27,3.41.45.48.18.83.57,1.08,1.16.12.6.15,1.29.09,2.06-.06.78-.21,1.34-.45,1.7-.12.12-.36.36-.72.72s-.78.72-1.25,1.08l-1.61,1.25-1.97-.36c-.6-.12-1.32-.21-2.15-.27-.84-.06-1.61-.09-2.33-.09-1.43,0-2.42.09-2.96.27-.54.18-1.34.69-2.42,1.52-.84.72-1.76,1.32-2.78,1.79-1.02.48-2.06.84-3.14,1.08-1.08.24-1.82.39-2.24.45-.42.06-.81-.03-1.16-.27-.48-.24-.78-.48-.9-.72-.12-.24-.18-.6-.18-1.08,0-.83-.24-1.4-.72-1.7-.48-.3-1.5-.57-3.05-.81-2.27-.36-4.24-.87-5.91-1.52-1.67-.66-2.69-1.28-3.05-1.88-.12-.36-.18-.6-.18-.72s.12-.24.36-.36c.24-.36.69-.57,1.34-.63.66-.06,1.58-.03,2.78.09.6.12,1.25.21,1.97.27.72.06,1.31.09,1.79.09.36,0,.81.03,1.34.09.54.06,1.04.09,1.52.09l1.43.18.36,1.43c0,.36.12.9.36,1.61.12.12.3.21.54.27.24.06.48.09.72.09.6,0,1.13-.15,1.61-.45.48-.3,1.43-1.17,2.87-2.6.6-.6,1.19-1.17,1.79-1.7.6-.54,1.08-.87,1.43-.99.48-.24,1.25-.51,2.33-.81,1.08-.3,2.03-.57,2.87-.81Zm-18.1,30.82c.48-.12,1.17-.18,2.06-.18h2.6c2.51.12,4.42.36,5.73.72,1.31.36,2.51,1.08,3.58,2.15.96.96,1.91,1.55,2.87,1.79.96.24,2.33.24,4.12,0,.6,0,1.25-.06,1.97-.18.72-.12,1.31-.18,1.79-.18l1.61-.18,1.43,1.25c.96.72,1.55,1.34,1.79,1.88.24.54.36,1.29.36,2.24-.12,1.2-.63,1.97-1.52,2.33-.9.36-2.96.54-6.18.54-2.03,0-3.4-.03-4.12-.09-.72-.06-1.43-.21-2.15-.45-1.43-.36-2.57-.78-3.41-1.25-.84-.48-1.55-1.08-2.15-1.79-1.32-1.43-2.18-2.33-2.6-2.69-.42-.36-.93-.66-1.52-.9-1.43-.36-3.29-.57-5.56-.63-2.27-.06-4.24.09-5.91.45-.96.24-1.7.33-2.24.27-.54-.06-.99-.21-1.34-.45-.12-.24-.24-.42-.36-.54-.12-.12-.18-.24-.18-.36,0-.6,1.01-1.31,3.05-2.15,2.03-.83,4.12-1.37,6.27-1.61Zm41.04-32.44c.48-.12,1.49-.18,3.05-.18s2.57.06,3.05.18c.48.12.78.27.9.45.12.18.3.69.54,1.52.36,1.32.66,2.24.9,2.78.24.54.48.87.72.99.36,0,.6-.12.72-.36.12-.24.3-1.08.54-2.51.36-1.31.66-2.15.9-2.51.24-.36.72-.54,1.43-.54.24,0,.51.03.81.09.3.06.51.09.63.09.24.24.36.48.36.72s-.06.9-.18,1.97c-.12.6-.27,1.55-.45,2.87-.18,1.32-.39,2.57-.63,3.76-.36,2.27-.54,3.61-.54,4.03s.06.69.18.81c.48.24.83.54,1.08.9.24.36.36.6.36.72s.03.27.09.45c.06.18.15.39.27.63.24.24.57.39.99.45.42.06,1.52.09,3.31.09,1.08,0,2.09-.03,3.05-.09.96-.06,1.55-.09,1.79-.09l.9-.18v-1.25c0-.83-.18-2.12-.54-3.85-.36-1.73-.78-3.79-1.25-6.18-.24-.95-.45-1.91-.63-2.87-.18-.95-.27-1.61-.27-1.97v-1.08h6.99c.83,0,1.31.06,1.43.18.24.12.36.54.36,1.25s-.18,2.51-.54,5.38l-.36,4.48.72,1.25c.48.72.72,1.43.72,2.15s-.24,1.32-.72,1.79c-.48.36-.81.84-.99,1.43-.18.6-.21,1.25-.09,1.97,0,.96.27,1.43.81,1.43s.87-.54.99-1.61c.12-.6.3-1.04.54-1.34.24-.3.48-.45.72-.45.36,0,.6.12.72.36.12.24.18.66.18,1.25,0,.36-.03.66-.09.9-.06.24-.21.48-.45.72-.24.36-.42.63-.54.81-.12.18-.24.57-.36,1.17,0,.24-.09.48-.27.72-.18.24-.45.48-.81.72-.84.48-1.32.93-1.43,1.34-.12.42-.06,1.82.18,4.21.12,2.75.3,5.32.54,7.71.24,2.39.42,3.83.54,4.3.12.12.27.27.45.45s.45.33.81.45c.36.24.66.45.9.63.24.18.36.33.36.45.12.24.33.99.63,2.24.3,1.25.63,2.72.99,4.39.6,2.75,1.13,4.99,1.61,6.72.48,1.73,1.19,4.21,2.15,7.44.48,1.91.66,3.11.54,3.58-.12.48-.84.72-2.15.72-.6,0-1.02-.03-1.25-.09-.24-.06-.48-.21-.72-.45-.48-.36-1.02-1.64-1.61-3.85-.6-2.21-1.38-5.76-2.33-10.66-.24-1.55-.48-2.9-.72-4.03-.24-1.13-.42-1.76-.54-1.88-.12-.24-.27-.39-.45-.45-.18-.06-.51-.09-.99-.09-.36,0-.9-.03-1.61-.09-.72-.06-1.43-.09-2.15-.09l-2.33-.18v-1.25c0-.36.09-1.13.27-2.33.18-1.19.39-2.45.63-3.76.83-4.18,1.34-7.17,1.52-8.96.18-1.79.09-2.81-.27-3.05-.12-.12-.54-.21-1.25-.27-.72-.06-1.73-.15-3.05-.27h-3.94l-.72-.9c-.24-.24-.42-.48-.54-.72-.12-.24-.24-.36-.36-.36,0-.24-.36-.36-1.08-.36s-1.14.12-1.25.36c-.24.24-.36.51-.36.81v1.34c0,1.55.36,4.33,1.08,8.33.72,4,1.31,6.9,1.79,8.69.24.6.36,1.14.36,1.61s-.06.78-.18.9c-.36.24-.81.39-1.34.45-.54.06-1.05-.03-1.52-.27-.48-.12-.81-.42-.99-.9-.18-.48-.45-1.73-.81-3.76-.36-1.91-.75-2.72-1.17-2.42-.42.3-.99,1.88-1.7,4.75-1.08,3.71-1.94,6.42-2.6,8.15-.66,1.73-1.17,2.6-1.52,2.6-.84,0-2.06-2.99-3.67-8.96-1.61-5.97-2.72-11.47-3.32-16.49-.24-2.03-.45-3.41-.63-4.12-.18-.72-.39-1.13-.63-1.25-.24-.12-1.58-.21-4.03-.27-2.45-.06-5.94-.09-10.48-.09-4.18,0-7.56-.03-10.12-.09-2.57-.06-3.92-.09-4.03-.09-.12-.12-.15-.24-.09-.36.06-.12.27-.36.63-.72.83-.72,1.7-1.17,2.6-1.34.9-.18,3.07-.33,6.54-.45,3.58,0,5.79-.09,6.63-.27.83-.18,1.91-.74,3.23-1.7,1.08-.72,1.94-1.19,2.6-1.43.66-.24,1.76-.42,3.32-.54,2.15-.12,3.43-.33,3.85-.63.42-.3.69-1.1.81-2.42.12-1.08.54-3.5,1.25-7.26.72-3.76,1.19-5.82,1.43-6.18,0-.24.09-.42.27-.54.18-.12.33-.24.45-.36Zm12.81-46.59c1.01,0,1.58.06,1.7.18.12.6.24,1.14.36,1.61.24,1.55.48,2.54.72,2.96.24.42.9.93,1.97,1.52,2.15,1.32,3.97,2.96,5.47,4.93,1.49,1.97,1.82,3.2.99,3.67-.6.36-1.94.72-4.03,1.08-2.09.36-3.32.54-3.67.54-.48-.12-.84-.51-1.08-1.17-.24-.66-.36-1.7-.36-3.14-.12-1.55-.33-2.57-.63-3.05-.3-.48-.93-.9-1.88-1.25-.6-.12-1.05-.18-1.34-.18s-.69.06-1.16.18c-1.2.24-2.24.75-3.14,1.52-.9.78-1.41,1.64-1.52,2.6,0,.36.03.63.09.81.06.18.21.45.45.81.24.24.42.51.54.81.12.3.18.51.18.63,0,.48-.18,1.23-.54,2.24-.36,1.02-.78,2-1.25,2.96-.96,1.79-2.03,3.26-3.23,4.39-1.2,1.14-2.69,2.12-4.48,2.96-1.2.6-2.39,1.05-3.58,1.34-1.2.3-2.39.45-3.58.45s-2-.12-2.42-.36c-.42-.24-.81-.72-1.16-1.43-.12-.24-.39-.57-.81-.99-.42-.42-.93-.87-1.52-1.34-.6-.48-1.2-.99-1.79-1.52-.6-.54-1.02-.92-1.25-1.17-.6-.72-1.2-1.67-1.79-2.87-.6-1.19-.9-1.97-.9-2.33s.12-.66.36-.9c.24-.24.6-.36,1.08-.36.36,0,.74.18,1.17.54.42.36,1.34,1.32,2.78,2.87,1.19,1.32,2.69,2.24,4.48,2.78,1.79.54,3.34.51,4.66-.09.6-.36,1.28-.87,2.06-1.52.78-.66,1.34-1.22,1.7-1.7.48-.72.87-1.49,1.17-2.33.3-.83.63-2.27.99-4.3.12-1.08.3-2.09.54-3.05.24-.96.42-1.61.54-1.97.48-1.43,1.19-2.63,2.15-3.58.95-.96,2.27-1.85,3.94-2.69.83-.36,1.49-.6,1.97-.72.48-.12,1.19-.24,2.15-.36h2.96Zm-23.39,104.48c.24-.24.51-.39.81-.45.3-.06.81-.09,1.52-.09,1.08,0,2.18.15,3.32.45,1.13.3,2.12.63,2.96.99.6.48,1.43,1.23,2.51,2.24,1.08,1.02,1.79,1.88,2.15,2.6.36.6.69,1.25.99,1.97.3.72.51,1.38.63,1.97.12.12.15.27.09.45-.06.18-.21.39-.45.63-.12.12-.33.21-.63.27-.3.06-.81.09-1.52.09-1.55,0-2.48-.09-2.78-.27-.3-.18-.75-.87-1.34-2.06-.84-1.55-1.79-2.72-2.87-3.49-1.08-.78-2.33-1.17-3.76-1.17-.72,0-1.2.12-1.43.36s-.42.78-.54,1.61c0,.48-.03.87-.09,1.17-.06.3-.15.51-.27.63,0,.12-.15.27-.45.45-.3.18-.63.39-.99.63-.96.48-1.94,1.14-2.96,1.97-1.02.84-1.76,1.61-2.24,2.33-.6.96-1.17,1.52-1.7,1.7-.54.18-1.05.03-1.52-.45-.36-.24-.54-.45-.54-.63s.12-.57.36-1.17c.6-1.67,1.7-3.32,3.32-4.93s3.25-2.72,4.93-3.32c.36-.12.72-.27,1.08-.45.36-.18.54-.33.54-.45.12-.12.21-.33.27-.63.06-.3.09-.63.09-.99,0-.6.03-1.01.09-1.25.06-.24.21-.48.45-.72Zm-.18-58.06c.24-.36.51-.54.81-.54s.45.18.45.54-.15.72-.45,1.08c-.3.36-.57.48-.81.36-.24-.12-.36-.3-.36-.54s.12-.54.36-.9Zm12.72-14.7c.24.12.6.87,1.08,2.24.48,1.38.96,2.78,1.43,4.21.36,1.67.42,2.63.18,2.87-.24.24-1.25.36-3.05.36-1.91,0-2.96-.21-3.14-.63-.18-.42.09-1.82.81-4.21.36-1.19.69-2.15.99-2.87.3-.72.63-1.25.99-1.61.12-.12.36-.24.72-.36Zm5.56,34.59c-.12-.12-.42,0-.9.36l-.72.9-3.05.18c-1.91,0-3.08.12-3.5.36-.42.24-.63.72-.63,1.43l.18.72h7.44c.42,0,.69-.18.81-.54.24-.12.39-.33.45-.63.06-.3.09-.69.09-1.16,0-.96-.06-1.49-.18-1.61Zm-8.6,56.99v-2.69l5.73.18.54,1.61c.24,1.08.48,1.85.72,2.33.24.48.66.96,1.25,1.43.83.84,1.64,1.34,2.42,1.52.78.18,1.82.15,3.14-.09,1.08-.12,1.76-.15,2.06-.09.3.06.45.27.45.63,0,.6.27,1.02.81,1.25.54.24,1.82.54,3.85.9,1.91.36,3.2.66,3.85.9.66.24.99.54.99.9,0,.12-.09.36-.27.72-.18.36-.39.78-.63,1.25-.6,1.32-1.76,2.69-3.49,4.12-1.73,1.43-3.08,2.15-4.03,2.15-.36,0-.63-.15-.81-.45-.18-.3-.33-1.04-.45-2.24v-1.79h-2.69c-1.67-.12-3.17-.39-4.48-.81-1.32-.42-2.63-1.04-3.94-1.88-1.55-1.08-2.72-2.39-3.5-3.94-.78-1.55-1.29-3.52-1.52-5.91Zm7.71-48.92c-.24-.12-.6-.21-1.08-.27-.48-.06-1.25-.09-2.33-.09-.72-.12-1.41-.15-2.06-.09-.66.06-1.11.15-1.34.27-.24.12-.36.27-.36.45v2.24c0,.72.06,1.43.18,2.15.12.72.24,1.32.36,1.79.24.36.42.84.54,1.43.12.6.18,1.08.18,1.43.24.96.6,2.06,1.08,3.32.48,1.25.9,2.06,1.25,2.42l.36.54.36-.54c.72-1.31,1.43-3.32,2.15-6s1.13-4.87,1.25-6.54l.18-1.97-.72-.54Zm-2.15-22.4c-.48-1.08-.84-1.73-1.08-1.97-.24-.24-.54-.12-.9.36-.24.36-.66,1.5-1.25,3.41-.6,1.91-1.02,3.65-1.25,5.2-.48,2.39-.63,3.83-.45,4.3.18.48,1.17.66,2.96.54.72,0,1.34-.03,1.88-.09.54-.06.99-.15,1.34-.27l.9-.36-.18-2.51c-.12-1.31-.33-2.63-.63-3.94-.3-1.31-.75-2.87-1.34-4.66Zm8.78-32.26c.24-.36.48-.63.72-.81.24-.18.36-.21.36-.09.36.36,1.28,2.78,2.78,7.26,1.49,4.48,2.66,8.27,3.49,11.38.24,1.08.48,2,.72,2.78.24.78.42,1.23.54,1.34.24.36-.42.6-1.97.72-1.55.12-2.45,0-2.69-.36-.12-.12-.27-.45-.45-.99-.18-.54-.39-1.1-.63-1.7-.36-1.19-.75-2.21-1.17-3.05-.42-.83-.75-1.25-.99-1.25-.12,0-.24.27-.36.81-.12.54-.18,1.34-.18,2.42,0,.48-.03.9-.09,1.25-.06.36-.15.66-.27.9-.24.48-.45.75-.63.81-.18.06-.57.09-1.16.09h-1.25l.18-2.87c.12-5.26.42-9.35.9-12.28.48-2.93,1.19-5.05,2.15-6.36Zm.54,45.88c-.36-.36-.63-.57-.81-.63-.18-.06-.39.09-.63.45-.12.12-.21.27-.27.45-.06.18-.09.45-.09.81.12.36.21.57.27.63.06.06.39.09.99.09.48,0,.75-.03.81-.09s.15-.27.27-.63c0-.12-.03-.3-.09-.54-.06-.24-.21-.42-.45-.54Zm8.06,33.33c.24-.12.48-.18.72-.18h1.43l1.25.18-.18,1.61c-.12.84-.33,1.88-.63,3.14-.3,1.25-.81,3.14-1.52,5.65-.6,1.79-1.29,3.94-2.06,6.45-.78,2.51-1.29,3.94-1.52,4.3-.12.24-.3.33-.54.27-.24-.06-.54-.27-.9-.63-.84-1.31-1.97-4.33-3.4-9.05-1.43-4.72-2.21-8.15-2.33-10.3l-.18-1.43h3.76l.54,1.43c.48,1.2.92,2.24,1.34,3.14.42.9.69,1.41.81,1.52.24.12.51-.06.81-.54.3-.48.57-1.13.81-1.97.36-.96.69-1.76.99-2.42.3-.66.57-1.04.81-1.17Zm2.51-30.82c-.48-.12-1.46-.21-2.96-.27-1.5-.06-2.72-.03-3.67.09-.96.12-1.61.27-1.97.45-.36.18-.54.51-.54.99s.3.78.9.9c.6.12,1.97.18,4.12.18s3.49-.09,4.03-.27c.54-.18.81-.57.81-1.16,0-.24-.03-.42-.09-.54-.06-.12-.27-.24-.63-.36ZM90.68.69c.6-1.08,1.28-.9,2.06.54.78,1.43,2.06,4.84,3.85,10.21,1.91,5.74,3.02,9.32,3.31,10.75.3,1.43.15,2.39-.45,2.87-.36.36-.54.66-.54.9s.18,1.08.54,2.51c.12.6.33,1.5.63,2.69.3,1.2.57,2.39.81,3.58.6,2.99,1.1,5.41,1.52,7.26.42,1.85.74,2.9.99,3.14.24.24.72.39,1.43.45.72.06,1.19-.03,1.43-.27.36-.12.72-.66,1.08-1.61.36-.96.96-2.75,1.79-5.38,1.31-4.18,2.24-6.9,2.78-8.15.54-1.25,1.04-1.88,1.52-1.88.24,0,.54.39.9,1.17.36.78.9,2.12,1.61,4.03l.72,2.15v6.45c0,1.79-.03,3.32-.09,4.57-.06,1.25-.09,1.94-.09,2.06-.12.12-.39-.06-.81-.54-.42-.48-.69-1.01-.81-1.61-.24-.72-.54-1.31-.9-1.79-.36-.48-.66-.66-.9-.54-.48.12-1.11,1.5-1.88,4.12-.78,2.63-1.41,5.5-1.88,8.6-.36,1.91-.6,3.35-.72,4.3-.12.96-.18,2.15-.18,3.58v3.23l1.79.18c.6.12,1.08.24,1.43.36.36.12.6.18.72.18.24.24.36.75.36,1.52s-.06,1.23-.18,1.34c-.24.24-1.14.39-2.69.45-1.55.06-2.75.03-3.58-.09-.36,0-.63-.06-.81-.18-.18-.12-.33-.3-.45-.54-.12-.48-.3-1.55-.54-3.23-.24-1.67-.48-3.88-.72-6.63-.48-4.66-.84-7.44-1.08-8.33-.24-.9-.66-1.34-1.25-1.34-.72,0-1.29-.48-1.7-1.43-.42-.96-1.11-3.58-2.06-7.89-.36-1.43-.81-3.16-1.34-5.2-.54-2.03-1.05-3.76-1.52-5.2-.84-2.87-1.34-4.81-1.52-5.82-.18-1.01-.09-1.7.27-2.06.12-.12.24-.3.36-.54.12-.24.18-.48.18-.72,0-.72-.36-1.82-1.08-3.32-.72-1.49-1.2-2.24-1.43-2.24-.12,0-.3.18-.54.54-.24.36-.48.84-.72,1.43-1.08,2.51-1.79,3.97-2.15,4.39-.36.42-.9.81-1.61,1.16-.72.24-1.2.45-1.43.63-.24.18-.48.51-.72.99-.36.84-1.2,3.74-2.51,8.69-1.32,4.96-2.21,8.93-2.69,11.92-.12.6-.27,1.23-.45,1.88-.18.66-.33,1.11-.45,1.34-.24.48-.6.84-1.08,1.08-.48.24-1.14.36-1.97.36-.6,0-1.17-.09-1.7-.27-.54-.18-.81-.33-.81-.45.24-.36.42-.66.54-.9.24-.36.45-.9.63-1.61.18-.72.57-2.45,1.17-5.2.6-2.99,1.28-6.3,2.06-9.95.78-3.64,1.28-5.82,1.52-6.54.24-.96.57-1.61.99-1.97.42-.36,1.04-.6,1.88-.72l1.43-.18.54-1.97c.48-1.67,1.73-5.55,3.76-11.65,2.03-6.09,3.16-9.32,3.41-9.68Zm-5.73,129.03c.36,0,.69-.03.99-.09.3-.06.51-.09.63-.09.36,0,.78.09,1.25.27.48.18.83.39,1.08.63.12.12.27.48.45,1.08.18.6.39,1.25.63,1.97.48,1.2.83,2.06,1.08,2.6.24.54.48.81.72.81s.57-.39.99-1.17c.42-.78.87-1.76,1.34-2.96.6-1.55,1.04-2.45,1.34-2.69.3-.24,1.17-.36,2.6-.36h1.97v1.25c0,.96-.36,2.66-1.08,5.11-.72,2.45-1.91,6.12-3.58,11.02-1.32,3.47-2.27,5.68-2.87,6.63-.6.96-1.08,1.02-1.43.18-.24-.6-.96-2.66-2.15-6.18-1.2-3.52-2.21-6.42-3.05-8.69-.84-2.87-1.41-4.84-1.7-5.91-.3-1.08-.45-1.91-.45-2.51.12-.36.24-.57.36-.63.12-.06.42-.15.9-.27Zm42.47-74.19c.48-.24,1.31-.36,2.51-.36s2.03.12,2.51.36c.36.12.63.27.81.45.18.18.33.51.45.99.36.72.78,1.97,1.25,3.76.48,1.79.9,3.7,1.25,5.73.12.84.27,1.61.45,2.33.18.72.27,1.14.27,1.25.24.48.6.78,1.08.9.48.12,1.49.24,3.05.36,1.31,0,2.24.06,2.78.18.54.12.99.24,1.34.36.6.36,1.22.78,1.88,1.25.66.48.99.84.99,1.08,0,.12-.42.24-1.25.36-.84.12-2.39.24-4.66.36-1.2.12-2.63.24-4.3.36-.24.12-.3.36-.18.72.12.36.3.6.54.72h1.88c1.13,0,2.42.06,3.85.18h5.82c2.45,0,4.63.06,6.54.18,3.23,0,5.25.03,6.09.09.83.06,1.49.21,1.97.45.72.36,1.34.81,1.88,1.34.54.54.75.87.63.99-.12,0-1.41.03-3.85.09-2.45.06-5.35.15-8.69.27-6.09.12-10.33.24-12.72.36-2.39.12-3.71.24-3.94.36,0,.12-.06.48-.18,1.08-.12.6-.24,1.32-.36,2.15-.6,4.66-1.11,8.15-1.52,10.48-.42,2.33-1.16,5.23-2.24,8.69-.72,2.51-1.29,4.39-1.7,5.64-.42,1.25-.75,2-.99,2.24,0,.12-.06.21-.18.27-.12.06-.24.09-.36.09-.48,0-.96-.69-1.43-2.06-.48-1.37-1.32-4.15-2.51-8.33-.72-2.75-1.2-4.45-1.43-5.11-.24-.66-.42-.99-.54-.99-.24.12-.72,1.76-1.43,4.93-.72,3.17-1.55,7.14-2.51,11.92-.24,1.2-.63,2.63-1.17,4.3-.54,1.67-.99,2.87-1.34,3.58-.24.36-.42.6-.54.72-.12.12-.24.12-.36,0-.36-.12-.87-.99-1.52-2.6-.66-1.61-1.46-3.85-2.42-6.72-.6-1.79-1.14-3.37-1.61-4.75-.48-1.37-.78-2.18-.9-2.42-.24-.48-.42-.75-.54-.81-.12-.06-.36-.09-.72-.09-.84,0-1.41.39-1.7,1.17-.3.78-.87,3.2-1.7,7.26-.84,3.71-1.5,6.51-1.97,8.42-.48,1.91-.78,3.17-.9,3.76-.12.24-.27.42-.45.54-.18.12-.45.24-.81.36-.48.12-1.14.18-1.97.18s-1.38-.06-1.61-.18c-.24-.12-.3-.54-.18-1.25.12-.72.48-2.03,1.08-3.94,1.08-3.58,1.91-6.78,2.51-9.59.6-2.81.96-5.58,1.08-8.33.12-1.08.24-2.45.36-4.12.12-1.67.24-3.16.36-4.48.12-1.31.24-2.75.36-4.3.12-1.55.18-2.87.18-3.94,0-1.67-.03-2.69-.09-3.05-.06-.36-.21-.66-.45-.9-.12-.12-.3-.24-.54-.36-.24-.12-.48-.3-.72-.54-.12-.12-.24-.3-.36-.54-.12-.24-.24-.42-.36-.54,0-.24-.09-.54-.27-.9-.18-.36-.39-.72-.63-1.08-.48-.72-.75-1.34-.81-1.88-.06-.54.09-.99.45-1.34.24-.12.48-.21.72-.27.24-.06.72-.09,1.43-.09.48,0,.92.03,1.34.09.42.06.69.09.81.09,0,.12.06.33.18.63.12.3.24.63.36.99.12.36.21.69.27.99.06.3.15.45.27.45.12.12.48.18,1.08.18h2.87c1.43,0,2.42-.03,2.96-.09.54-.06.92-.21,1.17-.45.36-.12.72-.21,1.08-.27.36-.06.9-.09,1.61-.09,1.08,0,1.79-.09,2.15-.27.36-.18.72-.69,1.08-1.52.12-.12.3-.33.54-.63.24-.3.48-.51.72-.63l.72-.72-.18-1.61c-.12-.48-.3-1.43-.54-2.87-.24-1.43-.54-2.93-.9-4.48-.36-1.55-.63-2.96-.81-4.21-.18-1.25-.27-2-.27-2.24,0-.36.12-.6.36-.72.24-.12.78-.18,1.61-.18s1.34.12,1.52.36c.18.24.51,1.38.99,3.4.12.84.27,1.55.45,2.15.18.6.27.96.27,1.08.12.12.33-.09.63-.63.3-.54.57-1.4.81-2.6.36-1.31.69-2.24.99-2.78.3-.54.69-.92,1.17-1.17Zm-11.2,24.82c-2.81-.06-4.75-.03-5.82.09-1.08.12-1.7.36-1.88.72-.18.36-.21,1.32-.09,2.87,0,2.03.33,4.72.99,8.06.66,3.35,1.17,5.32,1.52,5.91.12.12.3.27.54.45.24.18.48.27.72.27.72.24,1.25.57,1.61.99.36.42.83,1.34,1.43,2.78.48,1.08.83,1.79,1.08,2.15.24.36.42.54.54.54.36,0,.63-.27.81-.81.18-.54.51-1.7.99-3.49,1.19-5.02,2.03-9.56,2.51-13.62.48-4.06.42-6.27-.18-6.63-.36-.12-1.94-.21-4.75-.27Zm-.99-69.98c.96-.48,1.61-.63,1.97-.45.36.18.66.87.9,2.06,0,.24.06.54.18.9.12.36.24.6.36.72.24.24.54.39.9.45.36.06,1.19.15,2.51.27,1.31.12,2.21.21,2.69.27.48.06,1.13.33,1.97.81,1.19.48,2.24,1.11,3.14,1.88.9.78,1.64,1.52,2.24,2.24.24.36.57.99.99,1.88.42.9.87,1.82,1.34,2.78.36.96.74,1.85,1.16,2.69.42.84.69,1.38.81,1.61.48.84,1.17,1.52,2.06,2.06.9.54,1.94.99,3.14,1.34.6.12,1.37.09,2.33-.09.95-.18,1.97-.57,3.05-1.16.83-.36,1.52-.81,2.06-1.34.54-.54,1.17-1.28,1.88-2.24.48-.96.9-1.55,1.25-1.79.36-.24.78-.3,1.25-.18.83.12,1.28.48,1.34,1.08.06.6-.21,1.5-.81,2.69-1.2,2.51-3.11,4.48-5.73,5.91-2.63,1.43-5.26,2.03-7.89,1.79-1.79-.24-3.38-.74-4.75-1.52-1.37-.78-3.02-2.12-4.93-4.03-.84-.83-1.46-1.49-1.88-1.97-.42-.48-.63-.83-.63-1.08-.36-1.31-.93-2.48-1.7-3.49-.78-1.01-1.7-1.7-2.78-2.06-.48-.24-.84-.36-1.08-.36s-.72.06-1.43.18c-1.2.36-2.03.48-2.51.36-.48-.12-.72-.6-.72-1.43,0-.36-.24-.6-.72-.72-.48-.12-1.85-.36-4.12-.72-1.55-.24-2.66-.48-3.32-.72-.66-.24-.99-.54-.99-.9s.27-1.08.81-2.15c.54-1.08,1.04-1.85,1.52-2.33.36-.48.92-1.01,1.7-1.61.78-.6,1.58-1.13,2.42-1.61Zm-1.43,123.65c.12,0,.39-.03.81-.09.42-.06.87-.09,1.34-.09,1.08,0,1.73.18,1.97.54.24.36.42,1.43.54,3.23,0,.96.03,1.67.09,2.15.06.48.15.84.27,1.08.36.48.9.87,1.61,1.17.72.3,1.43.45,2.15.45,1.19,0,2.21-.33,3.05-.99.83-.66,1.55-1.76,2.15-3.32.24-.48.48-.96.72-1.43.24-.48.48-.83.72-1.08.24-.36.48-.57.72-.63.24-.06.9-.09,1.97-.09,1.31,0,2.15.12,2.51.36.36.24.54.78.54,1.61,0,1.67-.39,3.4-1.17,5.2-.78,1.79-1.7,3.23-2.78,4.3-.72.72-1.61,1.37-2.69,1.97-1.08.6-2.09,1.02-3.05,1.25-1.55.36-2.99.51-4.3.45-1.32-.06-2.09-.33-2.33-.81,0-.12-.03-.39-.09-.81-.06-.42-.09-.92-.09-1.52l-.18-1.97-1.43-.72c-1.91-.95-3.41-1.91-4.48-2.87-1.08-.95-1.91-2.03-2.51-3.23-.72-1.43-.84-2.36-.36-2.78.48-.42,1.91-.87,4.3-1.34Zm7.17-95.16l.36-.18c.24,0,.6.75,1.08,2.24.48,1.5,1.01,3.38,1.61,5.65.36,1.55.54,2.54.54,2.96s-.18.69-.54.81c-.48.24-1.05.3-1.7.18-.66-.12-1.11-.3-1.34-.54-.24-.36-.36-2.18-.36-5.46s.12-5.17.36-5.65Zm12.54,36.38c-.6-.24-1.25-.39-1.97-.45-.72-.06-1.2-.03-1.43.09-.12.12-.33.27-.63.45-.3.18-.57.39-.81.63-.24.24-.54.45-.9.63-.36.18-.66.27-.9.27-.36.12-.69.3-.99.54-.3.24-.33.48-.09.72.12.12.69.21,1.7.27,1.01.06,2.24.09,3.67.09l3.23-.18v-.9c.12-.72.12-1.22,0-1.52-.12-.3-.42-.51-.9-.63Zm-.54,6.99c-.36-.12-.9-.18-1.61-.18h-2.15c-1.67,0-2.66.12-2.96.36-.3.24-.33,1.08-.09,2.51.36,3.11.99,6.27,1.88,9.5.9,3.23,1.58,4.84,2.06,4.84.36-.72.66-1.37.9-1.97.83-2.15,1.49-4.24,1.97-6.27.48-2.03.78-4.06.9-6.09l.18-2.51-1.08-.18Zm-3.14-23.57c-.18-.06-.39.15-.63.63-.48.96-1.08,2.87-1.79,5.73s-1.08,4.84-1.08,5.91c0,.6.03,1.02.09,1.25.06.24.21.42.45.54.24.12.45.21.63.27.18.06.33.03.45-.09.12-.12.24-.21.36-.27.12-.06.18-.15.18-.27,0-.24.24-.45.72-.63.48-.18,1.13-.39,1.97-.63.83-.12,1.43-.3,1.79-.54.36-.24.54-.6.54-1.08,0-.6-.39-2.21-1.17-4.84-.78-2.63-1.41-4.36-1.88-5.2-.24-.48-.45-.74-.63-.81Zm10.3,58.87c1.91-.24,3.82-.09,5.73.45,1.91.54,3.52,1.41,4.84,2.6,1.08.84,2.03,1.94,2.87,3.32.83,1.38,1.25,2.42,1.25,3.14,0,.48-.15.87-.45,1.17-.3.3-.69.45-1.17.45-.36,0-.63-.09-.81-.27s-.45-.51-.81-.99c-.36-.6-1.14-1.43-2.33-2.51-1.2-1.08-2.15-1.79-2.87-2.15-.48-.24-.96-.42-1.43-.54-.48-.12-1.08-.18-1.79-.18-.84-.12-1.43-.15-1.79-.09-.36.06-.84.27-1.43.63-1.08.48-2.12,1.32-3.14,2.51-1.02,1.2-1.52,2.15-1.52,2.87,0,.12-.06.27-.18.45-.12.18-.24.27-.36.27-.36.24-1.05.42-2.06.54-1.02.12-1.88.12-2.6,0-.36-.12-.6-.24-.72-.36-.12-.12-.18-.42-.18-.9-.12-.83.18-1.88.9-3.14.72-1.25,1.61-2.42,2.69-3.5,1.08-1.19,2.15-2.06,3.23-2.6,1.08-.54,2.45-.92,4.12-1.17Zm-6.9-76.34c.42.12.81.48,1.17,1.08.24.48.66,1.67,1.25,3.58.6,1.91.9,3.11.9,3.58,0,.36-.06.57-.18.63-.12.06-.3.15-.54.27h-5.91v-1.08c0-.6.33-1.88.99-3.85.66-1.97,1.1-3.2,1.34-3.67.24-.48.57-.66.99-.54Zm31.9,46.59c.66,0,1.1.06,1.34.18.24.12.42.42.54.9.12.48.18.96.18,1.43,0,.6-.21,1.14-.63,1.61-.42.48-1.05.84-1.88,1.08-.96.48-1.61.87-1.97,1.17-.36.3-.84.87-1.43,1.7-.48.84-1.05,1.46-1.7,1.88-.66.42-1.64.87-2.96,1.34-1.2.48-2.45.78-3.76.9-1.32.12-3.05.18-5.2.18-2.87,0-4.66-.15-5.38-.45-.72-.3-1.14-1.17-1.25-2.6v-1.79l1.25-1.08c.36-.36.72-.69,1.08-.99.36-.3.66-.51.9-.63.48-.12,1.19-.21,2.15-.27.95-.06,2.03.03,3.23.27,1.79.24,3.19.24,4.21,0,1.01-.24,2.12-.9,3.32-1.97,1.08-.83,2.03-1.43,2.87-1.79.83-.36,1.79-.66,2.87-.9.83-.12,1.58-.18,2.24-.18Zm-18.01-34.59c.48-.12,1.13-.18,1.97-.18h3.41c3.58.12,6.3.54,8.15,1.25,1.85.72,3.5,2.03,4.93,3.94.48.6.9,1.02,1.25,1.25.36.24,1.01.48,1.97.72l1.43.36.18,1.79c0,1.2-.06,2.03-.18,2.51-.12.48-.36.72-.72.72-.12.12-.45.15-.99.09-.54-.06-1.11-.09-1.7-.09-1.32-.24-2.45-.57-3.4-.99-.96-.42-2.03-1.16-3.23-2.24l-1.61-1.61h-2.33c-.72,0-1.55.03-2.51.09-.96.06-1.73.09-2.33.09-.72.12-1.38.18-1.97.18h-1.08c-.6-.12-1.73-.92-3.4-2.42-1.67-1.49-2.51-2.42-2.51-2.78,0-.48.45-.96,1.34-1.43.9-.48,2-.9,3.32-1.25Zm24.01,34.59c.12-.12.27-.18.45-.18h.63c.12,0,.33.03.63.09.3.06.63.15.99.27,1.91.24,3.91.72,6,1.43,2.09.72,3.25,1.32,3.49,1.79.24.36.24.75,0,1.17-.24.42-.54.69-.9.81-.24.12-.54.18-.9.18s-1.02-.12-1.97-.36c-.6-.24-1.38-.42-2.33-.54-.96-.12-1.85-.18-2.69-.18-1.67-.12-2.72-.21-3.14-.27-.42-.06-.69-.27-.81-.63-.12-.36-.09-.99.09-1.88.18-.9.33-1.46.45-1.7Zm11.65-32.71c.72.66.78,1.29.18,1.88-.72.84-2.45,1.61-5.2,2.33-2.75.72-4.84,1.02-6.27.9h-.9v-1.97c0-.6.03-1.08.09-1.43.06-.36.09-.6.09-.72.12-.12.51-.21,1.16-.27.66-.06,1.52-.09,2.6-.09,1.67-.12,3.02-.27,4.03-.45,1.01-.18,1.64-.33,1.88-.45.83-.48,1.61-.39,2.33.27Z"/>
  </g>
</svg>