<?xml version="1.0" encoding="UTF-8"?>
<svg id="Layer_2" data-name="Layer 2" xmlns="http://www.w3.org/2000/svg" viewBox="0 0 300 271.09">
  <defs>
    <style>
      .cls-1 {
        fill-rule: evenodd;
        stroke-width: 0px;
      }
    </style>
  </defs>
  <g id="Layer_1-2" data-name="Layer 1">
    <path class="cls-1" d="M0,139.06l19.07,16.91c1.44-3.88,2.43-8.83,3.03-14.94l-1.9-1.96,2.15-2.22c.26-5.83.28-11.78-.13-17.48L0,139.06h0ZM42.86,135.21c3.06-10.48,3.27-21.61-2.44-28.76-7.69-7.29-11.7-5.39-12.34,4.95,1.55,43.22-4.02,60.95-15.8,56.4,10.25,8.67,19.51,2.26,25.9-47.12,2.5.63,4.07,5.45,4.68,14.52h0ZM53.1,122.94l-4.36,16.12,2.6,9.61c2.3-8.38,2.68-16.97,1.76-25.72M37.5,156.95c-1.41,4.43-3.08,8.07-5,10.92l7.92,7.02,7.69-15.57-1.57-5.68-6.12,6.33-2.92-3.02h0ZM0,85.52c7.85-20.18,19.47-23.23,38.88-3.71,11.89,13.31,19.57,27.61,20.58,43.45.73,22.42-5.28,42.77-17.78,61.12-7.23,12.65-6.06,24.2,3.3,34.66,19.95,18.23,32.41,8.07,41.49-14.92-11.57,12.54-23.45,18.98-36.34,5.06-3.26-4.09-3.74-10.46.36-20.61,5.06-8.21,9.4-16.91,12.74-26.31,6.73-16.35,8.43-33.04,3.65-50.17-8.81-30.87-23.83-44.75-41.2-52.2C8.83,55.65,2.4,67.15,0,85.52h0ZM62.59,87.9c2.79,5.28,5.32,11.14,7.65,17.47l5.88-25.34,13.68,59.03-13.68,59.03-7.33-31.62c-2.32,6.29-4.93,12.17-7.84,17.66l7.66,28.31c4.91-2.3,9.47-5.73,13.59-10.54l3.71,2.12,14.86-54.91-3.61-10.05,3.6-10.12-24.63-91.03-13.52,49.98h0ZM131.39,117.37l5.3-16.31,12.85-8.63,13.43,8.92,5.17,16.85-18.61-14.23-18.16,13.4h0ZM131.39,160.88l5.3,16.31,12.85,8.63,13.43-8.92,5.17-16.85-18.61,14.23-18.16-13.4h0ZM77.21,111.15l6.54,27.91-6.53,27.71c-1.26-5.85-2.26-12.49-2.84-20.43,1.34-7.63,1.66-15.44.79-23.43l2.03-11.76h0ZM63.26,41.56c.25-13.71-.04-27.55,39.04-32.05-1.2,14.64-6.56,26.5-14.31,36.77,7.19,4.05,20.29-1.16,40.45-17.42-7.4,3.69-15.24,6.05-23.59,6.86l6.04-21.49C112.4,2.03,108.05.03,102.47.15c-38.74,4.79-43.47,21.52-39.22,41.41h0ZM92.32,74.73l4.37,15.29c7.95-13.87,17.3-23.93,28.27-29.59l5.86-17.22c-14.95,5.3-27.81,15.73-38.49,31.52h0ZM96.52,187.79l-4.2,15.61c12.75,18.51,25.65,27.91,38.49,31.52l-5.88-17.23c-11.51-6.22-20.93-16.3-28.42-29.9h0ZM95.72,223.06c-5.24,2.79-10.21,5.9-14.63,9.64-3.81,3.09-3.42,6.88-.52,11.11,5.67,7.41,10.12,15.63,13.32,24.68.85-7.67-1-17.34-5.05-28.64,1.05-6.13,3.51-11.65,6.89-16.79ZM114.02,260.91c-1.09-5.41-4.13-10.8-8.54-16.19,4.56-5.06,10.25-6.36,17.17-3.52-4.4-5.64-10.97-8.17-21.46-5.06-5.22,2.61-6.09,6.25-2.31,10.99,4.7,5.58,9.67,10.39,15.14,13.78h0ZM132.78,255.27c.43-2.96.46-6.12.08-9.5-.85-6.36-11.36-2.54-7.52,3.13,2.07,3.06,4.93,4.79,7.44,6.37ZM150,7.03l-46.52,132.03,46.52,132.03,46.52-132.03L150,7.03ZM150,40l-31.82,99.06,31.82,99.06,30.91-99.06-30.91-99.06h0ZM300,138.92l-19.07,16.91c-1.44-3.88-2.43-8.83-3.03-14.94l1.9-1.96-2.15-2.22c-.26-5.83-.28-11.78.13-17.48l22.23,19.7h0ZM257.14,135.07c-3.06-10.48-3.27-21.61,2.44-28.76,7.69-7.29,11.7-5.39,12.34,4.95-1.55,43.22,4.02,60.95,15.8,56.4-10.25,8.67-19.51,2.26-25.9-47.12-2.5.63-4.07,5.45-4.68,14.52h0ZM246.9,122.8l4.36,16.12-2.6,9.61c-2.3-8.38-2.68-16.97-1.76-25.72M262.5,156.81c1.41,4.43,3.08,8.07,5,10.92l-7.92,7.02-7.69-15.57,1.57-5.68,6.12,6.33,2.92-3.02h0ZM300,85.38c-7.85-20.18-19.47-23.23-38.88-3.71-11.89,13.31-19.57,27.61-20.58,43.45-.73,22.42,5.28,42.77,17.78,61.12,7.23,12.65,6.06,24.2-3.3,34.66-19.95,18.23-32.41,8.07-41.49-14.92,11.57,12.54,23.45,18.98,36.34,5.06,3.26-4.09,3.74-10.46-.36-20.61-5.06-8.21-9.4-16.91-12.74-26.31-6.73-16.35-8.43-33.04-3.65-50.17,8.81-30.87,23.83-44.75,41.2-52.2,16.84-6.24,23.27,5.26,25.67,23.63h0ZM237.41,87.76c-2.79,5.28-5.32,11.14-7.65,17.47l-5.88-25.34-13.68,59.03,13.68,59.03,7.33-31.62c2.32,6.29,4.93,12.17,7.84,17.66l-7.66,28.31c-4.91-2.3-9.47-5.73-13.59-10.54l-3.71,2.12-14.86-54.91,3.61-10.05-3.6-10.12,24.63-91.03,13.52,49.98h0ZM222.79,111.01l-6.54,27.91,6.53,27.71c1.26-5.85,2.26-12.49,2.84-20.43-1.34-7.63-1.66-15.44-.79-23.43l-2.03-11.76ZM236.74,41.42c-.25-13.71.04-27.55-39.04-32.05,1.2,14.64,6.56,26.5,14.31,36.77-7.19,4.05-20.29-1.16-40.45-17.42,7.4,3.69,15.24,6.05,23.59,6.86l-6.04-21.49C187.6,1.89,191.95-.11,197.53,0c38.74,4.79,43.47,21.52,39.22,41.41ZM207.68,74.59l-4.37,15.29c-7.95-13.87-17.3-23.93-28.27-29.59l-5.86-17.22c14.95,5.3,27.81,15.73,38.49,31.52h0ZM203.48,187.65l4.2,15.61c-12.75,18.51-25.65,27.91-38.49,31.52l5.88-17.23c11.51-6.22,20.93-16.3,28.42-29.9h0ZM204.28,222.92c5.24,2.79,10.21,5.9,14.63,9.64,3.81,3.09,3.42,6.88.52,11.11-5.67,7.41-10.12,15.63-13.32,24.68-.85-7.67,1-17.34,5.05-28.64-1.05-6.13-3.51-11.65-6.89-16.79h0ZM185.98,260.77c1.09-5.41,4.13-10.8,8.54-16.19-4.56-5.06-10.25-6.36-17.17-3.52,4.4-5.64,10.97-8.17,21.46-5.06,5.22,2.61,6.09,6.25,2.31,10.99-4.7,5.58-9.67,10.39-15.14,13.78h0ZM167.22,255.13c-.43-2.96-.46-6.12-.08-9.5.85-6.36,11.36-2.54,7.52,3.13-2.07,3.06-4.93,4.79-7.44,6.37Z"/>
  </g>
</svg>