<?xml version="1.0" encoding="UTF-8"?>
<svg id="Layer_2" data-name="Layer 2" xmlns="http://www.w3.org/2000/svg" viewBox="0 0 269.41 300">
  <defs>
    <style>
      .cls-1 {
        fill: #194c9b;
        stroke-width: 0px;
      }
    </style>
  </defs>
  <g id="Layer_1-2" data-name="Layer 1">
    <path class="cls-1" d="M60.49,1.11c-24.02.62-42.17,25.34-39.23,54.93C27.7,33.31,42.25,15.6,60.49,1.11M54.43,27.1c11.76-9.63,25.6-16.26,39.41-20.32,5.46-1.77,10.97-3.18,16.49-4.21-23.02-8.95-47.68,6.71-60.88,28.39,1.64-1.33,3.3-2.61,4.98-3.86M117.06,52.05c39.12-17.95,60.94-21.57,74.16-22.41,1.59-.13,3.17-.22,4.72-.28,2.08-.08,4.12-.09,6.13-.04-19.33-11.9-41.65-18.78-64.67-18.78-.53,0-1.05.01-1.58.02-.53,0-1.05-.02-1.58-.02-42.49,0-82.62,23.4-105.87,58.68,14.66,8.3,46.42,2.24,88.69-17.16M177.72,245.54c-7.16-9.18-16.84-20.49-28.18-26.52-.49-.26-.99-.51-1.48-.75,1.48,3.48,2.98,6.73,4.47,9.75-1.13,1.02-5.22,4.55-11.56,6.19-.42-3.34-3.27-5.93-6.72-5.93s-6.3,2.59-6.72,5.93c-6.31-1.63-10.39-5.13-11.56-6.19,1.77-3.71,3.55-7.73,5.28-12.07-2.39.67-4.81,1.57-7.28,2.69l-7.22,3.28,2.79-7.43c7.19-19.17,10.19-35.5,8.92-48.56-.56-5.79-1.93-10.94-4.13-15.46-.12,20.99-17.23,38.02-38.25,38.02s-38.25-17.16-38.25-38.25c0-10.06,3.9-19.22,10.27-26.05-13.68-2.38-27.22-6.41-37-15.38-2.19,9.08-3.36,18.54-3.36,28.25,0,22.29,5.78,43.23,15.91,61.42,1.68-.31,3.42-.31,5.18-.49,20.18-2.12,34.79,17.31,30.55,30.61-1.46,4.57-2.87,7.57-4.94,11.55,1.58,4.85,3.57,9.5,5.93,13.93,1.24-.52,2.6-.81,4.03-.81,5.73,0,10.38,4.65,10.38,10.39,0,2.78-1.1,5.3-2.88,7.16,1.66,1.89,3.39,3.71,5.2,5.45,1.9-2.35,4.81-3.85,8.07-3.85,5.73,0,10.38,4.65,10.38,10.38,0,2.24-.72,4.32-1.93,6.02,2.14,1.26,4.34,2.44,6.59,3.52,1.34-4.18,5.26-7.2,9.88-7.2,5.73,0,10.38,4.65,10.38,10.38,0,1.23-.22,2.4-.61,3.5,2.61.55,2.57.67,5.26.99.27-4.71,6.06-9.23,10.71-9.24,5.11,0,10.44,4.53,10.71,9.24,2.69-.31,2.65-.44,5.26-.99-.39-1.09-.61-2.27-.61-3.5,0-5.74,4.65-10.38,10.38-10.38,4.63,0,8.54,3.03,9.89,7.2,2.25-1.08,4.45-2.26,6.59-3.52-1.21-1.7-1.93-3.77-1.93-6.02,0-5.73,4.65-10.38,10.38-10.38,3.26,0,6.16,1.5,8.07,3.85,1.81-1.74,3.54-3.56,5.2-5.45-1.15-1.21-2.02-2.69-2.49-4.35-6.16-4.66-12.48-11.85-19.56-20.93M108.13,150.23c0-1.82-1.47-3.29-3.29-3.29h-12.21c-1.82,0-3.29,1.47-3.29,3.29s1.47,3.29,3.29,3.29h12.21c1.82,0,3.29-1.47,3.29-3.29M79.36,166.79c0-1.82-1.47-3.29-3.29-3.29s-3.29,1.47-3.29,3.29v12.21c0,1.82,1.47,3.29,3.29,3.29s3.29-1.47,3.29-3.29v-12.21ZM62.8,150.23c0-1.82-1.47-3.29-3.29-3.29h-12.21c-1.82,0-3.29,1.47-3.29,3.29s1.47,3.29,3.29,3.29h12.21c1.82,0,3.29-1.47,3.29-3.29M104.84,156.81h-4.55c-2.33,8.56-9.08,15.32-17.64,17.65v4.55c0,3.63-2.95,6.58-6.58,6.58s-6.58-2.95-6.58-6.58v-4.55c-8.56-2.33-15.32-9.08-17.64-17.64h-4.55c-3.63,0-6.58-2.95-6.58-6.58s2.95-6.58,6.58-6.58h4.55c2.12-7.8,7.91-14.1,15.4-16.92,1.87.18,3.72.34,5.53.52v6.42c0,1.82,1.47,3.29,3.29,3.29s3.29-1.47,3.29-3.29v-5.7c4.48.59,8.67,1.42,12.44,2.91.15.06.3.12.45.19,3.83,3.24,6.69,7.61,8.04,12.59h4.55c3.63,0,6.58,2.95,6.58,6.58s-2.95,6.58-6.58,6.58M239.18,195.03c-6.66,0-12.08-5.42-12.08-12.08,0-2.72.9-5.23,2.43-7.25l-13.15-13.15c-.44.31-.88.61-1.34.9-5.42,3.4-11.69,4.78-18.01,5.29v17.26l18.18,18.18c.62.62.96,1.45.96,2.32v11.74c5.07,1.44,8.79,6.1,8.79,11.62s-3.4,9.77-8.12,11.41c-.61.21-1.23.37-1.88.49-.03,0-.06.01-.09.02-.3.05-.61.09-.91.12-.05,0-.1,0-.15.01-.31.02-.62.04-.94.04-6.66,0-12.08-5.42-12.08-12.08,0-5.52,3.73-10.19,8.79-11.62v-10.38l-18.18-18.18c-.62-.62-.96-1.45-.96-2.33v-18.35c-.44,0-.88,0-1.32,0-8.27-.03-16.55-1.14-24.43-3.69-2.05-.67-4.15-1.38-6.07-2.38-1.01-.54,5.34-10.07,6.03-11.04,4.37-6.18,10.02-11.75,17-14.58,2.9-1.17,5.83-2.27,8.78-3.31v-46.38l9.65-9.65c-.98-1.74-1.54-3.75-1.54-5.89,0-6.66,5.42-12.08,12.08-12.08s12.08,5.42,12.08,12.08-5.42,12.08-12.08,12.08c-2.14,0-4.15-.56-5.89-1.54l-7.72,7.72v41.49c4.15-1.28,8.35-2.4,12.56-3.36v-9.93c0-.87.35-1.71.96-2.32l17.74-17.74c-.97-1.74-1.53-3.74-1.53-5.87,0-6.66,5.42-12.08,12.08-12.08s12.08,5.42,12.08,12.08-5.42,12.08-12.08,12.08c-2.15,0-4.16-.56-5.91-1.55l-16.77,16.77v7.22c6.06-1.11,12.16-1.87,18.25-2.21.02,0,.04,0,.06,0-.2,0-3.08,14.9-3.62,16.43-2.14,6.06-5.18,12.06-9.55,16.83l13.51,13.51c1.35-.53,2.82-.82,4.36-.82,6.66,0,12.08,5.42,12.08,12.08s-5.42,12.08-12.08,12.08M251.26,66.41h0c-13.25-20.12-32.08-29.31-57.55-28.13-25.57,1.19-53.9,12.98-72.99,21.74-22.25,10.21-41.76,16.9-57.98,19.88-20.49,3.76-35.33,1.38-44.11-7.08-6.31-6.09-9.3-15.11-8.88-26.83.18-5.15,1.04-10.9,2.55-17.22-2.77,4.73-5.08,9.39-6.93,13.96C.77,54.07-.88,64.64.44,74.16c1.76,12.63,8.69,23.06,20.61,31,8.3,5.53,24.77,8.22,40.7,10.83,16.8,2.75,34.17,5.59,44.35,12.1,13.87,8.86,21.67,21.88,23.19,38.69.97,10.71-.57,22.94-4.72,37.2,2.5-.4,4.91-.58,7.25-.58,23.16,0,39.06,18.31,53.38,34.78,2.83,3.26,5.77,6.63,8.65,9.74,7.34,7.92,14.2,11.55,20.39,10.81,11.4-1.37,21.68-17.38,29.36-31.17,13.89-24.94,22.83-53.65,25.17-80.83,2.69-31.07-3.37-58.84-17.52-80.32M212.88,224.36c-1.25,0-2.39.42-3.32,1.12-.02.01-.03.02-.05.03-.1.08-.2.16-.29.24-.03.02-.05.05-.08.07-.09.08-.17.16-.25.25-.03.03-.06.06-.09.1-.08.08-.15.17-.22.26-.03.03-.05.07-.08.11-.12.16-.23.32-.33.49-.04.06-.07.12-.11.18-.04.07-.07.14-.11.21-.04.08-.08.16-.12.24-.03.07-.06.14-.08.21-.03.09-.07.18-.1.27-.02.07-.04.14-.06.21-.03.1-.05.2-.08.3-.02.07-.03.13-.04.2-.02.11-.04.23-.05.34,0,.06-.02.11-.02.17-.02.17-.03.35-.03.52,0,3.04,2.47,5.5,5.51,5.5.17,0,.34,0,.51-.03.1,0,.19-.02.29-.04.06,0,.12-.02.19-.03.13-.02.25-.05.38-.09.02,0,.04-.01.06-.02,2.34-.63,4.08-2.77,4.08-5.31,0-3.04-2.47-5.5-5.51-5.5M216.14,72.1c0-3.04-2.47-5.5-5.51-5.5s-5.51,2.47-5.51,5.5,2.47,5.5,5.51,5.5,5.51-2.47,5.51-5.5M239.18,177.45c-3.04,0-5.51,2.47-5.51,5.5s2.47,5.5,5.51,5.5,5.51-2.47,5.51-5.5-2.47-5.5-5.51-5.5M238.85,98.12c3.04,0,5.51-2.47,5.51-5.5s-2.47-5.5-5.51-5.5-5.51,2.47-5.51,5.5,2.47,5.5,5.51,5.5"/>
  </g>
</svg>