<?xml version="1.0" encoding="UTF-8"?>
<svg id="Layer_2" data-name="Layer 2" xmlns="http://www.w3.org/2000/svg" viewBox="0 0 155.95 176.09">
  <defs>
    <style>
      .cls-1 {
        stroke-width: 0px;
      }
    </style>
  </defs>
  <g id="Layer_1-2" data-name="Layer 1">
    <path class="cls-1" d="m81.29,32.62v-15.86c0-1.19.03-2.33.09-3.4.06-1.08.69-1.97,1.88-2.69.48-.36.75-.78.81-1.25.06-.48.03-.83-.09-1.08-.24-1.08-.27-2-.09-2.78.18-.78.57-1.58,1.17-2.42,1.55-2.03,2.87-3.08,3.94-3.14,1.08-.06,2.39.87,3.94,2.78.36.48.72.87,1.08,1.16.36.3.78.39,1.25.27,1.67-.6,2.54-.51,2.6.27.06.78.09,1.7.09,2.78.24.84-.09,1.73-.99,2.69-.9.96-.45,1.85,1.34,2.69,1.08.36,2.09.54,3.05.54s2.03-.24,3.23-.72c.95-.36,2.12,0,3.49,1.08,1.37,1.08,2.12,2.39,2.24,3.94.24,1.79.9,3.08,1.97,3.85,1.08.78,2.03,1.7,2.87,2.78.48.6.99.75,1.52.45.54-.3,1.04-.69,1.52-1.17.96-1.19,1.85-1.61,2.69-1.25.83.36,1.67.9,2.51,1.61,1.08.6,1.52,1.32,1.34,2.15-.18.84-.51,1.73-.99,2.69-.48.48-.9,1.05-1.25,1.7-.36.66-.6,1.34-.72,2.06,0,.6.12,1.17.36,1.7.24.54.78.51,1.61-.09,1.19-.72,2.03-.83,2.51-.36.48.48.78,1.32.9,2.51.36,1.55,1.1,2.45,2.24,2.69,1.13.24,2.24-.24,3.32-1.43,1.31-1.19,2.48-2.48,3.5-3.85,1.01-1.37,1.34-3.14.99-5.29-.24-.72-.09-1.25.45-1.61.54-.36,1.16-.54,1.88-.54.48,0,.99-.06,1.52-.18.54-.12,1.04-.18,1.52-.18.24,0,.48-.09.72-.27.24-.18.36-.45.36-.81,0-.24-.18-.45-.54-.63-.36-.18-.66-.15-.9.09-1.67.6-2.72.48-3.14-.36-.42-.83-.69-1.85-.81-3.05,0-1.55.48-2.42,1.43-2.6.96-.18,1.91-.39,2.87-.63h2.15c.72-.12,1.49-.24,2.33-.36.83-.12,1.55.36,2.15,1.43.48.84.6,1.64.36,2.42-.24.78-.6,1.58-1.08,2.42-.72.72-.84,1.25-.36,1.61.48.36,1.08.6,1.79.72.24.24.63.36,1.17.36s.81.24.81.72c.24.72.15,1.23-.27,1.52-.42.3-.87.57-1.34.81-1.43.72-2.9,1.32-4.39,1.79-1.5.48-3.02.84-4.57,1.08-.24.12-.63.21-1.17.27-.54.06-.39.51.45,1.34.48.36.45.66-.09.9-.54.24-1.11.42-1.7.54-.48.12-.93.24-1.34.36-.42.12-.63.48-.63,1.08,0,.84.18,1.58.54,2.24.36.66.83,1.29,1.43,1.88.6.24,1.08.21,1.43-.09.36-.3.83-.63,1.43-.99.36-.24.72-.42,1.08-.54.36-.12.78-.3,1.25-.54,1.08-.36,2.18-.69,3.32-.99,1.13-.3,2,.15,2.6,1.34.48,1.2.78,2.51.9,3.94.12,1.43-.3,2.75-1.25,3.94-1.2,1.43-1.82,2.84-1.88,4.21-.06,1.38.45,2.72,1.52,4.03.96,1.43,1.52,2.81,1.7,4.12.18,1.32-.75,2.57-2.78,3.76-.48.24-.75.63-.81,1.16-.06.54-.03,1.05.09,1.52,0,.72.06,1.38.18,1.97.12.6.18,1.2.18,1.79.24,2.27.18,3.65-.18,4.12-.36.48-1.67.72-3.94.72-1.55,0-2.57.3-3.05.9-.48.6-.72,1.67-.72,3.23,0,2.15.51,3.74,1.52,4.75,1.01,1.02,2.48,1.64,4.39,1.88,1.19.12,2.36.33,3.5.63,1.13.3,2.24.51,3.32.63,1.55.6,2.57,1.29,3.05,2.06.48.78.36,1.94-.36,3.49-.6,1.67-1.38,3.41-2.33,5.2-.96,1.79-2.09,3.41-3.41,4.84-3.47,3.58-6.3,7.53-8.51,11.83-2.21,4.3-4.51,8.54-6.9,12.72-1.32,1.91-2.45,3.88-3.4,5.91-.96,2.03-1.79,4.06-2.51,6.09-.12,1.08-.3,2.06-.54,2.96-.24.9-.3,1.88-.18,2.96.24,2.03-.09,3.85-.99,5.47-.9,1.61-2.06,3.02-3.49,4.21-6.33,5.62-13.02,10.42-20.07,14.43-7.05,4-14.87,6.48-23.48,7.44-3.23.6-6.33.48-9.32-.36-2.99-.84-5.98-1.97-8.96-3.4-4.42-1.91-8.69-4-12.81-6.27-4.12-2.27-8.04-4.96-11.74-8.06-2.51-2.27-4.6-4.66-6.27-7.17-1.67-2.51-2.57-5.61-2.69-9.32-.24-3.58-.99-6.3-2.24-8.15-1.25-1.85-3.62-2.9-7.08-3.14-.36,0-.69-.09-.99-.27-.3-.18-.57-.33-.81-.45-.96-1.19-2-2-3.14-2.42-1.14-.42-2.48-.57-4.03-.45-.48.24-.87.21-1.17-.09-.3-.3-.45-.81-.45-1.52.12-1.55-.09-2.93-.63-4.12-.54-1.19-1.58-2.09-3.14-2.69-.6-.24-1.17-.48-1.7-.72-.54-.24-.81-.72-.81-1.43,0-.83.3-1.4.9-1.7.6-.3,1.25-.51,1.97-.63.24-.24.54-.39.9-.45.36-.06.72-.15,1.08-.27,1.91-.6,3.08-1.67,3.5-3.23.42-1.55.03-2.99-1.17-4.3-1.67-2.15-3.23-4.27-4.66-6.36-1.43-2.09-2.63-4.33-3.58-6.72-.6-1.91-.63-3.32-.09-4.21.54-.9,1.76-1.46,3.67-1.7,1.55-.12,3.07-.21,4.57-.27,1.49-.06,3.02-.09,4.57-.09.72,0,1.34.24,1.88.72.54.48.99,1.08,1.34,1.79,2.39,5.14,5.67,8.99,9.86,11.56,4.18,2.57,9.08,3.85,14.69,3.85s10.09-1.28,14.16-3.85c4.06-2.57,7.29-6.3,9.68-11.2.48-1.08,1.01-1.82,1.61-2.24.6-.42,1.43-.63,2.51-.63h8.24c1.55,0,2.63-.3,3.23-.9s.9-1.67.9-3.23c-.24-5.49-.3-11.02-.18-16.58.12-5.55.18-11.08.18-16.58v-15.86Zm-8.24,22.04v14.61c0,2.27-.3,3.62-.9,4.03-.6.42-1.91.69-3.94.81-4.54.6-8.84.27-12.9-.99-4.06-1.25-8.13-2.6-12.19-4.03-2.75-1.08-5.55-2.15-8.42-3.23-2.87-1.08-5.8-2.21-8.78-3.4-1.2-.36-2.24-.36-3.14,0-.9.36-1.64.96-2.24,1.79-.96,1.2-1.82,2.33-2.6,3.4-.78,1.08-1.29,2.33-1.52,3.76-.72,1.91-1.82,2.84-3.32,2.78-1.5-.06-2.96-.21-4.39-.45-1.32,0-1.97-.48-1.97-1.43v-3.05c0-3.58.39-7.11,1.17-10.57.78-3.46,1.76-6.87,2.96-10.21.12-.72.12-1.37,0-1.97-.12-.6-.24-1.19-.36-1.79-.12-1.08-.18-2.06-.18-2.96s.72-1.52,2.15-1.88c.95,0,1.31-.27,1.08-.81-.24-.54-.48-.99-.72-1.34-.12-.96-.09-1.73.09-2.33.18-.6.99-.83,2.42-.72.83.12,1.49,0,1.97-.36.48-.36.96-.83,1.43-1.43,2.39-2.99,4.99-5.82,7.8-8.51,2.81-2.69,5.7-5.4,8.69-8.15.36-.36.66-.78.9-1.25.24-.48.48-1.01.72-1.61,1.31-2.15,2.93-3.52,4.84-4.12,1.91-.6,3.88-.24,5.91,1.08.72.48,1.4.63,2.06.45.66-.18,1.34-.33,2.06-.45,2.51-.83,5.13-1.52,7.88-2.06,2.75-.54,5.49-.99,8.24-1.34,2.03-.36,3.41-.27,4.12.27.72.54,1.08,1.82,1.08,3.85v43.64Zm-42.92,37.81c-3.29-1.97-5.59-4.75-6.9-8.33-.36-1.08-.6-2.06-.72-2.96-.12-.9-.12-1.88,0-2.96.48-3.23,1.25-5.2,2.33-5.91,1.08-.72,3.16-.42,6.27.9,3.94,1.32,7.89,2.72,11.83,4.21,3.94,1.5,7.76,2.9,11.47,4.21,1.79.72,2.81,1.43,3.05,2.15.24.72-.06,1.85-.9,3.41-1.79,2.87-3.97,4.96-6.54,6.27-2.57,1.32-4.99,1.97-7.26,1.97-5.14,0-9.35-.99-12.63-2.96Zm-2.87,29.21c.3,1.5.81,2.96,1.52,4.39.48,1.2,1.19,1.88,2.15,2.06.96.18,1.91.27,2.87.27.72,0,1.37-.12,1.97-.36.6-.24.9-.83.9-1.79.12-.96.18-2.03.18-3.23s-.06-2.39-.18-3.58c0-.48-.18-.87-.54-1.17-.36-.3-.78-.45-1.25-.45-1.55-.24-3.14-.39-4.75-.45-1.61-.06-3.38-.15-5.29-.27,1.31,1.55,2.12,3.08,2.42,4.57Zm5.82,10.04c-.6-.06-.9.33-.9,1.17,0,.96.15,1.94.45,2.96.3,1.02,1.17,1.64,2.6,1.88,2.27.12,4.18.69,5.73,1.7,1.55,1.02,2.93,2.48,4.12,4.39.36.48.78.69,1.25.63.48-.06.78-.51.9-1.34,0-.6.03-1.22.09-1.88.06-.66-.09-1.28-.45-1.88-1.55-2.15-3.23-4.09-5.02-5.82-1.79-1.73-4.24-2.42-7.35-2.06-.36.24-.84.33-1.43.27Zm14.25-4.48c.06-1.97-.09-3.97-.45-6-.12-1.19-1.02-2.12-2.69-2.78-1.67-.66-2.93-.69-3.76-.09-.72.72-1.02,2.54-.9,5.47.12,2.93.6,4.69,1.43,5.29,1.08.48,2.09,1.08,3.05,1.79.96.72,2.03,1.73,3.23,3.05,0-2.51.03-4.75.09-6.72Zm-6.45,25.54c1.25,1.08,2.6,2.09,4.03,3.05.83.84,1.4,1.08,1.7.72.3-.36.51-1.08.63-2.15.48-2.39.03-4.18-1.34-5.38-1.38-1.19-2.66-2.45-3.85-3.76-.12-.36-.3-.72-.54-1.08-.24-.36-.6-.48-1.08-.36-.36.24-.57.57-.63.99-.06.42-.09.81-.09,1.17v2.33c-.48,1.91-.09,3.4,1.17,4.48Zm10.04-7.08c.18,1.85,1.58,3.32,4.21,4.39,2.87,1.2,4.57,1.67,5.11,1.43.54-.24.81-1.97.81-5.2,0-2.15-.18-4.12-.54-5.91s-1.79-3.05-4.3-3.76c-.84-.36-1.67-1.04-2.51-2.06-.84-1.01-1.61-1.22-2.33-.63-.84.6-1.11,1.46-.81,2.6.3,1.14.33,2.06.09,2.78,0,2.39.09,4.51.27,6.36Zm-.27,12.81c0,.84.36,1.43,1.08,1.79,1.19.84,2.39,1.55,3.58,2.15,1.19.6,2.27,1.14,3.23,1.61.83.48,1.4.54,1.7.18.3-.36.57-.9.81-1.61.24-2.51.03-4.27-.63-5.29-.66-1.01-2.42-2.3-5.29-3.85-2.27-1.08-3.58-1.49-3.94-1.25-.36.24-.54,1.55-.54,3.94v2.33Zm13.71,7.88c.66.84,1.7,1.43,3.14,1.79.72.24,1.34.42,1.88.54.54.12,1.04.3,1.52.54,2.39.48,3.97.39,4.75-.27.78-.66.92-2.18.45-4.57,0-.83-.24-1.46-.72-1.88-.48-.42-1.08-.81-1.79-1.17-.84-.24-1.73-.51-2.69-.81-.96-.3-1.85-.63-2.69-.99-2.03-.83-3.29-1.08-3.76-.72-.48.36-.72,1.73-.72,4.12-.24,1.43-.03,2.57.63,3.41Zm-.54-14.7c-.3,1.2.21,2.21,1.52,3.05,1.31.96,2.69,1.7,4.12,2.24,1.43.54,2.81.99,4.12,1.34.6.12,1.1.15,1.52.09.42-.06.74-.45.99-1.17.96-2.63.92-5.22-.09-7.8-1.02-2.57-2.72-4.57-5.11-6-3.47-1.67-5.53-2.3-6.18-1.88-.66.42-.99,2.66-.99,6.72.36,1.08.39,2.21.09,3.4Zm23.12-52.78c-2.45-3.76-4.69-6.54-6.72-8.33-1.08-.95-2.18-1.4-3.31-1.34-1.14.06-2.24.51-3.32,1.34-1.32,1.43-2.51,2.96-3.58,4.57-1.08,1.61-2.15,3.32-3.23,5.11-1.08,1.55-1.79,3.2-2.15,4.93-.36,1.73-.54,3.5-.54,5.29-.24,1.2-.12,2.03.36,2.51.48.48,1.37.48,2.69,0,1.08-.6,2.06-1.22,2.96-1.88.9-.66,1.88-1.28,2.96-1.88,1.55-1.43,2.93-2.15,4.12-2.15s2.57.72,4.12,2.15c.83.48,1.61,1.02,2.33,1.61.72.6,1.49,1.08,2.33,1.43,1.91,1.08,3.07,1.43,3.49,1.08.42-.36.63-1.61.63-3.76.36-3.34-.69-6.9-3.14-10.66Zm-7.44,63.26v4.03c.12,1.79.42,2.9.9,3.32.48.42,1.55.45,3.23.09,6.57-1.91,12.75-4.51,18.55-7.8,5.79-3.28,11.14-7.2,16.04-11.74,1.08-1.08,1.97-2.27,2.69-3.58.72-1.31,1.01-2.87.9-4.66,0-1.55.21-3.05.63-4.48.42-1.43.99-2.93,1.7-4.48.83-2.39,1.88-4.72,3.14-6.99,1.25-2.27,2.48-4.54,3.67-6.81.24-.36.42-.69.54-.99.12-.3.06-.51-.18-.63-.12-.6-.39-.87-.81-.81-.42.06-.81.21-1.16.45-1.55.36-3.17.51-4.84.45-1.67-.06-3.29.03-4.84.27-2.75,0-4.42.42-5.02,1.25-.6.84-.42,2.57.54,5.2.48,1.55.75,3.02.81,4.39.06,1.37-.33,2.78-1.17,4.21-.84,1.2-1.55,2.48-2.15,3.85-.6,1.38-2.03,1.82-4.3,1.34-.24,0-.48.12-.72.36s-.48.42-.72.54c-.84,1.2-1.73,2.09-2.69,2.69-.96.6-2.09,1.08-3.41,1.43-1.43.36-2.75.6-3.94.72-1.2.12-2.27-.42-3.23-1.61-.24,0-.45-.06-.63-.18-.18-.12-.45-.18-.81-.18-2.03.48-4,1.08-5.91,1.79-1.91.72-3.71,1.67-5.38,2.87-1.08.96-1.55,2.06-1.43,3.31.12,1.25.12,2.48,0,3.67v8.69Zm34.59-64.6h3.23c6.33-.36,11.11-3.34,14.34-8.96,3.23-5.61,3.46-11.23.72-16.85-.72-1.19-1.5-2.03-2.33-2.51-.84-.48-2.03-.48-3.58,0-4.78,1.91-9.62,3.74-14.52,5.47-4.9,1.73-9.74,3.49-14.52,5.29-1.55.48-2.54,1.17-2.96,2.06-.42.9-.39,2,.09,3.32,1.55,4.06,4.06,7.14,7.53,9.23,3.46,2.09,7.47,3.08,12.01,2.96Z"/>
  </g>
</svg>