<?xml version="1.0" encoding="UTF-8"?>
<svg id="Layer_2" data-name="Layer 2" xmlns="http://www.w3.org/2000/svg" viewBox="0 0 183.15 116.84">
  <defs>
    <style>
      .cls-1 {
        stroke-width: 0px;
      }
    </style>
  </defs>
  <g id="Layer_1-2" data-name="Layer 1">
    <path class="cls-1" d="m175.89,63.17c1.13,1.37,2.48,2.18,4.03,2.42l3.23.36-.72,2.87c-1.32,9.68-4.36,18.64-9.14,26.88-4.78,8.24-10.93,15.05-18.46,20.43l-.72.72H28.67l-.72-.72c-7.41-5.38-13.5-12.19-18.28-20.43-4.78-8.24-7.88-17.2-9.32-26.88l-.36-2.87,2.87-.36c1.67-.24,3.11-1.04,4.3-2.42,1.19-1.37,1.79-2.96,1.79-4.75,0-2.03-.63-3.73-1.88-5.11-1.25-1.37-2.66-2.06-4.21-2.06l-2.87-.36.36-2.87c1.43-9.68,4.57-18.64,9.41-26.88S20.67,6.09,27.96.72l.72-.72h125.44l.72.72c7.53,5.38,13.71,12.19,18.55,20.43,4.84,8.24,7.85,17.2,9.05,26.88l.72,2.87-3.23.36c-1.67,0-3.05.69-4.12,2.06-1.08,1.38-1.61,3.08-1.61,5.11,0,1.79.57,3.38,1.7,4.75Zm-7.71,30.38c4.24-7.05,7.08-14.69,8.51-22.94-2.39-.96-4.36-2.57-5.91-4.84-1.55-2.27-2.33-4.72-2.33-7.35,0-2.87.81-5.4,2.42-7.62,1.61-2.21,3.55-3.73,5.82-4.57-1.43-8.24-4.3-15.89-8.6-22.94-4.3-7.05-9.56-12.9-15.77-17.56H30.46c-6.33,4.66-11.56,10.51-15.68,17.56-4.12,7.05-6.9,14.7-8.33,22.94,2.39.84,4.3,2.36,5.74,4.57,1.43,2.21,2.15,4.75,2.15,7.62,0,2.63-.75,5.08-2.24,7.35-1.5,2.27-3.38,3.88-5.65,4.84,1.43,8.24,4.24,15.89,8.42,22.94,4.18,7.05,9.38,12.9,15.59,17.56h121.86c6.33-4.66,11.62-10.51,15.86-17.56Zm-85.03-39.43H29.39V19h14.34v30.82h31.54v-30.82h9.68l-.72,1.79-4.3,15.77,4.3,1.43,3.58.72-3.58,11.47-1.08,3.94Zm74.64,14.25c.66,1.97.99,4.15.99,6.54,0,1.79-.21,3.56-.63,5.29-.42,1.73-1.05,3.44-1.88,5.11-.72,1.79-1.61,3.35-2.69,4.66-1.08,1.32-2.21,2.51-3.41,3.58-1.32,1.08-2.78,1.91-4.39,2.51-1.61.6-3.38,1.08-5.29,1.43-1.08,0-3.11.06-6.09.18-2.99.12-6.69.18-11.11.18h-48.03v-34.41h-31.54v34.41h-14.34v-40.14h53.4l1.43.36,5.38,1.43,2.15.36-2.15,9.68-5.38,23.66-.72,3.58.72-1.79,5.38-12.19,6.09-13.62,5.02-11.47h48.03c1.43.48,2.66,1.16,3.67,2.06,1.01.9,1.94,2,2.78,3.32,1.08,1.55,1.94,3.32,2.6,5.29Zm-7.62-16.49c-.84.78-1.67,1.52-2.51,2.24h-45.88l-7.88-2.51,7.88-19.71-6.09-1.79-2.51-.72,2.51-6.81,1.08-3.58h30.82c2.75,0,5.17.03,7.26.09,2.09.06,3.85.27,5.29.63,1.43.12,2.75.45,3.94.99,1.19.54,2.39,1.29,3.58,2.24,1.08.72,2.06,1.64,2.96,2.78.9,1.14,1.7,2.36,2.42,3.67.72,1.43,1.25,2.93,1.61,4.48.36,1.55.54,3.17.54,4.84,0,1.79-.27,3.56-.81,5.29-.54,1.73-1.23,3.44-2.06,5.11-.6,1.08-1.32,2-2.15,2.78Zm-6.63-11.2c.36-1.08.54-2.21.54-3.4,0-1.31-.18-2.45-.54-3.41-.36-.96-.78-1.85-1.25-2.69-.6-.72-1.34-1.28-2.24-1.7-.9-.42-1.94-.69-3.14-.81-.72-.24-2.12-.36-4.21-.36h-24.1v18.28h17.2c2.75,0,4.99-.03,6.72-.09,1.73-.06,2.96-.15,3.67-.27,1.31-.24,2.42-.57,3.32-.99.9-.42,1.7-1.04,2.42-1.88.72-.72,1.25-1.61,1.61-2.69Zm2.6,39.61c.3-1.19.45-2.39.45-3.58,0-1.31-.12-2.48-.36-3.49-.24-1.01-.6-1.88-1.08-2.6-.6-.96-1.25-1.7-1.97-2.24-.72-.54-1.61-.99-2.69-1.34-.96-.36-2.48-.63-4.57-.81-2.09-.18-4.75-.27-7.97-.27h-19.35v21.15h21.15c2.51,0,4.57-.09,6.18-.27,1.61-.18,2.78-.33,3.5-.45,1.08-.24,2.06-.63,2.96-1.17.9-.54,1.7-1.22,2.42-2.06.6-.72,1.04-1.67,1.34-2.87Z"/>
  </g>
</svg>