<?xml version="1.0" encoding="UTF-8"?>
<svg id="Layer_2" data-name="Layer 2" xmlns="http://www.w3.org/2000/svg" viewBox="0 0 300 300">
  <defs>
    <style>
      .cls-1 {
        fill: var(--color--haas-bioroid);
        stroke-width: 0px;
        width: 1em;
      }
    </style>
  </defs>
  <g id="Layer_1-2" data-name="Layer 1">
    <path class="cls-1" d="M276.93,0H23.07l-2.42,4.71C11.28,22.93.1,52.52,0,90.09c-.1,38,11.17,67.93,20.65,86.35l2.42,4.71h253.86l2.42-4.71c9.47-18.42,20.74-48.36,20.65-86.35-.1-37.57-11.28-67.16-20.65-85.38l-2.42-4.71ZM271.63,8.68c6.88,13.37,19.58,42.34,19.68,81.43.1,39.62-12.8,68.98-19.68,82.36H28.37c-6.88-13.38-19.79-42.74-19.68-82.36.1-39.09,12.81-68.06,19.68-81.43h243.26M266.64,110.27c-.21-1.38-.48-2.74-.83-4.05-.3-1.09-.68-2.14-1.1-3.16-.86-2.11-1.96-4.06-3.3-5.83-1.46-1.81-3.18-3.42-5.16-4.83-.18-.13-.35-.28-.54-.41,0,0-.01,0-.02-.01-.73-.5-1.49-.97-2.29-1.42.18-.1.33-.21.5-.32,1.51-.88,2.9-1.85,4.14-2.92,1.24-1.04,2.36-2.16,3.36-3.4,1.59-2.19,2.85-4.46,3.75-6.99.24-.67.47-1.34.66-2.04.38-1.4.66-2.86.88-4.34.31-2.04.49-4.16.49-6.33,0-5.18-.78-9.78-2.41-13.89-.22-.58-.46-1.15-.72-1.71-.22-.49-.46-.98-.71-1.45-1.98-3.96-4.72-7.25-7.95-10.05-2.43-2.03-5.24-3.68-8.34-5.01-1.7-.74-3.49-1.4-5.4-1.95-1.8-.52-3.68-.94-5.63-1.29-3.69-.67-7.65-1-11.91-1.03-.19,0-.38,0-.58,0h-53.59v32.87l-18.12,18.2-8.24,8.24s0,0,0,0h0s.02.01.02.02h0c3.89,2.39,6.52,6.66,6.52,11.55s-2.48,8.96-6.24,11.39c-2.1,1.35-4.59,2.14-7.27,2.14s-5.1-.77-7.19-2.09c-3.77-2.42-6.28-6.66-6.28-11.44,0-4.13,1.88-7.87,4.83-10.37,2.34-1.96,5.36-3.14,8.64-3.14.53,0,1.06.03,1.58.1l.64-.64,26.09-25.97v-30.86h-6.52v8.48l-3.59,3.59-6.07,5.99s.03.03.04.04h0s-.02,0-.02,0c0,0,0,0,0,0h0c2.26,1.95,3.69,4.82,3.69,8.03,0,5.84-4.75,10.59-10.59,10.59-2.18,0-4.21-.66-5.9-1.8-2.8-1.92-4.66-5.16-4.66-8.84,0-4.24,2.58-7.94,6.24-9.6,1.32-.59,2.78-.93,4.32-.93.08,0,.16,0,.24.01.63.03,1.19.12,1.74.23l9.41-9.41h0s.03-.03.03-.03v-6.36h-46.57v48.41h-34.21V27.88h-.04v-.03h-32.87v125.33h.03v.06h32.88v-51.7h34.21v51.65h.02v.06h30.34v.07h.26v-27.44l26.39-26.39h0,0c-.27-.16-.52-.36-.78-.54-3.48-2.45-5.77-6.47-5.77-11.04,0-2.84.88-5.47,2.39-7.65,2.46-3.54,6.56-5.85,11.14-5.85,3.57,0,6.83,1.41,9.27,3.7,2.61,2.47,4.24,5.94,4.24,9.81,0,3.26-1.16,6.25-3.08,8.58-2.5,2.98-6.26,4.89-10.43,4.89h-.76c-.27-.02-.55-.02-.82-.05l-26.67,26.67v25.32h12.32v-8.53l9.53-9.53s0,0,0,0l.06-.06s0,0-.01-.01h.02c-.92-.79-1.69-1.73-2.3-2.78-.88-1.54-1.4-3.33-1.4-5.23,0-.32.02-.63.05-.94,0-.03,0-.06,0-.1.21-2.1,1.04-4.02,2.28-5.58,1.94-2.42,4.92-3.97,8.25-3.97,5.84,0,10.59,4.75,10.59,10.59,0,4.37-2.66,8.13-6.45,9.74,0,0-.01,0-.02,0-.2.08-.41.15-.61.22-.12.04-.24.1-.37.13-.29.09-.6.17-.9.23-.04,0-.07.02-.11.03-.69.14-1.4.22-2.13.22-.14,0-.28-.02-.42-.02-.54-.03-1.13-.12-1.64-.22l-9.41,9.41v6.4h63.73c6.64,0,12.55-.73,17.86-2.29.09-.02.18-.05.27-.07.19-.06.37-.12.56-.18,1.94-.58,3.8-1.28,5.55-2.1,2.8-1.3,5.33-2.86,7.56-4.71,1.5-1.24,2.86-2.6,4.09-4.07,1.58-1.89,2.96-3.99,4.08-6.25.19-.38.38-.75.56-1.14.1-.22.18-.44.28-.66,1.93-4.37,2.85-9.41,2.85-15.03,0-2.27-.2-4.44-.54-6.53ZM228.54,56.33c.84.46,1.57,1.01,2.21,1.62,1.77,1.73,2.81,3.99,3.1,6.78.05.53.08,1.07.08,1.64,0,1.67-.23,3.15-.67,4.47-.03.09-.05.19-.08.28-.83,2.3-2.37,4.08-4.64,5.41-3.51,2.13-9.53,3.14-17.69,3.14h-7.27v-26.54h7.21c4.83,0,8.84.37,12.07,1.09,2.3.53,4.22,1.23,5.68,2.12ZM203.58,101.4h7.21c8.27,0,14.2,1.05,17.78,3.16,3.13,1.84,4.89,4.65,5.28,8.44.05.54.08,1.1.08,1.67,0,4.64-1.76,8.03-5.39,10.16-3.51,2.13-9.53,3.14-17.69,3.14h-7.27v-26.57ZM164.4,94.21c-1.39-1.39-2.32-3.23-2.56-5.28-.04-.34-.07-.68-.07-1.04,0-.31.02-.61.05-.91.46-4.49,4.24-7.99,8.85-8.01,0,0,.02,0,.03,0h0c4.62,0,8.42,3.51,8.88,8.01.03.3.05.6.05.91,0,.35-.03.69-.07,1.04-.03.27-.07.53-.12.79-.02.08-.04.16-.06.24-.05.2-.09.4-.15.59-1.13,3.63-4.53,6.29-8.51,6.29-2.46,0-4.69-1.01-6.31-2.64ZM136.63,89.82c.62,0,1.22.06,1.8.18,3.64.75,6.47,3.71,7.02,7.42.06.43.11.87.11,1.32,0,.34-.02.68-.06,1.02-.51,4.45-4.28,7.91-8.86,7.91-2.72,0-5.15-1.22-6.78-3.14-1.35-1.56-2.17-3.59-2.17-5.79,0-4.29,3.09-7.91,7.15-8.73,0,0,0,0,0,0,.08-.02.17-.02.25-.04.2-.03.4-.07.6-.09.31-.03.63-.05.95-.05ZM176.73,127.15s0,.02,0,.04c0,0,0,.01,0,.02,0,1.02-.31,1.96-.8,2.77-.05.08-.09.17-.14.25-.03.05-.08.09-.11.14-1,1.36-2.59,2.26-4.41,2.26-.68,0-1.32-.14-1.92-.36-1.42-.51-2.55-1.58-3.12-2.97-.14-.33-.25-.68-.32-1.04-.07-.36-.11-.72-.11-1.1,0-.61.12-1.19.31-1.74.47-1.39,1.47-2.52,2.76-3.16.09-.04.16-.1.25-.14.14-.06.29-.09.44-.14.19-.06.38-.14.59-.18.36-.08.74-.12,1.12-.12s.75.04,1.1.11c2.49.51,4.37,2.72,4.37,5.36ZM145.26,49.73c1.28.98,2.12,2.49,2.12,4.22,0,.75-.16,1.47-.44,2.13-.82,1.99-2.77,3.39-5.06,3.39-3.02,0-5.47-2.45-5.47-5.47,0-1.52.62-2.89,1.62-3.88.05-.05.11-.08.15-.13.98-.9,2.27-1.46,3.7-1.46,1.28,0,2.44.46,3.38,1.2Z"/>
  </g>
</svg>