<?xml version="1.0" encoding="UTF-8"?>
<svg id="Layer_2" data-name="Layer 2" xmlns="http://www.w3.org/2000/svg" viewBox="0 0 320 320">
  <defs>
    <style>
      .cls-1 {
        stroke-width: 0px;
        fill: var(--color--jinteki);
      }
    </style>
  </defs>
  <g id="Layer_1-2" data-name="Layer 1">
    <path class="cls-1" d="M160.27,0C71.76,0,0,71.75,0,160.27s71.76,160.28,160.27,160.28,160.28-71.76,160.28-160.28S248.79,0,160.27,0ZM255.73,98c.74.17,1.31-.49,1.89-1.24.27-.35.48-.72.63-1.08.11-.01.22-.03.33-.07.51-.18.71-.71.82-.99.32-.83-.06-2.06-.91-3.01-.16-.17-.3-.38-.42-.61.27-.1.54-.23.75-.36.68-.43.89-.9.84-1.39.64.42,1.34.67,1.89.33.3-.19.74-.67.3-1.8-.12-.3-.03-.58.03-.63.58-.36.76-1.13.48-2.1-.19-.69-.69-1.63-1.4-2.05.06-.08.13-.17.22-.27.67-.78.89-.66,1.26-.47.41.22,1.01.48,1.59.26.22-.09.52-.29.7-.75.18.03.61.15,1.59.61,1.8.85,3.13.88,3.63.08.28-.44.46-1.39-1.38-2.88-1.11-.9-1.22-1.32-1.03-2.33.04-.19.16-.79.27-.86.32-.2,2.12.26,3.57.63,1.73.45,2.14.13,2.27.02.17-.13.3-.39.3-.6,0-1.08-1.99-2.47-2.6-2.84.63.16,1.38.3,2.02.36.64.06,1.37.27,1.83.5,7.95,10.62,14.46,22.36,19.25,34.95,4.78,12.59,7.85,26.02,8.9,40-.07-.08-.17-.14-.29-.18-.45-.15-.79.12-1.14.54,0-.04-.01-.07-.02-.11-.14-.71-.92-1.36-2.79-2.33-1.62-.85-2.89-1.67-3.07-1.87-.4-.54-1.06-.72-1.69-.46-.72.31-1.39,1.22-1.2,2.3.02.07.05.27-.37.51-.85.46-2.45.43-3.25-.3-1.49-1.36-3.04-2.01-4.16-1.75-.59.14-1.04.53-1.26,1.1-.11.28-.2.56-.26.81-.39-.25-.84-.39-1.26-.37-.77.03-1.41.52-1.71,1.31-.03.08-.09.14-.15.17-.03,0-.08.03-.14,0-.12-.04-.16-.15-.15-.19.35-.91-.57-1.91-1.57-2.45-1.55-.83-2.27-.79-3.81.23-.23.15-.58.38-.88.55.04-.34.11-.77.16-1.07.21-1.26.15-2.2-.17-2.81.22-.06.53-.13.97-.2,1.58-.25,3.12-.63,3.12-2.22,0-1.81-1.74-1.87-3.58-1.94-.66-.03-1.19-.06-1.61-.09.12-.06.26-.14.41-.21,1.76-.91,2.43-1.66,2.18-2.42-.23-.7-1.07-.78-1.74-.73.88-.64,1.93-.84,5.26-.84,5.28,0,5.28-.82,5.28-1.31,0-.74-.68-1.32-1.55-1.32-.18,0-.76-.28-1.14-.73-.71-.87-1.79-1.17-3.2-.88-.69.13-1.23.06-1.41-.01-.52-.77-1.48-1.05-2.58-.73-1.59.45-3.3,2.05-3.3,3.85,0,.23-.39.77-1.25,1.24-.91.5-1.78.62-2.07.43-1.34-.85-2.19-.72-2.66-.46-.32.18-.85.63-.85,1.7,0,.65.17,1.11.52,1.42.25.22.55.32.84.36-.36.34-1.08.64-1.6.64-.34,0-.72.08-1.13.24.18-.19.28-.45.28-.72,0-.78-.72-1.39-1.65-1.39-.21,0-.55-.22-.65-.48-.21-.54-.77-1-1.49-1.23-.25-.08-.53-.01-.71.18-.87.9-1.72,1.91-2.56,3.01-.19.03-.39.07-.6.12-.33.08-.6.13-.81.16-.03-.2-.1-.42-.2-.67-.29-.7-1.1-2.04-2.07-2.04-.77,0-1.29.9-1.29,2.23,0,.23-.03.38-.05.48-.17-.12-.48-.44-.81-1.14-.68-1.45-1.88-1.73-4.49-1.86-2.22-.11-3.1-.05-3.57.5-.38.44-.28.98-.25,1.16.2,1.03,2.18,2.39,3.32,3.03l.85.48c-.68.07-1.73.24-2.21,1.04-.71-.46-1.87.21-2.76,1.05-1.12,1.06-1.25.99-2.05.56-2.01-1.07-7.9.06-9.55,1.52-.39.35-.54.69-.57.97-.71.12-2.26,0-3.08-.19.31-.2.77-.47,1.39-.75,2.87-1.29,2.87-1.97,2.87-2.23,0-.3-.14-.59-.4-.81-.89-.76-3.47-.73-5.49-.39-1.29.22-2.18.05-2.34-.07-.43-.43-1.31-.99-2.38.08-1.21,1.21-.07,2.43.61,3.15h0c-.4-.08-.85-.05-1.34.25-.03.01-.05.03-.08.05-.73.53-1.52.99-2.33,1.37-2.12,1-3.87,1.21-5.9,1.45-1.15.13-2.43.28-3.93.6,2.66-5.7,5.38-12.1,6.54-17.88,2.01-.35,3.97-.75,5.85-1.21.2-.05.37-.18.46-.37.43-.91.85-1.87,1.14-2.62.57.51,1.24.83,1.87.84.65,0,1.14-.27,1.43-.78.29.18.64.19.93.03.59-.33.71-1.19.71-1.85s.17-.89.24-.89c.34,0,.67-.12.93-.33-.78,1.36-.64,4.98-.32,6.1.25.87.7,1.05,1.05,1.05.8,0,1.4-.92,1.62-1.77.02-.08.04-.14.06-.2.62.48,1.14.35,1.41.23.81-.38,1.22-1.62,1.22-3.69,0-.59.59-1.79,1.88-3.01.7-.67,2.02-2.04,2.45-2.91.05.06.12.12.2.2.58.58,1.49,1.2,2.15,1.22.12.99,1.95,1.44,2.75,1.59,1.14.21,2.12.83,2.3,1.16.46.87,1.81,1.72,2.85,2.08.75.27,1.26.62,1.41.78.04.52.34.92.8,1.1.85.33,2.14-.18,3.07-1.21,1.06-1.17,1.04-2.23.6-4.17-.19-.87-.29-1.55-.32-1.95,1.01.13,3.38,1,3.93,1.47.06.46.33.65.5.73.54.25,1.07-.09,1.51-.46.24-.2.62-.42,1.27-.09,1.21.61,3.45.37,4.37-.25.55-.37.6-.83.58-1.06-.08-1.09-.09-1.18,1.14-1.65,1.03-.39,2.15-1.05,1.73-2.67-.05-.17-.06-.3-.06-.38,1.43-.21,3.73-2.73,4.09-4.01.23-.81-.24-1.18-.39-1.27-.01,0-.02-.01-.03-.02.18-.18.7-.56,2.13-1.24,2.16-1.03,2.26-1.64,2.3-1.84.02-.1,0-.23-.04-.36.08-.1.23-.27.47-.46.64-.48,1.14-.86.94-1.46-.19-.6-.83-.61-1.63-.62-.79-.01-1.22-.37-1.25-.46.01-.02.04-.06.12-.11.41-.25.63-.58.66-.96.04-.62-.44-1.1-.91-1.49-.44-.36-1.1-.76-1.7-.59-.25.07-.45.23-.58.44-.32.11-1.3.24-2.76.14-2.17-.15-2.99-.21-3.39.41-.35.54-.03,1.13.27,1.69.02.05.1.18.21.36-.72-.4-1.42-.7-1.8-.7-.27,0-.6.21-.71.45-.04.08-.08.18-.08.31-.47-.4-.9-.7-1.4-.58-.55.14-.76.68-.91,1.08-.06.15-.16.31-.3.26-.14-.05-.32-.28-.19-.68.21-.67.17-1.28-.12-1.67-.19-.26-.48-.41-.78-.41-.14,0-.6-.23-.97-.59-.51-.48-1.71-1.22-2.71-1.66-1.09-.49-1.01-.72-.93-.91.31-.82.07-1.71-.64-2.4.19-.06.36-.16.48-.28.24,1.17.51,1.98,1.23,2.15ZM231.97,178.4s-.04-.01-.05-.01c-1.1-.2-1.72.36-1.94.94-.41,1.13.35,2.64,1.74,3.46.05.03.11.06.16.09-.89.46-1.74,1.81-2.12,2.9q-.56,1.61-2.8,1.62c-.65,0-1.24.05-1.75.13-.2.04-.39.16-.49.35-.1.18-.11.4-.03.6,1.48,3.65,1.03,6.19-1.38,7.76-.11.07-.2.18-.26.3-1.1,2.42,1.72,4.01,3.4,4.95.19.11.38.22.56.33.01.52.1,1.04.17,1.5.08.49.18,1.05.1,1.34l-.49.32h0c-.16.04-.3.14-.4.27-2.74,1.79-4.4,2.64-5.4,3.03.37-8.05-1.68-15.34-6.27-22.27-5.11-7.73-11.83-12.18-17.87-15.47,3.08-2.94,6.42-5.12,9.93-6.49,2.67-1.03,5.52-1.51,8.46-1.43l.4.08c2,.38,3.89.74,5.11,2.24.08.1.19.17.31.22.45.16.92.65,1.21,1.25.14.29.46.44.77.37.6-.12,1.15-.1,1.63.07,1.97.69,2.78,3.9,3.37,6.24.53,2.07.88,3.44,1.98,3.45h.01c.96,0,1.5-1.19,1.9-2.42h.01c.2-.18.35-.3.45-.38.09.24.2.83.24,1.55-.76,1.03-1.02,2.2-.66,3.11ZM201.09,198.82c.21,1.49.31,3.05.3,4.66-5.29-.51-10.11-1.06-14.34-1.64,0-.95.04-1.95.12-2.97,4.16-.15,8.83-.16,13.92-.05ZM188.8,189.67c.5-1.92,1.11-3.92,1.82-5.97,2.34,1.21,4.1,2.47,5.5,3.95.3.31.59.64.87.99-2.56.36-5.31.71-8.19,1.03ZM199.88,212.78c-1.03,2.91-2.64,5.77-4.79,8.52-.91-.9-1.76-1.85-2.53-2.81-1.39-1.75-2.51-3.61-3.38-5.67,3.78-.06,7.37-.08,10.7-.04ZM194.69,248.94c.69.42,1.38.83,2.07,1.25,3.25,1.97,6.35,3.85,9.26,5.84-1.33-.15-2.7-.29-4.12-.44-4.95-.51-9.67-1.09-14.09-1.71,2.4-1.61,4.71-3.27,6.88-4.94ZM173.36,17.82c-.07-.2-.29-.4-.49-.46-.03-.01-.06-.01-.09-.02,31.47,2.73,60.06,15.66,82.45,35.47-.23.12-.42.29-.57.53-.08.13-.22.21-.22.22-1.1-.27-5.74.75-6.33,1.7-.15.25-.18.54-.09.83.25.73,1.19,1.15,1.58,1.3.63.24,1.04.77,1.04.97,0,.05-.01.09-.01.12-.39.08-1.7-.09-2.21-.16-1.89-.25-2.82-.28-3.37.2-.27.24-.41.59-.41,1.02,0,.7.45,1.42,1.25,1.97.33.22.74.43,1.19.57-.45.28-.8.62-1.02,1-.1.19-.31.56-1.48.34-.76-.15-1.47-.28-1.96.16-.51.47-.44,1.23-.34,2.2.19,1.98.77,2.57,2.57,2.6.31,0,.63.05.92.12-.25.01-.55.01-.9.01-1.65,0-2.77-.24-3.04-.38-.37-.47-1.18-.7-1.91-.8.67-.29,1.14-.71,1.14-1.3,0-.92-1.18-1.24-2.29-1.24-.32,0-.51-.02-.62-.04.01-.05.03-.13.06-.22.26-.81-.05-1.7-.78-2.27-.63-.49-1.4-.61-2.04-.35-.24-.16-.7-.57-1.22-1.22-1.15-1.44-2.21-1.69-2.9-1.68-.4.02-.91.14-1.44.57-.09-.27-.31-.54-.73-.66-.97-.29-2.96.28-3.59,1.24-.07.11-.32.25-.78.33-1.11.18-2.99-.15-4.07-1-1.52-1.2-3.13-1.74-4.2-1.42-.38.12-.69.34-.89.64-.32-.1-.92-.38-1.76-.95-1.82-1.23-3.23-1.66-4.43-1.36-.29.07-.51.08-.65.08-.2-.6-.96-1-1.95-1-.12,0-.22,0-.29-.02.29-.82.06-1.64-.59-2.06-.67-.44-1.56-.3-2.2.35-.09.09-.17.16-.24.22-.01-.11-.01-.24,0-.41.04-1.25-.52-2.01-1.68-2.26.02-.22.06-.48.11-.76.38-1.91.1-3-1.19-4.12.97.14,2.25.22,2.85-.15.25-.15.54-.47.56-1.11.05-1.72-2.13-5.42-3.96-6.7-.35-.25-.84-.59-.89-.7.01-.24.69-1.08,1.35-1.88,1.18-1.46,2.19-3.73,2.28-5.17.09-1.28.1-2.08-.5-2.47-.62-.39-1.36,0-2.02.36-.01,0-.02.01-.02.01.12-.42.21-1.03-.29-1.39-.57-.41-1.32-.24-3.89,1.83.1-.46.16-.93.16-1.36,0-.82-.05-1.66-.63-2.11-.58-.45-1.39-.3-2.17-.1-1.11.27-1.34.33-2.15-1.92-.76-2.09-2.3-4.18-3.72-3.94-.34.06-1.13.35-1.14,1.82-.01.66-.33,1.75-.7,2.33-.11.17-.17.24-.17.25-.27-.05-.92-.67-1.94-1.82-2.02-2.26-3.58-3.21-4.64-2.81-.43.17-.96.62-.96,1.81,0,.32-.26.58-.57.58-.73,0-1.32.31-1.65.84-.46.14-.97.4-1.54.79-1.18.81-1.62.8-2.52.32-.18-.09-.72-.37-.76-.5-.1-.36.86-1.96,1.63-3.24.92-1.53.73-2.01.66-2.17ZM170.33,17.21s.02-.04.03-.06c.73.05,1.46.11,2.19.17-1.07,0-2.67,1.29-3.14,1.73.33-.57.68-1.25.92-1.84ZM166.32,124.98c.61-.23,1.22-.48,1.84-.77.19.86.69,1.46,1.35,1.55.57.07,1.29-.26,1.6-1.43.09-.35.2-.56.28-.67.07.09.16.28.25.61.41,1.55,1.71,1.76,3.05,1.76,1.48,0,3.45,1.12,5.57,3.15.09.08.18.13.29.16,1.31.38,2.69.73,4.11,1.02.71,1.63,1.52,3.69,1.66,7.13.45,11.14-1.44,19.08-3.62,25.94-3.27-1.72-5.75-3.23-7.98-4.84-.02-.02-.04-.03-.06-.05-1.55-.87-3.25-2.2-5.06-3.97.1-.37.07-.83-.1-1.29-.11-.29.04-1.4.51-2.39.5-1.06.81-2.75.41-3.78-.19-.49-.17-1.27.01-1.73.14.26.35.5.65.65.41.21.9.2,1.5-.03,1.01-.39,1.23-1.04,1.28-1.4.07-.53-.11-1.37-1.39-2.32-.27-.2-.48-1.05-.35-2.08.14-.98.49-1.53.71-1.62,1.68-.65,2.55-2.82,2.4-4.46-.11-1.15-.71-1.94-1.62-2.15-.13-.13-.39-.62-.51-1.31-.25-1.41-.92-2.31-1.98-2.67-.56-.19-1.03-.62-1.1-.79-.13-.35-.37-.65-.66-.83-.35-.23-.76-.28-1.13-.14-.45.18-1.22.47.69,5.39,1.2,3.11,1.4,4.16,1.12,5.21-.2-.63-.59-1.37-1.31-1.35-.8.04-1.25.94-1.46,2.9-.02.18-.04.33-.06.46-.18-.37-.4-.86-.66-1.47-.73-1.69-1.42-3.28-3.1-2.63-1.49.57-1.28,2.15-.95,3.71.1.43.14.75.17.98-.69-.07-1.59.21-2.68.85-.27.16-.64.38-.95.54.06-.34.14-.75.2-1.02.39-1.81.17-2.49-1.17-3.63-.86-.75-2.12-1.24-2.85-.58-.06.05-.18-.01-.23-.08-.04-.04-.04-.09-.04-.12,0-.08.04-.15.09-.2.64-.57.86-1.35.61-2.07-.15-.41-.43-.77-.81-1.04.22-.15.45-.34.67-.54.44-.4.64-.93.58-1.5.55-.86.54-2.19-.06-3.35-.03-.05-.05-.11-.08-.17,1,.09,2.44-.59,3.34-1.31q1.33-1.06,3.23.13c.55.34,1.07.62,1.54.82.2.08.42.07.61-.03.18-.1.31-.28.35-.49.07-.42.16-.8.26-1.16.09.09.18.19.27.3.19.22.49.29.77.2ZM157.16,198.97c-.15-.02-.26-.05-.34-.07.02-.2-.05-.41-.2-.57,0,0-.34-.34-.71-.65-.24-.2-.5-.37-.77-.52.41-.43.28-1.12.17-1.73-.02-.09-.05-.23-.07-.36.47.06,1.38.27,2.21.47,1.78.42,4.09,1.05,5.14,1.41,1.24.43,1.98.48,2.47.17.27-.17.45-.44.48-.76.05-.36-.04-.71-.25-1-.21-.31-.54-.5-.89-.54-.18-.05-.92-.47-1.69-1.12-.62-.52-.71-.73-.73-.73,0,0,.02-.05.11-.13.15-.15.62-.59.58-1.21,0-.24-.09-.45-.21-.64.03,0,.05,0,.08,0,1.7.19,3.01.2,3.23-1.57.24-1.92-1.42-2.12-2.3-2.23-.61-.08-1-.25-1.16-.35-.01-.29-.14-.55-.36-.73-.34-.3-.85-.38-1.4-.23h-.01c.03-.09.06-.17.07-.26.04-.32-.09-.63-.36-.82-.51-.37-1.28-.14-1.84.12-.72.33-.82.38-1.51-.42-1.08-1.25-1.88-1.68-2.51-1.35-.19.1-.38.27-.46.58-.08-.06-.15-.13-.24-.21-1.34-1.27-2.48-1.69-3.13-1.15-.35.29-.61.87.07,2.03-.87-.59-2.32-.96-2.99-.17-.12.13-.77.52-1.59.83-.44.16-.8.36-1.1.6.04-.09.06-.19.06-.29.04-.49-.24-1.1-1.71-1.28-.51-.06-.94-.32-1-.42-.09-.18-.22-.34-.39-.48,1.02-.2,1.96-.51,2.85-.94,1.4-.68,2.46-1.73,3.92-3.17l.5-.5c.62-.61,1.22-1.24,1.74-1.82.74-.71,1.5-.93,1.97-.91.23,0,.33.07.35.09.08.09.11.65-.32,1.42-.03.03-.04.07-.06.11-.15.44-.47,1.35.17,1.78.56.39,1.12-.06,1.56-.41.02-.02.04-.04.07-.05-.02.19-.04.39-.06.53-.09.76-.17,1.48.5,1.7.75.25,1.21-.6,1.65-1.43,1.27-3.15,2.15-4.05,2.64-4.27.05.21.09.52.12.75.14,1.11.37,2.98,2.21,3.23,1.61.21,3.23-.9,4.53-1.8.46-.32.89-.62,1.17-.74.17-.07.3-.2.37-.37.19-.45.35-.9.47-1.36.17-.64.26-1.26.26-1.87.09-.17.22-.31.39-.4.29-.15.66-.13.93.07,1.21.87,2.76,1.92,4.72,3.24l.08.05c.9.61,1.87,1.19,2.96,1.77-1.38,3.9-2.96,8.6-4.41,14.16-.96,3.67-1.88,7.25-2.6,10.59-4.39-.01-7.57-.16-9.01-.49-.42-.09-1.03-.29-1.81-.6-.12-.4-.43-.85-1.2-1.14.15-.14.22-.31.2-.56-.04-.65-.6-.73-1.61-.89ZM144.87,189.46c.53.67.56.88.57.88-.04.04-.26.24-1.53.45-1.59.27-1.83.07-2.34-.59-.51-.65-1.42-1.24-2.25-1.24-.13,0-.25.01-.37.04,0-.07,0-.16.02-.29.05-.4.1-1.01.09-1.49.35-.07,1-.14,1.94-.13,1.23,0,2.57-.25,3.35-.75-.1.16-.18.34-.23.52-.22.8.03,1.68.75,2.6ZM145.46,205.98c-.07.03-.13.07-.19.1-.01-.04-.01-.06-.02-.06.03,0,.09-.03.21-.04ZM160.27,16.79c1.7,0,3.38.04,5.07.1-.41,1.06-.87,1.67-1.43,1.92-.64.29-1.33.47-1.85.56.01-.11-.01-.23-.07-.36-.3-.68-1.1-.65-3.32-.42-2.73.3-4.72,1.49-5.6,3.36-.25.52-.56,1.17-.11,1.64.21.21.46.27.71.24-.19.24-.36.45-.47.59-.74.9-1.54,2.09-1.39,2.84-.06.11-.22.29-.49.47-.24.16-.35.22-.35.25-.18-.14-.58-.82-.72-1.05-.93-1.61-1.56-1.54-1.76-1.51-.34.04-.61.28-.7.6-.02.02-.09.04-.19.01-.98-.29-1.92.37-2.39,1.1-.48.77-.47,1.58.02,2.14.1.11.14.27.15.28-.39.67-.52,2.32-.57,3.11-.24.58-.36,1.04-.36,1.38,0,.16-.25.39-.64.39-1.06,0-2.14.97-2.46,2.2-.09.37-.19.63-.26.82-.15-.47-.3-1.33-.3-2.75,0-1.64-.19-4.35-1.44-4.49-.08-.1-.24-.45-.24-.99,0-1.38-.65-2.38-1.54-2.38-1.13,0-1.53,1.72-1.53,3.19,0,.94-.09,1.3-.15,1.43-.03,0-.09-.03-.17-.06-.64-.24-1.25-.21-1.68.09-.34.23-.53.6-.53,1.02,0,.58,1.17,5.75,2.37,7.66-.35-.28-.71-.58-1.08-.91-3.7-3.35-4.12-2.98-4.43-2.71-.2.1-1.29.4-2.73.68-2.01.39-2.05.21-2.3-.74-.52-1.98-1.73-2.18-3.39-1.86-.28.05-.5.08-.67.09.12-.48-.06-.78-.28-.95-.88-.72-2.73.79-3.76,1.76q-1.46,1.38-3.15.27c-1.68-1.09-2.93-1.35-3.74-.77-.76.55-.92,1.68-.47,3.37.34,1.29.83,2.19,1.67,2.89-.03,0-.06,0-.09-.02-.63-.15-1.63-.08-2.79,1.08-.41.42-.52.53-1.25-.07-.72-.6-1.83-1.15-2.56-.93-.67.12-4.1-1.71-4.81-2.91-.5-.85-1.53-1.49-2.39-1.49-.32,0-1.12-.39-1.63-1.01-.75-.91-1.63-1.78-2.48-1.36-.8.4-.85,1.61-.2,4.29,1.14,4.66,1.99,5.76,6.09,7.86,2.55,1.3,3.42,2.52,3.37,2.99-.03.29-.62.47-.8.52-.78.2-1.42.66-1.72,1.23-.2.39-.23.82-.08,1.21.08.22.04.28.01.3-.55.59-3.89.6-9.55-1.23-1.28-.41-1.98-.63-2.38-.04-.39.57.08,1.14.68,1.86.76.92,2.18,1.64,3.25,1.64.62,0,1.17.61,1.41,1.55.49,1.97,1.77,2.69,4.07,3.26-1.25.47-2.26,1.31-2.49,2.22-.18.67.09,1.3.72,1.69.46.29.55.58.52.68-.02.07-.17.17-.5.17-1.59,0-3.14,2.18-3.37,3.59-.15.89.19,1.56.88,1.8.16.07.51.67.53,1.5.01,1.06.02,1.76.67,1.97.64.21,1.07-.35,1.71-1.2.16-.2.31-.36.44-.48-.03.07-.08.13-.14.2-.25.32-.36.7-.28,1.09.18.86,1.24,1.73,3.66,3,.81.42,1.56.84,2.19,1.21-.6-.16-1.22-.35-1.86-.57-1-.34-1.66-.56-2.05-.01-.38.54.04,1.08.53,1.69.64.82,1.8,1.43,2.7,1.43.42,0,.81.47.98,1.2.38,1.61,1.37,2.27,3.03,2.74-.88.42-1.57,1.07-1.76,1.77-.17.62.06,1.2.61,1.57.31.2.38.4.37.44-.01.02-.09.06-.27.06-1.37,0-2.6,1.85-2.81,3.07-.21,1.21.55,1.58.76,1.64.09.07.34.53.35,1.17.01.17.01.32.01.45-.46.14-.9.38-1.13.75-.18.3-.22.61-.13.91-.03.02-.06.04-.08.05-.18.13-.32.3-.39.5-.18-.01-.53-.05-1.14-.23-2.25-.65-5.37-.24-5.79,1.16-.13.45-.1,1.29,1.62,1.82.55.17,1.5.57,2.07.88.3.16.66.28,1.04.35-.34.61-.46,1.24-.11,1.67.12.15.59.6,1.43.07.11-.04.55,0,1.13.32.6.32.9.69.92.77-.02.07-.13.38-.52.96-.13.19-.16.42-.08.63.08.21.26.37.48.43l1.13.29c.3.08.62-.06.78-.33.48-.87.87-1.32,1.03-1.43.62-.07,1.07-.75,1.07-1.66h0c.06,0,.15.03.28.07.85.26,1.94.16,2.38-.56.08-.1.53-.33,1.06-.33.03,0,.06,0,.09,0-.04.23,0,.46.11.67.04.08.09.15.15.21-.38.31-.77.79-.5,1.34.14.28.55,1.14,3.93-.06.46-.16,1.23-.43,1.66-.53,0,.37,0,1.05.58,1.29.58.25,1.08-.25,1.35-.52.28-.28.89-.54,1.27-.54.11,0,.25.02.29.22.03.15-.02.43-.36.56-1.19.46-1.37,1.06-1.31,1.48.04.3.22.64.74.89-.33.32-.66.69-1.02,1.1-1.44,1.62-1.8,2.45-1.35,3.09.54.75,1.73.26,2.3.02.51-.21,1.1-.19,1.26-.1.61.32,1.58.25,2.24-.16.41-.25,1.66-.45,2.86-.39.61.4,1.31.63,1.96.63.31,0,.6-.06.87-.15l.28-.02s.07-.01.11-.01c.39-.09.49-.05.49-.05,0,0,.06.06.13.3.29.91.73,1.37,1.15,1.61-.26.1-.5.23-.75.41-4.87.07-4.87.89-4.87,1.38,0,.77.72,1.4,1.61,1.4.21,0,.84.32,1.26.85.25.32.62.65,1.14.87-.21-.03-.41.06-.56.22-.27.3-.49.6-.66.91-.16.31-.07.69.21.89l1.89,1.37c-.9.29-1.42.18-2.63-.43-1.17-.58-2.11-.88-3.12-.6.57-.6.56-1.14.48-1.46-.26-.93-1.46-1.41-3.39-1.4-3.74.07-6.13-.37-7.73-1.42-1.77-1.16-3.84-1.79-5.01-1.53-.57.12-.85.42-1,.68,0,0-.18.03-.77-.29-.87-.47-1.77-.48-2.54-.02-1.09.66-1.72,2.14-1.72,4.07,0,.33-.01.57-.03.75-.59-.3-1.4-.54-2.03-.65-2.55-.45-5.43-1.92-5.97-2.54.26-.87-.03-1.46-.42-1.74-.41-.29-1.14-.37-1.94.29-.11.09-.43.36-1.66-.2-.17-.08-.51-.24-.73-.36.12-.15.28-.34.36-.42.59-.65,1.66-.92,3.69-.92.79-.01,4.78-.09,5.38-1.55.16-.4.06-.83-.27-1.17-.61-.61-2.1-.13-2.71.1-.62.23-.96.26-1.09.27.06-.32.29-.99.75-1.81.11-.19.12-.42.03-.61-.08-.2-.26-.35-.47-.4l-1.12-.29c-.28-.08-.58.04-.75.28-.26.39-.56.78-.87,1.12-1.14,1.3-1.65,1.28-2.04,1.16-.46-.15-1.13-.3-1.64.07-.33.24-.5.64-.5,1.17,0,.15-.12.28-.27.28-.46,0-.84.15-1.08.42-.36-.23-.86-.57-1.5-1.03-1.63-1.18-2.83-2.6-2.97-3.1-.28-.96-1.04-1.98-1.77-2.37-1.91-1-6.77-1.43-9.14-.86.08-.18.12-.35.12-.51,0-.29-.16-.55-.43-.7-.52-.29-2.53-.32-4.43-.18.54-.54,1.14-1.57,1.39-2.42.19-.62.32-1.28-.04-1.78-.14-.19-.32-.32-.52-.4.26-.47.35-1.03.26-1.5-.02-.12-.06-.24-.1-.34.97-.23,1.93-.52,2.42-.78,1.37-.72,1.6-1.58,1.36-2.15-.09-.22-.43-.8-1.51-.69.27-.46.45-1.05.06-1.52-.35-.4-1.09-.77-3.53.68-.31.18-1.19.69-1.55.8l-.03-.06c-.36-.94-1.04-1.45-1.74-1.33-.51.1-1.06.58-1.07,1.63-.02,0-.04,0-.07-.02-.81-.32-2.02-.01-2.81.71-.13.11-.24.21-.33.29,0-.02,0-.04-.02-.07-.16-.41-.15-.86-.1-.96.21-.35.23-.73.05-1.06-.04-.08-.1-.16-.17-.23.25-.22.45-.52.33-.91-.19-.65-.92-.65-1.63-.66h-.02c-1.18,0-2.14.69-2.57,1.84-.26.69-.38,1.26-.13,1.78.04.06.07.13.12.18-.63.15-1.26.41-1.53.85-.09.11-.55.31-1.06.31-1.49,0-1.83.58-1.86,1.06,0,.1.01.2.03.3-.26-.27-.6-.51-1.02-.73-.77-.41-1.37-.88-1.47-1.01-.58-.87-2.06-.68-2.99-.2.81-1.07.62-1.68.31-2.01-.58-.62-1.76-.34-3.25.76-.09.07-.17.13-.25.18-.05-.32-.22-.51-.39-.63-.59-.41-1.44-.07-2.66,1.03-.78.71-.87.66-1.55.24-.52-.33-1.26-.66-1.81-.35-.29.16-.45.45-.45.78,0,.08.01.17.03.26t0-.01c-.23-.1-.47-.14-.69-.14C56.87,48.25,104.97,16.79,160.27,16.79ZM129.72,189.98c.07-.12.3-.33.63-.48.3-.13.5-.13.52-.12.1.08.29.57.21,1.21-.01.14-.03.26-.06.35-.32-.15-.78-.3-1.31-.44.06-.17.06-.36.01-.52ZM128.03,117.15c.4.09.86.11,1.41.03.12.21.3.44.51.71-.6-.24-1.23-.49-1.92-.74ZM115.84,44.79c0,1-.27,1.38-.39,1.4-.19.01-.94-.4-1.5-2.02-.35-.99-.76-1.66-1.17-2.1.57.28,1.26.54,2.08.79.58.19.98.96.98,1.93ZM49.81,97.32c-.03-.19-.08-.37-.16-.54.7.59,1.98,1,3.23,1.15.93.1,1.57.26,1.91.37-.07.47-.09,1.09-.09,1.48,0,.13-.01.23-.02.3-.88-.34-2.07.2-2.74.87-.59.59-.86.76-2.4.3-1.22-.36-1.43-.58-1.45-.58,0-.03.04-.24.66-.86.83-.83,1.18-1.67,1.06-2.49ZM129.48,270.82c-10.01,7.11-19.7,13.99-26.71,20.89-50.57-22.21-85.98-72.76-85.98-131.44,0-19.57,3.95-38.24,11.07-55.26.45.31,1.18.33,2.38.08,1.1-.23,3.47-.58,5.28-.78.88-.1,1.82-.19,2.25-.19-.04.12-.08.26-.11.35-.2.63-.42,1.34.03,1.82.1.1.21.18.34.22-.26.04-.53.04-.77,0-.72-.08-1.21.07-1.47.47-.07.11-.2.38-.11.74-.08.01-.17.02-.29.03-1.02.03-1.58.05-1.7.68-.05.24,0,.43.12.58-1.24.3-1.46,1.11-1.46,1.63,0,.21,0,.84.5,1.2.04.03.08.06.12.08-.64-.15-.78-.45-1.06-1.06-.62-1.36-1.3-2.05-2.95-1.54-3.26,1-3.45,2.62-3.27,3.5.04.23-.21,1.01-.75,1.6-.7.77-1.25,1.96-.94,2.76.06.18-.03.85-.37,1.4-.35.55-1.16,1.86-.33,2.47.96.72,2.8-1,4.18-2.56,2.86-3.25,5.93-4.55,6.57-4.15.67.42,3.22.7,4.47.79,1.86.14,3.09.48,3.37.65.28.37.79.55,1.37.6-.36.23-.65.55-.79.96-.12.37-.06.76.16,1.07.28.39.8.61,1.42.61.34,0,.98.2,1.51.49-.39.05-.77.19-.97.55-.3.57.07,1.17.37,1.65.9,1.44,1.63,1.41,3.22.58.84-.43,1.06-.41,1.12-.35.21.33.52.54.92.62.59.12,1.7.05,4.47-1.94.37-.26.48-.28.48-.29.03,0,.16.09.49.54.69.94,1.77,1.37,2.63,1.04.16-.06.35-.05.42.12.3.78.88,1.26,1.58,1.3.93.07,1.87-.62,2.52-1.83.33-.63.82-.84,1.04-.79.14.04.16.27.16.4,0,2.22,2.35,2.79,6.98,3.12,4.83.34,6.39.73,6.89.95-.11.36-.05.72.17,1.02.67.9,2.68.84,4.36.37,1.49-.41,2.1-.27,2.6.1.11.08.19.15.25.21-.45.4-.77,1.12-.77,1.78,0,.62-2,2.58-2.85,2.61-.83.02-1.96,1.18-2.5,1.86-.14.18-.41.53-.62.75-.03-.05-.07-.12-.12-.2-.31-.53-.74-1.13-1.36-.98-.04.01-.07.02-.1.03-.24-.33-.65-.81-1.22-.76-.59.07-.82.65-.89.82-.04.05-.39.19-1.19.02-.75-.15-1.46-.3-1.72.34-.29.69.25,1.04,2.02,2.21.01,0,.02,0,.03.02-.47.15-.84.44-1.01.83-.19.44-.14,1.13.65,1.62.14.08.04.46.02.54-.34,1.19-1.95,2.85-3.06,2.85s-2.09.59-2.4,1.38c-.1.26-.44.48-.65.48-.93,0-1.65.61-1.65,1.38,0,.28.1.53.28.73-.41-.16-.79-.25-1.13-.25-.52,0-1.24-.29-1.6-.63.29-.04.59-.14.84-.36.35-.31.52-.78.52-1.42,0-1.08-.53-1.53-.85-1.7-.47-.26-1.32-.39-2.67.46-.28.19-1.15.07-2.06-.43-.86-.48-1.25-1.01-1.25-1.24,0-1.8-1.71-3.41-3.3-3.86-1.1-.31-2.06-.04-2.58.73-.18.08-.72.15-1.41.01-1.41-.28-2.49.02-3.2.88-.38.46-.96.74-1.14.74-.87,0-1.55.57-1.55,1.31,0,.49,0,1.32,5.28,1.32,3.33,0,4.38.19,5.26.84-.67-.04-1.51.03-1.74.73-.25.76.42,1.5,2.18,2.41.16.08.29.15.41.22-.42.03-.95.06-1.61.09-1.84.07-3.58.13-3.58,1.93,0,1.6,1.54,1.97,3.12,2.23.44.07.75.14.97.2-.32.61-.38,1.55-.17,2.8.04.29.11.73.16,1.08-.3-.17-.65-.4-.88-.55-1.55-1.02-2.26-1.06-3.81-.23-1,.54-1.92,1.53-1.57,2.45.01.04-.03.14-.15.19-.06.02-.11,0-.14-.01-.04-.02-.11-.06-.15-.16-.3-.8-.94-1.29-1.71-1.31-.44-.03-.87.12-1.26.37-.06-.26-.15-.53-.26-.81-.22-.57-.67-.96-1.26-1.11-1.11-.26-2.67.4-4.16,1.76-.8.73-2.4.76-3.24.3-.43-.24-.4-.44-.38-.51.19-1.09-.48-2-1.2-2.3-.63-.26-1.29-.09-1.67.44-.2.22-1.47,1.04-3.09,1.88-1.87.98-2.65,1.63-2.79,2.34-.01.03-.02.07-.02.1-.35-.42-.68-.68-1.14-.53-.6.2-.61.83-.62,1.62-.01.52-.22.89-.26.94-.47.15-.92.64-.78,1.52.18,1.13,1.38,2.8,2.66,2.8.1,0,.18,0,.18.01-.03.06-.1.16-.28.27-.54.34-.77.88-.62,1.46.16.59.73,1.15,1.47,1.54-1.43.41-2.29,1.02-2.63,2.4-.16.61-.49,1-.87,1-.84,0-1.93.54-2.53,1.27-.45.54-.88,1.05-.51,1.59.37.55,1,.35,1.95.04,4.46-1.43,6.58-1.25,6.82-.93-.13.34-.1.71.07,1.04.24.48.74.84,1.38,1.01.34.09.44.2.45.22.05.15-.41,1.02-2.38,2.02-3.05,1.56-3.74,2.44-4.59,5.91-.51,2.1-.44,3.01.25,3.36.83.41,1.65-.57,2.05-1.05.34-.41.89-.68,1.06-.68.69,0,1.52-.51,1.92-1.18.47-.81,2.77-2.06,3.32-2.06h.02c.69.2,1.62-.36,2.06-.72.31-.26.41-.27.41-.27,0,0,.08.02.26.2.66.66,1.26.87,1.74.89-.42.48-.69,1.07-.9,1.84-.35,1.33-.21,2.23.42,2.68.67.49,1.64.3,2.96-.56q1.13-.74,2.11.18c1.42,1.34,2.44,1.78,3.01,1.3.14-.11.3-.31.3-.63.07.01.16.02.25.04,1.14.22,2.27.19,2.71-1.5.16-.63.18-.67,1.49-.42,1.03.2,1.74.4,1.93.48.35.28.8.43,3.5-2.01.05-.05.1-.09.14-.13-.8,1.76-1.39,4.62-1.39,4.95,0,.38.17.71.47.91.35.24.84.28,1.34.11.03.14.05.39.05.81,0,1.23.35,2.54,1.32,2.54.76,0,1.31-.82,1.31-1.94,0-.27.06-.47.11-.56.93-.21,1.13-1.97,1.13-3.47,0-.54.03-.97.08-1.31.28.97,1.11,1.69,1.96,1.69.18,0,.28.08.3.1,0,.66.56,1.82,1.12,2.62l1,1.42c.12.17.31.28.52.29.21.02.41-.06.56-.21l1.21-1.31c.91-.97,1.29-2.17,1-3.13,0,0,.03.01.04.01,1.08.28,1.74-.22,2.01-.79.5-1.08-.14-2.66-1.46-3.58-.04-.03-.1-.07-.15-.11.92-.39,1.88-1.66,2.35-2.71q.69-1.56,2.92-1.39c1.36.1,3.08.05,3.77-.79.11.09.28.25.55.57.76.87,2.19,1.56,3.27,1.56.68,0,1.98.54,2.69.96-.13.3-.18.83.8,1.91.71.78.7.79.29,1.28-.23.28-.66.8-.5,1.41.18.67.89.98,1.95,1.38.85.32,1.33.66,1.41.99.05.22-.02.77-1.12,1.93-.83.89-1.29,1.38-1.23,2.02.05.59.52.93,1.12,1.37.05.04.11.08.15.11-1,.47-1.4,1.43-1.26,2.18.14.74.76,1.22,1.58,1.22.12,0,.23.11.23.24,0,1.04.52,1.39.83,1.5.86.34,2.05-.36,3.62-2.12.7-.78,1.05-1.1,1.23-1.22.01,0,.02.03.04.05.25.39.48,1.17.48,1.62.01,1.22.7,1.46,1,1.51,1.14.19,2.34-1.36,2.94-3.01.54-1.5.62-1.48,1.37-1.3.62.16,1.27.28,1.76-.11.49-.38.54-1.05.54-1.7,0-.18-.02-.36-.04-.55,1.56,1.22,2.19,1.43,2.71,1.05.31-.22.38-.54.35-.84.44.22.93.37,1.36.09.56-.36.51-1.11.45-1.98-.07-1.09-.83-2.81-1.72-3.91-.38-.46-.81-.98-.93-1.22.12-.11.37-.29.55-.41,1.42-.99,3.04-3.75,3-5.09,0-.58-.32-.85-.5-.96-.39-.25-1.09-.26-1.69-.2.67-.76.8-1.58.55-2.83-.08-.4-.09-.72-.09-.92.83.12,1.43.63,1.43,1.27,0,.46.06,1.11.57,1.46.36.24.82.26,1.37.05,2.53-.98,3.61-.95,5.77.16,1.38.69,2.44,1.72,2.56,2.12.2.62.55,1.48,1.32,1.66.42.11.81-.03,1.12-.22.01.14.02.32.02.53,0,.81-.17,1.9-.97,2.5-.81.62-1.3.99-1.11,1.6.2.59.83.6,1.39.61.8.02,2.6-.65,3.85-1.29l1.3-.66-.13,1.62c-.18,2.25.1,3.53.97,4.41.47.46,1.03.91,1.63.77.13-.03.32-.1.49-.28.21.73.57,1.49.94,1.95-1.87-.37-3.87-.58-4.42-.36-.29.12-.48.36-.52.64-.02.16.01.34.06.52-1.77-.67-4.93-.87-7.12-.67-.14.02-.27.07-.37.16-.43.34-.84.74-1.25,1.22-.09.11-.15.21-.16.35-.03.1-.19.39-.3.58-.29.51-.61,1.09-.66,1.64-.02.24.09.47.29.62.2.14.46.17.68.07.6-.27,1.16-.44,1.65-.54.37-.06.89-.06,1.48.01.97.11,1.84.37,2.41.6-.12.01-.23.01-.35,0-1.1-.13-1.96.32-2.05,1.08-.03.27.02.78.77,1.18.36.2.84.34,1.34.4.2.02.35.06.46.09-.02.16-.01.31.05.46.08.2.31.79,2.1,1.07-.12.21-.16.44-.15.65.04.54.52,1.22,1.74,1.37.34.04.4.21.43.27.13.33,0,1-.59,1.71-.23.28-.28.35-1.67-.44-1.63-.92-2.96-.51-3.67-.29-.12.03-.29.08-.34.09l-.96.07c-.19,0-.38.08-.51.23-.05.04-.08.1-.11.15-.6,1.19-.34,2.06-.02,2.57.49.79,1.41,1.24,2.36,1.46-.08.04-.17.08-.27.13-.41.18-.84.37-1.16.73-.16.18-.21.43-.15.65.06.23.24.41.46.48.73.22,1.4.54,1.99.81l.45.21c.2.09.43.08.62-.03.2-.11.33-.3.35-.52.03-.2-.01-.39-.07-.55.67.18,1.34.55,1.67,1.29.11.23.34.39.6.41,3.13.15,3.88.11,4.12-1.89.02-.13.06-.35.21-.37.23-.03.68.24.94.9.49,1.28,1.34,2.07,2.26,2.13.71.03,1.35-.36,1.74-1.1.03-.06.08-.1.14-.11.09-.03.19-.01.29.04.81.44,1.94.14,2.74-.71.38-.41.52-.47.52-.47.02,0,.14.04.46.34,2.52,2.31,3.61,2.51,4.21,2.47.4-.03.74-.2,1.02-.55.04-.01.26,0,1.04.53,1.48,1.02,2.19,1.14,3.26-.18.36-.44.81-1,.57-1.59-.16-.39-.51-.57-.9-.67.57-.22,1.23-.35,1.56-.3.62.07,1.16-.08,1.49-.44.26-.28.36-.66.29-1.04-.09-.42-.34-.77-.67-1.05.59.03,1.11-.09,1.44-.43.29-.13,1.55-.32,3.41-.23.75.04,1.51.05,2.23.03,3.82.79,5.23,1.25,5.74,1.5,3.18,1.57,5.83,3.63,7.88,6.13-.34,7.39,1.36,13.32,5.34,18.65.35.47.72.95,1.09,1.42.6.77,1.25,1.53,1.98,2.31-5.23,3.53-12.57,8.98-21.01,15.24-7.08,5.25-15.1,11.2-22.92,16.78-1.33.95-2.67,1.9-4,2.84ZM202.27,295.54l-1.67,1.72c-7.4.19-16.22-.24-26.24-1.28-9.44-.98-17.83-2.15-24.94-3.48.08-2.25.39-4.45.91-6.54,7.57-.39,21.43-.84,32.8.14,8.89.77,18.25,2.24,24.91,3.42-1.85,1.98-3.84,4.03-5.77,6.02ZM217.07,278.24c-4.53-.71-14.4-2.11-32.09-3.94-9.59-1-18.07-2.19-25.23-3.53,1.35-1.18,2.83-2.31,4.42-3.35,6.59-.39,22.85-1.15,35.87-.02,5.59.48,11.97,1.29,18.97,2.41.7,2.26.06,5.03-1.94,8.43ZM245.8,275.41c-.64-4.25-1.72-8.01-3.02-10.36-10.9-19.75-21.28-25.93-31.32-31.9l-.26-.15c4.35-5.52,7.21-10.89,8.51-15.97.37-.21.76-.43,1.17-.63,1.61-.79,6.26-1.64,9.98-2.16.26.51.95.85,1.76.77.32-.01,1.33.44,2.15,1.17,1.03.92,2.53,1.57,3.51,1.48.52-.05,1.25.19,1.64.51-.28.06-.57.18-.8.43-.32.33-.46.81-.4,1.45.08,1.07.64,1.48.97,1.63.49.22,1.35.28,2.62-.68.27-.2,1.15-.16,2.1.27.9.4,1.33.91,1.34,1.14.15,1.79,1.98,3.25,3.6,3.58,1.13.22,2.06-.13,2.52-.94.16-.09.7-.2,1.4-.12,1.43.17,2.48-.22,3.12-1.13.34-.49.89-.81,1.08-.82.86-.07,1.5-.7,1.44-1.44-.04-.49-.11-1.31-5.37-.89-3.32.27-4.38.16-5.31-.42.67,0,1.5-.15,1.67-.87.19-.77-.54-1.46-2.37-2.23-.15-.06-.29-.12-.42-.18.41-.07.95-.14,1.6-.22,1.83-.21,3.55-.42,3.41-2.21-.13-1.59-1.69-1.84-3.29-1.97-.44-.03-.75-.08-.98-.12.27-.64.25-1.58-.05-2.81-.07-.3-.18-.72-.24-1.06.3.15.67.35.91.48,1.63.89,2.34.87,3.82-.08.96-.62,1.8-1.68,1.37-2.63.02-.06.07-.11.13-.14.1-.05.24.02.3.15.37.77,1.06,1.23,1.82,1.17.43-.02.85-.19,1.22-.47.08.25.2.52.32.79.27.55.74.9,1.35.99,1.12.18,2.63-.6,4.01-2.08.74-.79,2.33-.95,3.21-.55.44.2.42.4.41.47-.1,1.1.64,1.95,1.38,2.2.65.22,1.29-.02,1.63-.57.15-.2,1.27-1.08,2.93-2.13,1.79-1.12,2.51-1.83,2.6-2.55,0-.03.01-.07.01-.1.38.39.73.62,1.18.44.58-.25.54-.87.49-1.67-.04-.52.14-.91.18-.95.45-.2.87-.71.66-1.58-.28-1.11-1.59-2.69-2.89-2.58h-.18c.03-.06.1-.17.27-.29.51-.38.69-.93.49-1.5-.2-.58-.81-1.09-1.58-1.42,1.39-.53,2.2-1.2,2.43-2.6.11-.62.41-1.04.78-1.07.84-.06,1.89-.7,2.43-1.47.4-.57.78-1.12.38-1.62-.41-.52-1.03-.27-1.95.11-4.33,1.78-6.46,1.78-6.72,1.47.1-.34.04-.71-.16-1.03-.03-.06-.08-.13-.13-.18.26.03.48.06.67.11.23.06.47,0,.65-.17l3.6-3.37c.21-.2.27-.5.17-.77-.11-.26-.36-.43-.65-.43h-.14c-.57,0-1.12-.06-1.63-.13l.13-.12s.05-.05.07-.07l.09-.13c.63.32,1.11.44,1.47.44.52,0,.8-.24.94-.45.22-.33.38-1.02-.63-2.08.45.05.82,0,1.11-.27.47-.43.37-1.12.29-1.63-.07-.53-.11-.79,1.16-1.22,1.27-.42,1.37-.46,2.55.91.79.91,1.42,1.49,2.13,1.51.4.03.76-.14,1.08-.46.06-.05.11-.11.15-.17.61.08,1.47-.42,2.6-1.48q.98-.92,2.11-.18c1.32.87,2.29,1.05,2.96.56.63-.45.77-1.35.42-2.67-.21-.77-.48-1.36-.9-1.84.48-.02,1.08-.23,1.74-.89.17-.17.25-.2.25-.2.01,0,.12,0,.42.26.44.36,1.36.92,2.03.73.54,0,2.91,1.26,3.37,2.05.4.68,1.23,1.18,1.92,1.18.17,0,.72.27,1.06.68.19.23.47.57.8.82-4.94,39.74-26.2,74.49-56.85,97.32ZM303.26,172.24c-.67-1.41-1.66-2.14-3.7-3.18-1.96-1.01-2.43-1.87-2.38-2.03.01-.02.11-.13.45-.22.64-.17,1.14-.53,1.38-1,.12-.24.17-.49.13-.75.34.06.79.17,1.18.27.98.24,2.15.53,3.32.62-.09,2.11-.21,4.21-.38,6.29ZM301.31,159.39c.74-.38,1.31-.94,1.47-1.54.15-.58-.08-1.12-.62-1.45-.2-.13-.28-.25-.32-.25.03-.02.1-.04.22-.04.58,0,1.14-.35,1.6-.82.06,1.65.1,3.31.1,4.98,0,.32-.01.64-.01.97-.41-1-1.22-1.49-2.44-1.85ZM160.27,0C71.76,0,0,71.75,0,160.27s71.76,160.28,160.27,160.28,160.28-71.76,160.28-160.28S248.79,0,160.27,0ZM255.73,98c.74.17,1.31-.49,1.89-1.24.27-.35.48-.72.63-1.08.11-.01.22-.03.33-.07.51-.18.71-.71.82-.99.32-.83-.06-2.06-.91-3.01-.16-.17-.3-.38-.42-.61.27-.1.54-.23.75-.36.68-.43.89-.9.84-1.39.64.42,1.34.67,1.89.33.3-.19.74-.67.3-1.8-.12-.3-.03-.58.03-.63.58-.36.76-1.13.48-2.1-.19-.69-.69-1.63-1.4-2.05.06-.08.13-.17.22-.27.67-.78.89-.66,1.26-.47.41.22,1.01.48,1.59.26.22-.09.52-.29.7-.75.18.03.61.15,1.59.61,1.8.85,3.13.88,3.63.08.28-.44.46-1.39-1.38-2.88-1.11-.9-1.22-1.32-1.03-2.33.04-.19.16-.79.27-.86.32-.2,2.12.26,3.57.63,1.73.45,2.14.13,2.27.02.17-.13.3-.39.3-.6,0-1.08-1.99-2.47-2.6-2.84.63.16,1.38.3,2.02.36.64.06,1.37.27,1.83.5,7.95,10.62,14.46,22.36,19.25,34.95,4.78,12.59,7.85,26.02,8.9,40-.07-.08-.17-.14-.29-.18-.45-.15-.79.12-1.14.54,0-.04-.01-.07-.02-.11-.14-.71-.92-1.36-2.79-2.33-1.62-.85-2.89-1.67-3.07-1.87-.4-.54-1.06-.72-1.69-.46-.72.31-1.39,1.22-1.2,2.3.02.07.05.27-.37.51-.85.46-2.45.43-3.25-.3-1.49-1.36-3.04-2.01-4.16-1.75-.59.14-1.04.53-1.26,1.1-.11.28-.2.56-.26.81-.39-.25-.84-.39-1.26-.37-.77.03-1.41.52-1.71,1.31-.03.08-.09.14-.15.17-.03,0-.08.03-.14,0-.12-.04-.16-.15-.15-.19.35-.91-.57-1.91-1.57-2.45-1.55-.83-2.27-.79-3.81.23-.23.15-.58.38-.88.55.04-.34.11-.77.16-1.07.21-1.26.15-2.2-.17-2.81.22-.06.53-.13.97-.2,1.58-.25,3.12-.63,3.12-2.22,0-1.81-1.74-1.87-3.58-1.94-.66-.03-1.19-.06-1.61-.09.12-.06.26-.14.41-.21,1.76-.91,2.43-1.66,2.18-2.42-.23-.7-1.07-.78-1.74-.73.88-.64,1.93-.84,5.26-.84,5.28,0,5.28-.82,5.28-1.31,0-.74-.68-1.32-1.55-1.32-.18,0-.76-.28-1.14-.73-.71-.87-1.79-1.17-3.2-.88-.69.13-1.23.06-1.41-.01-.52-.77-1.48-1.05-2.58-.73-1.59.45-3.3,2.05-3.3,3.85,0,.23-.39.77-1.25,1.24-.91.5-1.78.62-2.07.43-1.34-.85-2.19-.72-2.66-.46-.32.18-.85.63-.85,1.7,0,.65.17,1.11.52,1.42.25.22.55.32.84.36-.36.34-1.08.64-1.6.64-.34,0-.72.08-1.13.24.18-.19.28-.45.28-.72,0-.78-.72-1.39-1.65-1.39-.21,0-.55-.22-.65-.48-.21-.54-.77-1-1.49-1.23-.25-.08-.53-.01-.71.18-.87.9-1.72,1.91-2.56,3.01-.19.03-.39.07-.6.12-.33.08-.6.13-.81.16-.03-.2-.1-.42-.2-.67-.29-.7-1.1-2.04-2.07-2.04-.77,0-1.29.9-1.29,2.23,0,.23-.03.38-.05.48-.17-.12-.48-.44-.81-1.14-.68-1.45-1.88-1.73-4.49-1.86-2.22-.11-3.1-.05-3.57.5-.38.44-.28.98-.25,1.16.2,1.03,2.18,2.39,3.32,3.03l.85.48c-.68.07-1.73.24-2.21,1.04-.71-.46-1.87.21-2.76,1.05-1.12,1.06-1.25.99-2.05.56-2.01-1.07-7.9.06-9.55,1.52-.39.35-.54.69-.57.97-.71.12-2.26,0-3.08-.19.31-.2.77-.47,1.39-.75,2.87-1.29,2.87-1.97,2.87-2.23,0-.3-.14-.59-.4-.81-.89-.76-3.47-.73-5.49-.39-1.29.22-2.18.05-2.34-.07-.43-.43-1.31-.99-2.38.08-1.21,1.21-.07,2.43.61,3.15h0c-.4-.08-.85-.05-1.34.25-.03.01-.05.03-.08.05-.73.53-1.52.99-2.33,1.37-2.12,1-3.87,1.21-5.9,1.45-1.15.13-2.43.28-3.93.6,2.66-5.7,5.38-12.1,6.54-17.88,2.01-.35,3.97-.75,5.85-1.21.2-.05.37-.18.46-.37.43-.91.85-1.87,1.14-2.62.57.51,1.24.83,1.87.84.65,0,1.14-.27,1.43-.78.29.18.64.19.93.03.59-.33.71-1.19.71-1.85s.17-.89.24-.89c.34,0,.67-.12.93-.33-.78,1.36-.64,4.98-.32,6.1.25.87.7,1.05,1.05,1.05.8,0,1.4-.92,1.62-1.77.02-.08.04-.14.06-.2.62.48,1.14.35,1.41.23.81-.38,1.22-1.62,1.22-3.69,0-.59.59-1.79,1.88-3.01.7-.67,2.02-2.04,2.45-2.91.05.06.12.12.2.2.58.58,1.49,1.2,2.15,1.22.12.99,1.95,1.44,2.75,1.59,1.14.21,2.12.83,2.3,1.16.46.87,1.81,1.72,2.85,2.08.75.27,1.26.62,1.41.78.04.52.34.92.8,1.1.85.33,2.14-.18,3.07-1.21,1.06-1.17,1.04-2.23.6-4.17-.19-.87-.29-1.55-.32-1.95,1.01.13,3.38,1,3.93,1.47.06.46.33.65.5.73.54.25,1.07-.09,1.51-.46.24-.2.62-.42,1.27-.09,1.21.61,3.45.37,4.37-.25.55-.37.6-.83.58-1.06-.08-1.09-.09-1.18,1.14-1.65,1.03-.39,2.15-1.05,1.73-2.67-.05-.17-.06-.3-.06-.38,1.43-.21,3.73-2.73,4.09-4.01.23-.81-.24-1.18-.39-1.27-.01,0-.02-.01-.03-.02.18-.18.7-.56,2.13-1.24,2.16-1.03,2.26-1.64,2.3-1.84.02-.1,0-.23-.04-.36.08-.1.23-.27.47-.46.64-.48,1.14-.86.94-1.46-.19-.6-.83-.61-1.63-.62-.79-.01-1.22-.37-1.25-.46.01-.02.04-.06.12-.11.41-.25.63-.58.66-.96.04-.62-.44-1.1-.91-1.49-.44-.36-1.1-.76-1.7-.59-.25.07-.45.23-.58.44-.32.11-1.3.24-2.76.14-2.17-.15-2.99-.21-3.39.41-.35.54-.03,1.13.27,1.69.02.05.1.18.21.36-.72-.4-1.42-.7-1.8-.7-.27,0-.6.21-.71.45-.04.08-.08.18-.08.31-.47-.4-.9-.7-1.4-.58-.55.14-.76.68-.91,1.08-.06.15-.16.31-.3.26-.14-.05-.32-.28-.19-.68.21-.67.17-1.28-.12-1.67-.19-.26-.48-.41-.78-.41-.14,0-.6-.23-.97-.59-.51-.48-1.71-1.22-2.71-1.66-1.09-.49-1.01-.72-.93-.91.31-.82.07-1.71-.64-2.4.19-.06.36-.16.48-.28.24,1.17.51,1.98,1.23,2.15ZM231.97,178.4s-.04-.01-.05-.01c-1.1-.2-1.72.36-1.94.94-.41,1.13.35,2.64,1.74,3.46.05.03.11.06.16.09-.89.46-1.74,1.81-2.12,2.9q-.56,1.61-2.8,1.62c-.65,0-1.24.05-1.75.13-.2.04-.39.16-.49.35-.1.18-.11.4-.03.6,1.48,3.65,1.03,6.19-1.38,7.76-.11.07-.2.18-.26.3-1.1,2.42,1.72,4.01,3.4,4.95.19.11.38.22.56.33.01.52.1,1.04.17,1.5.08.49.18,1.05.1,1.34l-.49.32h0c-.16.04-.3.14-.4.27-2.74,1.79-4.4,2.64-5.4,3.03.37-8.05-1.68-15.34-6.27-22.27-5.11-7.73-11.83-12.18-17.87-15.47,3.08-2.94,6.42-5.12,9.93-6.49,2.67-1.03,5.52-1.51,8.46-1.43l.4.08c2,.38,3.89.74,5.11,2.24.08.1.19.17.31.22.45.16.92.65,1.21,1.25.14.29.46.44.77.37.6-.12,1.15-.1,1.63.07,1.97.69,2.78,3.9,3.37,6.24.53,2.07.88,3.44,1.98,3.45h.01c.96,0,1.5-1.19,1.9-2.42h.01c.2-.18.35-.3.45-.38.09.24.2.83.24,1.55-.76,1.03-1.02,2.2-.66,3.11ZM201.09,198.82c.21,1.49.31,3.05.3,4.66-5.29-.51-10.11-1.06-14.34-1.64,0-.95.04-1.95.12-2.97,4.16-.15,8.83-.16,13.92-.05ZM188.8,189.67c.5-1.92,1.11-3.92,1.82-5.97,2.34,1.21,4.1,2.47,5.5,3.95.3.31.59.64.87.99-2.56.36-5.31.71-8.19,1.03ZM199.88,212.78c-1.03,2.91-2.64,5.77-4.79,8.52-.91-.9-1.76-1.85-2.53-2.81-1.39-1.75-2.51-3.61-3.38-5.67,3.78-.06,7.37-.08,10.7-.04ZM194.69,248.94c.69.42,1.38.83,2.07,1.25,3.25,1.97,6.35,3.85,9.26,5.84-1.33-.15-2.7-.29-4.12-.44-4.95-.51-9.67-1.09-14.09-1.71,2.4-1.61,4.71-3.27,6.88-4.94ZM173.36,17.82c-.07-.2-.29-.4-.49-.46-.03-.01-.06-.01-.09-.02,31.47,2.73,60.06,15.66,82.45,35.47-.23.12-.42.29-.57.53-.08.13-.22.21-.22.22-1.1-.27-5.74.75-6.33,1.7-.15.25-.18.54-.09.83.25.73,1.19,1.15,1.58,1.3.63.24,1.04.77,1.04.97,0,.05-.01.09-.01.12-.39.08-1.7-.09-2.21-.16-1.89-.25-2.82-.28-3.37.2-.27.24-.41.59-.41,1.02,0,.7.45,1.42,1.25,1.97.33.22.74.43,1.19.57-.45.28-.8.62-1.02,1-.1.19-.31.56-1.48.34-.76-.15-1.47-.28-1.96.16-.51.47-.44,1.23-.34,2.2.19,1.98.77,2.57,2.57,2.6.31,0,.63.05.92.12-.25.01-.55.01-.9.01-1.65,0-2.77-.24-3.04-.38-.37-.47-1.18-.7-1.91-.8.67-.29,1.14-.71,1.14-1.3,0-.92-1.18-1.24-2.29-1.24-.32,0-.51-.02-.62-.04.01-.05.03-.13.06-.22.26-.81-.05-1.7-.78-2.27-.63-.49-1.4-.61-2.04-.35-.24-.16-.7-.57-1.22-1.22-1.15-1.44-2.21-1.69-2.9-1.68-.4.02-.91.14-1.44.57-.09-.27-.31-.54-.73-.66-.97-.29-2.96.28-3.59,1.24-.07.11-.32.25-.78.33-1.11.18-2.99-.15-4.07-1-1.52-1.2-3.13-1.74-4.2-1.42-.38.12-.69.34-.89.64-.32-.1-.92-.38-1.76-.95-1.82-1.23-3.23-1.66-4.43-1.36-.29.07-.51.08-.65.08-.2-.6-.96-1-1.95-1-.12,0-.22,0-.29-.02.29-.82.06-1.64-.59-2.06-.67-.44-1.56-.3-2.2.35-.09.09-.17.16-.24.22-.01-.11-.01-.24,0-.41.04-1.25-.52-2.01-1.68-2.26.02-.22.06-.48.11-.76.38-1.91.1-3-1.19-4.12.97.14,2.25.22,2.85-.15.25-.15.54-.47.56-1.11.05-1.72-2.13-5.42-3.96-6.7-.35-.25-.84-.59-.89-.7.01-.24.69-1.08,1.35-1.88,1.18-1.46,2.19-3.73,2.28-5.17.09-1.28.1-2.08-.5-2.47-.62-.39-1.36,0-2.02.36-.01,0-.02.01-.02.01.12-.42.21-1.03-.29-1.39-.57-.41-1.32-.24-3.89,1.83.1-.46.16-.93.16-1.36,0-.82-.05-1.66-.63-2.11-.58-.45-1.39-.3-2.17-.1-1.11.27-1.34.33-2.15-1.92-.76-2.09-2.3-4.18-3.72-3.94-.34.06-1.13.35-1.14,1.82-.01.66-.33,1.75-.7,2.33-.11.17-.17.24-.17.25-.27-.05-.92-.67-1.94-1.82-2.02-2.26-3.58-3.21-4.64-2.81-.43.17-.96.62-.96,1.81,0,.32-.26.58-.57.58-.73,0-1.32.31-1.65.84-.46.14-.97.4-1.54.79-1.18.81-1.62.8-2.52.32-.18-.09-.72-.37-.76-.5-.1-.36.86-1.96,1.63-3.24.92-1.53.73-2.01.66-2.17ZM170.33,17.21s.02-.04.03-.06c.73.05,1.46.11,2.19.17-1.07,0-2.67,1.29-3.14,1.73.33-.57.68-1.25.92-1.84ZM166.32,124.98c.61-.23,1.22-.48,1.84-.77.19.86.69,1.46,1.35,1.55.57.07,1.29-.26,1.6-1.43.09-.35.2-.56.28-.67.07.09.16.28.25.61.41,1.55,1.71,1.76,3.05,1.76,1.48,0,3.45,1.12,5.57,3.15.09.08.18.13.29.16,1.31.38,2.69.73,4.11,1.02.71,1.63,1.52,3.69,1.66,7.13.45,11.14-1.44,19.08-3.62,25.94-3.27-1.72-5.75-3.23-7.98-4.84-.02-.02-.04-.03-.06-.05-1.55-.87-3.25-2.2-5.06-3.97.1-.37.07-.83-.1-1.29-.11-.29.04-1.4.51-2.39.5-1.06.81-2.75.41-3.78-.19-.49-.17-1.27.01-1.73.14.26.35.5.65.65.41.21.9.2,1.5-.03,1.01-.39,1.23-1.04,1.28-1.4.07-.53-.11-1.37-1.39-2.32-.27-.2-.48-1.05-.35-2.08.14-.98.49-1.53.71-1.62,1.68-.65,2.55-2.82,2.4-4.46-.11-1.15-.71-1.94-1.62-2.15-.13-.13-.39-.62-.51-1.31-.25-1.41-.92-2.31-1.98-2.67-.56-.19-1.03-.62-1.1-.79-.13-.35-.37-.65-.66-.83-.35-.23-.76-.28-1.13-.14-.45.18-1.22.47.69,5.39,1.2,3.11,1.4,4.16,1.12,5.21-.2-.63-.59-1.37-1.31-1.35-.8.04-1.25.94-1.46,2.9-.02.18-.04.33-.06.46-.18-.37-.4-.86-.66-1.47-.73-1.69-1.42-3.28-3.1-2.63-1.49.57-1.28,2.15-.95,3.71.1.43.14.75.17.98-.69-.07-1.59.21-2.68.85-.27.16-.64.38-.95.54.06-.34.14-.75.2-1.02.39-1.81.17-2.49-1.17-3.63-.86-.75-2.12-1.24-2.85-.58-.06.05-.18-.01-.23-.08-.04-.04-.04-.09-.04-.12,0-.08.04-.15.09-.2.64-.57.86-1.35.61-2.07-.15-.41-.43-.77-.81-1.04.22-.15.45-.34.67-.54.44-.4.64-.93.58-1.5.55-.86.54-2.19-.06-3.35-.03-.05-.05-.11-.08-.17,1,.09,2.44-.59,3.34-1.31q1.33-1.06,3.23.13c.55.34,1.07.62,1.54.82.2.08.42.07.61-.03.18-.1.31-.28.35-.49.07-.42.16-.8.26-1.16.09.09.18.19.27.3.19.22.49.29.77.2ZM157.16,198.97c-.15-.02-.26-.05-.34-.07.02-.2-.05-.41-.2-.57,0,0-.34-.34-.71-.65-.24-.2-.5-.37-.77-.52.41-.43.28-1.12.17-1.73-.02-.09-.05-.23-.07-.36.47.06,1.38.27,2.21.47,1.78.42,4.09,1.05,5.14,1.41,1.24.43,1.98.48,2.47.17.27-.17.45-.44.48-.76.05-.36-.04-.71-.25-1-.21-.31-.54-.5-.89-.54-.18-.05-.92-.47-1.69-1.12-.62-.52-.71-.73-.73-.73,0,0,.02-.05.11-.13.15-.15.62-.59.58-1.21,0-.24-.09-.45-.21-.64.03,0,.05,0,.08,0,1.7.19,3.01.2,3.23-1.57.24-1.92-1.42-2.12-2.3-2.23-.61-.08-1-.25-1.16-.35-.01-.29-.14-.55-.36-.73-.34-.3-.85-.38-1.4-.23h-.01c.03-.09.06-.17.07-.26.04-.32-.09-.63-.36-.82-.51-.37-1.28-.14-1.84.12-.72.33-.82.38-1.51-.42-1.08-1.25-1.88-1.68-2.51-1.35-.19.1-.38.27-.46.58-.08-.06-.15-.13-.24-.21-1.34-1.27-2.48-1.69-3.13-1.15-.35.29-.61.87.07,2.03-.87-.59-2.32-.96-2.99-.17-.12.13-.77.52-1.59.83-.44.16-.8.36-1.1.6.04-.09.06-.19.06-.29.04-.49-.24-1.1-1.71-1.28-.51-.06-.94-.32-1-.42-.09-.18-.22-.34-.39-.48,1.02-.2,1.96-.51,2.85-.94,1.4-.68,2.46-1.73,3.92-3.17l.5-.5c.62-.61,1.22-1.24,1.74-1.82.74-.71,1.5-.93,1.97-.91.23,0,.33.07.35.09.08.09.11.65-.32,1.42-.03.03-.04.07-.06.11-.15.44-.47,1.35.17,1.78.56.39,1.12-.06,1.56-.41.02-.02.04-.04.07-.05-.02.19-.04.39-.06.53-.09.76-.17,1.48.5,1.7.75.25,1.21-.6,1.65-1.43,1.27-3.15,2.15-4.05,2.64-4.27.05.21.09.52.12.75.14,1.11.37,2.98,2.21,3.23,1.61.21,3.23-.9,4.53-1.8.46-.32.89-.62,1.17-.74.17-.07.3-.2.37-.37.19-.45.35-.9.47-1.36.17-.64.26-1.26.26-1.87.09-.17.22-.31.39-.4.29-.15.66-.13.93.07,1.21.87,2.76,1.92,4.72,3.24l.08.05c.9.61,1.87,1.19,2.96,1.77-1.38,3.9-2.96,8.6-4.41,14.16-.96,3.67-1.88,7.25-2.6,10.59-4.39-.01-7.57-.16-9.01-.49-.42-.09-1.03-.29-1.81-.6-.12-.4-.43-.85-1.2-1.14.15-.14.22-.31.2-.56-.04-.65-.6-.73-1.61-.89ZM144.87,189.46c.53.67.56.88.57.88-.04.04-.26.24-1.53.45-1.59.27-1.83.07-2.34-.59-.51-.65-1.42-1.24-2.25-1.24-.13,0-.25.01-.37.04,0-.07,0-.16.02-.29.05-.4.1-1.01.09-1.49.35-.07,1-.14,1.94-.13,1.23,0,2.57-.25,3.35-.75-.1.16-.18.34-.23.52-.22.8.03,1.68.75,2.6ZM145.46,205.98c-.07.03-.13.07-.19.1-.01-.04-.01-.06-.02-.06.03,0,.09-.03.21-.04ZM160.27,16.79c1.7,0,3.38.04,5.07.1-.41,1.06-.87,1.67-1.43,1.92-.64.29-1.33.47-1.85.56.01-.11-.01-.23-.07-.36-.3-.68-1.1-.65-3.32-.42-2.73.3-4.72,1.49-5.6,3.36-.25.52-.56,1.17-.11,1.64.21.21.46.27.71.24-.19.24-.36.45-.47.59-.74.9-1.54,2.09-1.39,2.84-.06.11-.22.29-.49.47-.24.16-.35.22-.35.25-.18-.14-.58-.82-.72-1.05-.93-1.61-1.56-1.54-1.76-1.51-.34.04-.61.28-.7.6-.02.02-.09.04-.19.01-.98-.29-1.92.37-2.39,1.1-.48.77-.47,1.58.02,2.14.1.11.14.27.15.28-.39.67-.52,2.32-.57,3.11-.24.58-.36,1.04-.36,1.38,0,.16-.25.39-.64.39-1.06,0-2.14.97-2.46,2.2-.09.37-.19.63-.26.82-.15-.47-.3-1.33-.3-2.75,0-1.64-.19-4.35-1.44-4.49-.08-.1-.24-.45-.24-.99,0-1.38-.65-2.38-1.54-2.38-1.13,0-1.53,1.72-1.53,3.19,0,.94-.09,1.3-.15,1.43-.03,0-.09-.03-.17-.06-.64-.24-1.25-.21-1.68.09-.34.23-.53.6-.53,1.02,0,.58,1.17,5.75,2.37,7.66-.35-.28-.71-.58-1.08-.91-3.7-3.35-4.12-2.98-4.43-2.71-.2.1-1.29.4-2.73.68-2.01.39-2.05.21-2.3-.74-.52-1.98-1.73-2.18-3.39-1.86-.28.05-.5.08-.67.09.12-.48-.06-.78-.28-.95-.88-.72-2.73.79-3.76,1.76q-1.46,1.38-3.15.27c-1.68-1.09-2.93-1.35-3.74-.77-.76.55-.92,1.68-.47,3.37.34,1.29.83,2.19,1.67,2.89-.03,0-.06,0-.09-.02-.63-.15-1.63-.08-2.79,1.08-.41.42-.52.53-1.25-.07-.72-.6-1.83-1.15-2.56-.93-.67.12-4.1-1.71-4.81-2.91-.5-.85-1.53-1.49-2.39-1.49-.32,0-1.12-.39-1.63-1.01-.75-.91-1.63-1.78-2.48-1.36-.8.4-.85,1.61-.2,4.29,1.14,4.66,1.99,5.76,6.09,7.86,2.55,1.3,3.42,2.52,3.37,2.99-.03.29-.62.47-.8.52-.78.2-1.42.66-1.72,1.23-.2.39-.23.82-.08,1.21.08.22.04.28.01.3-.55.59-3.89.6-9.55-1.23-1.28-.41-1.98-.63-2.38-.04-.39.57.08,1.14.68,1.86.76.92,2.18,1.64,3.25,1.64.62,0,1.17.61,1.41,1.55.49,1.97,1.77,2.69,4.07,3.26-1.25.47-2.26,1.31-2.49,2.22-.18.67.09,1.3.72,1.69.46.29.55.58.52.68-.02.07-.17.17-.5.17-1.59,0-3.14,2.18-3.37,3.59-.15.89.19,1.56.88,1.8.16.07.51.67.53,1.5.01,1.06.02,1.76.67,1.97.64.21,1.07-.35,1.71-1.2.16-.2.31-.36.44-.48-.03.07-.08.13-.14.2-.25.32-.36.7-.28,1.09.18.86,1.24,1.73,3.66,3,.81.42,1.56.84,2.19,1.21-.6-.16-1.22-.35-1.86-.57-1-.34-1.66-.56-2.05-.01-.38.54.04,1.08.53,1.69.64.82,1.8,1.43,2.7,1.43.42,0,.81.47.98,1.2.38,1.61,1.37,2.27,3.03,2.74-.88.42-1.57,1.07-1.76,1.77-.17.62.06,1.2.61,1.57.31.2.38.4.37.44-.01.02-.09.06-.27.06-1.37,0-2.6,1.85-2.81,3.07-.21,1.21.55,1.58.76,1.64.09.07.34.53.35,1.17.01.17.01.32.01.45-.46.14-.9.38-1.13.75-.18.3-.22.61-.13.91-.03.02-.06.04-.08.05-.18.13-.32.3-.39.5-.18-.01-.53-.05-1.14-.23-2.25-.65-5.37-.24-5.79,1.16-.13.45-.1,1.29,1.62,1.82.55.17,1.5.57,2.07.88.3.16.66.28,1.04.35-.34.61-.46,1.24-.11,1.67.12.15.59.6,1.43.07.11-.04.55,0,1.13.32.6.32.9.69.92.77-.02.07-.13.38-.52.96-.13.19-.16.42-.08.63.08.21.26.37.48.43l1.13.29c.3.08.62-.06.78-.33.48-.87.87-1.32,1.03-1.43.62-.07,1.07-.75,1.07-1.66h0c.06,0,.15.03.28.07.85.26,1.94.16,2.38-.56.08-.1.53-.33,1.06-.33.03,0,.06,0,.09,0-.04.23,0,.46.11.67.04.08.09.15.15.21-.38.31-.77.79-.5,1.34.14.28.55,1.14,3.93-.06.46-.16,1.23-.43,1.66-.53,0,.37,0,1.05.58,1.29.58.25,1.08-.25,1.35-.52.28-.28.89-.54,1.27-.54.11,0,.25.02.29.22.03.15-.02.43-.36.56-1.19.46-1.37,1.06-1.31,1.48.04.3.22.64.74.89-.33.32-.66.69-1.02,1.1-1.44,1.62-1.8,2.45-1.35,3.09.54.75,1.73.26,2.3.02.51-.21,1.1-.19,1.26-.1.61.32,1.58.25,2.24-.16.41-.25,1.66-.45,2.86-.39.61.4,1.31.63,1.96.63.31,0,.6-.06.87-.15l.28-.02s.07-.01.11-.01c.39-.09.49-.05.49-.05,0,0,.06.06.13.3.29.91.73,1.37,1.15,1.61-.26.1-.5.23-.75.41-4.87.07-4.87.89-4.87,1.38,0,.77.72,1.4,1.61,1.4.21,0,.84.32,1.26.85.25.32.62.65,1.14.87-.21-.03-.41.06-.56.22-.27.3-.49.6-.66.91-.16.31-.07.69.21.89l1.89,1.37c-.9.29-1.42.18-2.63-.43-1.17-.58-2.11-.88-3.12-.6.57-.6.56-1.14.48-1.46-.26-.93-1.46-1.41-3.39-1.4-3.74.07-6.13-.37-7.73-1.42-1.77-1.16-3.84-1.79-5.01-1.53-.57.12-.85.42-1,.68,0,0-.18.03-.77-.29-.87-.47-1.77-.48-2.54-.02-1.09.66-1.72,2.14-1.72,4.07,0,.33-.01.57-.03.75-.59-.3-1.4-.54-2.03-.65-2.55-.45-5.43-1.92-5.97-2.54.26-.87-.03-1.46-.42-1.74-.41-.29-1.14-.37-1.94.29-.11.09-.43.36-1.66-.2-.17-.08-.51-.24-.73-.36.12-.15.28-.34.36-.42.59-.65,1.66-.92,3.69-.92.79-.01,4.78-.09,5.38-1.55.16-.4.06-.83-.27-1.17-.61-.61-2.1-.13-2.71.1-.62.23-.96.26-1.09.27.06-.32.29-.99.75-1.81.11-.19.12-.42.03-.61-.08-.2-.26-.35-.47-.4l-1.12-.29c-.28-.08-.58.04-.75.28-.26.39-.56.78-.87,1.12-1.14,1.3-1.65,1.28-2.04,1.16-.46-.15-1.13-.3-1.64.07-.33.24-.5.64-.5,1.17,0,.15-.12.28-.27.28-.46,0-.84.15-1.08.42-.36-.23-.86-.57-1.5-1.03-1.63-1.18-2.83-2.6-2.97-3.1-.28-.96-1.04-1.98-1.77-2.37-1.91-1-6.77-1.43-9.14-.86.08-.18.12-.35.12-.51,0-.29-.16-.55-.43-.7-.52-.29-2.53-.32-4.43-.18.54-.54,1.14-1.57,1.39-2.42.19-.62.32-1.28-.04-1.78-.14-.19-.32-.32-.52-.4.26-.47.35-1.03.26-1.5-.02-.12-.06-.24-.1-.34.97-.23,1.93-.52,2.42-.78,1.37-.72,1.6-1.58,1.36-2.15-.09-.22-.43-.8-1.51-.69.27-.46.45-1.05.06-1.52-.35-.4-1.09-.77-3.53.68-.31.18-1.19.69-1.55.8l-.03-.06c-.36-.94-1.04-1.45-1.74-1.33-.51.1-1.06.58-1.07,1.63-.02,0-.04,0-.07-.02-.81-.32-2.02-.01-2.81.71-.13.11-.24.21-.33.29,0-.02,0-.04-.02-.07-.16-.41-.15-.86-.1-.96.21-.35.23-.73.05-1.06-.04-.08-.1-.16-.17-.23.25-.22.45-.52.33-.91-.19-.65-.92-.65-1.63-.66h-.02c-1.18,0-2.14.69-2.57,1.84-.26.69-.38,1.26-.13,1.78.04.06.07.13.12.18-.63.15-1.26.41-1.53.85-.09.11-.55.31-1.06.31-1.49,0-1.83.58-1.86,1.06,0,.1.01.2.03.3-.26-.27-.6-.51-1.02-.73-.77-.41-1.37-.88-1.47-1.01-.58-.87-2.06-.68-2.99-.2.81-1.07.62-1.68.31-2.01-.58-.62-1.76-.34-3.25.76-.09.07-.17.13-.25.18-.05-.32-.22-.51-.39-.63-.59-.41-1.44-.07-2.66,1.03-.78.71-.87.66-1.55.24-.52-.33-1.26-.66-1.81-.35-.29.16-.45.45-.45.78,0,.08.01.17.03.26t0-.01c-.23-.1-.47-.14-.69-.14C56.87,48.25,104.97,16.79,160.27,16.79ZM129.72,189.98c.07-.12.3-.33.63-.48.3-.13.5-.13.52-.12.1.08.29.57.21,1.21-.01.14-.03.26-.06.35-.32-.15-.78-.3-1.31-.44.06-.17.06-.36.01-.52ZM128.03,117.15c.4.09.86.11,1.41.03.12.21.3.44.51.71-.6-.24-1.23-.49-1.92-.74ZM115.84,44.79c0,1-.27,1.38-.39,1.4-.19.01-.94-.4-1.5-2.02-.35-.99-.76-1.66-1.17-2.1.57.28,1.26.54,2.08.79.58.19.98.96.98,1.93ZM49.81,97.32c-.03-.19-.08-.37-.16-.54.7.59,1.98,1,3.23,1.15.93.1,1.57.26,1.91.37-.07.47-.09,1.09-.09,1.48,0,.13-.01.23-.02.3-.88-.34-2.07.2-2.74.87-.59.59-.86.76-2.4.3-1.22-.36-1.43-.58-1.45-.58,0-.03.04-.24.66-.86.83-.83,1.18-1.67,1.06-2.49ZM129.48,270.82c-10.01,7.11-19.7,13.99-26.71,20.89-50.57-22.21-85.98-72.76-85.98-131.44,0-19.57,3.95-38.24,11.07-55.26.45.31,1.18.33,2.38.08,1.1-.23,3.47-.58,5.28-.78.88-.1,1.82-.19,2.25-.19-.04.12-.08.26-.11.35-.2.63-.42,1.34.03,1.82.1.1.21.18.34.22-.26.04-.53.04-.77,0-.72-.08-1.21.07-1.47.47-.07.11-.2.38-.11.74-.08.01-.17.02-.29.03-1.02.03-1.58.05-1.7.68-.05.24,0,.43.12.58-1.24.3-1.46,1.11-1.46,1.63,0,.21,0,.84.5,1.2.04.03.08.06.12.08-.64-.15-.78-.45-1.06-1.06-.62-1.36-1.3-2.05-2.95-1.54-3.26,1-3.45,2.62-3.27,3.5.04.23-.21,1.01-.75,1.6-.7.77-1.25,1.96-.94,2.76.06.18-.03.85-.37,1.4-.35.55-1.16,1.86-.33,2.47.96.72,2.8-1,4.18-2.56,2.86-3.25,5.93-4.55,6.57-4.15.67.42,3.22.7,4.47.79,1.86.14,3.09.48,3.37.65.28.37.79.55,1.37.6-.36.23-.65.55-.79.96-.12.37-.06.76.16,1.07.28.39.8.61,1.42.61.34,0,.98.2,1.51.49-.39.05-.77.19-.97.55-.3.57.07,1.17.37,1.65.9,1.44,1.63,1.41,3.22.58.84-.43,1.06-.41,1.12-.35.21.33.52.54.92.62.59.12,1.7.05,4.47-1.94.37-.26.48-.28.48-.29.03,0,.16.09.49.54.69.94,1.77,1.37,2.63,1.04.16-.06.35-.05.42.12.3.78.88,1.26,1.58,1.3.93.07,1.87-.62,2.52-1.83.33-.63.82-.84,1.04-.79.14.04.16.27.16.4,0,2.22,2.35,2.79,6.98,3.12,4.83.34,6.39.73,6.89.95-.11.36-.05.72.17,1.02.67.9,2.68.84,4.36.37,1.49-.41,2.1-.27,2.6.1.11.08.19.15.25.21-.45.4-.77,1.12-.77,1.78,0,.62-2,2.58-2.85,2.61-.83.02-1.96,1.18-2.5,1.86-.14.18-.41.53-.62.75-.03-.05-.07-.12-.12-.2-.31-.53-.74-1.13-1.36-.98-.04.01-.07.02-.1.03-.24-.33-.65-.81-1.22-.76-.59.07-.82.65-.89.82-.04.05-.39.19-1.19.02-.75-.15-1.46-.3-1.72.34-.29.69.25,1.04,2.02,2.21.01,0,.02,0,.03.02-.47.15-.84.44-1.01.83-.19.44-.14,1.13.65,1.62.14.08.04.46.02.54-.34,1.19-1.95,2.85-3.06,2.85s-2.09.59-2.4,1.38c-.1.26-.44.48-.65.48-.93,0-1.65.61-1.65,1.38,0,.28.1.53.28.73-.41-.16-.79-.25-1.13-.25-.52,0-1.24-.29-1.6-.63.29-.04.59-.14.84-.36.35-.31.52-.78.52-1.42,0-1.08-.53-1.53-.85-1.7-.47-.26-1.32-.39-2.67.46-.28.19-1.15.07-2.06-.43-.86-.48-1.25-1.01-1.25-1.24,0-1.8-1.71-3.41-3.3-3.86-1.1-.31-2.06-.04-2.58.73-.18.08-.72.15-1.41.01-1.41-.28-2.49.02-3.2.88-.38.46-.96.74-1.14.74-.87,0-1.55.57-1.55,1.31,0,.49,0,1.32,5.28,1.32,3.33,0,4.38.19,5.26.84-.67-.04-1.51.03-1.74.73-.25.76.42,1.5,2.18,2.41.16.08.29.15.41.22-.42.03-.95.06-1.61.09-1.84.07-3.58.13-3.58,1.93,0,1.6,1.54,1.97,3.12,2.23.44.07.75.14.97.2-.32.61-.38,1.55-.17,2.8.04.29.11.73.16,1.08-.3-.17-.65-.4-.88-.55-1.55-1.02-2.26-1.06-3.81-.23-1,.54-1.92,1.53-1.57,2.45.01.04-.03.14-.15.19-.06.02-.11,0-.14-.01-.04-.02-.11-.06-.15-.16-.3-.8-.94-1.29-1.71-1.31-.44-.03-.87.12-1.26.37-.06-.26-.15-.53-.26-.81-.22-.57-.67-.96-1.26-1.11-1.11-.26-2.67.4-4.16,1.76-.8.73-2.4.76-3.24.3-.43-.24-.4-.44-.38-.51.19-1.09-.48-2-1.2-2.3-.63-.26-1.29-.09-1.67.44-.2.22-1.47,1.04-3.09,1.88-1.87.98-2.65,1.63-2.79,2.34-.01.03-.02.07-.02.1-.35-.42-.68-.68-1.14-.53-.6.2-.61.83-.62,1.62-.01.52-.22.89-.26.94-.47.15-.92.64-.78,1.52.18,1.13,1.38,2.8,2.66,2.8.1,0,.18,0,.18.01-.03.06-.1.16-.28.27-.54.34-.77.88-.62,1.46.16.59.73,1.15,1.47,1.54-1.43.41-2.29,1.02-2.63,2.4-.16.61-.49,1-.87,1-.84,0-1.93.54-2.53,1.27-.45.54-.88,1.05-.51,1.59.37.55,1,.35,1.95.04,4.46-1.43,6.58-1.25,6.82-.93-.13.34-.1.71.07,1.04.24.48.74.84,1.38,1.01.34.09.44.2.45.22.05.15-.41,1.02-2.38,2.02-3.05,1.56-3.74,2.44-4.59,5.91-.51,2.1-.44,3.01.25,3.36.83.41,1.65-.57,2.05-1.05.34-.41.89-.68,1.06-.68.69,0,1.52-.51,1.92-1.18.47-.81,2.77-2.06,3.32-2.06h.02c.69.2,1.62-.36,2.06-.72.31-.26.41-.27.41-.27,0,0,.08.02.26.2.66.66,1.26.87,1.74.89-.42.48-.69,1.07-.9,1.84-.35,1.33-.21,2.23.42,2.68.67.49,1.64.3,2.96-.56q1.13-.74,2.11.18c1.42,1.34,2.44,1.78,3.01,1.3.14-.11.3-.31.3-.63.07.01.16.02.25.04,1.14.22,2.27.19,2.71-1.5.16-.63.18-.67,1.49-.42,1.03.2,1.74.4,1.93.48.35.28.8.43,3.5-2.01.05-.05.1-.09.14-.13-.8,1.76-1.39,4.62-1.39,4.95,0,.38.17.71.47.91.35.24.84.28,1.34.11.03.14.05.39.05.81,0,1.23.35,2.54,1.32,2.54.76,0,1.31-.82,1.31-1.94,0-.27.06-.47.11-.56.93-.21,1.13-1.97,1.13-3.47,0-.54.03-.97.08-1.31.28.97,1.11,1.69,1.96,1.69.18,0,.28.08.3.1,0,.66.56,1.82,1.12,2.62l1,1.42c.12.17.31.28.52.29.21.02.41-.06.56-.21l1.21-1.31c.91-.97,1.29-2.17,1-3.13,0,0,.03.01.04.01,1.08.28,1.74-.22,2.01-.79.5-1.08-.14-2.66-1.46-3.58-.04-.03-.1-.07-.15-.11.92-.39,1.88-1.66,2.35-2.71q.69-1.56,2.92-1.39c1.36.1,3.08.05,3.77-.79.11.09.28.25.55.57.76.87,2.19,1.56,3.27,1.56.68,0,1.98.54,2.69.96-.13.3-.18.83.8,1.91.71.78.7.79.29,1.28-.23.28-.66.8-.5,1.41.18.67.89.98,1.95,1.38.85.32,1.33.66,1.41.99.05.22-.02.77-1.12,1.93-.83.89-1.29,1.38-1.23,2.02.05.59.52.93,1.12,1.37.05.04.11.08.15.11-1,.47-1.4,1.43-1.26,2.18.14.74.76,1.22,1.58,1.22.12,0,.23.11.23.24,0,1.04.52,1.39.83,1.5.86.34,2.05-.36,3.62-2.12.7-.78,1.05-1.1,1.23-1.22.01,0,.02.03.04.05.25.39.48,1.17.48,1.62.01,1.22.7,1.46,1,1.51,1.14.19,2.34-1.36,2.94-3.01.54-1.5.62-1.48,1.37-1.3.62.16,1.27.28,1.76-.11.49-.38.54-1.05.54-1.7,0-.18-.02-.36-.04-.55,1.56,1.22,2.19,1.43,2.71,1.05.31-.22.38-.54.35-.84.44.22.93.37,1.36.09.56-.36.51-1.11.45-1.98-.07-1.09-.83-2.81-1.72-3.91-.38-.46-.81-.98-.93-1.22.12-.11.37-.29.55-.41,1.42-.99,3.04-3.75,3-5.09,0-.58-.32-.85-.5-.96-.39-.25-1.09-.26-1.69-.2.67-.76.8-1.58.55-2.83-.08-.4-.09-.72-.09-.92.83.12,1.43.63,1.43,1.27,0,.46.06,1.11.57,1.46.36.24.82.26,1.37.05,2.53-.98,3.61-.95,5.77.16,1.38.69,2.44,1.72,2.56,2.12.2.62.55,1.48,1.32,1.66.42.11.81-.03,1.12-.22.01.14.02.32.02.53,0,.81-.17,1.9-.97,2.5-.81.62-1.3.99-1.11,1.6.2.59.83.6,1.39.61.8.02,2.6-.65,3.85-1.29l1.3-.66-.13,1.62c-.18,2.25.1,3.53.97,4.41.47.46,1.03.91,1.63.77.13-.03.32-.1.49-.28.21.73.57,1.49.94,1.95-1.87-.37-3.87-.58-4.42-.36-.29.12-.48.36-.52.64-.02.16.01.34.06.52-1.77-.67-4.93-.87-7.12-.67-.14.02-.27.07-.37.16-.43.34-.84.74-1.25,1.22-.09.11-.15.21-.16.35-.03.1-.19.39-.3.58-.29.51-.61,1.09-.66,1.64-.02.24.09.47.29.62.2.14.46.17.68.07.6-.27,1.16-.44,1.65-.54.37-.06.89-.06,1.48.01.97.11,1.84.37,2.41.6-.12.01-.23.01-.35,0-1.1-.13-1.96.32-2.05,1.08-.03.27.02.78.77,1.18.36.2.84.34,1.34.4.2.02.35.06.46.09-.02.16-.01.31.05.46.08.2.31.79,2.1,1.07-.12.21-.16.44-.15.65.04.54.52,1.22,1.74,1.37.34.04.4.21.43.27.13.33,0,1-.59,1.71-.23.28-.28.35-1.67-.44-1.63-.92-2.96-.51-3.67-.29-.12.03-.29.08-.34.09l-.96.07c-.19,0-.38.08-.51.23-.05.04-.08.1-.11.15-.6,1.19-.34,2.06-.02,2.57.49.79,1.41,1.24,2.36,1.46-.08.04-.17.08-.27.13-.41.18-.84.37-1.16.73-.16.18-.21.43-.15.65.06.23.24.41.46.48.73.22,1.4.54,1.99.81l.45.21c.2.09.43.08.62-.03.2-.11.33-.3.35-.52.03-.2-.01-.39-.07-.55.67.18,1.34.55,1.67,1.29.11.23.34.39.6.41,3.13.15,3.88.11,4.12-1.89.02-.13.06-.35.21-.37.23-.03.68.24.94.9.49,1.28,1.34,2.07,2.26,2.13.71.03,1.35-.36,1.74-1.1.03-.06.08-.1.14-.11.09-.03.19-.01.29.04.81.44,1.94.14,2.74-.71.38-.41.52-.47.52-.47.02,0,.14.04.46.34,2.52,2.31,3.61,2.51,4.21,2.47.4-.03.74-.2,1.02-.55.04-.01.26,0,1.04.53,1.48,1.02,2.19,1.14,3.26-.18.36-.44.81-1,.57-1.59-.16-.39-.51-.57-.9-.67.57-.22,1.23-.35,1.56-.3.62.07,1.16-.08,1.49-.44.26-.28.36-.66.29-1.04-.09-.42-.34-.77-.67-1.05.59.03,1.11-.09,1.44-.43.29-.13,1.55-.32,3.41-.23.75.04,1.51.05,2.23.03,3.82.79,5.23,1.25,5.74,1.5,3.18,1.57,5.83,3.63,7.88,6.13-.34,7.39,1.36,13.32,5.34,18.65.35.47.72.95,1.09,1.42.6.77,1.25,1.53,1.98,2.31-5.23,3.53-12.57,8.98-21.01,15.24-7.08,5.25-15.1,11.2-22.92,16.78-1.33.95-2.67,1.9-4,2.84ZM202.27,295.54l-1.67,1.72c-7.4.19-16.22-.24-26.24-1.28-9.44-.98-17.83-2.15-24.94-3.48.08-2.25.39-4.45.91-6.54,7.57-.39,21.43-.84,32.8.14,8.89.77,18.25,2.24,24.91,3.42-1.85,1.98-3.84,4.03-5.77,6.02ZM217.07,278.24c-4.53-.71-14.4-2.11-32.09-3.94-9.59-1-18.07-2.19-25.23-3.53,1.35-1.18,2.83-2.31,4.42-3.35,6.59-.39,22.85-1.15,35.87-.02,5.59.48,11.97,1.29,18.97,2.41.7,2.26.06,5.03-1.94,8.43ZM245.8,275.41c-.64-4.25-1.72-8.01-3.02-10.36-10.9-19.75-21.28-25.93-31.32-31.9l-.26-.15c4.35-5.52,7.21-10.89,8.51-15.97.37-.21.76-.43,1.17-.63,1.61-.79,6.26-1.64,9.98-2.16.26.51.95.85,1.76.77.32-.01,1.33.44,2.15,1.17,1.03.92,2.53,1.57,3.51,1.48.52-.05,1.25.19,1.64.51-.28.06-.57.18-.8.43-.32.33-.46.81-.4,1.45.08,1.07.64,1.48.97,1.63.49.22,1.35.28,2.62-.68.27-.2,1.15-.16,2.1.27.9.4,1.33.91,1.34,1.14.15,1.79,1.98,3.25,3.6,3.58,1.13.22,2.06-.13,2.52-.94.16-.09.7-.2,1.4-.12,1.43.17,2.48-.22,3.12-1.13.34-.49.89-.81,1.08-.82.86-.07,1.5-.7,1.44-1.44-.04-.49-.11-1.31-5.37-.89-3.32.27-4.38.16-5.31-.42.67,0,1.5-.15,1.67-.87.19-.77-.54-1.46-2.37-2.23-.15-.06-.29-.12-.42-.18.41-.07.95-.14,1.6-.22,1.83-.21,3.55-.42,3.41-2.21-.13-1.59-1.69-1.84-3.29-1.97-.44-.03-.75-.08-.98-.12.27-.64.25-1.58-.05-2.81-.07-.3-.18-.72-.24-1.06.3.15.67.35.91.48,1.63.89,2.34.87,3.82-.08.96-.62,1.8-1.68,1.37-2.63.02-.06.07-.11.13-.14.1-.05.24.02.3.15.37.77,1.06,1.23,1.82,1.17.43-.02.85-.19,1.22-.47.08.25.2.52.32.79.27.55.74.9,1.35.99,1.12.18,2.63-.6,4.01-2.08.74-.79,2.33-.95,3.21-.55.44.2.42.4.41.47-.1,1.1.64,1.95,1.38,2.2.65.22,1.29-.02,1.63-.57.15-.2,1.27-1.08,2.93-2.13,1.79-1.12,2.51-1.83,2.6-2.55,0-.03.01-.07.01-.1.38.39.73.62,1.18.44.58-.25.54-.87.49-1.67-.04-.52.14-.91.18-.95.45-.2.87-.71.66-1.58-.28-1.11-1.59-2.69-2.89-2.58h-.18c.03-.06.1-.17.27-.29.51-.38.69-.93.49-1.5-.2-.58-.81-1.09-1.58-1.42,1.39-.53,2.2-1.2,2.43-2.6.11-.62.41-1.04.78-1.07.84-.06,1.89-.7,2.43-1.47.4-.57.78-1.12.38-1.62-.41-.52-1.03-.27-1.95.11-4.33,1.78-6.46,1.78-6.72,1.47.1-.34.04-.71-.16-1.03-.03-.06-.08-.13-.13-.18.26.03.48.06.67.11.23.06.47,0,.65-.17l3.6-3.37c.21-.2.27-.5.17-.77-.11-.26-.36-.43-.65-.43h-.14c-.57,0-1.12-.06-1.63-.13l.13-.12s.05-.05.07-.07l.09-.13c.63.32,1.11.44,1.47.44.52,0,.8-.24.94-.45.22-.33.38-1.02-.63-2.08.45.05.82,0,1.11-.27.47-.43.37-1.12.29-1.63-.07-.53-.11-.79,1.16-1.22,1.27-.42,1.37-.46,2.55.91.79.91,1.42,1.49,2.13,1.51.4.03.76-.14,1.08-.46.06-.05.11-.11.15-.17.61.08,1.47-.42,2.6-1.48q.98-.92,2.11-.18c1.32.87,2.29,1.05,2.96.56.63-.45.77-1.35.42-2.67-.21-.77-.48-1.36-.9-1.84.48-.02,1.08-.23,1.74-.89.17-.17.25-.2.25-.2.01,0,.12,0,.42.26.44.36,1.36.92,2.03.73.54,0,2.91,1.26,3.37,2.05.4.68,1.23,1.18,1.92,1.18.17,0,.72.27,1.06.68.19.23.47.57.8.82-4.94,39.74-26.2,74.49-56.85,97.32ZM303.26,172.24c-.67-1.41-1.66-2.14-3.7-3.18-1.96-1.01-2.43-1.87-2.38-2.03.01-.02.11-.13.45-.22.64-.17,1.14-.53,1.38-1,.12-.24.17-.49.13-.75.34.06.79.17,1.18.27.98.24,2.15.53,3.32.62-.09,2.11-.21,4.21-.38,6.29ZM301.31,159.39c.74-.38,1.31-.94,1.47-1.54.15-.58-.08-1.12-.62-1.45-.2-.13-.28-.25-.32-.25.03-.02.1-.04.22-.04.58,0,1.14-.35,1.6-.82.06,1.65.1,3.31.1,4.98,0,.32-.01.64-.01.97-.41-1-1.22-1.49-2.44-1.85ZM160.27,0C71.76,0,0,71.75,0,160.27s71.76,160.28,160.27,160.28,160.28-71.76,160.28-160.28S248.79,0,160.27,0ZM255.73,98c.74.17,1.31-.49,1.89-1.24.27-.35.48-.72.63-1.08.11-.01.22-.03.33-.07.51-.18.71-.71.82-.99.32-.83-.06-2.06-.91-3.01-.16-.17-.3-.38-.42-.61.27-.1.54-.23.75-.36.68-.43.89-.9.84-1.39.64.42,1.34.67,1.89.33.3-.19.74-.67.3-1.8-.12-.3-.03-.58.03-.63.58-.36.76-1.13.48-2.1-.19-.69-.69-1.63-1.4-2.05.06-.08.13-.17.22-.27.67-.78.89-.66,1.26-.47.41.22,1.01.48,1.59.26.22-.09.52-.29.7-.75.18.03.61.15,1.59.61,1.8.85,3.13.88,3.63.08.28-.44.46-1.39-1.38-2.88-1.11-.9-1.22-1.32-1.03-2.33.04-.19.16-.79.27-.86.32-.2,2.12.26,3.57.63,1.73.45,2.14.13,2.27.02.17-.13.3-.39.3-.6,0-1.08-1.99-2.47-2.6-2.84.63.16,1.38.3,2.02.36.64.06,1.37.27,1.83.5,7.95,10.62,14.46,22.36,19.25,34.95,4.78,12.59,7.85,26.02,8.9,40-.07-.08-.17-.14-.29-.18-.45-.15-.79.12-1.14.54,0-.04-.01-.07-.02-.11-.14-.71-.92-1.36-2.79-2.33-1.62-.85-2.89-1.67-3.07-1.87-.4-.54-1.06-.72-1.69-.46-.72.31-1.39,1.22-1.2,2.3.02.07.05.27-.37.51-.85.46-2.45.43-3.25-.3-1.49-1.36-3.04-2.01-4.16-1.75-.59.14-1.04.53-1.26,1.1-.11.28-.2.56-.26.81-.39-.25-.84-.39-1.26-.37-.77.03-1.41.52-1.71,1.31-.03.08-.09.14-.15.17-.03,0-.08.03-.14,0-.12-.04-.16-.15-.15-.19.35-.91-.57-1.91-1.57-2.45-1.55-.83-2.27-.79-3.81.23-.23.15-.58.38-.88.55.04-.34.11-.77.16-1.07.21-1.26.15-2.2-.17-2.81.22-.06.53-.13.97-.2,1.58-.25,3.12-.63,3.12-2.22,0-1.81-1.74-1.87-3.58-1.94-.66-.03-1.19-.06-1.61-.09.12-.06.26-.14.41-.21,1.76-.91,2.43-1.66,2.18-2.42-.23-.7-1.07-.78-1.74-.73.88-.64,1.93-.84,5.26-.84,5.28,0,5.28-.82,5.28-1.31,0-.74-.68-1.32-1.55-1.32-.18,0-.76-.28-1.14-.73-.71-.87-1.79-1.17-3.2-.88-.69.13-1.23.06-1.41-.01-.52-.77-1.48-1.05-2.58-.73-1.59.45-3.3,2.05-3.3,3.85,0,.23-.39.77-1.25,1.24-.91.5-1.78.62-2.07.43-1.34-.85-2.19-.72-2.66-.46-.32.18-.85.63-.85,1.7,0,.65.17,1.11.52,1.42.25.22.55.32.84.36-.36.34-1.08.64-1.6.64-.34,0-.72.08-1.13.24.18-.19.28-.45.28-.72,0-.78-.72-1.39-1.65-1.39-.21,0-.55-.22-.65-.48-.21-.54-.77-1-1.49-1.23-.25-.08-.53-.01-.71.18-.87.9-1.72,1.91-2.56,3.01-.19.03-.39.07-.6.12-.33.08-.6.13-.81.16-.03-.2-.1-.42-.2-.67-.29-.7-1.1-2.04-2.07-2.04-.77,0-1.29.9-1.29,2.23,0,.23-.03.38-.05.48-.17-.12-.48-.44-.81-1.14-.68-1.45-1.88-1.73-4.49-1.86-2.22-.11-3.1-.05-3.57.5-.38.44-.28.98-.25,1.16.2,1.03,2.18,2.39,3.32,3.03l.85.48c-.68.07-1.73.24-2.21,1.04-.71-.46-1.87.21-2.76,1.05-1.12,1.06-1.25.99-2.05.56-2.01-1.07-7.9.06-9.55,1.52-.39.35-.54.69-.57.97-.71.12-2.26,0-3.08-.19.31-.2.77-.47,1.39-.75,2.87-1.29,2.87-1.97,2.87-2.23,0-.3-.14-.59-.4-.81-.89-.76-3.47-.73-5.49-.39-1.29.22-2.18.05-2.34-.07-.43-.43-1.31-.99-2.38.08-1.21,1.21-.07,2.43.61,3.15h0c-.4-.08-.85-.05-1.34.25-.03.01-.05.03-.08.05-.73.53-1.52.99-2.33,1.37-2.12,1-3.87,1.21-5.9,1.45-1.15.13-2.43.28-3.93.6,2.66-5.7,5.38-12.1,6.54-17.88,2.01-.35,3.97-.75,5.85-1.21.2-.05.37-.18.46-.37.43-.91.85-1.87,1.14-2.62.57.51,1.24.83,1.87.84.65,0,1.14-.27,1.43-.78.29.18.64.19.93.03.59-.33.71-1.19.71-1.85s.17-.89.24-.89c.34,0,.67-.12.93-.33-.78,1.36-.64,4.98-.32,6.1.25.87.7,1.05,1.05,1.05.8,0,1.4-.92,1.62-1.77.02-.08.04-.14.06-.2.62.48,1.14.35,1.41.23.81-.38,1.22-1.62,1.22-3.69,0-.59.59-1.79,1.88-3.01.7-.67,2.02-2.04,2.45-2.91.05.06.12.12.2.2.58.58,1.49,1.2,2.15,1.22.12.99,1.95,1.44,2.75,1.59,1.14.21,2.12.83,2.3,1.16.46.87,1.81,1.72,2.85,2.08.75.27,1.26.62,1.41.78.04.52.34.92.8,1.1.85.33,2.14-.18,3.07-1.21,1.06-1.17,1.04-2.23.6-4.17-.19-.87-.29-1.55-.32-1.95,1.01.13,3.38,1,3.93,1.47.06.46.33.65.5.73.54.25,1.07-.09,1.51-.46.24-.2.62-.42,1.27-.09,1.21.61,3.45.37,4.37-.25.55-.37.6-.83.58-1.06-.08-1.09-.09-1.18,1.14-1.65,1.03-.39,2.15-1.05,1.73-2.67-.05-.17-.06-.3-.06-.38,1.43-.21,3.73-2.73,4.09-4.01.23-.81-.24-1.18-.39-1.27-.01,0-.02-.01-.03-.02.18-.18.7-.56,2.13-1.24,2.16-1.03,2.26-1.64,2.3-1.84.02-.1,0-.23-.04-.36.08-.1.23-.27.47-.46.64-.48,1.14-.86.94-1.46-.19-.6-.83-.61-1.63-.62-.79-.01-1.22-.37-1.25-.46.01-.02.04-.06.12-.11.41-.25.63-.58.66-.96.04-.62-.44-1.1-.91-1.49-.44-.36-1.1-.76-1.7-.59-.25.07-.45.23-.58.44-.32.11-1.3.24-2.76.14-2.17-.15-2.99-.21-3.39.41-.35.54-.03,1.13.27,1.69.02.05.1.18.21.36-.72-.4-1.42-.7-1.8-.7-.27,0-.6.21-.71.45-.04.08-.08.18-.08.31-.47-.4-.9-.7-1.4-.58-.55.14-.76.68-.91,1.08-.06.15-.16.31-.3.26-.14-.05-.32-.28-.19-.68.21-.67.17-1.28-.12-1.67-.19-.26-.48-.41-.78-.41-.14,0-.6-.23-.97-.59-.51-.48-1.71-1.22-2.71-1.66-1.09-.49-1.01-.72-.93-.91.31-.82.07-1.71-.64-2.4.19-.06.36-.16.48-.28.24,1.17.51,1.98,1.23,2.15ZM231.97,178.4s-.04-.01-.05-.01c-1.1-.2-1.72.36-1.94.94-.41,1.13.35,2.64,1.74,3.46.05.03.11.06.16.09-.89.46-1.74,1.81-2.12,2.9q-.56,1.61-2.8,1.62c-.65,0-1.24.05-1.75.13-.2.04-.39.16-.49.35-.1.18-.11.4-.03.6,1.48,3.65,1.03,6.19-1.38,7.76-.11.07-.2.18-.26.3-1.1,2.42,1.72,4.01,3.4,4.95.19.11.38.22.56.33.01.52.1,1.04.17,1.5.08.49.18,1.05.1,1.34l-.49.32h0c-.16.04-.3.14-.4.27-2.74,1.79-4.4,2.64-5.4,3.03.37-8.05-1.68-15.34-6.27-22.27-5.11-7.73-11.83-12.18-17.87-15.47,3.08-2.94,6.42-5.12,9.93-6.49,2.67-1.03,5.52-1.51,8.46-1.43l.4.08c2,.38,3.89.74,5.11,2.24.08.1.19.17.31.22.45.16.92.65,1.21,1.25.14.29.46.44.77.37.6-.12,1.15-.1,1.63.07,1.97.69,2.78,3.9,3.37,6.24.53,2.07.88,3.44,1.98,3.45h.01c.96,0,1.5-1.19,1.9-2.42h.01c.2-.18.35-.3.45-.38.09.24.2.83.24,1.55-.76,1.03-1.02,2.2-.66,3.11ZM201.09,198.82c.21,1.49.31,3.05.3,4.66-5.29-.51-10.11-1.06-14.34-1.64,0-.95.04-1.95.12-2.97,4.16-.15,8.83-.16,13.92-.05ZM188.8,189.67c.5-1.92,1.11-3.92,1.82-5.97,2.34,1.21,4.1,2.47,5.5,3.95.3.31.59.64.87.99-2.56.36-5.31.71-8.19,1.03ZM199.88,212.78c-1.03,2.91-2.64,5.77-4.79,8.52-.91-.9-1.76-1.85-2.53-2.81-1.39-1.75-2.51-3.61-3.38-5.67,3.78-.06,7.37-.08,10.7-.04ZM194.69,248.94c.69.42,1.38.83,2.07,1.25,3.25,1.97,6.35,3.85,9.26,5.84-1.33-.15-2.7-.29-4.12-.44-4.95-.51-9.67-1.09-14.09-1.71,2.4-1.61,4.71-3.27,6.88-4.94ZM173.36,17.82c-.07-.2-.29-.4-.49-.46-.03-.01-.06-.01-.09-.02,31.47,2.73,60.06,15.66,82.45,35.47-.23.12-.42.29-.57.53-.08.13-.22.21-.22.22-1.1-.27-5.74.75-6.33,1.7-.15.25-.18.54-.09.83.25.73,1.19,1.15,1.58,1.3.63.24,1.04.77,1.04.97,0,.05-.01.09-.01.12-.39.08-1.7-.09-2.21-.16-1.89-.25-2.82-.28-3.37.2-.27.24-.41.59-.41,1.02,0,.7.45,1.42,1.25,1.97.33.22.74.43,1.19.57-.45.28-.8.62-1.02,1-.1.19-.31.56-1.48.34-.76-.15-1.47-.28-1.96.16-.51.47-.44,1.23-.34,2.2.19,1.98.77,2.57,2.57,2.6.31,0,.63.05.92.12-.25.01-.55.01-.9.01-1.65,0-2.77-.24-3.04-.38-.37-.47-1.18-.7-1.91-.8.67-.29,1.14-.71,1.14-1.3,0-.92-1.18-1.24-2.29-1.24-.32,0-.51-.02-.62-.04.01-.05.03-.13.06-.22.26-.81-.05-1.7-.78-2.27-.63-.49-1.4-.61-2.04-.35-.24-.16-.7-.57-1.22-1.22-1.15-1.44-2.21-1.69-2.9-1.68-.4.02-.91.14-1.44.57-.09-.27-.31-.54-.73-.66-.97-.29-2.96.28-3.59,1.24-.07.11-.32.25-.78.33-1.11.18-2.99-.15-4.07-1-1.52-1.2-3.13-1.74-4.2-1.42-.38.12-.69.34-.89.64-.32-.1-.92-.38-1.76-.95-1.82-1.23-3.23-1.66-4.43-1.36-.29.07-.51.08-.65.08-.2-.6-.96-1-1.95-1-.12,0-.22,0-.29-.02.29-.82.06-1.64-.59-2.06-.67-.44-1.56-.3-2.2.35-.09.09-.17.16-.24.22-.01-.11-.01-.24,0-.41.04-1.25-.52-2.01-1.68-2.26.02-.22.06-.48.11-.76.38-1.91.1-3-1.19-4.12.97.14,2.25.22,2.85-.15.25-.15.54-.47.56-1.11.05-1.72-2.13-5.42-3.96-6.7-.35-.25-.84-.59-.89-.7.01-.24.69-1.08,1.35-1.88,1.18-1.46,2.19-3.73,2.28-5.17.09-1.28.1-2.08-.5-2.47-.62-.39-1.36,0-2.02.36-.01,0-.02.01-.02.01.12-.42.21-1.03-.29-1.39-.57-.41-1.32-.24-3.89,1.83.1-.46.16-.93.16-1.36,0-.82-.05-1.66-.63-2.11-.58-.45-1.39-.3-2.17-.1-1.11.27-1.34.33-2.15-1.92-.76-2.09-2.3-4.18-3.72-3.94-.34.06-1.13.35-1.14,1.82-.01.66-.33,1.75-.7,2.33-.11.17-.17.24-.17.25-.27-.05-.92-.67-1.94-1.82-2.02-2.26-3.58-3.21-4.64-2.81-.43.17-.96.62-.96,1.81,0,.32-.26.58-.57.58-.73,0-1.32.31-1.65.84-.46.14-.97.4-1.54.79-1.18.81-1.62.8-2.52.32-.18-.09-.72-.37-.76-.5-.1-.36.86-1.96,1.63-3.24.92-1.53.73-2.01.66-2.17ZM170.33,17.21s.02-.04.03-.06c.73.05,1.46.11,2.19.17-1.07,0-2.67,1.29-3.14,1.73.33-.57.68-1.25.92-1.84ZM166.32,124.98c.61-.23,1.22-.48,1.84-.77.19.86.69,1.46,1.35,1.55.57.07,1.29-.26,1.6-1.43.09-.35.2-.56.28-.67.07.09.16.28.25.61.41,1.55,1.71,1.76,3.05,1.76,1.48,0,3.45,1.12,5.57,3.15.09.08.18.13.29.16,1.31.38,2.69.73,4.11,1.02.71,1.63,1.52,3.69,1.66,7.13.45,11.14-1.44,19.08-3.62,25.94-3.27-1.72-5.75-3.23-7.98-4.84-.02-.02-.04-.03-.06-.05-1.55-.87-3.25-2.2-5.06-3.97.1-.37.07-.83-.1-1.29-.11-.29.04-1.4.51-2.39.5-1.06.81-2.75.41-3.78-.19-.49-.17-1.27.01-1.73.14.26.35.5.65.65.41.21.9.2,1.5-.03,1.01-.39,1.23-1.04,1.28-1.4.07-.53-.11-1.37-1.39-2.32-.27-.2-.48-1.05-.35-2.08.14-.98.49-1.53.71-1.62,1.68-.65,2.55-2.82,2.4-4.46-.11-1.15-.71-1.94-1.62-2.15-.13-.13-.39-.62-.51-1.31-.25-1.41-.92-2.31-1.98-2.67-.56-.19-1.03-.62-1.1-.79-.13-.35-.37-.65-.66-.83-.35-.23-.76-.28-1.13-.14-.45.18-1.22.47.69,5.39,1.2,3.11,1.4,4.16,1.12,5.21-.2-.63-.59-1.37-1.31-1.35-.8.04-1.25.94-1.46,2.9-.02.18-.04.33-.06.46-.18-.37-.4-.86-.66-1.47-.73-1.69-1.42-3.28-3.1-2.63-1.49.57-1.28,2.15-.95,3.71.1.43.14.75.17.98-.69-.07-1.59.21-2.68.85-.27.16-.64.38-.95.54.06-.34.14-.75.2-1.02.39-1.81.17-2.49-1.17-3.63-.86-.75-2.12-1.24-2.85-.58-.06.05-.18-.01-.23-.08-.04-.04-.04-.09-.04-.12,0-.08.04-.15.09-.2.64-.57.86-1.35.61-2.07-.15-.41-.43-.77-.81-1.04.22-.15.45-.34.67-.54.44-.4.64-.93.58-1.5.55-.86.54-2.19-.06-3.35-.03-.05-.05-.11-.08-.17,1,.09,2.44-.59,3.34-1.31q1.33-1.06,3.23.13c.55.34,1.07.62,1.54.82.2.08.42.07.61-.03.18-.1.31-.28.35-.49.07-.42.16-.8.26-1.16.09.09.18.19.27.3.19.22.49.29.77.2ZM157.16,198.97c-.15-.02-.26-.05-.34-.07.02-.2-.05-.41-.2-.57,0,0-.34-.34-.71-.65-.24-.2-.5-.37-.77-.52.41-.43.28-1.12.17-1.73-.02-.09-.05-.23-.07-.36.47.06,1.38.27,2.21.47,1.78.42,4.09,1.05,5.14,1.41,1.24.43,1.98.48,2.47.17.27-.17.45-.44.48-.76.05-.36-.04-.71-.25-1-.21-.31-.54-.5-.89-.54-.18-.05-.92-.47-1.69-1.12-.62-.52-.71-.73-.73-.73,0,0,.02-.05.11-.13.15-.15.62-.59.58-1.21,0-.24-.09-.45-.21-.64.03,0,.05,0,.08,0,1.7.19,3.01.2,3.23-1.57.24-1.92-1.42-2.12-2.3-2.23-.61-.08-1-.25-1.16-.35-.01-.29-.14-.55-.36-.73-.34-.3-.85-.38-1.4-.23h-.01c.03-.09.06-.17.07-.26.04-.32-.09-.63-.36-.82-.51-.37-1.28-.14-1.84.12-.72.33-.82.38-1.51-.42-1.08-1.25-1.88-1.68-2.51-1.35-.19.1-.38.27-.46.58-.08-.06-.15-.13-.24-.21-1.34-1.27-2.48-1.69-3.13-1.15-.35.29-.61.87.07,2.03-.87-.59-2.32-.96-2.99-.17-.12.13-.77.52-1.59.83-.44.16-.8.36-1.1.6.04-.09.06-.19.06-.29.04-.49-.24-1.1-1.71-1.28-.51-.06-.94-.32-1-.42-.09-.18-.22-.34-.39-.48,1.02-.2,1.96-.51,2.85-.94,1.4-.68,2.46-1.73,3.92-3.17l.5-.5c.62-.61,1.22-1.24,1.74-1.82.74-.71,1.5-.93,1.97-.91.23,0,.33.07.35.09.08.09.11.65-.32,1.42-.03.03-.04.07-.06.11-.15.44-.47,1.35.17,1.78.56.39,1.12-.06,1.56-.41.02-.02.04-.04.07-.05-.02.19-.04.39-.06.53-.09.76-.17,1.48.5,1.7.75.25,1.21-.6,1.65-1.43,1.27-3.15,2.15-4.05,2.64-4.27.05.21.09.52.12.75.14,1.11.37,2.98,2.21,3.23,1.61.21,3.23-.9,4.53-1.8.46-.32.89-.62,1.17-.74.17-.07.3-.2.37-.37.19-.45.35-.9.47-1.36.17-.64.26-1.26.26-1.87.09-.17.22-.31.39-.4.29-.15.66-.13.93.07,1.21.87,2.76,1.92,4.72,3.24l.08.05c.9.61,1.87,1.19,2.96,1.77-1.38,3.9-2.96,8.6-4.41,14.16-.96,3.67-1.88,7.25-2.6,10.59-4.39-.01-7.57-.16-9.01-.49-.42-.09-1.03-.29-1.81-.6-.12-.4-.43-.85-1.2-1.14.15-.14.22-.31.2-.56-.04-.65-.6-.73-1.61-.89ZM144.87,189.46c.53.67.56.88.57.88-.04.04-.26.24-1.53.45-1.59.27-1.83.07-2.34-.59-.51-.65-1.42-1.24-2.25-1.24-.13,0-.25.01-.37.04,0-.07,0-.16.02-.29.05-.4.1-1.01.09-1.49.35-.07,1-.14,1.94-.13,1.23,0,2.57-.25,3.35-.75-.1.16-.18.34-.23.52-.22.8.03,1.68.75,2.6ZM145.46,205.98c-.07.03-.13.07-.19.1-.01-.04-.01-.06-.02-.06.03,0,.09-.03.21-.04ZM160.27,16.79c1.7,0,3.38.04,5.07.1-.41,1.06-.87,1.67-1.43,1.92-.64.29-1.33.47-1.85.56.01-.11-.01-.23-.07-.36-.3-.68-1.1-.65-3.32-.42-2.73.3-4.72,1.49-5.6,3.36-.25.52-.56,1.17-.11,1.64.21.21.46.27.71.24-.19.24-.36.45-.47.59-.74.9-1.54,2.09-1.39,2.84-.06.11-.22.29-.49.47-.24.16-.35.22-.35.25-.18-.14-.58-.82-.72-1.05-.93-1.61-1.56-1.54-1.76-1.51-.34.04-.61.28-.7.6-.02.02-.09.04-.19.01-.98-.29-1.92.37-2.39,1.1-.48.77-.47,1.58.02,2.14.1.11.14.27.15.28-.39.67-.52,2.32-.57,3.11-.24.58-.36,1.04-.36,1.38,0,.16-.25.39-.64.39-1.06,0-2.14.97-2.46,2.2-.09.37-.19.63-.26.82-.15-.47-.3-1.33-.3-2.75,0-1.64-.19-4.35-1.44-4.49-.08-.1-.24-.45-.24-.99,0-1.38-.65-2.38-1.54-2.38-1.13,0-1.53,1.72-1.53,3.19,0,.94-.09,1.3-.15,1.43-.03,0-.09-.03-.17-.06-.64-.24-1.25-.21-1.68.09-.34.23-.53.6-.53,1.02,0,.58,1.17,5.75,2.37,7.66-.35-.28-.71-.58-1.08-.91-3.7-3.35-4.12-2.98-4.43-2.71-.2.1-1.29.4-2.73.68-2.01.39-2.05.21-2.3-.74-.52-1.98-1.73-2.18-3.39-1.86-.28.05-.5.08-.67.09.12-.48-.06-.78-.28-.95-.88-.72-2.73.79-3.76,1.76q-1.46,1.38-3.15.27c-1.68-1.09-2.93-1.35-3.74-.77-.76.55-.92,1.68-.47,3.37.34,1.29.83,2.19,1.67,2.89-.03,0-.06,0-.09-.02-.63-.15-1.63-.08-2.79,1.08-.41.42-.52.53-1.25-.07-.72-.6-1.83-1.15-2.56-.93-.67.12-4.1-1.71-4.81-2.91-.5-.85-1.53-1.49-2.39-1.49-.32,0-1.12-.39-1.63-1.01-.75-.91-1.63-1.78-2.48-1.36-.8.4-.85,1.61-.2,4.29,1.14,4.66,1.99,5.76,6.09,7.86,2.55,1.3,3.42,2.52,3.37,2.99-.03.29-.62.47-.8.52-.78.2-1.42.66-1.72,1.23-.2.39-.23.82-.08,1.21.08.22.04.28.01.3-.55.59-3.89.6-9.55-1.23-1.28-.41-1.98-.63-2.38-.04-.39.57.08,1.14.68,1.86.76.92,2.18,1.64,3.25,1.64.62,0,1.17.61,1.41,1.55.49,1.97,1.77,2.69,4.07,3.26-1.25.47-2.26,1.31-2.49,2.22-.18.67.09,1.3.72,1.69.46.29.55.58.52.68-.02.07-.17.17-.5.17-1.59,0-3.14,2.18-3.37,3.59-.15.89.19,1.56.88,1.8.16.07.51.67.53,1.5.01,1.06.02,1.76.67,1.97.64.21,1.07-.35,1.71-1.2.16-.2.31-.36.44-.48-.03.07-.08.13-.14.2-.25.32-.36.7-.28,1.09.18.86,1.24,1.73,3.66,3,.81.42,1.56.84,2.19,1.21-.6-.16-1.22-.35-1.86-.57-1-.34-1.66-.56-2.05-.01-.38.54.04,1.08.53,1.69.64.82,1.8,1.43,2.7,1.43.42,0,.81.47.98,1.2.38,1.61,1.37,2.27,3.03,2.74-.88.42-1.57,1.07-1.76,1.77-.17.62.06,1.2.61,1.57.31.2.38.4.37.44-.01.02-.09.06-.27.06-1.37,0-2.6,1.85-2.81,3.07-.21,1.21.55,1.58.76,1.64.09.07.34.53.35,1.17.01.17.01.32.01.45-.46.14-.9.38-1.13.75-.18.3-.22.61-.13.91-.03.02-.06.04-.08.05-.18.13-.32.3-.39.5-.18-.01-.53-.05-1.14-.23-2.25-.65-5.37-.24-5.79,1.16-.13.45-.1,1.29,1.62,1.82.55.17,1.5.57,2.07.88.3.16.66.28,1.04.35-.34.61-.46,1.24-.11,1.67.12.15.59.6,1.43.07.11-.04.55,0,1.13.32.6.32.9.69.92.77-.02.07-.13.38-.52.96-.13.19-.16.42-.08.63.08.21.26.37.48.43l1.13.29c.3.08.62-.06.78-.33.48-.87.87-1.32,1.03-1.43.62-.07,1.07-.75,1.07-1.66h0c.06,0,.15.03.28.07.85.26,1.94.16,2.38-.56.08-.1.53-.33,1.06-.33.03,0,.06,0,.09,0-.04.23,0,.46.11.67.04.08.09.15.15.21-.38.31-.77.79-.5,1.34.14.28.55,1.14,3.93-.06.46-.16,1.23-.43,1.66-.53,0,.37,0,1.05.58,1.29.58.25,1.08-.25,1.35-.52.28-.28.89-.54,1.27-.54.11,0,.25.02.29.22.03.15-.02.43-.36.56-1.19.46-1.37,1.06-1.31,1.48.04.3.22.64.74.89-.33.32-.66.69-1.02,1.1-1.44,1.62-1.8,2.45-1.35,3.09.54.75,1.73.26,2.3.02.51-.21,1.1-.19,1.26-.1.61.32,1.58.25,2.24-.16.41-.25,1.66-.45,2.86-.39.61.4,1.31.63,1.96.63.31,0,.6-.06.87-.15l.28-.02s.07-.01.11-.01c.39-.09.49-.05.49-.05,0,0,.06.06.13.3.29.91.73,1.37,1.15,1.61-.26.1-.5.23-.75.41-4.87.07-4.87.89-4.87,1.38,0,.77.72,1.4,1.61,1.4.21,0,.84.32,1.26.85.25.32.62.65,1.14.87-.21-.03-.41.06-.56.22-.27.3-.49.6-.66.91-.16.31-.07.69.21.89l1.89,1.37c-.9.29-1.42.18-2.63-.43-1.17-.58-2.11-.88-3.12-.6.57-.6.56-1.14.48-1.46-.26-.93-1.46-1.41-3.39-1.4-3.74.07-6.13-.37-7.73-1.42-1.77-1.16-3.84-1.79-5.01-1.53-.57.12-.85.42-1,.68,0,0-.18.03-.77-.29-.87-.47-1.77-.48-2.54-.02-1.09.66-1.72,2.14-1.72,4.07,0,.33-.01.57-.03.75-.59-.3-1.4-.54-2.03-.65-2.55-.45-5.43-1.92-5.97-2.54.26-.87-.03-1.46-.42-1.74-.41-.29-1.14-.37-1.94.29-.11.09-.43.36-1.66-.2-.17-.08-.51-.24-.73-.36.12-.15.28-.34.36-.42.59-.65,1.66-.92,3.69-.92.79-.01,4.78-.09,5.38-1.55.16-.4.06-.83-.27-1.17-.61-.61-2.1-.13-2.71.1-.62.23-.96.26-1.09.27.06-.32.29-.99.75-1.81.11-.19.12-.42.03-.61-.08-.2-.26-.35-.47-.4l-1.12-.29c-.28-.08-.58.04-.75.28-.26.39-.56.78-.87,1.12-1.14,1.3-1.65,1.28-2.04,1.16-.46-.15-1.13-.3-1.64.07-.33.24-.5.64-.5,1.17,0,.15-.12.28-.27.28-.46,0-.84.15-1.08.42-.36-.23-.86-.57-1.5-1.03-1.63-1.18-2.83-2.6-2.97-3.1-.28-.96-1.04-1.98-1.77-2.37-1.91-1-6.77-1.43-9.14-.86.08-.18.12-.35.12-.51,0-.29-.16-.55-.43-.7-.52-.29-2.53-.32-4.43-.18.54-.54,1.14-1.57,1.39-2.42.19-.62.32-1.28-.04-1.78-.14-.19-.32-.32-.52-.4.26-.47.35-1.03.26-1.5-.02-.12-.06-.24-.1-.34.97-.23,1.93-.52,2.42-.78,1.37-.72,1.6-1.58,1.36-2.15-.09-.22-.43-.8-1.51-.69.27-.46.45-1.05.06-1.52-.35-.4-1.09-.77-3.53.68-.31.18-1.19.69-1.55.8l-.03-.06c-.36-.94-1.04-1.45-1.74-1.33-.51.1-1.06.58-1.07,1.63-.02,0-.04,0-.07-.02-.81-.32-2.02-.01-2.81.71-.13.11-.24.21-.33.29,0-.02,0-.04-.02-.07-.16-.41-.15-.86-.1-.96.21-.35.23-.73.05-1.06-.04-.08-.1-.16-.17-.23.25-.22.45-.52.33-.91-.19-.65-.92-.65-1.63-.66h-.02c-1.18,0-2.14.69-2.57,1.84-.26.69-.38,1.26-.13,1.78.04.06.07.13.12.18-.63.15-1.26.41-1.53.85-.09.11-.55.31-1.06.31-1.49,0-1.83.58-1.86,1.06,0,.1.01.2.03.3-.26-.27-.6-.51-1.02-.73-.77-.41-1.37-.88-1.47-1.01-.58-.87-2.06-.68-2.99-.2.81-1.07.62-1.68.31-2.01-.58-.62-1.76-.34-3.25.76-.09.07-.17.13-.25.18-.05-.32-.22-.51-.39-.63-.59-.41-1.44-.07-2.66,1.03-.78.71-.87.66-1.55.24-.52-.33-1.26-.66-1.81-.35-.29.16-.45.45-.45.78,0,.08.01.17.03.26t0-.01c-.23-.1-.47-.14-.69-.14C56.87,48.25,104.97,16.79,160.27,16.79ZM129.72,189.98c.07-.12.3-.33.63-.48.3-.13.5-.13.52-.12.1.08.29.57.21,1.21-.01.14-.03.26-.06.35-.32-.15-.78-.3-1.31-.44.06-.17.06-.36.01-.52ZM128.03,117.15c.4.09.86.11,1.41.03.12.21.3.44.51.71-.6-.24-1.23-.49-1.92-.74ZM115.84,44.79c0,1-.27,1.38-.39,1.4-.19.01-.94-.4-1.5-2.02-.35-.99-.76-1.66-1.17-2.1.57.28,1.26.54,2.08.79.58.19.98.96.98,1.93ZM49.81,97.32c-.03-.19-.08-.37-.16-.54.7.59,1.98,1,3.23,1.15.93.1,1.57.26,1.91.37-.07.47-.09,1.09-.09,1.48,0,.13-.01.23-.02.3-.88-.34-2.07.2-2.74.87-.59.59-.86.76-2.4.3-1.22-.36-1.43-.58-1.45-.58,0-.03.04-.24.66-.86.83-.83,1.18-1.67,1.06-2.49ZM129.48,270.82c-10.01,7.11-19.7,13.99-26.71,20.89-50.57-22.21-85.98-72.76-85.98-131.44,0-19.57,3.95-38.24,11.07-55.26.45.31,1.18.33,2.38.08,1.1-.23,3.47-.58,5.28-.78.88-.1,1.82-.19,2.25-.19-.04.12-.08.26-.11.35-.2.63-.42,1.34.03,1.82.1.1.21.18.34.22-.26.04-.53.04-.77,0-.72-.08-1.21.07-1.47.47-.07.11-.2.38-.11.74-.08.01-.17.02-.29.03-1.02.03-1.58.05-1.7.68-.05.24,0,.43.12.58-1.24.3-1.46,1.11-1.46,1.63,0,.21,0,.84.5,1.2.04.03.08.06.12.08-.64-.15-.78-.45-1.06-1.06-.62-1.36-1.3-2.05-2.95-1.54-3.26,1-3.45,2.62-3.27,3.5.04.23-.21,1.01-.75,1.6-.7.77-1.25,1.96-.94,2.76.06.18-.03.85-.37,1.4-.35.55-1.16,1.86-.33,2.47.96.72,2.8-1,4.18-2.56,2.86-3.25,5.93-4.55,6.57-4.15.67.42,3.22.7,4.47.79,1.86.14,3.09.48,3.37.65.28.37.79.55,1.37.6-.36.23-.65.55-.79.96-.12.37-.06.76.16,1.07.28.39.8.61,1.42.61.34,0,.98.2,1.51.49-.39.05-.77.19-.97.55-.3.57.07,1.17.37,1.65.9,1.44,1.63,1.41,3.22.58.84-.43,1.06-.41,1.12-.35.21.33.52.54.92.62.59.12,1.7.05,4.47-1.94.37-.26.48-.28.48-.29.03,0,.16.09.49.54.69.94,1.77,1.37,2.63,1.04.16-.06.35-.05.42.12.3.78.88,1.26,1.58,1.3.93.07,1.87-.62,2.52-1.83.33-.63.82-.84,1.04-.79.14.04.16.27.16.4,0,2.22,2.35,2.79,6.98,3.12,4.83.34,6.39.73,6.89.95-.11.36-.05.72.17,1.02.67.9,2.68.84,4.36.37,1.49-.41,2.1-.27,2.6.1.11.08.19.15.25.21-.45.4-.77,1.12-.77,1.78,0,.62-2,2.58-2.85,2.61-.83.02-1.96,1.18-2.5,1.86-.14.18-.41.53-.62.75-.03-.05-.07-.12-.12-.2-.31-.53-.74-1.13-1.36-.98-.04.01-.07.02-.1.03-.24-.33-.65-.81-1.22-.76-.59.07-.82.65-.89.82-.04.05-.39.19-1.19.02-.75-.15-1.46-.3-1.72.34-.29.69.25,1.04,2.02,2.21.01,0,.02,0,.03.02-.47.15-.84.44-1.01.83-.19.44-.14,1.13.65,1.62.14.08.04.46.02.54-.34,1.19-1.95,2.85-3.06,2.85s-2.09.59-2.4,1.38c-.1.26-.44.48-.65.48-.93,0-1.65.61-1.65,1.38,0,.28.1.53.28.73-.41-.16-.79-.25-1.13-.25-.52,0-1.24-.29-1.6-.63.29-.04.59-.14.84-.36.35-.31.52-.78.52-1.42,0-1.08-.53-1.53-.85-1.7-.47-.26-1.32-.39-2.67.46-.28.19-1.15.07-2.06-.43-.86-.48-1.25-1.01-1.25-1.24,0-1.8-1.71-3.41-3.3-3.86-1.1-.31-2.06-.04-2.58.73-.18.08-.72.15-1.41.01-1.41-.28-2.49.02-3.2.88-.38.46-.96.74-1.14.74-.87,0-1.55.57-1.55,1.31,0,.49,0,1.32,5.28,1.32,3.33,0,4.38.19,5.26.84-.67-.04-1.51.03-1.74.73-.25.76.42,1.5,2.18,2.41.16.08.29.15.41.22-.42.03-.95.06-1.61.09-1.84.07-3.58.13-3.58,1.93,0,1.6,1.54,1.97,3.12,2.23.44.07.75.14.97.2-.32.61-.38,1.55-.17,2.8.04.29.11.73.16,1.08-.3-.17-.65-.4-.88-.55-1.55-1.02-2.26-1.06-3.81-.23-1,.54-1.92,1.53-1.57,2.45.01.04-.03.14-.15.19-.06.02-.11,0-.14-.01-.04-.02-.11-.06-.15-.16-.3-.8-.94-1.29-1.71-1.31-.44-.03-.87.12-1.26.37-.06-.26-.15-.53-.26-.81-.22-.57-.67-.96-1.26-1.11-1.11-.26-2.67.4-4.16,1.76-.8.73-2.4.76-3.24.3-.43-.24-.4-.44-.38-.51.19-1.09-.48-2-1.2-2.3-.63-.26-1.29-.09-1.67.44-.2.22-1.47,1.04-3.09,1.88-1.87.98-2.65,1.63-2.79,2.34-.01.03-.02.07-.02.1-.35-.42-.68-.68-1.14-.53-.6.2-.61.83-.62,1.62-.01.52-.22.89-.26.94-.47.15-.92.64-.78,1.52.18,1.13,1.38,2.8,2.66,2.8.1,0,.18,0,.18.01-.03.06-.1.16-.28.27-.54.34-.77.88-.62,1.46.16.59.73,1.15,1.47,1.54-1.43.41-2.29,1.02-2.63,2.4-.16.61-.49,1-.87,1-.84,0-1.93.54-2.53,1.27-.45.54-.88,1.05-.51,1.59.37.55,1,.35,1.95.04,4.46-1.43,6.58-1.25,6.82-.93-.13.34-.1.71.07,1.04.24.48.74.84,1.38,1.01.34.09.44.2.45.22.05.15-.41,1.02-2.38,2.02-3.05,1.56-3.74,2.44-4.59,5.91-.51,2.1-.44,3.01.25,3.36.83.41,1.65-.57,2.05-1.05.34-.41.89-.68,1.06-.68.69,0,1.52-.51,1.92-1.18.47-.81,2.77-2.06,3.32-2.06h.02c.69.2,1.62-.36,2.06-.72.31-.26.41-.27.41-.27,0,0,.08.02.26.2.66.66,1.26.87,1.74.89-.42.48-.69,1.07-.9,1.84-.35,1.33-.21,2.23.42,2.68.67.49,1.64.3,2.96-.56q1.13-.74,2.11.18c1.42,1.34,2.44,1.78,3.01,1.3.14-.11.3-.31.3-.63.07.01.16.02.25.04,1.14.22,2.27.19,2.71-1.5.16-.63.18-.67,1.49-.42,1.03.2,1.74.4,1.93.48.35.28.8.43,3.5-2.01.05-.05.1-.09.14-.13-.8,1.76-1.39,4.62-1.39,4.95,0,.38.17.71.47.91.35.24.84.28,1.34.11.03.14.05.39.05.81,0,1.23.35,2.54,1.32,2.54.76,0,1.31-.82,1.31-1.94,0-.27.06-.47.11-.56.93-.21,1.13-1.97,1.13-3.47,0-.54.03-.97.08-1.31.28.97,1.11,1.69,1.96,1.69.18,0,.28.08.3.1,0,.66.56,1.82,1.12,2.62l1,1.42c.12.17.31.28.52.29.21.02.41-.06.56-.21l1.21-1.31c.91-.97,1.29-2.17,1-3.13,0,0,.03.01.04.01,1.08.28,1.74-.22,2.01-.79.5-1.08-.14-2.66-1.46-3.58-.04-.03-.1-.07-.15-.11.92-.39,1.88-1.66,2.35-2.71q.69-1.56,2.92-1.39c1.36.1,3.08.05,3.77-.79.11.09.28.25.55.57.76.87,2.19,1.56,3.27,1.56.68,0,1.98.54,2.69.96-.13.3-.18.83.8,1.91.71.78.7.79.29,1.28-.23.28-.66.8-.5,1.41.18.67.89.98,1.95,1.38.85.32,1.33.66,1.41.99.05.22-.02.77-1.12,1.93-.83.89-1.29,1.38-1.23,2.02.05.59.52.93,1.12,1.37.05.04.11.08.15.11-1,.47-1.4,1.43-1.26,2.18.14.74.76,1.22,1.58,1.22.12,0,.23.11.23.24,0,1.04.52,1.39.83,1.5.86.34,2.05-.36,3.62-2.12.7-.78,1.05-1.1,1.23-1.22.01,0,.02.03.04.05.25.39.48,1.17.48,1.62.01,1.22.7,1.46,1,1.51,1.14.19,2.34-1.36,2.94-3.01.54-1.5.62-1.48,1.37-1.3.62.16,1.27.28,1.76-.11.49-.38.54-1.05.54-1.7,0-.18-.02-.36-.04-.55,1.56,1.22,2.19,1.43,2.71,1.05.31-.22.38-.54.35-.84.44.22.93.37,1.36.09.56-.36.51-1.11.45-1.98-.07-1.09-.83-2.81-1.72-3.91-.38-.46-.81-.98-.93-1.22.12-.11.37-.29.55-.41,1.42-.99,3.04-3.75,3-5.09,0-.58-.32-.85-.5-.96-.39-.25-1.09-.26-1.69-.2.67-.76.8-1.58.55-2.83-.08-.4-.09-.72-.09-.92.83.12,1.43.63,1.43,1.27,0,.46.06,1.11.57,1.46.36.24.82.26,1.37.05,2.53-.98,3.61-.95,5.77.16,1.38.69,2.44,1.72,2.56,2.12.2.62.55,1.48,1.32,1.66.42.11.81-.03,1.12-.22.01.14.02.32.02.53,0,.81-.17,1.9-.97,2.5-.81.62-1.3.99-1.11,1.6.2.59.83.6,1.39.61.8.02,2.6-.65,3.85-1.29l1.3-.66-.13,1.62c-.18,2.25.1,3.53.97,4.41.47.46,1.03.91,1.63.77.13-.03.32-.1.49-.28.21.73.57,1.49.94,1.95-1.87-.37-3.87-.58-4.42-.36-.29.12-.48.36-.52.64-.02.16.01.34.06.52-1.77-.67-4.93-.87-7.12-.67-.14.02-.27.07-.37.16-.43.34-.84.74-1.25,1.22-.09.11-.15.21-.16.35-.03.1-.19.39-.3.58-.29.51-.61,1.09-.66,1.64-.02.24.09.47.29.62.2.14.46.17.68.07.6-.27,1.16-.44,1.65-.54.37-.06.89-.06,1.48.01.97.11,1.84.37,2.41.6-.12.01-.23.01-.35,0-1.1-.13-1.96.32-2.05,1.08-.03.27.02.78.77,1.18.36.2.84.34,1.34.4.2.02.35.06.46.09-.02.16-.01.31.05.46.08.2.31.79,2.1,1.07-.12.21-.16.44-.15.65.04.54.52,1.22,1.74,1.37.34.04.4.21.43.27.13.33,0,1-.59,1.71-.23.28-.28.35-1.67-.44-1.63-.92-2.96-.51-3.67-.29-.12.03-.29.08-.34.09l-.96.07c-.19,0-.38.08-.51.23-.05.04-.08.1-.11.15-.6,1.19-.34,2.06-.02,2.57.49.79,1.41,1.24,2.36,1.46-.08.04-.17.08-.27.13-.41.18-.84.37-1.16.73-.16.18-.21.43-.15.65.06.23.24.41.46.48.73.22,1.4.54,1.99.81l.45.21c.2.09.43.08.62-.03.2-.11.33-.3.35-.52.03-.2-.01-.39-.07-.55.67.18,1.34.55,1.67,1.29.11.23.34.39.6.41,3.13.15,3.88.11,4.12-1.89.02-.13.06-.35.21-.37.23-.03.68.24.94.9.49,1.28,1.34,2.07,2.26,2.13.71.03,1.35-.36,1.74-1.1.03-.06.08-.1.14-.11.09-.03.19-.01.29.04.81.44,1.94.14,2.74-.71.38-.41.52-.47.52-.47.02,0,.14.04.46.34,2.52,2.31,3.61,2.51,4.21,2.47.4-.03.74-.2,1.02-.55.04-.01.26,0,1.04.53,1.48,1.02,2.19,1.14,3.26-.18.36-.44.81-1,.57-1.59-.16-.39-.51-.57-.9-.67.57-.22,1.23-.35,1.56-.3.62.07,1.16-.08,1.49-.44.26-.28.36-.66.29-1.04-.09-.42-.34-.77-.67-1.05.59.03,1.11-.09,1.44-.43.29-.13,1.55-.32,3.41-.23.75.04,1.51.05,2.23.03,3.82.79,5.23,1.25,5.74,1.5,3.18,1.57,5.83,3.63,7.88,6.13-.34,7.39,1.36,13.32,5.34,18.65.35.47.72.95,1.09,1.42.6.77,1.25,1.53,1.98,2.31-5.23,3.53-12.57,8.98-21.01,15.24-7.08,5.25-15.1,11.2-22.92,16.78-1.33.95-2.67,1.9-4,2.84ZM202.27,295.54l-1.67,1.72c-7.4.19-16.22-.24-26.24-1.28-9.44-.98-17.83-2.15-24.94-3.48.08-2.25.39-4.45.91-6.54,7.57-.39,21.43-.84,32.8.14,8.89.77,18.25,2.24,24.91,3.42-1.85,1.98-3.84,4.03-5.77,6.02ZM217.07,278.24c-4.53-.71-14.4-2.11-32.09-3.94-9.59-1-18.07-2.19-25.23-3.53,1.35-1.18,2.83-2.31,4.42-3.35,6.59-.39,22.85-1.15,35.87-.02,5.59.48,11.97,1.29,18.97,2.41.7,2.26.06,5.03-1.94,8.43ZM245.8,275.41c-.64-4.25-1.72-8.01-3.02-10.36-10.9-19.75-21.28-25.93-31.32-31.9l-.26-.15c4.35-5.52,7.21-10.89,8.51-15.97.37-.21.76-.43,1.17-.63,1.61-.79,6.26-1.64,9.98-2.16.26.51.95.85,1.76.77.32-.01,1.33.44,2.15,1.17,1.03.92,2.53,1.57,3.51,1.48.52-.05,1.25.19,1.64.51-.28.06-.57.18-.8.43-.32.33-.46.81-.4,1.45.08,1.07.64,1.48.97,1.63.49.22,1.35.28,2.62-.68.27-.2,1.15-.16,2.1.27.9.4,1.33.91,1.34,1.14.15,1.79,1.98,3.25,3.6,3.58,1.13.22,2.06-.13,2.52-.94.16-.09.7-.2,1.4-.12,1.43.17,2.48-.22,3.12-1.13.34-.49.89-.81,1.08-.82.86-.07,1.5-.7,1.44-1.44-.04-.49-.11-1.31-5.37-.89-3.32.27-4.38.16-5.31-.42.67,0,1.5-.15,1.67-.87.19-.77-.54-1.46-2.37-2.23-.15-.06-.29-.12-.42-.18.41-.07.95-.14,1.6-.22,1.83-.21,3.55-.42,3.41-2.21-.13-1.59-1.69-1.84-3.29-1.97-.44-.03-.75-.08-.98-.12.27-.64.25-1.58-.05-2.81-.07-.3-.18-.72-.24-1.06.3.15.67.35.91.48,1.63.89,2.34.87,3.82-.08.96-.62,1.8-1.68,1.37-2.63.02-.06.07-.11.13-.14.1-.05.24.02.3.15.37.77,1.06,1.23,1.82,1.17.43-.02.85-.19,1.22-.47.08.25.2.52.32.79.27.55.74.9,1.35.99,1.12.18,2.63-.6,4.01-2.08.74-.79,2.33-.95,3.21-.55.44.2.42.4.41.47-.1,1.1.64,1.95,1.38,2.2.65.22,1.29-.02,1.63-.57.15-.2,1.27-1.08,2.93-2.13,1.79-1.12,2.51-1.83,2.6-2.55,0-.03.01-.07.01-.1.38.39.73.62,1.18.44.58-.25.54-.87.49-1.67-.04-.52.14-.91.18-.95.45-.2.87-.71.66-1.58-.28-1.11-1.59-2.69-2.89-2.58h-.18c.03-.06.1-.17.27-.29.51-.38.69-.93.49-1.5-.2-.58-.81-1.09-1.58-1.42,1.39-.53,2.2-1.2,2.43-2.6.11-.62.41-1.04.78-1.07.84-.06,1.89-.7,2.43-1.47.4-.57.78-1.12.38-1.62-.41-.52-1.03-.27-1.95.11-4.33,1.78-6.46,1.78-6.72,1.47.1-.34.04-.71-.16-1.03-.03-.06-.08-.13-.13-.18.26.03.48.06.67.11.23.06.47,0,.65-.17l3.6-3.37c.21-.2.27-.5.17-.77-.11-.26-.36-.43-.65-.43h-.14c-.57,0-1.12-.06-1.63-.13l.13-.12s.05-.05.07-.07l.09-.13c.63.32,1.11.44,1.47.44.52,0,.8-.24.94-.45.22-.33.38-1.02-.63-2.08.45.05.82,0,1.11-.27.47-.43.37-1.12.29-1.63-.07-.53-.11-.79,1.16-1.22,1.27-.42,1.37-.46,2.55.91.79.91,1.42,1.49,2.13,1.51.4.03.76-.14,1.08-.46.06-.05.11-.11.15-.17.61.08,1.47-.42,2.6-1.48q.98-.92,2.11-.18c1.32.87,2.29,1.05,2.96.56.63-.45.77-1.35.42-2.67-.21-.77-.48-1.36-.9-1.84.48-.02,1.08-.23,1.74-.89.17-.17.25-.2.25-.2.01,0,.12,0,.42.26.44.36,1.36.92,2.03.73.54,0,2.91,1.26,3.37,2.05.4.68,1.23,1.18,1.92,1.18.17,0,.72.27,1.06.68.19.23.47.57.8.82-4.94,39.74-26.2,74.49-56.85,97.32ZM303.26,172.24c-.67-1.41-1.66-2.14-3.7-3.18-1.96-1.01-2.43-1.87-2.38-2.03.01-.02.11-.13.45-.22.64-.17,1.14-.53,1.38-1,.12-.24.17-.49.13-.75.34.06.79.17,1.18.27.98.24,2.15.53,3.32.62-.09,2.11-.21,4.21-.38,6.29ZM301.31,159.39c.74-.38,1.31-.94,1.47-1.54.15-.58-.08-1.12-.62-1.45-.2-.13-.28-.25-.32-.25.03-.02.1-.04.22-.04.58,0,1.14-.35,1.6-.82.06,1.65.1,3.31.1,4.98,0,.32-.01.64-.01.97-.41-1-1.22-1.49-2.44-1.85Z"/>
  </g>
</svg>