<?xml version="1.0" encoding="UTF-8"?>
<svg id="Layer_2" data-name="Layer 2" xmlns="http://www.w3.org/2000/svg" viewBox="0 0 168.45 168.45">
  <defs>
    <style>
      .cls-1 {
        stroke-width: 0px;
      }
    </style>
  </defs>
  <g id="Layer_1-2" data-name="Layer 1">
    <path class="cls-1" d="m117.2,6.63c10.15,4.42,19.05,10.46,26.7,18.1,7.64,7.65,13.62,16.61,17.92,26.88,4.42,10.28,6.63,21.21,6.63,32.79s-2.21,22.52-6.63,32.79c-4.3,10.16-10.28,19.06-17.92,26.7s-16.55,13.62-26.7,17.92c-10.28,4.42-21.21,6.63-32.79,6.63s-22.52-2.21-32.79-6.63c-10.28-4.3-19.24-10.27-26.88-17.92-7.65-7.64-13.68-16.55-18.1-26.7C2.21,106.93,0,96,0,84.41s2.21-22.52,6.63-32.79c4.42-10.27,10.45-19.23,18.1-26.88,7.64-7.64,16.6-13.68,26.88-18.1C61.88,2.21,72.82,0,84.41,0s22.52,2.21,32.79,6.63ZM31.54,142.11l7.35,5.91,7.88,5.02c5.61,3.11,11.59,5.46,17.92,7.08,6.33,1.61,12.9,2.42,19.71,2.42,10.75,0,20.91-2.03,30.46-6.09,9.44-4.06,17.71-9.65,24.82-16.76,7.11-7.11,12.69-15.38,16.76-24.82,4.06-9.56,6.09-19.71,6.09-30.46s-2.03-20.91-6.09-30.46c-4.06-9.56-9.65-17.89-16.76-25-7.11-7.11-15.38-12.69-24.82-16.76-9.56-4.18-19.71-6.27-30.46-6.27s-21.03,2.09-30.47,6.27c-9.56,4.06-17.89,9.65-25,16.76-7.11,7.11-12.75,15.44-16.93,25-4.06,9.56-6.09,19.71-6.09,30.46,0,5.73.6,11.29,1.79,16.67,1.19,5.38,2.9,10.51,5.11,15.41,2.21,4.9,4.93,9.5,8.15,13.8,3.11,4.3,6.63,8.24,10.57,11.83Zm52.69,17.92c10.39,0,20.19-1.97,29.39-5.91,9.2-3.94,17.23-9.35,24.1-16.22,6.87-6.87,12.28-14.9,16.22-24.1,4.06-9.2,6.09-19,6.09-29.39s-2.03-20.19-6.09-29.39c-3.94-9.2-9.35-17.23-16.22-24.1-6.87-6.87-14.91-12.28-24.1-16.22-9.2-4.06-19-6.09-29.39-6.09s-20.19,2.03-29.39,6.09c-9.2,3.94-17.23,9.35-24.1,16.22-6.87,6.87-12.28,14.91-16.22,24.1-4.06,9.2-6.09,19-6.09,29.39s2.03,20.19,6.09,29.39c3.94,9.2,9.35,17.24,16.22,24.1,6.87,6.87,14.9,12.28,24.1,16.22,9.2,3.94,19,5.91,29.39,5.91Zm0-148.56c10.04,0,19.47,1.91,28.31,5.73,8.84,3.83,16.55,9.05,23.12,15.68s11.77,14.37,15.59,23.21c3.82,8.84,5.73,18.28,5.73,28.31s-1.91,19.47-5.73,28.31c-3.71,8.84-8.87,16.55-15.5,23.12-6.63,6.57-14.37,11.77-23.21,15.59-8.84,3.83-18.28,5.73-28.31,5.73s-19.47-1.91-28.31-5.73c-8.84-3.82-16.55-9.02-23.12-15.59-6.57-6.57-11.77-14.28-15.59-23.12-3.82-8.84-5.73-18.28-5.73-28.31s1.91-19.47,5.73-28.31c3.82-8.84,9.02-16.58,15.59-23.21,6.57-6.63,14.28-11.86,23.12-15.68,8.84-3.82,18.28-5.73,28.31-5.73Zm-33.51,125.62c2.51-.48,4.99-.81,7.44-.99,2.45-.18,4.93-.27,7.44-.27.72-.12,1.25-.3,1.61-.54.36-.24.6-.72.72-1.43.83-2.98,2.18-5.61,4.03-7.88,1.85-2.27,3.91-4.24,6.18-5.91,2.27-1.67,3.46-3.16,3.58-4.48.12-1.31-1.08-2.69-3.58-4.12-.84-.72-1.55-1.46-2.15-2.24-.6-.78-1.2-1.7-1.79-2.78-1.2-1.55-2.54-2.99-4.03-4.3-1.5-1.31-3.44-1.61-5.82-.9-1.08.36-1.58.12-1.52-.72.06-.83-.21-1.25-.81-1.25-1.2-.24-1.73-.57-1.61-.99.12-.42.42-.87.9-1.34.36-.48.42-.9.18-1.25-.24-.36-.54-.72-.9-1.08-1.08-1.19-2.57-1.91-4.48-2.15-1.91-.24-3.58.06-5.02.9-.48.12-.99.27-1.52.45-.54.18-.93.03-1.16-.45,0-.72-.3-1.4-.9-2.06-.6-.66-.42-1.28.54-1.88.6-.48.99-.99,1.16-1.52.18-.54.27-1.17.27-1.88,0-1.08.3-1.85.9-2.33.6-.48,1.49-.48,2.69,0,1.19.24,2.3.54,3.32.9,1.01.36,2.12.3,3.32-.18.48-.36.95-.36,1.43,0,.48.36.66.78.54,1.25-.24,2.15.33,3.7,1.7,4.66,1.37.96,2.78,1.85,4.21,2.69.48.36.99.72,1.52,1.08.54.36,1.1.78,1.7,1.25.6-.96.63-1.94.09-2.96-.54-1.01-.33-1.88.63-2.6,1.19.72,1.79,1.58,1.79,2.6s-.24,2.12-.72,3.32c-.6.84-.81,1.52-.63,2.06.18.54.57,1.17,1.17,1.88,2.03,1.67,4.06,3.17,6.09,4.48,2.03,1.32,4.3,2.09,6.81,2.33,1.55.36,2.87.3,3.94-.18,1.08-.48,1.97-1.37,2.69-2.69.47-.95,1.07-1.94,1.79-2.96.72-1.01,1.01-2.24.9-3.67-.24-2.87-.96-4.99-2.15-6.36-1.2-1.37-3.17-2.24-5.91-2.6-1.32-.12-2.45-.51-3.4-1.17-.96-.65-1.79-1.58-2.51-2.78-.48-.6-1.02-1.22-1.61-1.88-.6-.66-1.25-1.22-1.97-1.7-.84-.83-1.73-1.37-2.69-1.61-.96-.24-2.03-.06-3.23.54-.48.36-.96.69-1.43.99-.48.3-1.02.57-1.61.81-1.79.96-3.2,1.41-4.21,1.34-1.02-.06-2.36-.87-4.03-2.42-.84-.83-1.64-1.7-2.42-2.6-.78-.9-1.94-.92-3.5-.09-.12.24-.3.24-.54,0,.12-1.55-.42-2.21-1.61-1.97-1.2.24-2.09.06-2.69-.54-.72-.48-1.08-.9-1.08-1.25s.24-.6.72-.72c1.31-.36,2.18-.99,2.6-1.88.42-.9.63-1.94.63-3.14s.6-1.91,1.79-2.15c1.19-.24,2.27.06,3.23.9.83.6,1.52,1.23,2.06,1.88.54.66,1.17,1.34,1.88,2.06.12.36.3.72.54,1.08.24.36.18.84-.18,1.43-.84,1.67-.78,3.17.18,4.48.95,1.32,2.45,1.85,4.48,1.61.48,0,.96-.09,1.43-.27.48-.18.96-.45,1.43-.81,2.27-1.31,4.66-2.03,7.17-2.15,2.51-.12,5.08.18,7.71.9.36,0,.74.12,1.16.36.42.24.81.12,1.17-.36.12-.48,0-.96-.36-1.43-.36-.48-.72-.78-1.07-.9-1.55-1.31-3.23-2.24-5.02-2.78-1.79-.54-3.58-1.04-5.38-1.52-1.67-.36-3.2-.83-4.57-1.43-1.38-.6-2.6-1.55-3.67-2.87-2.39-2.51-5.08-4-8.06-4.48-2.99-.48-6.04-.66-9.14-.54-.24,0-.48.06-.72.18-.24.12-.36.06-.36-.18-.96-1.43-2.21-2.36-3.76-2.78-1.55-.42-2.93-1.22-4.12-2.42-.48-.48-.96-.6-1.43-.36-.48.24-.9.48-1.25.72-1.08.48-2.24.63-3.5.45-1.25-.18-2.48-.03-3.67.45-.72.36-1.5.39-2.33.09-.84-.3-1.61-.51-2.33-.63-.48,0-.63-.36-.45-1.08.18-.72.09-1.25-.27-1.61-.12-.36-.18-.63-.18-.81s.18-.39.54-.63c1.67-.95,2.3-2.03,1.88-3.23-.42-1.19-.81-2.39-1.17-3.58-.12-1.19-.27-2.3-.45-3.32-.18-1.01-.39-2.12-.63-3.32-.24-.83.12-1.55,1.08-2.15.96-.6,1.85-.96,2.69-1.08,1.91-.24,3.82-.51,5.73-.81,1.91-.3,3.82-.27,5.73.09.36,0,.69-.03.99-.09.3-.06.51-.45.63-1.16,0-.83.21-1.58.63-2.24.42-.66,1.22-1.28,2.42-1.88,1.79-.6,3.52-.99,5.2-1.17,1.67-.18,3.34-.21,5.02-.09.12.12.27.18.45.18s.39-.06.63-.18c2.39-.95,4.54-.99,6.45-.09,1.91.9,3.82,1.94,5.73,3.14.96.48,1.82.51,2.6.09.78-.42,1.4-1.04,1.88-1.88.83-.72,1.52-1.61,2.06-2.69.54-1.08,1.28-2.03,2.24-2.87.72-.83,1.4-1.4,2.06-1.7.65-.3,1.76-.27,3.31.09,1.67.48,3.43.66,5.29.54,1.85-.12,3.67-.18,5.46-.18.84,0,1.67.03,2.51.09.83.06,1.67.21,2.51.45.96.24,1.88-.06,2.78-.9.89-.83,1.82-1.37,2.78-1.61,1.07-.36,2.03-.54,2.87-.54s1.67.3,2.51.9c.96.48,1.82.72,2.6.72s1.64-.18,2.6-.54c1.08-.48,2.09-.69,3.05-.63.96.06,1.91.39,2.87.99.83.36,1.67.72,2.51,1.08.83.36,1.67.54,2.51.54.6,0,1.1.18,1.52.54.42.36.81.84,1.17,1.43.24,1.2.8,2.09,1.7,2.69.9.6,1.82,1.08,2.78,1.43,1.91.48,3.41,1.32,4.48,2.51,1.08,1.2,2.27,2.33,3.58,3.41.48.48.18,1.29-.89,2.42-1.08,1.14-2.09,1.64-3.05,1.52-1.2-.24-2.39-.36-3.58-.36s-2.21-.36-3.05-1.08c-1.2-.96-2.42-1.4-3.67-1.34-1.25.06-2.48-.27-3.67-.99-.48-.12-.87-.03-1.16.27-.3.3-.57.81-.81,1.52-.36,1.43-1.08,2.63-2.15,3.58-1.08.96-2.45,1.5-4.12,1.61-.48,0-.81.09-.98.27-.18.18-.15.51.09.99.24.84.24,1.64,0,2.42-.24.78-.72,1.41-1.43,1.88-.84.6-1.23,1.14-1.17,1.61.06.48.33.96.81,1.43.36.36.69.72.99,1.08.3.36.74.42,1.34.18.83-.24,1.25-.74,1.25-1.52s-.06-1.22-.18-1.34c-.84-1.19-.89-2.18-.18-2.96.72-.78,1.01-1.58.89-2.42,0-.12.06-.24.18-.36.12-.12.24-.18.36-.18,1.55.6,2.69.45,3.4-.45.72-.9,1.55-1.76,2.51-2.6.48-.48.9-.66,1.26-.54.36.12.72.54,1.07,1.25.83,1.67,1.73,2.66,2.69,2.96.95.3,2.15-.03,3.58-.99.47-.36.89-.54,1.25-.54s.6.06.72.18c.83.84,1.79,1.5,2.87,1.97,1.08.48,1.79,1.38,2.15,2.69,0,.6.18.81.54.63s1.08-.87,2.15-2.06c1.79,2.03,2.75,3.47,2.87,4.3.12.84-.66,2.09-2.33,3.76-1.08,1.08-1.43,1.88-1.08,2.42.36.54,1.08,1.11,2.15,1.7.24.24.66.42,1.25.54.6.12.84.42.72.9,0,.6-.27.9-.8.9h-1.52c-1.55-.24-3.05-.09-4.48.45-1.43.54-2.93.33-4.48-.63-.12-.36-.24-.33-.36.09-.12.42-.18.69-.18.81-.36.72-.72,1.43-1.08,2.15-.36.72-.12,1.32.72,1.79.96.72,1.55,1.55,1.79,2.51.24.96.96,1.67,2.15,2.15.47.36.54.78.18,1.25-.36.48-.78.84-1.26,1.08-.96.6-1.94,1.11-2.96,1.52-1.02.42-1.64,1.23-1.88,2.42-.24.48-.57.72-.99.72s-.75-.24-.98-.72c-.36-.36-.66-.48-.9-.36-.24.12-.54.36-.9.72-.24.24-.33.48-.27.72.06.24.27.42.63.54,1.55,2.03,1.85,4.3.89,6.81-.96,2.51-2.69,4.18-5.2,5.02-1.31.36-2.63.63-3.94.81-1.32.18-2.75.03-4.3-.45-.96-.36-1.88-.27-2.78.27-.9.54-1.59,1.23-2.06,2.06-.36.48-.69.99-.98,1.52-.3.54-.51,1.11-.63,1.7.24.36.6.51,1.07.45.48-.06.96-.09,1.43-.09,3.11-.24,6.21-.24,9.32,0,3.11.24,6.15-.06,9.14-.9,2.03-.72,3.34-1.43,3.94-2.15s.3-2.21-.89-4.48c-.36-.36-.39-.6-.09-.72.3-.12.45-.3.45-.54,0-2.39.72-4.27,2.15-5.65,1.43-1.37,2.93-2.84,4.48-4.39.6-.6,1.46-.66,2.6-.18,1.13.48,2.12.24,2.96-.72.48.84.99,1.61,1.52,2.33.54.72.92,1.5,1.17,2.33.24,1.08.74,1.79,1.52,2.15.78.36,1.64.6,2.6.72,1.19,0,1.73.33,1.61.99-.12.66-.18,1.23-.18,1.7,0,.72-.18,1.14-.54,1.25-.36.12-.84.24-1.43.36-1.2.24-2.45.42-3.76.54-1.32.12-2.15,1.14-2.51,3.05,0,.24-.12.6-.36,1.08-2.15.6-4.18,1.55-6.09,2.87-1.91,1.32-3.94,2.09-6.09,2.33-2.51.36-4.99.72-7.44,1.08-2.45.36-4.93.48-7.44.36-.72-.24-1.32-.15-1.79.27-.48.42-.9.87-1.26,1.34-.72,1.79-1.85,3.08-3.4,3.85-1.55.78-3.23,1.17-5.02,1.17-1.08.12-2.09.24-3.05.36-.96.12-1.97.54-3.05,1.25.36.6.81,1.08,1.34,1.43.54.36,1.22.54,2.06.54,3.58,0,7.14-.3,10.66-.9,3.52-.6,7.02-1.31,10.48-2.15.6-.12,1.16-.33,1.7-.63.54-.3.81-.63.81-.99,0-1.79.48-2.63,1.43-2.51.96.12,1.85.06,2.69-.18,1.43-.12,2.81-.36,4.12-.72,1.31-.36,2.62-.54,3.94-.54.6,0,1.13.03,1.61.09.48.06.42.57-.18,1.52-.48.72-.45,1.29.09,1.7.54.42.75.93.63,1.52-.72.36-1.25.39-1.61.09-.36-.3-.72-.63-1.08-.99-.72-.96-1.52-1.46-2.42-1.52-.89-.06-1.88-.09-2.96-.09-.24,0-.6.12-1.07.36-.48.24-.66.54-.54.9.36,2.03-.18,3.23-1.61,3.58s-2.51.96-3.23,1.79c-.24.24-.69.48-1.34.72-.66.24-1.23.54-1.7.9-.36,0-.63.09-.8.27-.18.18-.45.21-.81.09-1.55-1.19-2.87-1.37-3.94-.54-1.07.84-2.09,1.67-3.05,2.51-1.07.96-2.27,1.38-3.58,1.25-1.32-.12-2.63-.48-3.94-1.08-5.5-1.79-8.51-2.48-9.05-2.06-.54.42-2.72,2.66-6.54,6.72-1.55,1.79-3.02,3.79-4.39,6-1.38,2.21-2.72,4.27-4.03,6.18-.84,1.32-.99,2.42-.45,3.31.54.9,1.52,1.34,2.96,1.34l-34.95,1.61Zm54.66.36c-7.77-1.79-17.14-2.69-28.13-2.69s-20.55.9-28.32,2.69c-7.77,1.79-11.65,4-11.65,6.63s3.88,4.69,11.65,6.54c7.76,1.85,17.2,2.78,28.32,2.78s20.37-.92,28.13-2.78c7.77-1.85,11.65-4.03,11.65-6.54s-3.88-4.84-11.65-6.63Zm-15.41-79.03c.72-.24,1.28-.54,1.7-.9.42-.36.63-.83.63-1.43.12-.72.06-1.31-.18-1.79-.24-.48-.6-.78-1.07-.9-1.08-.48-2-1.04-2.78-1.7-.78-.66-1.41-1.4-1.88-2.24-.48-.72-.98-1.13-1.52-1.25-.54-.12-1.23.06-2.06.54-1.07.48-2.15.87-3.22,1.17-1.08.3-2.09.45-3.05.45-.84,0-1.5-.39-1.97-1.17-.48-.78-.96-1.46-1.43-2.06-.24-.72-.72-1.43-1.43-2.15-.72-.72-1.67-.65-2.87.18-1.08.6-1.64,1.32-1.7,2.15-.06.84-.03,1.79.09,2.87.36.72.69,1.41.99,2.06.3.66.75,1.29,1.34,1.88.72.6,1.22,1.29,1.52,2.06.3.78.33,1.7.09,2.78-.24.96-.15,1.7.27,2.24.42.54,1.22.81,2.42.81.95.12,1.97.33,3.05.63,1.08.3,2.03.63,2.87.99s1.55.42,2.15.18c.6-.24.9-.83.9-1.79.12-1.08.54-1.79,1.25-2.15s1.49-.66,2.33-.9c.6-.12,1.22-.24,1.88-.36.65-.12,1.22-.18,1.7-.18Zm-6.81,11.83c.12-.36.06-.69-.18-.99-.24-.3-.54-.51-.9-.63-2.15-1.19-4.36-2.33-6.63-3.4-2.27-1.08-4.78-1.61-7.53-1.61,1.91,2.27,4.18,3.74,6.81,4.39,2.63.66,5.08,1.52,7.35,2.6.12.12.33.18.63.18s.45-.18.45-.54Zm-4.66,36.92c.96.96,1.88,1.67,2.78,2.15.9.48,1.94.96,3.14,1.43-.72-1.67-1.55-2.66-2.51-2.96-.96-.3-2.09-.51-3.4-.63Zm7.88-25.45c-1.32-1.08-2.87-1.97-4.66-2.69.95,1.67,2.03,3.14,3.22,4.39,1.19,1.25,2.87,1.88,5.02,1.88-1.07-1.31-2.27-2.51-3.58-3.58Zm-.36-36.2c.72.6,1.37.87,1.97.81.6-.06,1.08-.33,1.43-.81.48-.72.69-1.4.63-2.06-.06-.66-.51-1.28-1.34-1.88-.24.96-.57,1.73-.99,2.33-.42.6-.98,1.14-1.7,1.61Zm8.24,23.3c-.84,1.55-1.25,3.08-1.25,4.57s.42,2.96,1.25,4.39c.84,1.79,1.85,3.47,3.05,5.02,1.19,1.55,2.27,3.17,3.23,4.84.47.72.96,1.25,1.43,1.61.48.36,1.07.36,1.79,0,.6-.24,1.13-.45,1.61-.63.48-.18.6-.63.36-1.34-.24-.6-.63-1.25-1.17-1.97s-1.11-1.25-1.7-1.61c-1.32-.48-2.27-1.13-2.87-1.97-.6-.83-.72-1.91-.36-3.23.12-.48.27-1.04.45-1.7.18-.66.33-1.34.45-2.06,0-.24.06-.57.18-.99.12-.42-.18-.74-.9-.99-.24-.12-.45-.21-.63-.27-.18-.06-.27-.27-.27-.63s.12-.63.36-.81c.24-.18.54-.27.9-.27.96,0,1.73-.24,2.33-.72.6-.48,1.13-.96,1.61-1.43-.24-.83-.75-1.16-1.52-.99-.78.18-1.23-.09-1.34-.81,1.07-.95,2.27-1.55,3.58-1.79,1.31-.24,2.75-.3,4.3-.18,1.43.36,2.51-.03,3.23-1.17.72-1.13.83-2.24.36-3.32-.36-.6-.54-.99-.54-1.17s.18-.39.54-.63c.24-.12.57-.24.99-.36.42-.12.33-.54-.27-1.25-.36-.36-.69-.65-.99-.9-.3-.24-.75-.24-1.34,0-.96.12-1.76.54-2.42,1.25-.66.72-1.05,1.61-1.17,2.69-.36.96-.12,1.5.72,1.61.83.12,1.55.36,2.15.72.12.24.24.42.36.54-.84,0-1.61.03-2.33.09-.72.06-1.5-.09-2.33-.45-1.43-.6-2.39-.72-2.87-.36-.48.36-.84,1.61-1.07,3.76-.48-.72-.84-1.25-1.08-1.61-.24-.36-.54-.72-.9-1.08-1.07-.95-1.94-1.34-2.6-1.17-.66.18-1.23.99-1.7,2.42-.12.72-.33,1.46-.63,2.24-.3.78-.63,1.46-.99,2.06Zm1.61-20.07c1.08.24,2.39-.54,3.94-2.33,1.55-1.79,2.03-3.11,1.43-3.94-.36-.83-.63-1.64-.81-2.42-.18-.78-.39-1.52-.63-2.24-.48-.12-.81-.06-.99.18-.18.24-.39.42-.63.54-.48,1.32-1.02,2.6-1.61,3.85-.6,1.25-1.38,2.42-2.33,3.49-.48.48-.48,1.05,0,1.7.48.66,1.01,1.05,1.61,1.17Zm8.96-5.91c-.36,2.03-1.02,3.58-1.97,4.66-.96,1.08-2.27,2.03-3.94,2.87-.96.48-1.67,1.29-2.15,2.42-.48,1.14-.3,2.24.54,3.32.6,1.08,1.28,1.41,2.06.99.78-.42,1.52-.87,2.24-1.34.6-.36,1.17-.78,1.7-1.25.54-.48,1.04-.95,1.52-1.43,1.19-1.19,1.79-2.78,1.79-4.75s-.6-3.79-1.79-5.47Zm6.27,56.99c-1.32-.12-2.54-.21-3.67-.27-1.14-.06-2.24.15-3.31.63l-.81.81c-.3.3-.45.57-.45.81.12.36.33.63.63.81.3.18.63.27.98.27,1.19,0,2.39-.12,3.58-.36,1.19-.24,2.21-1.13,3.05-2.69Z"/>
  </g>
</svg>