<?xml version="1.0" encoding="UTF-8"?>
<svg id="Layer_2" data-name="Layer 2" xmlns="http://www.w3.org/2000/svg" viewBox="0 0 182.79 158.78">
  <defs>
    <style>
      .cls-1 {
        stroke-width: 0px;
      }
    </style>
  </defs>
  <g id="Layer_1-2" data-name="Layer 1">
    <path class="cls-1" d="m61.29,57.71l-12.54,41.22h-12.54l-13.98-20.79-6.45,20.79H0l12.54-41.22h12.54l13.98,21.15,6.45-21.15h15.77Zm10.04-47.13c-6.45,2.15-12.43,5.2-17.92,9.14-5.5,3.94-10.39,8.66-14.7,14.16-4.18,5.5-7.53,11.53-10.04,18.1h-7.17c2.75-7.64,6.39-14.63,10.93-20.97,4.66-6.33,10.04-11.8,16.13-16.4,6.09-4.6,12.78-8.21,20.07-10.84,7.41-2.51,15.11-3.76,23.12-3.76s15.89,1.25,23.3,3.76c7.41,2.63,14.16,6.24,20.25,10.84,6.09,4.6,11.47,10.07,16.13,16.4,4.66,6.33,8.3,13.32,10.93,20.97h-7.17c-2.63-6.57-6.03-12.6-10.21-18.1-4.3-5.49-9.2-10.21-14.69-14.16-5.5-3.94-11.47-6.99-17.92-9.14-6.57-2.27-13.44-3.4-20.61-3.4s-13.86,1.14-20.43,3.4Zm-34.41,112.9c3.23,4.78,6.96,9.05,11.2,12.81,4.24,3.76,8.87,6.96,13.89,9.59,5.14,2.51,10.51,4.42,16.13,5.74v7.17c-6.57-1.31-12.79-3.46-18.64-6.45-5.85-3.11-11.23-6.84-16.13-11.2-4.9-4.36-9.2-9.29-12.9-14.78-3.7-5.61-6.69-11.65-8.96-18.1h7.17c2.15,5.5,4.9,10.57,8.24,15.23Zm7.89-85.66c3.46-4.3,7.35-8.06,11.65-11.29,4.3-3.23,8.96-5.85,13.98-7.88,5.14-2.15,10.45-3.46,15.95-3.94v7.53c-9.2.84-17.53,3.94-25,9.32-7.47,5.38-13.23,12.19-17.29,20.43h-7.89c2.39-5.13,5.26-9.86,8.6-14.16Zm13.53,87.99c5.91,4.9,12.51,8.36,19.8,10.39v7.53c-4.66-1.08-9.08-2.69-13.26-4.84-4.3-2.27-8.24-4.93-11.83-7.97-3.58-3.05-6.81-6.48-9.68-10.3-2.87-3.82-5.26-7.94-7.17-12.37h7.89c3.58,6.81,8.33,12.67,14.25,17.56Zm14.43-83.15c-4.18,2.39-7.89,5.5-11.11,9.32h-8.6c3.82-5.97,8.6-10.84,14.34-14.6,5.73-3.76,12.07-6.06,19-6.9v7.53c-4.9.72-9.44,2.27-13.62,4.66Zm-3.67,72.4c2.81,2.03,5.82,3.71,9.05,5.02v7.89c-5.26-1.79-10.04-4.36-14.34-7.71-4.3-3.34-7.88-7.35-10.75-12.01h8.6c2.15,2.51,4.63,4.78,7.44,6.81Zm49.55-36.56l1.08,2.15c.36.84.63,1.64.81,2.42.18.78.27,1.64.27,2.6,0,1.08-.12,2.15-.36,3.23-.24,1.08-.6,2.15-1.08,3.23-.36,1.08-.9,2.06-1.61,2.96s-1.5,1.82-2.33,2.78c-.72.72-1.58,1.41-2.6,2.06-1.02.66-2.06,1.29-3.14,1.88-1.32.48-2.6.96-3.85,1.43-1.25.48-2.6.84-4.03,1.08-.72.12-1.55.21-2.51.27-.96.06-2.15.21-3.58.45h-1.79c-.72,0-1.58.06-2.6.18-1.02.12-2.06.18-3.14.18h-29.75l12.54-56.63h31.54c.72,0,1.31.12,1.79.36h2.15c.72,0,1.43.12,2.15.36,1.08.36,2.09.66,3.05.9.96.24,1.85.66,2.69,1.25.72.36,1.43.81,2.15,1.34.72.54,1.43,1.17,2.15,1.88.6.48,1.13,1.14,1.61,1.97.48.84.9,1.61,1.25,2.33.36.84.63,1.7.81,2.6.18.9.27,1.82.27,2.78,0,2.15-.36,4.12-1.08,5.91s-1.67,3.4-2.87,4.84c-.36.12-.66.3-.9.54-.24.24-.54.54-.9.9h.36c.6.48,1.08,1.08,1.43,1.79Zm-44.08,15.05h14.69c.96,0,1.79-.03,2.51-.09.72-.06,1.31-.15,1.79-.27h1.43c.6,0,1.37-.06,2.33-.18.96-.12,1.49-.18,1.61-.18.96-.24,1.79-.45,2.51-.63.72-.18,1.31-.45,1.79-.81.36-.24.78-.51,1.25-.81.48-.3.78-.63.9-.99.36-.24.66-.51.9-.81.24-.3.42-.63.54-.99.24-.36.36-.72.36-1.08v-1.08c0-.6-.09-1.08-.27-1.43-.18-.36-.33-.72-.45-1.08-.36-.36-.75-.66-1.17-.9-.42-.24-.99-.42-1.7-.54-.36-.24-.9-.36-1.61-.36h-24.55l-2.87,12.19Zm4.3-21.86h19.71c.72,0,1.43-.06,2.15-.18.72-.12,1.43-.18,2.15-.18.6-.24,1.17-.45,1.7-.63.54-.18,1.04-.45,1.52-.81l1.08-1.08c.36-.36.6-.72.72-1.08.24-.36.42-.81.54-1.34.12-.54.18-1.04.18-1.52,0-.6-.09-1.08-.27-1.43-.18-.36-.45-.72-.81-1.08-.24-.24-.6-.51-1.08-.81-.48-.3-1.08-.51-1.79-.63-.36,0-.66-.03-.9-.09-.24-.06-.54-.15-.9-.27h-21.5l-2.51,11.11Zm43.46-40.14c-7.47-5.38-15.74-8.48-24.82-9.32v-7.53c5.61.48,10.93,1.79,15.95,3.94,5.02,2.03,9.68,4.66,13.98,7.88,4.3,3.23,8.18,6.99,11.65,11.29,3.46,4.3,6.33,9.02,8.6,14.16h-7.88c-4.18-8.24-10.01-15.05-17.47-20.43Zm-5.82,5.82c5.85,3.76,10.63,8.63,14.34,14.6h-8.6c-3.23-3.82-6.96-6.93-11.2-9.32-4.24-2.39-8.75-3.94-13.53-4.66v-7.53c6.81.84,13.14,3.14,19,6.9Zm36.92,88.98c-3.7,5.5-7.97,10.42-12.81,14.78-4.84,4.36-10.19,8.1-16.04,11.2-5.85,2.99-12.01,5.14-18.46,6.45v-7.17c5.61-1.31,10.87-3.23,15.77-5.74,5.02-2.63,9.65-5.82,13.89-9.59,4.24-3.76,7.97-8.03,11.2-12.81,3.34-4.66,6.09-9.74,8.24-15.23h7.17c-2.27,6.45-5.26,12.49-8.96,18.1Zm-12.9-5.73c-2.87,3.7-6.09,7.08-9.68,10.12s-7.47,5.71-11.65,7.97c-4.18,2.15-8.54,3.83-13.08,5.02v-7.53c7.41-2.03,13.98-5.49,19.71-10.39,5.73-4.9,10.39-10.75,13.98-17.56h7.88c-2.03,4.42-4.42,8.54-7.17,12.37Zm-20.43-.63c-4.3,3.4-8.96,5.94-13.98,7.62v-7.53c3.11-1.31,6.03-2.98,8.78-5.02,2.75-2.03,5.2-4.3,7.35-6.81h8.6c-2.87,4.42-6.45,8.33-10.75,11.74Zm62.72-62.27l-12.19,41.22h-12.9l-13.98-20.79-6.45,20.79h-15.77l12.54-41.22h12.54l14.34,21.15,6.45-21.15h15.41Z"/>
  </g>
</svg>