<?xml version="1.0" encoding="UTF-8"?>
<svg id="Layer_2" data-name="Layer 2" xmlns="http://www.w3.org/2000/svg" viewBox="0 0 300 300.83">
  <defs>
    <style>
      .cls-1 {
        fill: #ffde00;
      }

      .cls-1, .cls-2, .cls-3 {
        stroke-width: 0px;
      }

      .cls-2 {
        fill: #005474;
      }

      .cls-3 {
        fill: #fff;
      }
    </style>
  </defs>
  <g id="Layer_1-2" data-name="Layer 1">
    <g>
      <path class="cls-1" d="M83.24,181.31c-4.31-9.44-6.59-19.77-6.59-30.46,0-19.59,7.63-38.01,21.48-51.86,6.44-6.44,13.87-11.53,21.94-15.14l4.33-11.44c-33.03,10.77-56.91,41.82-56.91,78.45,0,15.3,4.17,29.62,11.42,41.9l4.32-11.44ZM218.47,124.45c3.2,8.31,4.87,17.23,4.87,26.4,0,19.59-7.63,38.01-21.48,51.86-5.33,5.33-11.34,9.73-17.83,13.14l-4.55,12.06c31-11.87,53.01-41.89,53.01-77.07,0-13.88-3.43-26.96-9.49-38.45l-4.54,12.05ZM70.02,216.3c-6.27-7.64-11.38-16.09-15.24-25.23-5.39-12.73-8.12-26.27-8.12-40.22s2.73-27.49,8.12-40.22c5.2-12.3,12.66-23.36,22.15-32.85,9.49-9.49,20.55-16.95,32.85-22.15,7.59-3.21,15.46-5.47,23.53-6.78l3.68-9.75c-56,6.45-99.49,54.02-99.49,111.75,0,28.91,10.91,55.27,28.83,75.2l3.68-9.75ZM232.15,88.14c5.28,6.9,9.67,14.42,13.08,22.49,5.39,12.73,8.12,26.27,8.12,40.22s-2.73,27.49-8.12,40.22c-5.2,12.3-12.66,23.36-22.15,32.85-9.49,9.49-20.55,16.95-32.85,22.15-6.44,2.72-13.08,4.77-19.88,6.12l-3.74,9.93c54.26-8.03,95.9-54.79,95.9-111.28,0-27.69-10.01-53.05-26.61-72.65l-3.74,9.94ZM51.87,264.31l6.97-18.43c-.66-.63-1.31-1.26-1.96-1.91-12.1-12.1-21.6-26.18-28.23-41.86-6.86-16.22-10.34-33.47-10.34-51.25s3.48-35.03,10.34-51.25c6.63-15.68,16.13-29.76,28.23-41.86,12.1-12.1,26.18-21.6,41.86-28.23,14.54-6.15,29.9-9.57,45.74-10.22l6.96-18.42c-.48,0-.96-.02-1.44-.02C67.16.85,0,68.01,0,150.85c0,45.32,20.1,85.95,51.87,113.45h0ZM250.48,39.48l-7.01,18.61c11.93,12.02,21.31,25.98,27.88,41.5,6.86,16.22,10.34,33.47,10.34,51.25s-3.48,35.03-10.34,51.25c-6.63,15.68-16.13,29.76-28.23,41.86-12.1,12.1-26.18,21.6-41.86,28.23-13.46,5.69-27.63,9.05-42.22,10.03l-7.01,18.6c81.91-1.08,147.98-67.81,147.98-149.97,0-44.19-19.11-83.92-49.52-111.37h0Z"/>
      <path class="cls-2" d="M189.35,101.16c-6.02-2.27-12.57-3.3-21.24-3.34-6.69-.03-13.49-.03-20.07-.03s-13.18.01-19.76-.03h-.05c-3.33,0-5.63,1.62-6.83,4.81-8.43,22.38-17.05,45.12-25.38,67.11l-11.42,30.17,6.06.51c.15.01.29.03.41.04.32.03.69.07,1.12.07,5,0,10,0,15,0,4.64.01,9.34.02,14.07.02,7.87,0,15.83-.02,23.7-.1,9.92-.1,18.52-1.69,26.3-4.86,10.39-4.24,17.08-10.43,20.47-18.92l.06-.19c2.74-7.83,2.72-14.6-.06-20.13-.83-1.66-2.13-3.6-4.11-5.43,11.95-6.43,16.55-17.82,17.33-24.63,1.39-12.05-4-20.72-15.6-25.08ZM132.03,170.5c1.03-2.73,2.04-5.38,3.07-8.03,5.35.05,10.77.14,16.02.22l3.5.05c2.56.55,2.8.9,2.96,1.41.29.9-.33,2.62-1.71,3.72-2.02,1.62-4.51,2.48-7.42,2.55-5.31.14-10.56.11-16.12.08h-.3ZM168.5,128.87s.03.04.06.16c.23.92.28,2.18-1.43,3.63-1.78,1.51-4.17,2.29-7.32,2.37-4.74.13-9.43.11-14.4.08.92-2.49,1.81-4.91,2.71-7.33,4.86.06,9.76.15,14.52.23l3.4.06c1.85.37,2.34.66,2.46.8ZM154.13,94.85s-.05,0-.08,0c-5.68-.05-11.25-.04-17.16-.04-1.97,0-3.95,0-5.96,0h-6.63l5.11-13.53c1.85-4.89,3.66-9.69,5.48-14.48l4.89-12.91c6.13-16.17,12.46-32.9,18.66-49.36,1.13-2.99,3.41-4.56,6.59-4.53,6.75.07,13.36.07,19.64,0,3.23-.02,5.54,1.53,6.72,4.53,4.59,11.68,9.31,23.54,13.88,35.02,4.33-11.44,8.79-23.22,13.15-34.83C219.9.77,222.95-.03,225.25,0c5.53.07,10.96.06,16.71.05,1.99,0,3.98,0,5.99,0h6.31l-1.95,6c-.07.21-.13.41-.19.6-.14.46-.29.93-.48,1.43l-6.76,17.94c-7.96,21.11-16.19,42.95-24.26,64.43-1.38,3.68-4.22,4.43-6.31,4.41-6.15-.06-12.52-.06-18.94,0-2.05.02-4.85-.72-6.28-4.34-4.87-12.34-9.86-24.87-14.69-37.01-.7,1.85-1.39,3.69-2.08,5.53l-2.08,5.53c-3.16,8.42-6.44,17.13-9.61,25.71-1.4,3.77-4.3,4.58-6.51,4.58h0ZM117.95,299.97c-3.99,0-5.79-2.44-6.6-4.51-4.83-12.28-9.79-24.75-14.59-36.8v-.03c-.84,2.19-1.65,4.36-2.47,6.52l-2.42,6.45c-2.93,7.8-5.96,15.86-8.9,23.8-1.1,2.99-3.36,4.56-6.52,4.56h-.08c-5.69-.05-11.28-.04-17.19-.04-1.95,0-3.92,0-5.9,0h-6.63l9.38-24.81c8.12-21.46,16.52-43.65,24.75-65.49.78-2.06,2.53-4.51,6.51-4.51h.09c6.97.06,13.46.06,19.82,0,2.14-.04,5.02.72,6.47,4.39,4.62,11.72,9.34,23.61,13.93,35.16,4.34-11.45,8.8-23.24,13.15-34.86,1.17-3.11,3.55-4.73,6.86-4.7,5.09.06,10.29.05,15.31.05,1.81,0,3.62,0,5.43,0h8.47l-2.19,6.13c-.18.49-.34.97-.5,1.43-.34.96-.66,1.86-1,2.78l-6.38,16.92c-7.79,20.64-15.84,41.98-23.72,62.98-.79,2.11-2.59,4.61-6.73,4.57-6.26-.07-12.39-.07-18.22,0-.04,0-.08,0-.12,0h0Z"/>
      <path class="cls-3" d="M187.04,110.59c-4.96-1.87-10.53-2.71-18.05-2.75-6.67-.03-13.46-.03-20.03-.03-6.06,0-12.31,0-18.49-.02-8.3,22.02-16.76,44.37-24.95,65.99l-6.96,18.37c3.19,0,6.38,0,9.57.02,12.35.02,25.11.04,37.66-.09,8.74-.08,16.24-1.45,22.92-4.18,8.03-3.28,12.92-7.64,15.38-13.73,1.85-5.36,1.98-9.7.37-12.9-1.37-2.73-4.09-4.44-7.8-5.91-.44-.17-.68-.31-1.45-.63l-9.26-3.6,11.58-4.25c3.96-1.73,17.75-7.98,19.24-20.84.9-7.82-2.1-12.58-9.73-15.45ZM156.79,168.72c-2.02,1.62-4.51,2.48-7.42,2.55-5.31.14-10.56.11-16.12.08h-.3c1.03-2.73,2.04-5.38,3.07-8.03,5.35.05,10.77.14,16.02.22l3.5.05c2.56.55,2.8.9,2.96,1.41.29.9-.33,2.62-1.71,3.72ZM168.05,133.51c-1.78,1.51-4.17,2.29-7.32,2.37-4.74.13-9.43.11-14.4.08.92-2.49,1.81-4.91,2.71-7.33,4.86.06,9.76.15,14.52.23l3.4.06c1.85.37,2.34.66,2.46.8,0,0,.03.04.06.16.23.92.28,2.18-1.43,3.63ZM65.9,291.62c3.34,0,6.61,0,9.92.03,2.79-7.52,5.63-15.08,8.39-22.41l2.42-6.45c1.52-4.05,3.04-8.1,4.62-12.28l6.09-16.2,4.79,11.64c.2.49.37.88.52,1.28l3.54,8.91c4.63,11.64,9.41,23.65,14.09,35.52,5.03-.05,10.26-.05,15.6,0,7.72-20.58,15.59-41.43,23.2-61.61l5.6-14.84c-.28,0-.55,0-.83,0-4.61,0-9.37.02-14.08-.03-4.41,11.75-8.92,23.66-13.28,35.18l-2.82,7.45c-.17.45-.35.87-.55,1.31-.09.21-.19.44-.31.7l-4.21,9.81-4.22-9.81c-.14-.32-.27-.61-.38-.88-.26-.58-.47-1.07-.67-1.57l-2.48-6.23c-4.68-11.78-9.52-23.95-14.25-35.96-5.45.05-11.01.05-16.89,0-8.06,21.39-16.27,43.08-24.21,64.06l-4.69,12.39c1.71,0,3.4,0,5.07,0h0ZM143.65,86.49c3.31,0,6.56,0,9.83.03,3.03-8.16,6.11-16.37,9.1-24.33l2.08-5.53c1.4-3.74,2.81-7.47,4.26-11.33l6.1-16.18,4.78,11.68c.2.49.36.88.52,1.27l3.21,8.06c4.74,11.91,9.64,24.22,14.44,36.36,5.27-.04,10.49-.04,15.58,0,7.89-20.98,15.91-42.28,23.68-62.88l5.11-13.56c-5.1,0-9.95.01-14.88-.03-4.4,11.74-8.91,23.64-13.27,35.15l-2.84,7.51c-.17.46-.36.87-.55,1.31-.09.21-.19.44-.31.7l-4.25,9.87-4.18-9.9c-.14-.34-.27-.64-.39-.92-.25-.58-.45-1.06-.65-1.54l-3.16-7.95c-4.46-11.21-9.06-22.79-13.56-34.22-5.44.05-11.1.05-16.88,0-6.04,16.03-12.18,32.25-18.13,47.95l-4.89,12.91c-1.82,4.79-3.63,9.59-5.47,14.48l-.42,1.11c1.75,0,3.46,0,5.17,0h0Z"/>
      <path class="cls-2" d="M178.37,127.63c-1.56-6.16-7.47-7.29-10-7.77-.31-.06-.62-.09-.96-.1l-3.68-.06c-5.54-.1-11.26-.21-16.89-.26h-.05c-2.32,0-4.69,1.63-5.51,3.81-1.56,4.11-3.05,8.17-4.62,12.47l-3.44,9.38h6.56c2.14,0,4.25.02,6.34.03,2.1,0,4.15.02,6.18.02,2.91,0,5.77-.02,8.67-.1,5.26-.14,9.64-1.68,13.02-4.56,3.99-3.39,5.58-8.08,4.38-12.86ZM168.05,133.51c-1.78,1.51-4.17,2.29-7.32,2.37-4.74.13-9.43.11-14.4.08.92-2.49,1.81-4.91,2.71-7.33,4.86.06,9.76.15,14.52.23l3.4.06c1.85.37,2.34.66,2.46.8,0,0,.03.04.06.16.23.92.28,2.18-1.43,3.63Z"/>
      <path class="cls-2" d="M167.24,162.22c-1.91-5.98-7.51-7.13-10.23-7.69-.43-.08-.79-.1-1.02-.1l-3.81-.06c-6-.09-12.21-.19-18.33-.24h-.04c-2.31,0-4.68,1.61-5.52,3.76-1.68,4.31-3.29,8.56-4.99,13.07l-3.61,9.54h6.64c2.31,0,4.6.01,6.88.02,2.29.01,4.53.02,6.75.02,3.23,0,6.41-.02,9.64-.1,4.89-.13,9.36-1.71,12.92-4.56,4.25-3.41,6.19-9.02,4.72-13.66ZM156.79,168.72c-2.02,1.62-4.51,2.48-7.42,2.55-5.31.14-10.56.11-16.12.08h-.3c1.03-2.73,2.04-5.38,3.07-8.03,5.35.05,10.77.14,16.02.22l3.5.05c2.56.55,2.8.9,2.96,1.41.29.9-.33,2.62-1.71,3.72Z"/>
    </g>
  </g>
</svg>