<?xml version="1.0" encoding="UTF-8"?>
<svg id="Layer_2" data-name="Layer 2" xmlns="http://www.w3.org/2000/svg" viewBox="0 0 300 300">
  <defs>
    <style>
      .cls-1 {
        fill: #4cb148;
        stroke-width: 0px;
      }
    </style>
  </defs>
  <g id="Layer_1-2" data-name="Layer 1">
    <path class="cls-1" d="M223.42,226.58l2.21-2.2,8.69-8.69,20.87-20.87,44.81-44.81-31.37-31.37-1.76,1.76-6.31,6.31-6.31-6.31-10.8-10.8-2.55,2.55-.24.24-2.49,2.49,10.8,10.8,6.31,6.31-6.31,6.31-1.2,1.2,19.9,19.01-59.06,60.63c1.71.98,3.4,1.93,5.1,2.83,3.44,1.83,6.64,3.41,9.7,4.62M150.72,278.58l-29.08-30.12v23.19l28.35,28.35,42.42-42.42c-4.39-2.94-8.59-5.93-12.59-8.89l-29.11,29.89ZM55.93,180.38l-21.12-21.88,27.88-26.88c-6.09-8.02-12.28-16.71-18.2-26.1L0,150l30.38,30.38h25.55ZM76.16,252.91h-26.53v-53.15h26.5l-26.5,26.62,26.53,26.53,26.1-26.76v26.76h-26.1ZM89.65,226.15l-13.49,14.15-13.92-13.92,13.89-14.01,13.52,13.78ZM76.13,199.76h26.13v26.39l-26.13-26.39ZM108.93,185.7l-3.6,3.6H38.56v5.96h0v61.7h0v6.51h74.17v-66.77l3.51-3.51c-2.46-2.47-4.89-4.97-7.3-7.49M171.98,110.04c-6.83-6.79-13.77-13.44-20.77-19.95-5.57-5.18-11.32-10.09-17.17-14.85l-3.68,3.54c2.49,1.97,4.95,4.01,7.37,6.1,10.56,9.14,21.1,18.4,31.26,28.15l2.99-2.99ZM231.47,178.16c-11.85-15.41-24.05-30.53-36.96-44.67-.95-1.04-1.91-2.06-2.86-3.09l-2.85,2.85c14.73,15.94,28.44,33.03,40.26,52.13l4.44-4.56c-.67-.89-1.34-1.77-2.02-2.65M263.89,232.37c-3.25-7.87-6.99-15.36-11.09-22.55l-8.1,8.1c.41,1.62.77,3.28,1.04,4.97,1.7,10.5-2.48,16.27-11.59,15.84-6.29-.29-12.21-2.27-17.97-4.91-.58-.26-1.15-.54-1.73-.81-.01,0-.03-.01-.04-.02-.55-.26-1.09-.53-1.64-.81-.04-.02-.09-.05-.13-.07-.51-.26-1.01-.51-1.51-.77-.07-.04-.15-.08-.22-.11-.56-.29-1.11-.58-1.66-.88-1.26-.67-2.5-1.35-3.74-2.05-.03-.02-.06-.04-.09-.05-1.21-.69-2.42-1.38-3.62-2.09-16.27-9.63-31.32-21.65-45.86-34.61-6.68-5.96-13.22-12.1-19.61-18.43h0c-1.22-1.21-2.44-2.43-3.65-3.65-.03-.03-.06-.06-.09-.09-1.21-1.23-2.42-2.46-3.61-3.7-13.01-13.47-25.34-27.83-36.8-43.29-2.77-3.73-5.49-7.5-8.12-11.34-.71-1.03-1.41-2.07-2.1-3.11-.1-.16-.21-.32-.31-.47-1.05-1.59-2.08-3.19-3.09-4.81-.09-.14-.17-.27-.26-.41-1.74-2.81-3.42-5.67-5.01-8.59-.02-.04-.04-.08-.06-.12-.97-1.79-1.92-3.61-2.82-5.46-.02-.03-.03-.07-.05-.1-.91-1.86-1.79-3.74-2.62-5.66-.74-1.71-1.46-3.43-2.14-5.2-1.4-3.63-2.46-7.5-3.21-11.38-1.93-9.98,1.98-15.73,12.3-16,3.41.07,7.03.93,10.74,2.26l7.22-7.22c-8.85-5.5-17.99-10.35-27.53-14.21-7.34-2.97-14.82-5.29-22.64-4.89-9.95.51-14.83,7.23-13.88,18.95.05.66.13,1.33.22,1.99,1.22,9.4,4.58,17.89,8.45,26.12,4.68,9.95,9.99,19.36,15.72,28.38.27.42.54.85.81,1.27.52.81,1.04,1.61,1.57,2.41.27.41.54.82.81,1.23.55.83,1.1,1.65,1.65,2.47.21.31.41.61.62.91,2.81,4.13,5.69,8.18,8.65,12.18.08.11.17.23.25.34,4.29,5.79,8.7,11.46,13.19,17.05,12.17,15.15,24.91,29.53,38.19,43.17.86.88,1.72,1.76,2.58,2.64,15.15,15.38,31,29.8,47.53,43.25,6.4,5.21,12.88,10.26,19.49,15.06.51.37,1.03.75,1.54,1.12.83.59,1.66,1.18,2.49,1.77.23.16.46.32.69.48.97.68,1.94,1.35,2.92,2.01.07.05.14.09.21.14,1.04.71,2.09,1.41,3.14,2.11h0c9.41,6.22,19.11,11.82,29.26,16.45,8.58,3.92,17.31,7.2,24.49,7.23,13.78-.28,19.29-7.49,17.06-21.02-1.18-7.2-3.47-14.36-6.21-21M87.26,62.74h0l-12.28,12.28c4.23,10.59,9.9,20.29,16,29.32l8.04-7.75,51.69-49.84,43.24,41.31,22.05-22.05L150,0l-42.69,42.69-20.05,20.05ZM156.63,138l-20.94,20.94c2.41,2.49,4.86,4.97,7.35,7.44l21.46-21.46,3.9-3.9,14.29-14.29,2.85-2.85,6.35-6.35,22.33,22.33,9.03-9.03,10.28,10.28,7.8-7.8,1.34-1.34-17.11-17.11,8.8-8.8.12-.12.12-.12,2.95-2.95,5.91-5.91,17.11,17.11,9.14-9.14-10.28-10.28,9.05-9.05-22.33-22.33,8.54-8.54-7.4-7.4-86.77,86.77-3.9,3.9Z"/>
  </g>
</svg>