<?xml version="1.0" encoding="UTF-8"?>
<svg id="Layer_2" data-name="Layer 2" xmlns="http://www.w3.org/2000/svg" viewBox="0 0 175.77 174.44">
  <defs>
    <style>
      .cls-1 {
        stroke-width: 0px;
      }
    </style>
  </defs>
  <g id="Layer_1-2" data-name="Layer 1">
    <path class="cls-1" d="m38.1,126.44c-.6-.42-1.2-.99-1.79-1.7-5.5-5.38-10.9-10.72-16.22-16.04-5.32-5.31-10.66-10.6-16.04-15.86-2.51-2.63-3.85-4.27-4.03-4.93-.18-.66,1.17-2.48,4.03-5.47,4.42-4.3,8.84-8.66,13.26-13.08,4.3-4.42,8.66-8.81,13.08-13.17,4.42-4.36,8.78-8.75,13.08-13.17,4.42-4.3,8.84-8.66,13.26-13.08,4.42-4.66,8.87-9.29,13.35-13.89,4.48-4.6,8.93-9.11,13.35-13.53,1.67-1.55,2.81-2.39,3.41-2.51.6-.12,1.61.72,3.05,2.51,5.26,5.26,10.33,10.48,15.23,15.68,4.9,5.2,9.92,10.48,15.05,15.86,3.11,3.23,6.27,6.48,9.5,9.77,3.23,3.29,6.39,6.54,9.5,9.77,1.19,1.2,1.85,2.3,1.97,3.32.12,1.02-.48,2.12-1.79,3.32-.24.48-.54.96-.9,1.43-.36.48-.72.9-1.08,1.25-1.2,1.67-2.15,2.54-2.87,2.6-.72.06-1.79-.69-3.23-2.24-6.93-6.33-13.89-12.75-20.88-19.26-6.99-6.51-14.01-12.93-21.06-19.26-.84-.83-1.64-1.25-2.42-1.25s-1.58.42-2.42,1.25c-6.33,5.85-12.7,11.71-19.08,17.56-6.39,5.86-12.75,11.83-19.09,17.92-4.78,4.54-9.65,9.02-14.61,13.44-4.96,4.42-9.95,8.96-14.96,13.62-1.55,1.55-2.33,2.63-2.33,3.23s.78,1.67,2.33,3.23c4.9,4.66,9.68,9.38,14.34,14.16,4.66,4.78,9.38,9.5,14.16,14.16.96.96,1.34,1.73,1.17,2.33-.18.6-.87,1.2-2.06,1.79-.6.12-1.23.27-1.88.45-.66.18-1.34.33-2.06.45-.96,0-1.73-.21-2.33-.63Zm72.22-31.27c-.36.24-1.52,1.11-3.49,2.6-1.97,1.5-3.14,2.36-3.5,2.6-1.2.84-2.39,1.67-3.58,2.51-1.2.84-2.39,1.73-3.58,2.69-.84.48-1.64.96-2.42,1.43-.78.48-1.58,1.02-2.42,1.61-4.78,3.23-9.47,6.15-14.07,8.78-4.6,2.63-9.05,5.08-13.35,7.35-.72.36-1.38.72-1.97,1.08-.6.36-1.2.66-1.79.9-1.2.72-2.45,1.34-3.76,1.88-1.32.54-2.57,1.11-3.76,1.7-.72.24-1.41.54-2.06.9-.66.36-1.29.6-1.88.72-5.62,2.39-10.69,4.18-15.23,5.38-4.54,1.2-8.24,1.79-11.11,1.79-1.08,0-1.94-.09-2.6-.27-.66-.18-1.17-.39-1.52-.63-6.69-3.94-6.03-12.78,1.97-26.52-5.86,6.93-9.68,13.14-11.47,18.64-1.79,5.5-.84,9.68,2.87,12.54,1.43.96,3.02,1.67,4.75,2.15,1.73.48,3.73.72,6,.72,4.06,0,8.9-.81,14.52-2.42,5.61-1.61,11.77-3.79,18.46-6.54.48-.36,1.04-.69,1.7-.99.66-.3,1.34-.57,2.06-.81,1.19-.6,2.42-1.19,3.67-1.79,1.25-.6,2.54-1.25,3.85-1.97.48-.36,1.04-.63,1.7-.81.66-.18,1.22-.45,1.7-.81,5.49-2.98,11.14-6.24,16.94-9.77,5.79-3.52,11.62-7.26,17.47-11.2.72-.6,2.27-1.7,4.66-3.32,2.39-1.61,4.06-2.72,5.02-3.32l-3.76-6.81Zm-58.24,20.25h-7.17c-2.39-.12-3.91-.72-4.57-1.79-.66-1.08-.39-2.75.81-5.02,2.15-3.58,4.3-7.26,6.45-11.02,2.15-3.76,4.24-7.44,6.27-11.02,3.94-6.81,7.89-13.65,11.83-20.52,3.94-6.87,7.88-13.77,11.83-20.7.96-1.55,1.91-3.16,2.87-4.84.95-1.67,1.85-3.28,2.69-4.84,1.08-1.67,2.3-2.51,3.67-2.51s2.54.84,3.49,2.51c1.08,1.55,2.06,3.11,2.96,4.66.9,1.55,1.76,3.11,2.6,4.66,2.75,4.78,5.49,9.62,8.24,14.52,2.87,4.78,5.67,9.56,8.42,14.34,2.75,4.78,5.56,9.62,8.42,14.52,2.75,4.78,5.49,9.56,8.24,14.34.48,1.2,1.1,2.36,1.88,3.5.78,1.14,1.4,2.3,1.88,3.49.83,1.55,1.01,2.84.54,3.85-.48,1.02-1.55,1.52-3.23,1.52-2.99.24-6,.36-9.05.36s-6.12-.12-9.23-.36c-.96,0-1.46-.24-1.52-.72-.06-.48.21-1.13.81-1.97,1.19-1.43,2.48-2.54,3.85-3.32,1.37-.78,3.08-1.04,5.11-.81,1.55.12,2.51-.09,2.87-.63.36-.54.12-1.46-.72-2.78-4.18-7.29-8.33-14.45-12.45-21.5-4.12-7.05-8.22-14.22-12.28-21.5-1.55-2.51-3.05-5.08-4.48-7.71-1.43-2.63-2.93-5.2-4.48-7.71-.24-.36-.45-.75-.63-1.17-.18-.42-.57-.63-1.17-.63-.48,0-.84.24-1.08.72-.24.48-.42.96-.54,1.43-3.11,5.14-6.15,10.3-9.14,15.5-2.99,5.2-6.03,10.42-9.14,15.68-2.51,4.54-5.08,9.05-7.71,13.53-2.63,4.48-5.2,9.05-7.71,13.71l-1.08,1.08c-.36.36-.36.78,0,1.25.36.48.78.72,1.25.72h26.88c.83,0,1.43.36,1.79,1.08.36.84.24,1.5-.36,1.97-.6.48-1.08.96-1.43,1.43-.84.96-1.76,1.64-2.78,2.06-1.02.42-2.12.63-3.32.63-2.27-.12-4.51-.15-6.72-.09-2.21.06-4.45.09-6.72.09h-6.99Zm12.99,26.25c.42.3.81.69,1.16,1.17,2.75,3.11,5.65,6.09,8.69,8.96,3.05,2.87,6,5.74,8.87,8.6,1.08,1.2,2.06,1.76,2.96,1.7.9-.06,1.88-.63,2.96-1.7l15.23-15.23c5.02-5.02,10.09-10.09,15.23-15.23,5.97-6.09,12.01-12.12,18.1-18.1,6.09-5.97,12.19-12.01,18.28-18.1,1.08-1.19,1.64-2.21,1.7-3.05.06-.83-.51-1.73-1.7-2.69-1.2-1.08-2.33-2.18-3.4-3.32-1.08-1.13-2.21-2.3-3.41-3.5-.84-.95-1.32-1.82-1.43-2.6-.12-.78.36-1.64,1.43-2.6,3.23-3.34,5.14-5.02,5.73-5.02s2.45,1.55,5.56,4.66c1.55,1.55,3.16,3.11,4.84,4.66,1.67,1.55,3.28,3.11,4.84,4.66,1.67,1.55,2.51,2.69,2.51,3.41s-.84,1.85-2.51,3.4c-4.42,4.42-8.9,8.9-13.44,13.44-4.42,4.42-8.87,8.84-13.35,13.26-4.48,4.42-8.93,8.84-13.35,13.26-4.54,4.42-9.02,8.84-13.44,13.26-4.66,4.78-9.35,9.44-14.07,13.98-4.72,4.54-9.41,9.14-14.07,13.8-.72.83-1.43,1.37-2.15,1.61-.72.24-1.5-.18-2.33-1.25-3.94-4.06-7.95-8.09-12.01-12.1-4.06-4-8.06-8.09-12.01-12.28-.72-.48-1.5-1.01-2.33-1.61-.84-.6-1.02-1.43-.54-2.51.6-1.08,1.46-1.76,2.6-2.06,1.13-.3,2.12-.63,2.96-.99.83-.24,1.46-.21,1.88.09Zm83.6-69.8c.6-.36,1.13-.78,1.61-1.25.48-.48,1.01-1.01,1.61-1.61.96-.83,1.94-1.73,2.96-2.69,1.01-.95,2.06-1.85,3.14-2.69.48-.6.92-1.13,1.34-1.61.42-.48.87-.96,1.34-1.43,7.05-7.41,11.71-14.07,13.98-19.98,2.27-5.91,1.08-10.36-3.58-13.35-1.55-.96-3.44-1.67-5.64-2.15-2.21-.48-4.69-.72-7.44-.72-4.78,0-9.41.6-13.89,1.79-4.48,1.2-10.6,3.23-18.37,6.09l5.56,4.84c6.81-2.51,12.1-4.09,15.86-4.75,3.76-.66,7.38-.99,10.84-.99,1.43,0,2.57.06,3.41.18.83.12,1.55.24,2.15.36,2.03,1.43,2.18,4.21.45,8.33-1.73,4.12-5.47,9.17-11.2,15.14-.36.48-.78.99-1.25,1.52-.48.54-.96,1.05-1.43,1.52-.84.84-1.79,1.76-2.87,2.78-1.08,1.02-2.21,2.06-3.41,3.14-.24.48-.69.93-1.34,1.34-.66.42-1.23.87-1.7,1.34-1.55,1.32-4.33,4.06-8.33,8.24-4,4.18-6.96,7.05-8.87,8.6l4.12,7.88,20.97-19.89Z"/>
  </g>
</svg>