<?xml version="1.0" encoding="UTF-8"?>
<svg id="Layer_2" data-name="Layer 2" xmlns="http://www.w3.org/2000/svg" viewBox="0 0 300 300">
  <defs>
    <style>
      .cls-1 {
        fill: fill: var(--color--sunny-lebeau);
        stroke-width: 0px;
      }
    </style>
  </defs>
  <g id="Layer_1-2" data-name="Layer 1">
    <path id="path14916" class="cls-1" d="M41.39,19.58c15.29-6.55,33.28-9.87,53.47-9.87,10.81,0,22.5.95,34.74,2.84,14.27,2.19,24.98,3.17,34.72,3.17,13.58,0,25.76-2.01,38.32-6.48C178.7,4.15,149.78.17,116.95,0,68.55-.24,28.42,7.9,0,15.93v37.38c10.41-15.09,24.31-26.42,41.39-33.73M228.22,76.18c-4.84,8.81-10.57,16.24-17.17,22.29-2.82,10.9-7.21,21.18-12.96,30.13-5.6,8.71-12.34,15.97-20.05,21.56-.55.4-1.1.77-1.65,1.15-1.03,7.14-2.57,14.76-4.99,22.15-5.83,17.82-15.51,30.27-28.77,37.03-4.55,2.32-9.7,3.44-15.77,3.44-5.19,0-10.45-.83-15.54-1.62-4.75-.74-9.67-1.52-14.03-1.52-7.36,0-11.58,2.14-15.56,7.89-4.03,5.83-5.11,12.01-3.39,19.47,2.05,8.87,7.91,18.79,16.96,28.69,8.13,8.9,16.94,15.69,25.89,21.97l11.18,7.08c45.65-23.63,92.42-58.88,97.06-104.14.12-1.17.21-2.35.28-3.54v-114.87c-.49.95-.98,1.9-1.5,2.83M197.43,74.2c-14.67,9.87-31.15,12.83-48.24,12.83-25.48,0-52.31-6.57-76.55-6.57-26.28,0-49.5,7.71-64.66,39.87-3.31,7.03-5.29,14.16-6.31,21.17,2.6-2.96,5.46-5.75,8.57-8.35,14.25-11.9,32.95-19.17,52.67-20.47,2.39-.16,4.84-.24,7.28-.24,13.35,0,25.25,2.29,36.75,4.5,10.15,1.95,19.73,3.8,29.33,3.8,6.85,0,13.26-.96,19.59-2.93l24.16-7.53-1.21,15.69c11.61-14.09,17.82-33.59,18.63-51.77M97.29,193.64c10.7,0,21.33,3.14,29.57,3.14,3.02,0,5.71-.42,7.98-1.57,20.68-10.54,24.61-41.34,26.13-61.01-8.67,2.7-16.83,3.71-24.69,3.71-22.62,0-42.82-8.3-66.08-8.3-2.03,0-4.08.06-6.15.2-31.76,2.1-61.31,23.18-63.12,56.34-.23,4.26-.08,8.43.42,12.51,12.17,48.62,61.16,79.93,103.64,101.35-29.98-16.85-61.42-56.32-37.36-91.08,8.45-12.21,19.09-15.28,29.67-15.28M215.05,64.32l1.04-23.35-28.23,19c-10.04,6.76-22.33,9.91-38.66,9.91-11.81,0-24.64-1.63-37.06-3.21-13-1.65-26.44-3.36-39.5-3.36-17.7,0-32.31,3.25-44.67,9.95-7.4,4.01-14.11,9.33-19.94,15.81-2.5,2.78-4.87,5.81-7.11,9.08,1.6-10.99,4.76-21.64,10.82-31.46C30.56,36.21,62.28,26.87,94.86,26.87c10.76,0,21.62,1.02,32.13,2.64,13.51,2.08,25.68,3.37,37.33,3.37,21.8,0,41.8-4.53,65.39-16.94h0c-3.33,16.13-7.34,33.56-14.66,48.39"/>
  </g>
</svg>