<?xml version="1.0" encoding="UTF-8"?>
<svg id="Layer_2" data-name="Layer 2" xmlns="http://www.w3.org/2000/svg" viewBox="0 0 144.44 183.45">
  <defs>
    <style>
      .cls-1 {
        stroke-width: 0px;
      }
    </style>
  </defs>
  <g id="Layer_1-2" data-name="Layer 1">
    <path class="cls-1" d="m20.07.12h29.39C63.08,0,76.85-.03,90.77.03c13.92.06,26.19.09,36.83.09l15.95.18c.12.12.24,1.43.36,3.94,0,2.51.06,6.51.18,12.01.12,5.5.18,12.61.18,21.33s.06,19.3.18,31.72c0,24.49-.03,39.81-.09,45.97-.06,6.15-.33,9.95-.81,11.38-.48,1.55-1.52,4.03-3.14,7.44-1.61,3.41-3.08,6.3-4.39,8.69-.72,1.2-1.76,2.84-3.14,4.93-1.38,2.09-2.54,3.67-3.49,4.75-2.15,2.63-4.81,5.32-7.97,8.06-3.17,2.75-6.78,5.38-10.84,7.88-1.55,1.08-4.33,2.81-8.33,5.2-4,2.39-6.42,3.76-7.26,4.12-1.32.72-3.29,1.52-5.91,2.42-2.63.9-5.02,1.58-7.17,2.06-2.87.83-5.41,1.25-7.62,1.25s-4.93-.3-8.15-.9c-2.63-.6-4.54-1.05-5.74-1.34-1.2-.3-2.81-.75-4.84-1.34-2.99-.96-5.8-2-8.42-3.14-2.63-1.14-4.9-2.24-6.81-3.32-2.75-1.55-4.99-2.96-6.72-4.21-1.73-1.25-3.49-2.66-5.29-4.21-.48-.48-1.08-.99-1.79-1.52-.72-.54-1.32-.99-1.79-1.34-.48-.36-1.05-.83-1.7-1.43-.66-.6-1.17-1.08-1.52-1.43-.84-.83-2.48-2.72-4.93-5.65-2.45-2.93-4.09-4.93-4.93-6-.84-1.19-1.82-2.81-2.96-4.84-1.14-2.03-2.48-4.6-4.03-7.71-1.32-2.75-2.18-4.57-2.6-5.47-.42-.9-.69-1.82-.81-2.78-.36-1.55-.6-4.12-.72-7.71-.12-3.58-.24-9.92-.36-19,0-5.02-.06-13.02-.18-24.01v-32.88c0-11.05.06-20.82.18-29.3V1.01c.24-.24,1.52-.42,3.85-.54,2.33-.12,7.68-.24,16.04-.36Zm110.03,10.04c-.96,0-4.06-.06-9.32-.18H47.13c-14.58.12-24.17.21-28.76.27-4.6.06-7.02.15-7.26.27-.24.12-.39.33-.45.63-.06.3-.15,1.17-.27,2.6-.12.96-.18,6.21-.18,15.77v64.87c.12,10.39.18,17.02.18,19.89l.36,9.68,1.43,3.76c1.43,3.35,2.78,6.06,4.03,8.15,1.25,2.09,3.25,4.99,6,8.69,1.55,2.03,3.2,3.97,4.93,5.82,1.73,1.85,3.49,3.5,5.29,4.93.72.6,1.43,1.23,2.15,1.88.72.66,1.31,1.16,1.79,1.52,3.23,2.75,8.12,5.59,14.7,8.51,6.57,2.93,12.9,4.99,19,6.18l2.33.54,2.15-.36c4.42-.96,8.21-1.97,11.38-3.05,3.16-1.08,6.78-2.63,10.84-4.66,2.99-1.43,5.7-3.02,8.15-4.75,2.45-1.73,5.17-3.91,8.15-6.54,1.67-1.55,3.25-3.11,4.75-4.66,1.49-1.55,2.9-3.23,4.21-5.02.48-.72,1.1-1.55,1.88-2.51.78-.95,1.4-1.79,1.88-2.51.6-.83,1.13-1.64,1.61-2.42.48-.78,1.01-1.64,1.61-2.6.36-.83.83-1.91,1.43-3.23.6-1.31,1.13-2.45,1.61-3.41l1.97-3.94v-28.14c.12-6.57.12-14.34,0-23.3,0-8.96-.03-17.62-.09-25.98-.06-8.36-.15-15.77-.27-22.22,0-6.33-.06-10.15-.18-11.47,0-.83-.06-1.46-.18-1.88-.12-.42-.24-.69-.36-.81-1.2-.12-2.15-.24-2.87-.36Zm-88.53,13.44l.18-.18c.12,0,2.81,1.97,8.06,5.91,5.26,3.94,9.44,7.17,12.54,9.68,1.43,1.08,2.98,2.24,4.66,3.5,1.67,1.25,2.99,2.24,3.94,2.96,1.08.6,2.15,1.32,3.23,2.15,1.08.84,1.91,1.5,2.51,1.97.6.48,1.25,1.02,1.97,1.61.72.6,1.37,1.14,1.97,1.61.48.36,1.19.93,2.15,1.7.96.78,1.85,1.52,2.69,2.24.83.72,2.06,1.7,3.67,2.96,1.61,1.25,3.14,2.42,4.57,3.49,4.18,3.35,6.66,5.44,7.44,6.27.78.84,1.1,1.79.99,2.87-.12,1.08-.63,2.33-1.52,3.76-.9,1.43-1.82,2.45-2.78,3.05-.84.6-1.85,1.02-3.05,1.25-1.2.24-5.14.9-11.83,1.97-2.63.36-4.39.69-5.29.99-.9.3-2.06.99-3.5,2.06-.6.36-1.58,1.08-2.96,2.15-1.38,1.08-2.78,2.21-4.21,3.41-3.7,2.87-6.93,5.38-9.68,7.53-2.75,2.15-5.2,4-7.35,5.56-1.79,1.32-3.53,2.57-5.2,3.76-1.67,1.2-2.57,1.79-2.69,1.79s-.18-.69-.18-2.06v-4.93c.12-3.11.18-5.08.18-5.91s.12-1.37.36-1.61c.12-.24.6-.72,1.43-1.43.83-.72,1.85-1.49,3.05-2.33,1.08-.72,2.03-1.43,2.87-2.15.83-.72,1.31-1.13,1.43-1.25.36-.6.36-1.13,0-1.61-.36-.48-1.43-1.43-3.23-2.87-.96-.83-1.88-1.64-2.78-2.42-.9-.78-1.52-1.34-1.88-1.7l-1.25-1.08v-7.35l-.18-7.53,5.02,3.76c1.43,1.08,3.08,2.27,4.93,3.58,1.85,1.32,3.37,2.39,4.57,3.23l4.48,3.23,4.12-3.23c1.19-.83,2.18-1.58,2.96-2.24.78-.66,1.17-1.04,1.17-1.17-.48-.48-.9-.83-1.25-1.08-.36-.36-1.55-1.34-3.58-2.96-2.03-1.61-4.24-3.43-6.63-5.47-2.51-2.15-4.9-4.15-7.17-6-2.27-1.85-3.76-3.02-4.48-3.49-1.43-1.08-2.42-1.94-2.96-2.6-.54-.66-.93-1.4-1.17-2.24-.12-.48-.24-4.36-.36-11.65-.12-7.29-.12-11.11,0-11.47Zm51.43,66.49c1.19-.24,2.12-.3,2.78-.18.66.12.99.42.99.9,0,.12-.09.54-.27,1.25-.18.72-.45,1.61-.81,2.69-.24.96-.54,2.12-.9,3.5-.36,1.38-.72,2.54-1.08,3.49-.72,2.87-1.29,5.02-1.7,6.45-.42,1.43-1.11,3.76-2.06,6.99-.48,1.67-1.05,3.56-1.7,5.65-.66,2.09-1.17,3.74-1.52,4.93-1.67,6.33-3.02,10.72-4.03,13.17-1.02,2.45-2.42,4.81-4.21,7.08-.48.72-.96,1.29-1.43,1.7-.48.42-1.14.87-1.97,1.34-1.32.96-2.93,1.88-4.84,2.78-1.91.9-3.58,1.64-5.02,2.24-2.15.72-3.32.81-3.49.27-.18-.54.15-2.9.99-7.08,1.08-4.3,2-8.03,2.78-11.2.78-3.16,1.46-5.94,2.06-8.33.36-1.08.78-2.63,1.25-4.66.48-2.03.9-3.94,1.25-5.73,1.19-4.9,2.36-9.38,3.49-13.44,1.13-4.06,2-6.57,2.6-7.53.6-.83,1.58-1.79,2.96-2.87,1.37-1.08,2.54-1.73,3.49-1.97.12,0,.69-.06,1.7-.18,1.01-.12,2.12-.24,3.31-.36,1.08-.24,2.15-.42,3.23-.54,1.08-.12,1.79-.24,2.15-.36Zm21.33-60.93l-1.25,4.66c-.84,3.11-1.82,6.51-2.96,10.21-1.14,3.7-2.18,7.17-3.14,10.39-.84,3.11-1.32,4.78-1.43,5.02-.12.12-.42.06-.9-.18-.48-.24-1.61-1.01-3.41-2.33-1.08-.83-2.27-1.7-3.58-2.6-1.32-.9-2.27-1.52-2.87-1.88-2.03-1.43-3.88-2.81-5.56-4.12-1.67-1.31-2.45-2.03-2.33-2.15.12,0,1.52-.83,4.21-2.51,2.69-1.67,5.88-3.7,9.59-6.09,3.7-2.27,8.24-5.08,13.62-8.42Z"/>
  </g>
</svg>