<?xml version="1.0" encoding="UTF-8"?>
<svg id="Layer_2" data-name="Layer 2" xmlns="http://www.w3.org/2000/svg" viewBox="0 0 183.51 162">
  <defs>
    <style>
      .cls-1 {
        stroke-width: 0px;
      }
    </style>
  </defs>
  <g id="Layer_1-2" data-name="Layer 1">
    <path class="cls-1" d="m161.29,0h22.22l-34.77,96.41-22.94,64.87-35.12-98.92-35.12,98.92-22.94-65.23L0,0h22.22l21.5,64.87,11.83,34.05L90.68,0l35.12,98.92,12.19-34.05L161.29,0ZM19.71,80.64l21.5,63.08-5.74,17.56-13.26-40.5-13.62-40.14h11.11Zm84.58,40.86l12.9,40.5h-51.61l12.9-40.5,12.9-40.86,12.9,40.86Zm56.63-40.5h11.11l-13.62,40.5-13.62,40.14-5.73-17.56,21.86-63.08Z"/>
  </g>
</svg>