<?xml version="1.0" encoding="UTF-8"?>
<svg id="Layer_2" data-name="Layer 2" xmlns="http://www.w3.org/2000/svg" viewBox="0 0 300 277.09">
  <defs>
    <style>
      .cls-1 {
        fill: #516751;
        stroke-width: 0px;
      }
    </style>
  </defs>
  <g id="Layer_1-2" data-name="Layer 1">
    <path class="cls-1" d="M300,64.13h-60.14l-28.76,75.87-6.23-.02,20.37-53.75L150,0l-75.24,86.23,20.37,53.75-6.23.02-28.76-75.87H0l28.83,76.05-27.22.09,52.21,136.82h192.36l52.21-136.82-27.22-.09,28.83-76.05ZM224.72,240.1h-45.73l-28.99-77.52-28.99,77.52h-45.73L11.62,72.15h42.99l.05.13,43.34,114.35.07-.2,29.08-77.73h45.7l29.08,77.73.07.2,43.34-114.35.05-.13h42.99l-63.66,167.95Z"/>
  </g>
</svg>