<svg id="Layer_1" data-name="Layer 1" xmlns="http://www.w3.org/2000/svg" viewBox="0 0 714.39 689.61">
  <defs>
    <style>
      .cls-1 {
        fill: #999;
      }
      .cls-2 {
        fill: #010101;
      }
    </style>
  </defs>
  <title>Ashes</title>
  <path class="cls-1" d="M569.5,463.17,448.9,434.68,396,422.18l-52.9,12.5-125.71,29.7A731.71,731.71,0,0,0,143,699.88l22.64,27.91H621.84l22.64-27.91a734,734,0,0,0-42.76-165.26A729.38,729.38,0,0,0,569.5,463.17Z" transform="translate(-38.81 -38.18)"/>
  <path class="cls-1" d="M396,382.41l46.9-19.74,31.78-13.38q-5.42-22-10.38-44.94A1625.54,1625.54,0,0,1,429.64,38.18H357.87a1624.45,1624.45,0,0,1-34.66,266.17q-4.75,22.06-9.95,43.23l35.84,15.09Z" transform="translate(-38.81 -38.18)"/>
  <polygon class="cls-1" points="0 429.34 295.56 359.51 58.76 259.85 0 429.34"/>
  <polygon class="cls-1" points="585.49 289.37 418.83 359.51 714.39 429.34 655.63 259.85 585.49 289.37"/>
  <polygon class="cls-1" points="418.83 359.51 714.39 429.34 655.63 259.85 418.83 359.51"/>
  <path class="cls-2" d="M287.14,668.43l-6.45-6.76-22.31-6.39-19.12-28.2.26-31.56,6.71-6.39,2.46-39.52a37.45,37.45,0,0,0,18.53-8.93c10.18-8.85,14.14-20.81,15.45-25.38a11.34,11.34,0,0,0,8.38-2.13,15.87,15.87,0,0,0,5.25-7l6.23,2.11.48,37.08-10.17,5.79V594a16.75,16.75,0,0,0,3.78,9.35,10.73,10.73,0,0,0,8.89,3.8q.48,25.13,1,50.24Z" transform="translate(-38.81 -38.18)"/>
  <path class="cls-2" d="M500.37,668.43l6.45-6.76,22.32-6.39,19.11-28.2L548,595.52l-6.71-6.39-2.45-39.52a37.44,37.44,0,0,1-18.54-8.93c-10.17-8.85-14.14-20.81-15.44-25.38a11.35,11.35,0,0,1-8.39-2.13,16,16,0,0,1-5.25-7L485,508.26l-.48,37.08,10.17,5.79V594a16.59,16.59,0,0,1-3.78,9.35,10.73,10.73,0,0,1-8.89,3.8l-1,50.24Z" transform="translate(-38.81 -38.18)"/>
</svg>