<?xml version="1.0" encoding="UTF-8" standalone="no"?>
<!-- Created with Inkscape (http://www.inkscape.org/) -->

<svg
   width="100%"
   height="100%"
   viewBox="0 0 64.737183 62.588066"
   version="1.1"
   id="svg1"
   xmlns="http://www.w3.org/2000/svg"
   xmlns:svg="http://www.w3.org/2000/svg">
  <defs
     id="defs1">
    <clipPath
       clipPathUnits="userSpaceOnUse"
       id="clipPath90-0">
      <path
         d="M 0,500 H 500 V 0 H 0 Z"
         transform="translate(-275.26851,-217.02591)"
         id="path90-7" />
    </clipPath>
  </defs>
  <g
     id="layer1"
     transform="translate(-61.399423,-50.64255)">
    <path
       id="path89"
       clip-path="url(#clipPath90-0)"
       style="fill:#999;fill-opacity:1;fill-rule:nonzero;stroke:none"
       transform="matrix(0.35277776,0,0,-0.35277776,102.68218,93.569251)"
       d="M 0,0 C -0.121,0.358 -0.358,0.655 -0.717,0.896 -1.075,1.134 -1.375,1.192 -1.613,1.075 L -2.33,0.717 -2.509,-3.584 v -3.315 -1.524 c 0,-0.12 0.117,-0.268 0.359,-0.448 0.237,-0.179 0.537,-0.389 0.895,-0.627 l 1.434,-0.896 v -5.377 c 0,-3.345 -0.179,-5.644 -0.537,-6.899 -0.359,-1.254 -1.076,-1.882 -2.151,-1.882 h -0.538 l -0.179,-4.659 c -0.121,-1.315 -0.179,-2.599 -0.179,-3.852 v -2.779 -1.792 l 2.15,-1.254 c 0.717,-0.358 1.314,-0.658 1.792,-0.896 0.477,-0.24 0.717,-0.42 0.717,-0.537 0.118,0 0.268,0.09 0.448,0.268 0.179,0.18 0.387,0.328 0.627,0.449 0.359,0.358 0.775,0.655 1.255,0.895 0.476,0.238 1.313,0.538 2.509,0.896 l 2.867,0.717 4.839,7.168 v 8.423 l -1.792,1.434 -0.18,5.017 c -0.24,2.747 -0.389,4.329 -0.448,4.749 -0.062,0.418 -0.269,0.628 -0.627,0.628 -1.195,0 -2.599,0.806 -4.211,2.419 -1.613,1.612 -2.778,3.316 -3.495,5.108 -0.12,0.475 -0.269,0.806 -0.447,0.985 -0.18,0.18 -0.39,0.269 -0.628,0.269 -0.241,0 -0.627,0.118 -1.165,0.358 C 0.269,-0.3 0,-0.12 0,0 m 20.608,42.113 c 16.129,6.69 25.296,10.484 27.508,11.38 2.21,0.897 3.375,1.165 3.495,0.807 0.239,-0.48 1.134,-2.988 2.688,-7.528 1.552,-4.42 3.226,-9.259 5.018,-14.515 1.792,-5.258 3.463,-10.035 5.018,-14.336 l 2.15,-6.452 c 0,-0.12 -0.061,-0.21 -0.179,-0.269 -0.12,-0.061 -0.299,-0.03 -0.537,0.09 -0.121,0 -3.854,0.865 -11.201,2.599 -7.347,1.73 -16.1,3.791 -26.254,6.182 -10.156,2.389 -18.906,4.481 -26.253,6.273 -7.348,1.792 -11.083,2.687 -11.201,2.687 -0.241,0.118 1.882,1.134 6.362,3.047 4.48,1.909 12.276,5.256 23.386,10.035 m -55.912,75.984 0.179,3.585 h 18.638 v -1.972 c 0.117,-0.479 0.207,-1.316 0.268,-2.509 0.059,-1.195 0.149,-2.391 0.269,-3.584 0.238,-5.259 0.655,-10.635 1.255,-16.129 0.596,-5.496 1.313,-11.051 2.15,-16.666 0.835,-5.617 1.792,-11.173 2.867,-16.666 0.955,-5.617 2.089,-11.052 3.406,-16.308 0.475,-2.509 0.806,-4.183 0.985,-5.018 0.18,-0.837 0.207,-1.315 0.09,-1.434 -0.12,0 -1.165,-0.419 -3.136,-1.253 -1.972,-0.838 -4.332,-1.854 -7.079,-3.047 l -9.857,-4.122 -10.393,4.301 c -2.988,1.313 -6.572,2.868 -10.753,4.66 -0.12,0.117 -0.09,0.627 0.09,1.523 0.179,0.896 0.448,1.94 0.806,3.136 1.314,5.614 2.509,11.469 3.584,17.562 1.076,6.093 2.061,12.214 2.957,18.368 0.896,6.153 1.641,12.276 2.241,18.37 0.595,5.972 1.075,11.707 1.433,17.203 M -49.282,-4.122 v 4.839 l -0.896,0.358 c -0.358,0.117 -0.599,0.18 -0.717,0.18 -0.121,0 -0.179,-0.121 -0.179,-0.359 -0.12,-0.479 -0.448,-0.896 -0.986,-1.254 -0.538,-0.359 -1.047,-0.538 -1.523,-0.538 -0.241,0 -0.448,-0.062 -0.627,-0.179 -0.18,-0.12 -0.269,-0.241 -0.269,-0.359 -0.717,-1.912 -1.674,-3.584 -2.868,-5.017 -1.195,-1.434 -2.57,-2.45 -4.121,-3.047 -0.838,-0.241 -1.345,-0.537 -1.523,-0.896 -0.18,-0.358 -0.331,-1.913 -0.448,-4.66 l -0.359,-5.017 -1.613,-1.613 -0.179,-3.943 v -3.942 l 5.018,-7.527 2.688,-0.717 c 1.075,-0.358 1.882,-0.626 2.419,-0.806 0.538,-0.179 0.924,-0.448 1.165,-0.807 0.597,-0.478 1.014,-0.717 1.254,-0.717 0.238,0 1.075,0.418 2.51,1.255 l 2.15,1.254 v 6.273 c 0,3.343 -0.031,5.314 -0.09,5.914 -0.061,0.596 -0.268,0.895 -0.627,0.895 -1.075,0 -1.792,0.567 -2.15,1.703 -0.359,1.134 -0.538,3.433 -0.538,6.9 v 5.734 l 2.688,1.434 z m 0.538,21.684 c 6.21,1.434 11.617,2.688 16.218,3.763 4.597,1.075 6.958,1.613 7.079,1.613 0.237,0 2.597,-0.509 7.078,-1.523 4.48,-1.017 9.705,-2.24 15.681,-3.674 L 19.354,12.545 21.146,8.96 c 3.943,-7.885 7.347,-16.308 10.214,-25.268 2.869,-8.961 5.078,-18.099 6.631,-27.419 l 0.717,-4.838 -5.734,-7.168 -117.739,0.179 -2.688,3.405 c -1.675,1.913 -2.57,3.136 -2.689,3.673 -0.12,0.538 0.06,2.121 0.538,4.749 1.314,8.123 3.136,16.098 5.466,23.924 2.329,7.824 5.225,15.502 8.692,23.029 0.717,1.792 1.582,3.732 2.598,5.824 1.014,2.089 1.582,3.136 1.702,3.136 8.84,2.03 16.308,3.822 22.402,5.376 M -102.148,54.3 c 0,0.117 0.028,0.237 0.089,0.358 0.059,0.117 0.149,0.179 0.269,0.179 0.118,0 60.689,-25.626 60.572,-25.626 0,-0.121 -75.149,-17.982 -75.266,-18.101 -0.242,0 -0.39,0.029 -0.449,0.09 -0.061,0.059 -0.089,0.149 -0.089,0.269 0,0 14.633,42.351 14.874,42.831" />
  </g>
</svg>
