<?xml version="1.0" encoding="UTF-8" standalone="no"?>
<!-- Created with Inkscape (http://www.inkscape.org/) -->

<svg
   width="100%"
   height="100%"
   viewBox="0 0 14.851495 16.542337"
   version="1.1"
   id="svg1"
   xml:space="preserve"
   xmlns="http://www.w3.org/2000/svg"
   xmlns:svg="http://www.w3.org/2000/svg"><defs
     id="defs1"><clipPath
       clipPathUnits="userSpaceOnUse"
       id="clipPath119-8-1"><path
         d="M 0,500 H 500 V 0 H 0 Z"
         transform="translate(-250.15526,-335.79051)"
         id="path119-7-1" /></clipPath></defs><g
     id="layer1"
     transform="translate(-67.227144,-243.85229)"><path
       id="path118-1"
       clip-path="url(#clipPath119-8-1)"
       style="fill:#999;fill-opacity:1;fill-rule:nonzero;stroke:none"
       d="m 0,0 c -14.29639,-3.8059457 -26.659002,-15.724945 -28.365094,-30.82325 -1.500825,-3.967613 1.97969,-17.405743 3.432844,-16.129125 -3.483702,9.472244 -0.0059,20.698625 7.54925,27.060375 4.53132,4.763411 15.8943574,6.131417 18.906,1.703 -8.3536487,-4.265118 -16.049594,-16.135951 -7.896625,-24.244234 6.52464951,-7.75114 19.337528,-1.134223 19.310203,8.19239 2.17486,5.519489 -6.9978078,13.233154 -4.154953,15.781969 C 22.506879,-18.035018 30.542043,-34.77922 26.523,-46.594 c -0.185464,-4.273025 -4.804092,-8.143088 -5.735,-11.11 11.254028,9.795862 14.138279,27.180733 6.856178,40.153127 -1.748453,6.770277 -12.922951,12.6783786 -13.152053,16.766248 12.209456,-1.481529 23.439327,-9.807869 27.980125,-21.348469 7.771911,-16.568021 3.434011,-37.71455 -10.281947,-49.895172 -15.669205,-15.182425 -42.347707,-16.237555 -59.359848,-2.656289 -10.27634,6.862743 -15.785311,18.568272 -17.788955,30.44218 -2.085028,4.899791 -7.978204,-7.886062 -10.477668,-11.194648 -12.974369,-22.837517 -11.397892,-53.153317 4.889168,-73.966817 10.766995,-13.77112 26.798123,-23.69145 44.4546563,-25.01125 29.2460487,-4.11845 58.9371497,15.41743 68.5623907,42.99831 8.458798,22.186116 3.133407,47.482129 -9.329453,67.068296 -2.24353,3.196224 -3.547119,7.680705 0.799875,2.783 15.29697,-13.226761 25.267126,-32.786561 25.437246,-53.166522 C 79.622213,-107.35071 76.954343,-120.07 70.877,-131.18 c -7.945987,-16.71823 -22.63451,-29.81452 -39.516,-37.095 -25.9613305,-10.96255 -57.321802,-6.92409 -79.703162,10.19492 -22.899228,16.44208 -34.836432,46.1191 -30.497582,73.872133 2.851625,20.340181 14.253228,39.484871 31.707994,50.560447 5.549752,4.878875 4.553236,14.004737 9.71059,19.595014 C -29.136732,-1.2740792 -12.314737,6.1126735 2.51,1.434 2.4877277,0.19683891 0.64722701,0.56374922 0,0 Z"
       transform="matrix(0.09333912,0,0,-0.09333912,74.668158,244.11809)" /></g></svg>
