<?xml version="1.0" encoding="UTF-8" standalone="no"?>
<!-- Created with Inkscape (http://www.inkscape.org/) -->

<svg
   width="100%"
   height="100%"
   viewBox="0 0 70.596176 64.705002"
   version="1.1"
   id="svg1"
   xmlns="http://www.w3.org/2000/svg"
   xmlns:svg="http://www.w3.org/2000/svg">
  <defs
     id="defs1">
    <clipPath
       clipPathUnits="userSpaceOnUse"
       id="clipPath36">
      <path
         d="M 0,500 H 500 V 0 H 0 Z"
         transform="translate(-248.80526,-341.62011)"
         id="path36" />
    </clipPath>
  </defs>
  <g
     id="layer1"
     transform="translate(-139.70005,-29.63333)">
    <path
       id="path35"
       d="m 0,0 c 3.105,0.117 6.72,0.117 10.842,0 4.122,-0.121 9.705,-0.42 16.756,-0.896 2.15,-0.121 4.539,-0.269 7.168,-0.449 2.627,-0.178 4.66,-0.268 6.094,-0.268 4.3,-0.241 7.346,-0.599 9.138,-1.075 1.793,-0.479 4.241,-1.675 7.348,-3.584 1.434,-0.837 3.702,-2.241 6.81,-4.211 3.105,-1.972 4.838,-3.079 5.197,-3.316 0.118,0 -0.957,-0.031 -3.226,-0.09 -2.27,-0.061 -6.989,-0.09 -14.157,-0.09 H 37.544 27.778 c -2.869,-0.12 -4.781,-0.178 -5.736,-0.178 -0.957,0 -1.853,0.058 -2.687,0.178 -2.867,0.477 -5.287,1.314 -7.258,2.509 -1.972,1.194 -3.854,2.927 -5.646,5.198 -0.716,0.955 -1.315,1.64 -1.791,2.06 -0.479,0.417 -1.076,0.865 -1.792,1.345 -0.958,0.475 -1.882,0.775 -2.778,0.895 -0.896,0.118 -2.54,0.118 -4.928,0 h -3.137 -1.881 l -1.076,0.18 1.255,0.358 c 1.313,0.476 2.716,0.806 4.211,0.986 C -3.973,-0.27 -2.15,-0.121 0,0 m -18.279,-7.886 c 5.376,0.239 9.05,0.297 11.021,0.18 1.971,-0.12 3.792,-0.42 5.466,-0.897 1.792,-0.598 3.405,-1.405 4.839,-2.418 1.433,-1.017 2.867,-2.481 4.301,-4.391 0.717,-0.958 1.402,-1.702 2.06,-2.24 0.656,-0.537 1.344,-0.927 2.061,-1.165 1.075,-0.479 2.927,-0.779 5.556,-0.896 2.627,-0.12 12.365,-0.241 29.211,-0.358 8.839,0 16.366,-0.032 22.58,-0.09 6.21,-0.062 9.556,-0.151 10.035,-0.269 0.835,-0.12 1.613,-0.268 2.33,-0.448 0.717,-0.179 1.313,-0.448 1.792,-0.807 1.192,-0.836 3.912,-2.987 8.153,-6.451 4.24,-3.467 7.079,-5.855 8.513,-7.168 l 1.613,-1.613 v -15.771 l -6.272,6.273 c -1.675,1.672 -3.705,3.702 -6.093,6.094 -2.392,2.387 -4.363,4.418 -5.914,6.092 -2.988,3.106 -5.018,5.135 -6.093,6.093 -1.075,0.955 -2.033,1.614 -2.867,1.972 -1.076,0.476 -2.51,0.744 -4.302,0.806 -1.792,0.059 -7.526,0.089 -17.203,0.089 -4.9,0 -10.187,0.029 -15.86,0.09 -5.676,0.059 -10.008,0.09 -12.992,0.09 -4.901,0.117 -7.975,0.179 -9.23,0.179 -1.254,0 -2.002,0.058 -2.24,0.18 -0.24,0.117 -0.599,0.385 -1.075,0.805 -0.479,0.418 -0.957,0.865 -1.434,1.345 -0.717,0.717 -1.254,1.224 -1.612,1.523 -0.359,0.297 -0.838,0.627 -1.434,0.986 -1.196,0.596 -2.36,0.895 -3.495,0.895 -1.136,0 -2.302,-0.299 -3.494,-0.895 -1.675,-0.837 -2.988,-2.123 -3.943,-3.854 -0.957,-1.732 -1.254,-3.494 -0.896,-5.286 0.238,-2.27 1.282,-4.122 3.136,-5.556 1.851,-1.433 3.912,-1.97 6.183,-1.612 1.075,0.117 2.03,0.417 2.868,0.896 0.833,0.476 1.73,1.193 2.687,2.15 0.358,0.477 0.776,0.896 1.255,1.255 0.475,0.358 0.775,0.597 0.895,0.717 l 0.717,0.358 h 13.8 10.304 c 2.209,0 3.315,-0.061 3.315,-0.18 h 14.695 c 4.66,0 8.361,-0.03 11.111,-0.088 2.747,-0.062 4.239,-0.152 4.48,-0.27 1.075,-0.24 2.179,-0.867 3.316,-1.881 1.133,-1.016 4.687,-4.512 10.662,-10.484 3.105,-3.108 5.824,-5.855 8.154,-8.243 2.33,-2.392 3.554,-3.705 3.674,-3.943 0.238,-0.241 0.448,-0.538 0.627,-0.896 0.18,-0.359 0.328,-0.717 0.448,-1.075 0.238,-0.599 0.359,-1.644 0.359,-3.136 0,-1.495 -0.121,-9.291 -0.359,-23.387 0,-5.138 -0.031,-9.649 -0.09,-13.53 -0.061,-3.884 -0.151,-6.065 -0.268,-6.541 -0.241,-2.151 -0.837,-3.736 -1.792,-4.749 -0.958,-1.016 -2.45,-1.764 -4.481,-2.24 -0.837,-0.121 -1.943,-0.179 -3.315,-0.179 -1.375,0 -2.24,0.058 -2.599,0.179 -0.358,0.118 -0.688,0.359 -0.985,0.717 -0.3,0.359 -0.569,0.717 -0.807,1.075 v 4.301 14.157 c 0,9.795 -0.03,15.53 -0.089,17.205 -0.061,1.67 -0.331,3.045 -0.806,4.121 -0.242,0.596 -0.748,1.313 -1.524,2.15 -0.778,0.835 -2.898,3.047 -6.361,6.631 -5.976,5.973 -9.409,9.408 -10.305,10.305 -0.896,0.895 -1.703,1.523 -2.42,1.881 -0.358,0.118 -0.778,0.269 -1.254,0.448 -0.478,0.179 -0.896,0.269 -1.254,0.269 -0.241,0 -1.644,0.028 -4.211,0.089 -2.571,0.06 -5.646,0.09 -9.23,0.09 -4.541,0 -7.767,0.028 -9.677,0.09 -1.912,0.058 -3.047,0.09 -3.405,0.09 -0.24,0.117 -0.537,0.297 -0.895,0.537 -0.359,0.238 -0.838,0.655 -1.434,1.255 -0.958,0.955 -1.792,1.702 -2.509,2.24 -0.717,0.537 -1.434,0.924 -2.151,1.164 -2.509,0.717 -4.869,0.297 -7.078,-1.254 -2.212,-1.554 -3.436,-3.705 -3.674,-6.451 -0.241,-2.63 0.655,-4.901 2.688,-6.811 2.03,-1.912 4.301,-2.687 6.81,-2.329 0.955,0.238 1.851,0.596 2.688,1.075 0.834,0.476 1.792,1.193 2.868,2.151 0.475,0.475 0.954,0.895 1.433,1.254 0.476,0.358 0.776,0.596 0.896,0.717 0.238,0.118 0.986,0.208 2.24,0.269 1.255,0.059 4.866,0.089 10.842,0.089 h 12.545 l 1.075,-0.537 c 0.475,-0.241 1.223,-0.868 2.24,-1.882 1.014,-1.017 3.315,-3.315 6.899,-6.899 4.301,-4.301 6.838,-6.931 7.617,-7.885 0.775,-0.958 1.223,-1.972 1.343,-3.047 0.119,-0.241 0.18,-1.465 0.18,-3.674 v -9.408 c -0.121,-3.346 -0.18,-6.693 -0.18,-10.035 0,-3.347 -0.061,-5.676 -0.178,-6.99 0,-1.792 -0.032,-3.108 -0.09,-3.942 -0.062,-0.838 -0.09,-1.375 -0.09,-1.613 -0.24,-0.479 -0.6,-0.958 -1.075,-1.434 -0.479,-0.478 -1.017,-0.837 -1.613,-1.075 -0.837,-0.241 -1.434,-0.6 -1.792,-1.075 -0.359,-0.479 -0.896,-1.375 -1.613,-2.689 -1.075,-2.27 -2.36,-4.062 -3.853,-5.376 -1.495,-1.316 -3.794,-2.75 -6.9,-4.3 -1.673,-0.958 -2.867,-1.554 -3.584,-1.792 -0.716,-0.242 -1.195,-0.242 -1.433,0 -0.12,0.238 -0.24,1.433 -0.359,3.584 -0.12,2.15 -0.12,4.001 0,5.555 0.119,0.717 0.18,1.434 0.18,2.151 v 1.612 c -0.121,1.075 -0.42,2.21 -0.896,3.405 -0.479,1.194 -1.076,2.33 -1.792,3.405 -0.242,0.238 -3.257,3.285 -9.05,9.14 -5.796,5.852 -12.634,12.782 -20.52,20.787 -3.942,3.944 -7.885,7.886 -11.827,11.828 -3.942,4.061 -7.589,7.765 -10.932,11.111 -3.346,3.343 -6.272,6.331 -8.781,8.961 -2.509,2.508 -4.362,4.3 -5.555,5.376 -2.271,2.388 -5.138,5.314 -8.602,8.781 -3.467,3.464 -6.451,6.451 -8.96,8.96 -2.51,2.627 -4.691,4.867 -6.541,6.721 -1.854,1.85 -2.778,2.835 -2.778,2.957 0,0.117 0.775,0.537 2.33,1.253 1.551,0.717 2.805,1.314 3.763,1.792 2.268,0.835 4.598,1.434 6.989,1.792 2.388,0.359 5.914,0.597 10.573,0.717 m -31.361,-8.96 c 0.476,0.239 0.924,0.327 1.344,0.269 0.417,-0.062 0.806,-0.21 1.165,-0.448 0.238,-0.121 3.643,-3.525 10.214,-10.214 6.57,-6.573 14.427,-14.457 23.566,-23.656 9.14,-9.201 18.607,-18.758 28.405,-28.673 9.794,-9.797 17.92,-17.982 24.372,-24.551 3.105,-3.226 5.166,-5.527 6.183,-6.9 1.013,-1.375 1.76,-2.839 2.239,-4.39 0.238,-0.837 0.387,-2.24 0.448,-4.212 0.059,-1.971 0.028,-4.094 -0.09,-6.361 -0.12,-1.913 -0.299,-3.136 -0.537,-3.674 -0.241,-0.538 -0.658,-0.986 -1.255,-1.344 -0.24,-0.121 -0.478,-0.241 -0.716,-0.358 -0.241,-0.121 -0.42,-0.18 -0.538,-0.18 -1.554,-0.358 -2.867,-0.658 -3.942,-0.896 -2.63,-0.599 -4.542,-1.016 -5.735,-1.254 -1.196,-0.241 -2.509,-0.359 -3.943,-0.359 -1.792,0 -3.135,0.18 -4.032,0.538 -0.895,0.359 -2.002,1.075 -3.315,2.151 -1.076,0.834 -1.912,1.402 -2.509,1.702 -0.599,0.297 -1.195,0.448 -1.792,0.448 -1.075,0 -1.944,-0.331 -2.599,-0.986 -0.657,-0.658 -1.226,-1.823 -1.702,-3.494 -0.12,-0.359 -0.3,-0.896 -0.537,-1.613 -6.811,6.093 -11.053,9.915 -12.724,11.469 -1.434,1.313 -2.481,2.24 -3.136,2.777 -0.658,0.538 -1.344,0.987 -2.061,1.345 -0.958,0.358 -2.151,0.596 -3.584,0.717 -1.434,0.117 -5.914,0.179 -13.441,0.179 -7.647,0.118 -12.158,0.207 -13.53,0.268 -1.375,0.06 -2.539,0.328 -3.495,0.807 -0.24,0.118 -0.537,0.297 -0.896,0.538 -0.358,0.238 -0.658,0.417 -0.895,0.537 -0.121,0.118 -1.316,1.313 -3.584,3.584 -2.151,2.268 -4.811,4.987 -7.975,8.154 -3.167,3.164 -6.541,6.541 -10.126,10.125 -3.466,3.584 -6.63,6.811 -9.498,9.678 -2.987,3.104 -4.989,5.135 -6.003,6.093 -1.016,0.955 -1.943,1.672 -2.777,2.15 -1.196,0.717 -2.392,1.224 -3.585,1.524 -1.195,0.296 -2.987,0.448 -5.376,0.448 -2.629,0 -4.273,0.117 -4.928,0.358 -0.658,0.237 -0.927,0.834 -0.807,1.792 0.118,0.834 0.507,2.509 1.165,5.018 0.656,2.509 1.103,4.001 1.345,4.48 0.237,0.476 0.506,0.896 0.806,1.254 0.297,0.359 0.627,0.597 0.986,0.717 1.192,0.597 3.253,0.745 6.182,0.448 2.926,-0.3 5.404,-0.927 7.437,-1.882 0.596,-0.241 1.641,-1.075 3.136,-2.508 1.493,-1.434 5.525,-5.498 12.097,-12.187 3.822,-3.942 7.168,-7.378 10.035,-10.304 2.867,-2.928 4.419,-4.51 4.659,-4.749 0.359,-0.478 0.597,-1.048 0.718,-1.702 0.117,-0.658 0.117,-1.465 0,-2.42 -0.241,-1.553 -0.152,-2.957 0.268,-4.211 0.418,-1.255 1.103,-2.36 2.061,-3.315 2.389,-2.151 5.108,-2.809 8.154,-1.972 3.047,0.835 5.046,2.747 6.004,5.735 0.237,0.596 0.386,1.372 0.447,2.33 0.059,0.955 -0.03,1.73 -0.268,2.33 -0.479,1.792 -1.465,3.284 -2.957,4.479 -1.495,1.194 -3.137,1.792 -4.929,1.792 -0.836,0 -1.612,0.06 -2.329,0.18 -0.717,0.117 -1.375,0.297 -1.971,0.537 -0.241,0.118 -0.986,0.776 -2.241,1.972 -1.254,1.193 -3.494,3.343 -6.72,6.451 -2.15,2.268 -4.631,4.839 -7.437,7.706 -2.808,2.867 -5.107,5.197 -6.899,6.989 -1.913,2.03 -3.556,3.702 -4.928,5.018 -1.375,1.313 -2.302,2.15 -2.778,2.509 -0.837,0.716 -1.733,1.313 -2.688,1.792 -0.958,0.476 -1.913,0.834 -2.867,1.075 -0.717,0.118 -1.286,0.179 -1.703,0.179 h -2.061 c -0.599,0 -1.226,-0.031 -1.881,-0.089 -0.659,-0.062 -1.106,-0.09 -1.345,-0.09 h -0.716 c -0.121,0 -0.241,0.059 -0.359,0.179 -0.12,0.359 0.028,0.896 0.448,1.613 0.417,0.716 0.924,1.134 1.523,1.255 0.118,0.117 0.628,0.179 1.524,0.179 0.896,0 1.882,0.059 2.957,0.179 3.225,0.117 6.541,0.09 9.946,-0.09 3.404,-0.179 5.404,-0.447 6.003,-0.807 0.118,0 0.627,-0.419 1.523,-1.253 0.896,-0.837 1.882,-1.792 2.957,-2.868 1.076,-1.196 4.001,-4.183 8.781,-8.961 4.777,-4.779 9.974,-9.976 15.591,-15.59 7.527,-7.647 12.814,-13.054 15.86,-16.218 3.047,-3.167 4.687,-4.869 4.928,-5.108 0.238,-0.599 0.387,-1.106 0.448,-1.523 0.059,-0.42 0.028,-1.047 -0.089,-1.882 -0.359,-2.749 0.358,-5.079 2.15,-6.989 1.792,-1.912 4.061,-2.808 6.81,-2.688 0.834,0.118 1.613,0.297 2.33,0.538 0.716,0.238 1.433,0.596 2.15,1.075 1.193,0.835 2.089,1.851 2.688,3.047 0.597,1.193 0.896,2.508 0.896,3.942 0,1.792 -0.479,3.374 -1.433,4.749 -0.958,1.372 -2.213,2.42 -3.764,3.137 -0.478,0.117 -0.957,0.207 -1.433,0.268 -0.479,0.059 -1.316,0.09 -2.509,0.09 -1.196,0.117 -2.002,0.207 -2.42,0.269 -0.42,0.058 -0.806,0.148 -1.164,0.268 -0.241,0.118 -1.524,1.314 -3.853,3.584 -2.33,2.269 -6.303,6.211 -11.918,11.828 -7.409,7.407 -12.485,12.514 -15.232,15.323 -2.75,2.805 -5.676,5.941 -8.781,9.408 -0.837,0.955 -1.644,1.85 -2.419,2.687 -0.779,0.835 -1.286,1.314 -1.524,1.434 -2.391,2.268 -4.78,4.092 -7.168,5.466 -2.391,1.372 -4.9,2.299 -7.527,2.778 -0.837,0.238 -2.271,0.358 -4.301,0.358 -2.033,0 -4.121,-0.061 -6.272,-0.179 l -2.329,-0.179 v 0.717 c 0.117,0.475 0.327,0.895 0.627,1.254 0.296,0.358 0.686,0.596 1.165,0.717 0.117,0 0.686,0.028 1.702,0.089 1.013,0.059 2.12,0.09 3.315,0.09 2.509,0 4.419,0.059 5.735,0.179 1.313,0.118 2.447,0.297 3.405,0.538 2.268,0.597 4.001,1.613 5.197,3.047 1.192,1.433 1.792,3.284 1.792,5.555 0,1.551 -0.39,2.985 -1.165,4.3 -0.778,1.314 -1.823,2.33 -3.136,3.047 -0.359,0.239 -0.778,0.538 -1.255,0.897 -0.12,0.117 1.731,1.461 5.556,4.032 3.822,2.567 6.151,4.091 6.989,4.569 m -43.368,-64.156 c 0.238,0.118 0.596,0.207 1.075,0.27 0.476,0.058 0.955,0.088 1.434,0.088 1.434,0 2.867,-0.151 4.301,-0.447 1.433,-0.3 2.867,-0.748 4.301,-1.345 0.716,-0.24 1.434,-0.688 2.15,-1.343 0.717,-0.659 2.868,-2.778 6.452,-6.363 1.909,-1.912 4.718,-4.749 8.422,-8.511 3.702,-3.764 7.227,-7.32 10.574,-10.663 6.092,-6.213 9.915,-10.036 11.469,-11.469 1.551,-1.434 2.867,-2.392 3.942,-2.867 1.075,-0.48 2,-0.78 2.778,-0.897 0.776,-0.12 2.178,-0.18 4.212,-0.18 h 3.673 c 1.372,0 2.478,-0.061 3.315,-0.178 h 3.047 c 0.717,0 1.613,0.058 2.688,0.178 3.464,0.477 6.6,0.387 9.408,-0.268 2.806,-0.658 5.525,-1.882 8.154,-3.674 1.075,-0.599 2.42,-1.702 4.032,-3.315 1.613,-1.613 2.778,-2.956 3.495,-4.032 1.434,-2.033 2.299,-3.735 2.599,-5.107 0.296,-1.375 0.089,-2.778 -0.628,-4.212 -0.479,-0.837 -1.733,-2.302 -3.763,-4.391 -2.033,-2.091 -5.376,-5.227 -10.036,-9.408 -2.987,-2.629 -5.228,-4.659 -6.72,-6.093 -1.495,-1.433 -2.778,-2.688 -3.853,-3.763 l -1.613,-1.612 v 2.508 c -0.12,1.671 -0.151,3.046 -0.089,4.121 0.059,1.076 0.207,1.911 0.448,2.509 0.238,0.597 0.627,1.194 1.164,1.793 0.538,0.596 1.165,1.134 1.882,1.612 1.314,0.835 2.21,1.911 2.688,3.226 0.476,1.314 0.597,2.747 0.359,4.301 -0.479,2.15 -1.496,3.881 -3.047,5.197 -1.554,1.314 -3.405,1.972 -5.555,1.972 -1.316,0 -2.45,-0.21 -3.405,-0.628 -0.958,-0.42 -1.854,-1.047 -2.688,-1.881 -0.958,-0.958 -1.644,-1.972 -2.061,-3.047 -0.42,-1.075 -0.569,-2.27 -0.448,-3.584 0,-0.958 0.179,-1.792 0.538,-2.509 0.358,-0.716 0.954,-1.554 1.792,-2.508 1.192,-1.197 1.909,-2.302 2.15,-3.316 0.238,-1.016 0.297,-3.018 0.179,-6.004 v -3.762 -2.51 c 0.118,-1.193 0.118,-2.178 0,-2.956 -0.12,-0.777 -0.358,-1.462 -0.717,-2.062 -0.478,-1.075 -1.495,-2.179 -3.046,-3.315 -1.554,-1.134 -2.75,-1.761 -3.584,-1.881 -0.479,0 -0.779,0.03 -0.896,0.089 -0.121,0.061 -0.358,0.21 -0.717,0.448 -0.241,0.241 -0.389,0.42 -0.448,0.538 -0.062,0.12 -0.09,0.299 -0.09,0.537 0,0.837 0.359,1.912 1.076,3.226 0.717,1.316 1.792,2.928 3.225,4.839 1.672,2.267 2.806,4.032 3.405,5.286 0.597,1.255 0.896,2.537 0.896,3.853 0,0.597 -0.031,1.044 -0.089,1.344 -0.062,0.297 -0.21,0.687 -0.448,1.165 -0.6,1.192 -1.406,2.061 -2.42,2.599 -1.016,0.537 -2.719,0.985 -5.107,1.343 -0.717,0.119 -1.344,0.297 -1.882,0.539 -0.537,0.237 -0.926,0.537 -1.165,0.895 -0.24,0.358 -0.358,0.807 -0.358,1.344 v 4.57 c 0,1.909 -0.241,3.612 -0.717,5.108 -0.478,1.492 -1.316,3.015 -2.509,4.569 -0.24,0.238 -1.375,1.403 -3.404,3.495 -2.034,2.089 -4.363,4.449 -6.99,7.078 -2.271,2.269 -5.617,5.614 -10.035,10.036 -4.301,4.418 -8.692,8.899 -13.172,13.441 -4.48,4.539 -8.574,8.66 -12.276,12.365 -3.704,3.701 -5.975,6.031 -6.809,6.989 -1.076,0.954 -1.764,1.702 -2.061,2.239 -0.3,0.539 -0.448,1.104 -0.448,1.704 0,0.716 0.148,1.312 0.448,1.792 0.297,0.475 0.806,0.775 1.523,0.895 m -5.197,-35.482 c -0.121,0.117 -0.179,0.296 -0.179,0.537 0.117,0 0.717,-0.448 1.792,-1.344 1.075,-0.897 1.971,-1.702 2.688,-2.419 1.792,-1.913 3.136,-3.795 4.032,-5.645 0.896,-1.854 1.403,-3.853 1.523,-6.003 0,-0.958 -0.061,-2.002 -0.179,-3.137 -0.12,-1.137 -0.241,-1.764 -0.358,-1.882 -0.121,-0.12 -0.51,0.297 -1.165,1.255 -0.658,0.955 -1.344,2.089 -2.061,3.405 -0.717,1.193 -1.523,2.657 -2.419,4.391 -0.896,1.73 -1.524,3.194 -1.882,4.39 -0.241,0.834 -0.568,1.971 -0.985,3.405 -0.421,1.433 -0.689,2.447 -0.807,3.047 m 1.792,23.655 c 0,0.238 0.538,-0.12 1.613,-1.075 1.075,-0.958 4.598,-4.481 10.573,-10.574 3.226,-3.346 7.317,-7.499 12.276,-12.455 4.956,-4.959 9.229,-9.291 12.813,-12.992 6.928,-6.93 11.08,-11.111 12.455,-12.545 1.372,-1.433 2.299,-2.808 2.778,-4.121 0.475,-1.075 0.806,-2.092 0.985,-3.047 0.179,-0.958 0.269,-2.15 0.269,-3.584 0,-1.433 -0.061,-2.45 -0.179,-3.047 -0.121,-0.598 -0.42,-1.136 -0.896,-1.612 -0.358,-0.358 -0.927,-0.658 -1.703,-0.896 -0.778,-0.242 -1.882,-0.479 -3.315,-0.717 -2.63,-0.479 -5.287,-0.627 -7.975,-0.448 -2.688,0.179 -5.169,0.686 -7.437,1.523 -1.075,0.358 -2.391,0.897 -3.942,1.613 -1.554,0.717 -2.809,1.434 -3.764,2.151 -2.509,1.672 -4.749,3.552 -6.72,5.644 -1.971,2.089 -3.198,3.971 -3.674,5.646 l -0.537,1.254 v 8.423 c 0.117,2.867 0.148,5.045 0.089,6.541 -0.061,1.492 -0.089,2.357 -0.089,2.598 -0.241,1.075 -0.748,2.061 -1.523,2.957 -0.779,0.896 -2.957,3.195 -6.541,6.9 -1.913,1.909 -3.585,3.612 -5.018,5.107 -1.434,1.492 -2.212,2.299 -2.33,2.419 -0.358,0.477 -0.568,0.986 -0.627,1.523 -0.062,0.539 -0.031,1.344 0.089,2.419 0.359,2.031 0.745,4.092 1.165,6.183 0.417,2.089 0.807,3.495 1.165,4.212"
       style="fill:#999;fill-opacity:1;fill-rule:nonzero;stroke:none"
       transform="matrix(0.35277776,0,0,-0.35277776,174.57677,29.664288)"
       clip-path="url(#clipPath36)" />
  </g>
</svg>
