<?xml version="1.0" encoding="UTF-8" standalone="no"?>
<!-- Created with Inkscape (http://www.inkscape.org/) -->

<svg
   width="100%"
   height="100%"
   viewBox="0 0 65.559158 64.736839"
   version="1.1"
   id="svg1"
   xmlns="http://www.w3.org/2000/svg"
   xmlns:svg="http://www.w3.org/2000/svg">
  <defs
     id="defs1">
    <clipPath
       clipPathUnits="userSpaceOnUse"
       id="clipPath34">
      <path
         d="M 0,500 H 500 V 0 H 0 Z"
         transform="translate(-303.49351,-249.10401)"
         id="path34" />
    </clipPath>
  </defs>
  <g
     id="layer1"
     transform="translate(-183.09162,-18.520833)">
    <path
       id="path33"
       d="m 0,0 c 0.117,0 39.246,-22.401 39.246,-22.401 l 0.179,-45.519 c 0,0 -31.84,-18.396 -39.605,-22.937 -13.549,7.681 -26.926,15.476 -39.425,22.758 v 16.129 c 0.118,0 16.487,-9.381 20.429,-11.648 5.019,2.867 25.447,14.515 25.447,14.515 l -0.178,29.569 c 0,0 -16.011,9.378 -20.072,11.649 -0.12,0 13.858,8.002 13.979,7.885 m -30.645,-8.244 c 3.343,-1.912 16.846,-9.677 16.846,-9.677 v -19.713 c 0,0 -13.503,-7.706 -16.846,-9.498 -3.346,1.792 -16.845,9.498 -16.845,9.498 l -0.179,19.713 c 0,0 13.678,7.765 17.024,9.677 M -53.583,31.54 c 3.343,-1.912 16.846,-9.677 16.846,-9.677 V 2.15 c 0,0 -13.503,-7.706 -16.846,-9.498 -0.12,0 -17.024,9.678 -17.024,9.678 0,0 0.237,19.533 0.358,19.533 3.226,1.909 16.546,9.677 16.666,9.677 m -0.18,61.109 c 0.118,0 39.606,-22.758 39.606,-22.758 l -0.18,-45.519 -13.62,-8.064 -0.179,23.655 c 0,0 -25.33,14.516 -25.447,14.516 C -58.601,51.729 -79.03,39.963 -79.03,39.963 V 16.308 c -0.12,0 -13.979,8.064 -13.979,8.064 v 45.519 c 0,0 34.705,20.13 39.246,22.758 M -76.521,-8.244 c 3.342,-1.912 16.845,-9.677 16.845,-9.677 v -19.533 l -16.845,-9.857 -17.025,9.857 v 19.533 c 0,0 13.679,7.765 17.025,9.677 m -30.465,8.423 c 9.077,-5.138 13.677,-7.767 13.798,-7.885 -6.878,-4.187 -13.808,-8.064 -20.25,-11.828 v -29.569 l 25.447,-14.695 c 0,0 16.367,9.557 20.429,11.828 v -16.129 l -39.424,-22.758 -39.426,22.758 v 45.698 c 0,0 39.305,22.58 39.426,22.58"
       style="fill:#999;fill-opacity:1;fill-rule:nonzero;stroke:none"
       transform="matrix(0.35277776,0,0,-0.35277776,234.74252,51.20534)"
       clip-path="url(#clipPath34)" />
  </g>
</svg>
