<?xml version="1.0" encoding="UTF-8" standalone="no"?>
<!-- Created with Inkscape (http://www.inkscape.org/) -->

<svg
   width="100%"
   height="100%"
   viewBox="0 0 44.054531 31.518297"
   version="1.1"
   id="svg1"
   xml:space="preserve"
   xmlns="http://www.w3.org/2000/svg"
   xmlns:svg="http://www.w3.org/2000/svg"><defs
     id="defs1" /><g
     id="layer1"
     transform="translate(-65.470499,-186.0169)"><path
       id="path10"
       style="fill:#999;fill-opacity:1;stroke:none;stroke-width:0.188225;stroke-opacity:1"
       d="m 71.59375,186.03125 c -3.160238,0.0911 -5.95181,2.82535 -6.100187,5.98465 -0.281935,3.11887 2.055314,6.181 5.13339,6.74972 3.040049,0.6748 6.37656,-1.20298 7.34852,-4.16754 0.02109,-0.70272 0.754296,-0.26864 1.14382,-0.10237 1.735858,1.00078 2.633831,2.90604 3.609223,4.5707 1.59426,3.06047 2.416879,6.45365 3.958269,9.53321 1.239279,2.30726 3.64004,4.21938 6.369345,4.06208 1.265747,0.0709 2.532798,-0.0142 3.799339,0.0141 0.698807,3.02566 3.825921,5.19539 6.904301,4.81641 3.14033,-0.27019 5.76805,-3.13139 5.76098,-6.28392 0.12303,-3.16252 -2.42084,-6.13064 -5.56529,-6.49411 -3.04665,-0.47332 -6.222747,1.57358 -7.035914,4.54976 -0.04283,0.55528 -0.827455,0.1382 -1.193294,0.27472 -1.30136,-0.0672 -2.652143,0.0915 -3.918546,-0.23048 -2.055236,-0.83844 -2.80764,-3.132 -3.513784,-5.0446 -1.307605,-3.51615 -2.602571,-7.12036 -4.918922,-10.12489 4.410796,0.0138 8.821607,0.0199 13.232422,0.0234 0.763681,3.03548 3.979878,5.15852 7.071478,4.6723 3.14095,-0.36406 5.68761,-3.32774 5.56268,-6.48906 0.0149,-3.19797 -2.69577,-6.09406 -5.8862,-6.29648 -3.07812,-0.32756 -6.151414,1.9022 -6.802646,4.92574 -6.13151,-0.003 -12.26302,-0.005 -18.394531,-0.008 -0.659234,-2.95721 -3.535621,-5.12623 -6.564453,-4.93555 z m 0.664062,3.20313 c 1.853247,0.17799 3.301524,2.11778 2.803798,3.9436 -0.324239,1.83103 -2.427595,3.03345 -4.165601,2.33541 -1.738778,-0.51125 -2.796357,-2.64532 -1.937739,-4.29768 0.532022,-1.29427 1.885509,-2.18603 3.299542,-1.98133 z m 30.410158,-0.0195 c 1.95231,-0.11548 3.72986,1.78845 3.33789,3.74024 -0.20666,1.88734 -2.29984,3.24853 -4.10215,2.59181 -1.74891,-0.44374 -2.880982,-2.53166 -2.097603,-4.20561 0.450383,-1.16038 1.569583,-2.14417 2.861863,-2.12644 z m 0.26562,18.63672 c 2.08277,-0.15513 3.88768,2.02784 3.29767,4.04224 -0.39428,1.83046 -2.55706,2.9792 -4.28412,2.20297 -1.69092,-0.56671 -2.659361,-2.68499 -1.79109,-4.29363 0.48516,-1.07441 1.55588,-1.96822 2.77754,-1.95158 z" /></g></svg>
