<?xml version="1.0" encoding="UTF-8" standalone="no"?>
<!-- Created with Inkscape (http://www.inkscape.org/) -->

<svg
   width="100%"
   height="100%"
   viewBox="0 0 17.128475 17.128283"
   version="1.1"
   id="svg1"
   xml:space="preserve"
   xmlns="http://www.w3.org/2000/svg"
   xmlns:svg="http://www.w3.org/2000/svg"><defs
     id="defs1"><clipPath
       clipPathUnits="userSpaceOnUse"
       id="clipPath66-7"><path
         d="M 0,500 H 500 V 0 H 0 Z"
         id="path66-9" /></clipPath></defs><g
     id="layer1"
     transform="translate(-36.459699,-88.221059)"><g
       style="clip-rule:evenodd;fill-rule:evenodd;stroke-linejoin:round;stroke-miterlimit:2"
       id="g1"
       transform="matrix(0.0269247,0,0,0.0269247,26.030312,69.520922)"><path
         id="path65"
         d="m 239.068,189.428 h 19.713 v 102.864 h -19.713 z m 43.547,102.864 c 4.659,0 8.182,-0.061 10.573,-0.178 2.389,-0.121 4.002,-2.033 4.839,-5.736 0.359,-1.433 0.656,-2.867 0.896,-4.3 0.238,-1.434 0.476,-2.868 0.717,-4.301 1.792,-0.241 3.433,-0.269 4.928,-0.09 1.493,0.18 2.836,0.986 4.033,2.42 v 5.018 c -0.242,2.508 -0.449,5.076 -0.627,7.706 -0.18,2.626 -0.331,5.196 -0.449,7.705 -0.121,2.268 -0.21,4.777 -0.269,7.527 -0.062,2.747 -0.151,5.314 -0.269,7.706 h -30.106 v 11.29 H 258.96 v -10.932 h -20.071 v 10.932 h -17.92 v -11.111 h -28.136 c -0.241,-5.617 -0.51,-11.38 -0.807,-17.293 -0.299,-5.914 -0.509,-11.621 -0.627,-17.114 0,-0.6 0.359,-1.317 1.076,-2.151 0.716,-0.838 1.372,-1.375 1.971,-1.613 0.834,-0.359 1.731,-0.479 2.688,-0.359 0.955,0.118 1.792,0.18 2.509,0.18 0.476,2.029 0.923,3.821 1.344,5.376 0.417,1.551 0.924,3.226 1.523,5.018 0.596,2.15 1.372,3.343 2.33,3.584 0.955,0.238 3.105,0.476 6.451,0.716 3.584,0.239 5.136,0.297 4.659,0.18 -0.478,-0.121 1.075,-0.121 4.66,0 0.118,-0.121 0.238,-0.241 0.359,-0.358 V 189.249 h -4.391 c -0.42,0 -1.823,-0.062 -4.212,-0.179 -0.478,0 -0.957,-0.062 -1.433,-0.18 -0.479,-0.12 -0.896,-0.299 -1.254,-0.537 -0.958,-0.6 -1.524,-1.316 -1.703,-2.15 -0.179,-0.838 -0.089,-1.675 0.269,-2.509 0.359,-0.838 1.075,-2.42 2.151,-4.749 1.075,-2.33 2.208,-3.495 3.404,-3.495 2.268,0.118 3.433,0.179 3.495,0.179 h 3.674 v -7.347 h 17.92 v 7.168 h 20.071 v -7.168 h 17.921 v 7.347 h 3.225 3.047 c 1.551,0 3.226,1.283 5.018,3.853 1.792,2.567 2.688,4.509 2.688,5.824 0,1.194 -0.448,2.151 -1.344,2.867 -0.896,0.717 -2.122,1.076 -3.674,1.076 h -4.391 -4.39 v 103.043 z m 3.047,42.293 c 11.229,-4.78 20.995,-11.321 29.3,-19.623 8.303,-8.305 14.844,-18.072 19.623,-29.3 4.777,-11.111 7.169,-23 7.169,-35.662 0,-12.665 -2.392,-24.551 -7.169,-35.663 -4.779,-11.23 -11.32,-20.998 -19.623,-29.299 -8.305,-8.306 -18.071,-14.847 -29.3,-19.623 -11.111,-4.778 -23,-7.168 -35.662,-7.168 -12.665,0 -24.552,2.39 -35.662,7.168 -11.232,4.776 -20.998,11.317 -29.301,19.623 -8.305,8.301 -14.846,18.069 -19.623,29.299 -4.779,11.112 -7.168,22.998 -7.168,35.663 0,12.662 2.389,24.551 7.168,35.662 4.777,11.228 11.318,20.995 19.623,29.3 8.303,8.302 18.069,14.843 29.301,19.623 11.11,4.778 22.997,7.168 35.662,7.168 12.662,0 24.551,-2.39 35.662,-7.168"
         style="fill:#999;fill-opacity:1;fill-rule:nonzero;stroke:none"
         transform="matrix(3.4666724,0,0,-3.4666724,-161.23316,1879.2803)"
         clip-path="url(#clipPath66-7)" /></g></g></svg>
