<?xml version="1.0" encoding="UTF-8" standalone="no"?>
<!-- Created with Inkscape (http://www.inkscape.org/) -->

<svg
   width="100%"
   height="100%"
   viewBox="0 0 55.638416 64.731491"
   version="1.1"
   id="svg1"
   xmlns="http://www.w3.org/2000/svg"
   xmlns:svg="http://www.w3.org/2000/svg">
  <defs
     id="defs1">
    <clipPath
       clipPathUnits="userSpaceOnUse"
       id="clipPath31">
      <path
         d="M 0,500 H 500 V 0 H 0 Z"
         transform="translate(-245.87151,-213.8526)"
         id="path31" />
    </clipPath>
  </defs>
  <g
     id="layer1"
     transform="translate(-175.41878,10.847916)">
    <path
       id="path30"
       d="m 0,0 c 1.075,0.238 2.388,0.358 3.942,0.358 1.551,0 2.985,-0.12 4.301,-0.358 5.614,-0.837 10.512,-3.137 14.695,-6.899 4.18,-3.764 6.927,-8.395 8.244,-13.889 1.909,-7.526 0.895,-14.606 -3.047,-21.236 -3.943,-6.63 -9.739,-10.901 -17.383,-12.813 -1.434,-0.358 -3.315,-0.597 -5.645,-0.717 -2.33,-0.118 -4.211,0 -5.645,0.359 -1.912,0.24 -3.853,0.747 -5.824,1.522 -1.971,0.778 -3.794,1.765 -5.466,2.957 -0.957,0.6 -2.24,1.734 -3.853,3.405 -1.613,1.675 -2.778,2.988 -3.495,3.943 -1.075,1.672 -1.97,3.405 -2.687,5.197 -0.717,1.792 -1.255,3.643 -1.614,5.555 -0.24,1.434 -0.358,3.165 -0.358,5.197 0,2.03 0.18,3.764 0.538,5.197 1.193,5.853 3.881,10.812 8.064,14.874 C -11.053,-3.287 -5.976,-0.837 0,0 m -1.075,57.166 c 3.343,0.239 6.899,0.18 10.662,-0.179 3.764,-0.358 7.317,-1.016 10.663,-1.971 7.286,-2.27 13.857,-5.886 19.713,-10.842 5.851,-4.959 10.512,-10.842 13.977,-17.652 1.434,-2.867 2.627,-5.855 3.585,-8.96 0.954,-3.108 1.613,-6.334 1.971,-9.677 0.118,-1.316 0.207,-3.405 0.269,-6.273 0.059,-2.867 -0.031,-4.959 -0.269,-6.271 -0.12,-1.196 -0.358,-2.75 -0.717,-4.66 -0.358,-1.912 -0.599,-2.868 -0.716,-2.868 -0.121,0 -0.21,0.149 -0.269,0.449 -0.062,0.297 -0.151,0.686 -0.269,1.165 -0.241,1.192 -0.716,2.836 -1.434,4.927 -0.717,2.089 -1.374,3.792 -1.971,5.108 -1.675,3.822 -3.853,7.496 -6.541,11.021 -2.688,3.523 -5.645,6.541 -8.871,9.05 -3.346,2.627 -6.93,4.898 -10.752,6.81 -3.825,1.91 -7.768,3.285 -11.828,4.122 -7.168,1.551 -14.398,1.702 -21.684,0.448 -7.289,-1.254 -13.919,-3.794 -19.891,-7.616 -3.227,-2.151 -6.245,-4.631 -9.051,-7.437 -2.808,-2.809 -5.228,-5.824 -7.258,-9.05 -1.792,-2.629 -3.346,-5.438 -4.659,-8.423 -1.315,-2.988 -2.329,-6.093 -3.046,-9.319 -0.241,-0.958 -0.39,-1.375 -0.448,-1.255 -0.062,0.119 -0.269,0.956 -0.627,2.509 -0.838,4.302 -1.165,8.72 -0.986,13.262 0.179,4.539 0.865,8.96 2.061,13.261 1.671,6.331 4.538,12.214 8.602,17.652 4.06,5.435 8.898,10.005 14.515,13.71 1.434,0.954 3.254,1.999 5.466,3.136 2.209,1.134 4.091,1.999 5.645,2.598 2.151,0.717 4.48,1.372 6.989,1.971 2.509,0.597 4.897,1.014 7.169,1.254 m -0.897,70.608 c 1.552,0.118 4.033,0.148 7.438,0.09 3.404,-0.062 5.883,-0.21 7.436,-0.448 5.853,-0.717 11.409,-1.943 16.666,-3.674 5.256,-1.733 10.215,-4.032 14.874,-6.9 8.245,-4.9 15.292,-10.993 21.147,-18.279 C 71.441,91.275 75.863,83.152 78.851,74.191 80.76,68.457 82.015,62.543 82.614,56.45 83.21,50.357 83.09,44.323 82.256,38.35 82.015,36.917 81.718,35.242 81.359,33.332 81.001,31.42 80.76,30.345 80.643,30.106 c -0.359,1.314 -0.659,2.448 -0.897,3.406 -1.792,6.809 -4.39,13.171 -7.795,19.085 -3.405,5.914 -7.616,11.438 -12.634,16.576 -4.421,4.419 -9.081,8.155 -13.978,11.201 -4.901,3.046 -10.215,5.584 -15.949,7.616 -3.826,1.314 -7.589,2.299 -11.29,2.957 -3.705,0.656 -7.706,1.045 -12.007,1.165 -5.376,0.117 -10.484,-0.241 -15.322,-1.075 -4.839,-0.837 -9.708,-2.151 -14.606,-3.943 -5.259,-2.032 -10.125,-4.542 -14.605,-7.527 -4.48,-2.987 -8.753,-6.512 -12.814,-10.573 -5.017,-5.017 -9.2,-10.514 -12.544,-16.487 -3.346,-5.975 -5.914,-12.426 -7.706,-19.354 l -0.895,-3.405 -0.359,1.792 c -0.717,2.747 -1.196,5.256 -1.433,7.527 -0.242,2.268 -0.421,4.956 -0.538,8.064 0,4.539 0.207,8.63 0.626,12.276 0.418,3.643 1.224,7.496 2.42,11.559 1.076,3.822 2.419,7.495 4.033,11.021 1.612,3.522 3.552,7.017 5.824,10.483 3.343,5.018 7.168,9.616 11.469,13.8 4.419,4.06 9.168,7.616 14.247,10.662 5.076,3.047 10.483,5.466 16.217,7.258 5.736,1.792 11.708,2.985 17.921,3.584"
       style="fill:#999;fill-opacity:1;fill-rule:nonzero;stroke:none"
       transform="matrix(0.35277776,0,0,-0.35277776,201.78151,34.269773)"
       clip-path="url(#clipPath31)" />
  </g>
</svg>
