<?xml version="1.0" encoding="UTF-8" standalone="no"?>
<!-- Created with Inkscape (http://www.inkscape.org/) -->

<svg
   width="100%"
   height="100%"
   viewBox="0 0 51.499584 64.641846"
   version="1.1"
   id="svg1"
   xmlns="http://www.w3.org/2000/svg"
   xmlns:svg="http://www.w3.org/2000/svg">
  <defs
     id="defs1">
    <clipPath
       clipPathUnits="userSpaceOnUse"
       id="clipPath29">
      <path
         d="M 0,500 H 500 V 0 H 0 Z"
         transform="translate(-257.40176,-244.30931)"
         id="path29" />
    </clipPath>
  </defs>
  <g
     id="layer1"
     transform="translate(-145.25618,-21.166667)">
    <path
       id="path28"
       d="m 0,0 c -0.837,0.238 -1.702,0.387 -2.599,0.448 -0.896,0.059 -2.122,0.09 -3.673,0.09 h -3.226 -2.15 c -3.943,-0.6 -7.916,-1.733 -11.917,-3.405 -4.005,-1.675 -8.155,-4.004 -12.456,-6.989 -0.599,-0.359 -1.375,-0.896 -2.33,-1.613 0.119,0 3.703,-1.613 10.753,-4.839 7.168,-3.225 15.202,-6.809 24.103,-10.753 8.899,-3.942 17.352,-7.705 25.358,-11.289 8.123,-3.585 13.082,-5.735 14.874,-6.452 0.359,-0.24 0.566,-0.24 0.627,0 0.059,0.239 -0.09,1.135 -0.448,2.689 -1.674,7.884 -4.032,14.574 -7.078,20.071 -3.047,5.494 -6.961,10.094 -11.738,13.799 -2.509,2.03 -5.376,3.763 -8.602,5.197 C 6.272,-1.613 3.105,-0.599 0,0 m -17.741,46.952 c -8.244,3.584 -15.354,6.659 -21.326,9.229 -5.976,2.568 -9.022,3.853 -9.14,3.853 -0.12,0.118 -0.21,0.149 -0.269,0.09 -0.061,-0.061 -0.03,-0.269 0.09,-0.627 0,-0.121 0.09,-0.479 0.269,-1.076 0.179,-0.599 0.387,-1.254 0.627,-1.971 2.627,-8.126 6.39,-14.695 11.29,-19.713 4.897,-5.017 10.811,-8.243 17.742,-9.676 1.312,-0.242 3.046,-0.421 5.196,-0.539 2.151,-0.12 3.943,-0.061 5.377,0.18 2.746,0.238 5.404,0.776 7.975,1.613 2.567,0.834 5.286,1.971 8.153,3.405 1.194,0.596 2.509,1.313 3.943,2.15 0,0.118 -2.929,1.462 -8.781,4.032 -5.855,2.568 -12.903,5.584 -21.146,9.05 m -18.101,-63.976 c -1.075,0.476 -1.853,0.775 -2.329,0.896 -0.479,0.117 -1.017,0.237 -1.613,0.358 -0.479,0 -0.868,-0.031 -1.165,-0.09 -0.299,-0.061 -0.569,-0.21 -0.806,-0.448 -0.479,-0.24 -1.106,-0.868 -1.882,-1.881 -0.778,-1.017 -1.406,-2.002 -1.882,-2.957 -1.195,-2.151 -2.091,-4.78 -2.688,-7.885 -0.599,-3.109 -0.657,-5.376 -0.179,-6.81 0.239,-1.196 0.807,-2.15 1.702,-2.867 0.897,-0.718 2.299,-1.496 4.212,-2.33 0.717,-0.358 2.778,-1.285 6.183,-2.777 3.404,-1.497 7.137,-3.199 11.2,-5.108 5.973,-2.75 12.066,-5.497 18.279,-8.244 6.331,-2.867 12.096,-5.496 17.293,-7.885 5.198,-2.391 9.527,-4.362 12.993,-5.914 3.585,-1.554 5.614,-2.45 6.093,-2.687 1.434,-0.48 2.658,-0.78 3.674,-0.897 1.013,-0.117 1.82,0.059 2.419,0.538 0.359,0.238 0.717,0.717 1.075,1.434 0.359,0.717 0.597,1.433 0.717,2.15 0.117,1.075 0.207,3.971 0.269,8.692 0.058,4.717 -0.031,7.496 -0.269,8.333 -0.241,1.313 -0.748,2.477 -1.523,3.494 -0.779,1.013 -1.764,1.882 -2.957,2.598 -0.359,0.119 -1.316,0.539 -2.868,1.255 -1.553,0.717 -3.287,1.434 -5.197,2.151 -3.225,1.433 -7.885,3.464 -13.977,6.092 -6.214,2.748 -12.545,5.525 -18.996,8.334 -6.452,2.805 -12.307,5.404 -17.563,7.795 -5.376,2.389 -8.781,3.943 -10.215,4.66 m 6.273,94.621 c -7.288,2.746 -12.427,4.659 -15.412,5.734 -2.988,1.075 -4.66,1.613 -5.018,1.613 -0.479,0 -0.985,-0.12 -1.523,-0.359 -0.538,-0.24 -0.927,-0.537 -1.165,-0.896 -0.121,-0.24 -0.179,-0.509 -0.179,-0.806 0,-0.3 0.058,-0.926 0.179,-1.882 0,-0.599 0.028,-1.464 0.089,-2.598 0.06,-1.137 0.09,-2.123 0.09,-2.957 0,-2.75 0.207,-4.749 0.627,-6.003 0.418,-1.255 1.224,-2.481 2.42,-3.674 0.476,-0.358 1.462,-0.896 2.957,-1.613 1.492,-0.717 5.583,-2.629 12.275,-5.735 8.362,-3.824 15.771,-7.109 22.222,-9.856 6.451,-2.75 12.841,-5.376 19.175,-7.885 4.301,-1.792 6.958,-2.839 7.975,-3.136 1.013,-0.3 2.12,-0.389 3.315,-0.269 0.717,0 1.282,0.028 1.702,0.09 0.418,0.058 0.925,0.268 1.524,0.627 1.313,0.596 2.657,1.702 4.032,3.315 1.372,1.613 2.598,3.553 3.674,5.824 0.835,1.91 1.343,3.316 1.523,4.212 0.179,0.896 0.028,1.761 -0.448,2.598 -0.359,0.835 -0.927,1.462 -1.702,1.882 -0.779,0.417 -2.002,0.806 -3.674,1.165 -0.837,0.238 -2.061,0.627 -3.674,1.165 -1.613,0.537 -4.094,1.461 -7.437,2.777 -5.617,2.268 -11.262,4.481 -16.935,6.631 -5.676,2.15 -14.547,5.494 -26.612,10.036 m -46.952,19.712 h 1.165 1.881 c 0.597,0 1.971,-0.031 4.121,-0.089 2.152,-0.062 4.419,-0.09 6.811,-0.09 4.776,0 7.616,-0.031 8.512,-0.089 0.896,-0.062 1.523,-0.39 1.882,-0.986 0.118,-0.241 0.207,-0.599 0.268,-1.076 0.06,-0.478 0.149,-1.016 0.27,-1.612 0,-0.838 0.027,-1.434 0.089,-1.792 0.059,-0.359 0.208,-0.658 0.448,-0.896 0.358,-0.479 0.835,-0.896 1.433,-1.255 0.597,-0.358 1.372,-0.716 2.33,-1.075 0.476,-0.12 1.344,-0.389 2.599,-0.807 1.254,-0.419 2.478,-0.868 3.674,-1.344 1.312,-0.478 3.942,-1.464 7.885,-2.956 3.942,-1.496 8.003,-3.078 12.185,-4.749 9.558,-3.584 17.233,-6.483 23.029,-8.692 5.793,-2.212 10.78,-4.153 14.963,-5.824 1.672,-0.6 3.344,-1.227 5.018,-1.882 1.672,-0.658 2.806,-1.106 3.405,-1.344 1.792,-0.717 3.316,-1.047 4.57,-0.985 1.254,0.058 2.24,0.506 2.957,1.343 0.716,0.835 1.313,2.33 1.792,4.481 0.476,2.15 0.776,4.897 0.896,8.243 0.117,1.91 0.117,4.091 0,6.541 -0.12,2.448 -0.358,5.046 -0.717,7.796 -0.478,3.343 -0.658,5.555 -0.538,6.63 0.118,1.075 0.597,1.792 1.434,2.151 0.476,0.238 1.045,0.358 1.703,0.358 0.655,0 2.477,-0.061 5.466,-0.179 2.267,-0.12 4.359,-0.179 6.271,-0.179 1.91,0 4.002,0.059 6.273,0.179 2.867,0.118 4.659,0.179 5.376,0.179 0.716,0 1.313,-0.12 1.792,-0.358 0.476,-0.12 0.806,-0.269 0.986,-0.448 0.179,-0.179 0.386,-0.389 0.627,-0.628 0.358,-0.599 0.597,-1.374 0.717,-2.329 0.118,-0.958 0.118,-2.867 0,-5.734 -0.479,-8.006 -1.254,-15.295 -2.33,-21.864 -1.196,-6.692 -2.839,-12.785 -4.928,-18.279 -2.092,-5.497 -4.69,-10.573 -7.796,-15.232 -3.107,-4.66 -6.81,-9.081 -11.11,-13.262 -1.317,-1.316 -2.182,-2.301 -2.599,-2.957 -0.42,-0.658 -0.627,-1.344 -0.627,-2.061 0,-0.717 0.238,-1.464 0.717,-2.24 0.475,-0.778 1.372,-1.943 2.688,-3.494 6.69,-6.93 12.035,-14.099 16.038,-21.505 4.002,-7.409 6.78,-15.294 8.334,-23.655 0.596,-3.109 0.986,-6.124 1.165,-9.05 0.179,-2.929 0.269,-6.9 0.269,-11.917 0,-2.75 0.027,-5.108 0.089,-7.079 0.059,-1.971 0.148,-3.914 0.269,-5.824 0.118,-1.434 0.207,-3.046 0.269,-4.839 0.059,-1.792 0.09,-3.226 0.09,-4.301 v -3.316 c 0,-0.416 -0.121,-0.805 -0.359,-1.164 -0.121,-0.238 -0.299,-0.448 -0.538,-0.627 -0.241,-0.179 -0.42,-0.328 -0.537,-0.448 -0.358,-0.238 -1.106,-0.358 -2.24,-0.358 -1.137,0 -4.452,-0.06 -9.946,-0.18 -3.226,0 -6.066,0.031 -8.513,0.09 -2.449,0.062 -3.853,0.09 -4.211,0.09 -0.6,0.12 -1.075,0.268 -1.433,0.447 -0.359,0.18 -1.076,0.69 -2.151,1.524 -2.63,1.912 -5.466,3.825 -8.513,5.734 -3.045,1.913 -6.302,3.764 -9.766,5.556 -3.704,2.03 -7.706,4.001 -12.007,5.914 -4.301,1.909 -10.752,4.659 -19.355,8.243 -7.167,2.985 -12.813,5.404 -16.934,7.258 -4.122,1.851 -7.916,3.673 -11.38,5.465 -1.554,0.835 -2.719,1.345 -3.494,1.524 -0.778,0.18 -1.465,0.207 -2.062,0.09 -0.716,-0.241 -1.315,-0.658 -1.792,-1.255 -0.478,-0.599 -0.837,-1.375 -1.075,-2.329 -0.24,-1.434 -0.478,-6.004 -0.717,-13.71 -0.24,-7.706 -0.299,-13.054 -0.178,-16.039 0.237,-3.105 0.178,-5.225 -0.18,-6.362 -0.358,-1.133 -1.195,-1.881 -2.509,-2.24 -0.478,-0.117 -3.525,-0.117 -9.139,0 -5.618,0.12 -8.843,0.241 -9.677,0.359 -1.434,0.241 -2.482,0.509 -3.137,0.806 -0.657,0.3 -1.285,0.689 -1.881,1.165 -0.717,0.717 -1.226,1.881 -1.523,3.494 -0.3,1.614 -0.39,3.853 -0.269,6.721 0,1.075 0.028,2.239 0.089,3.494 0.059,1.255 0.09,2.24 0.09,2.957 0.117,0.717 0.207,1.792 0.268,3.226 0.06,1.433 0.149,2.747 0.27,3.942 0.358,9.795 1.582,19.145 3.673,28.046 2.089,8.899 4.867,16.815 8.334,23.745 1.792,3.464 3.673,6.479 5.644,9.05 1.972,2.567 4.508,5.225 7.617,7.975 0.955,0.834 1.64,1.582 2.06,2.24 0.418,0.655 0.628,1.403 0.628,2.24 0,0.716 -0.21,1.434 -0.628,2.151 -0.42,0.716 -1.225,1.73 -2.419,3.046 -2.867,3.105 -5.376,6.241 -7.526,9.408 -2.151,3.164 -4.122,6.48 -5.914,9.946 -2.867,5.973 -5.259,12.573 -7.168,19.803 -1.913,7.227 -3.526,16.097 -4.839,26.611 -0.358,3.106 -0.568,5.167 -0.627,6.183 -0.062,1.014 0.027,1.94 0.269,2.778 0.238,1.075 0.626,1.91 1.165,2.509 0.537,0.596 1.343,1.013 2.419,1.254"
       style="fill:#999;fill-opacity:1;fill-rule:nonzero;stroke:none"
       transform="matrix(0.35277776,0,0,-0.35277776,173.61707,55.495118)"
       clip-path="url(#clipPath29)" />
  </g>
</svg>
