<?xml version="1.0" encoding="UTF-8" standalone="no"?>
<!-- Created with Inkscape (http://www.inkscape.org/) -->

<svg
   width="100%"
   height="100%"
   viewBox="0 0 61.436348 64.674042"
   version="1.1"
   id="svg1"
   xmlns="http://www.w3.org/2000/svg"
   xmlns:svg="http://www.w3.org/2000/svg">
  <defs
     id="defs1">
    <clipPath
       clipPathUnits="userSpaceOnUse"
       id="clipPath77">
      <path
         d="M 0,500 H 500 V 0 H 0 Z"
         transform="translate(-230.94101,-341.48541)"
         id="path77" />
    </clipPath>
  </defs>
  <g
     id="layer1"
     transform="translate(-90.487337,-11.641668)">
    <path
       id="path76"
       d="m 0,0 c 0.717,0.117 1.313,0.179 1.792,0.179 0.476,0 0.834,-0.179 1.075,-0.537 0.238,-0.359 0.448,-1.137 0.627,-2.33 0.18,-1.196 0.328,-3.109 0.448,-5.735 0.239,-5.017 0.059,-9.26 -0.538,-12.723 -0.598,-3.467 -1.674,-6.573 -3.225,-9.32 -0.599,-1.195 -0.927,-1.971 -0.986,-2.329 -0.061,-0.358 0.09,-0.778 0.449,-1.255 0.475,-0.358 1.462,-1.075 2.957,-2.15 1.492,-1.075 2.657,-1.854 3.494,-2.329 1.313,-0.6 3.015,-1.255 5.107,-1.972 2.089,-0.717 3.494,-1.075 4.211,-1.075 0.477,0 1.165,0.387 2.062,1.165 0.895,0.775 2.357,2.179 4.39,4.211 4.539,4.777 7.585,8.781 9.14,12.007 1.551,3.225 2.687,7.885 3.404,13.978 0.477,3.943 0.835,6.331 1.075,7.168 0.239,0.835 0.656,1.372 1.255,1.613 0.239,0.238 0.507,0.328 0.807,0.269 0.297,-0.062 0.865,-0.21 1.702,-0.448 1.192,-0.241 2.089,-0.537 2.689,-0.896 0.595,-0.358 1.075,-0.779 1.433,-1.255 0.117,-0.358 0.207,-0.778 0.269,-1.255 0.058,-0.478 0.028,-1.553 -0.09,-3.225 -0.12,-2.867 -0.448,-5.913 -0.985,-9.14 -0.539,-3.225 -1.286,-6.093 -2.241,-8.601 -0.837,-2.629 -1.912,-4.959 -3.225,-6.99 -1.317,-2.032 -3.526,-4.779 -6.631,-8.243 -4.779,-5.497 -8.036,-10.097 -9.767,-13.799 -1.733,-3.705 -3.018,-8.664 -3.852,-14.874 -0.48,-3.705 -0.748,-6.513 -0.807,-8.422 -0.061,-1.913 0.09,-2.868 0.448,-2.868 l 1.254,1.254 c 3.226,4.181 6.241,7.496 9.05,9.947 2.806,2.447 6.121,4.628 9.946,6.541 2.747,1.433 5.525,2.626 8.333,3.584 2.806,0.955 6.541,2.03 11.201,3.225 1.671,0.359 3.225,0.717 4.659,1.075 1.433,0.359 2.268,0.597 2.509,0.717 0.834,0.238 1.493,0.538 1.971,0.897 0.477,0.358 0.717,0.716 0.717,1.075 0,0.117 -0.09,0.538 -0.269,1.255 -0.179,0.716 -0.509,1.492 -0.985,2.329 -1.075,2.627 -1.823,4.719 -2.24,6.272 -0.42,1.551 -0.69,3.164 -0.807,4.839 -0.12,1.551 -0.151,3.374 -0.09,5.466 0.059,2.089 0.149,3.673 0.269,4.749 0.238,0.954 0.507,1.909 0.807,2.867 0.296,0.954 0.686,1.909 1.165,2.867 0.475,0.955 1.133,2.061 1.971,3.316 0.834,1.254 1.551,2.119 2.151,2.598 0.358,0.359 0.595,0.566 0.716,0.627 0.118,0.059 0.359,0.028 0.717,-0.09 0.238,-0.12 0.476,-0.268 0.717,-0.448 0.238,-0.178 0.476,-0.388 0.717,-0.627 0.358,-0.241 0.565,-0.448 0.627,-0.627 0.058,-0.179 0.028,-0.389 -0.09,-0.628 0,-0.24 -0.12,-0.657 -0.358,-1.253 -0.241,-0.6 -0.538,-1.196 -0.896,-1.792 -0.838,-1.555 -1.434,-2.84 -1.792,-3.854 -0.358,-1.016 -0.6,-2.239 -0.717,-3.674 -0.241,-1.674 -0.269,-3.584 -0.09,-5.734 0.179,-2.151 0.449,-3.824 0.807,-5.018 0.358,-1.316 1.192,-3.315 2.509,-6.003 1.313,-2.688 2.388,-4.452 3.225,-5.287 l 0.538,-0.537 1.254,0.537 c 1.314,0.597 2.957,1.672 4.928,3.226 1.972,1.552 4.092,3.405 6.362,5.555 1.792,1.792 2.926,2.806 3.406,3.047 0.475,0.238 1.013,0.117 1.612,-0.358 0.717,-0.48 1.613,-1.703 2.688,-3.674 1.076,-1.972 1.613,-3.257 1.613,-3.853 0,-0.479 -0.299,-1.137 -0.896,-1.971 -0.599,-0.838 -1.554,-1.913 -2.867,-3.226 -2.033,-2.033 -4.152,-3.853 -6.362,-5.466 -2.212,-1.613 -4.452,-3.018 -6.72,-4.211 -1.792,-0.837 -3.884,-1.644 -6.272,-2.419 -2.392,-0.779 -6.214,-1.882 -11.47,-3.316 -4.541,-1.195 -7.975,-2.15 -10.304,-2.867 -2.33,-0.717 -3.435,-1.137 -3.315,-1.255 1.433,0.118 2.626,0.238 3.584,0.358 1.433,0.119 2.567,0.18 3.405,0.18 0.834,0 2.029,-0.061 3.584,-0.18 2.03,-0.12 3.971,-0.299 5.824,-0.537 1.851,-0.241 4.27,-0.658 7.258,-1.255 6.211,-1.195 10.812,-1.612 13.799,-1.253 2.985,0.358 7.106,1.792 12.365,4.3 1.909,0.834 3.374,1.462 4.391,1.882 1.013,0.417 1.702,0.627 2.06,0.627 0.359,0 0.717,-0.51 1.075,-1.523 0.359,-1.017 0.477,-1.944 0.359,-2.778 0,-0.358 -0.12,-0.658 -0.359,-0.896 -0.24,-0.24 -0.836,-0.658 -1.792,-1.254 -1.315,-0.838 -3.287,-1.913 -5.914,-3.227 -2.629,-1.315 -4.541,-2.15 -5.734,-2.508 -2.987,-1.076 -6.064,-1.644 -9.228,-1.703 -3.167,-0.061 -7.141,0.269 -11.918,0.986 -2.868,0.476 -5.376,0.776 -7.527,0.896 -2.15,0.118 -4.48,0.179 -6.989,0.179 -1.912,-0.12 -3.226,-0.21 -3.942,-0.269 -0.717,-0.061 -1.496,-0.209 -2.331,-0.448 -2.628,-0.717 -4.72,-1.553 -6.271,-2.509 -1.555,-0.957 -3.288,-2.329 -5.197,-4.121 -1.434,-1.554 -2.66,-3.018 -3.674,-4.39 -1.017,-1.375 -2.002,-3.019 -2.957,-4.929 -1.075,-2.27 -2.212,-4.928 -3.404,-7.975 -1.197,-3.046 -2.092,-5.644 -2.689,-7.795 -0.958,-3.466 -1.585,-8.305 -1.882,-14.516 -0.3,-6.213 -0.33,-15.652 -0.09,-28.315 0.119,-11.948 0.149,-19.264 0.09,-21.952 -0.061,-2.688 -0.21,-4.27 -0.448,-4.749 -0.12,-0.358 -0.299,-0.655 -0.537,-0.896 -0.241,-0.238 -0.538,-0.417 -0.897,-0.537 l -1.075,-0.538 h -6.272 c -4.421,0 -7.705,0.151 -9.856,0.448 -2.151,0.3 -3.585,0.806 -4.301,1.523 -0.121,0.241 -0.21,1.585 -0.269,4.032 -0.062,2.45 -0.09,9.587 -0.09,21.416 0,16.007 -0.15,25.922 -0.447,29.748 -0.3,3.822 -1.048,7.585 -2.24,11.29 -1.197,3.584 -2.661,6.599 -4.391,9.049 -1.733,2.448 -4.032,4.808 -6.899,7.08 -2.034,1.67 -4.243,3.194 -6.631,4.569 -2.392,1.372 -6.631,3.674 -12.724,6.899 -5.617,2.867 -9.559,4.988 -11.828,6.363 -2.271,1.372 -4.541,3.015 -6.81,4.927 -2.508,2.151 -4.69,4.271 -6.541,6.363 -1.853,2.088 -3.494,4.389 -4.927,6.899 -0.48,0.717 -1.017,1.612 -1.614,2.688 -0.598,1.075 -1.195,1.971 -1.792,2.688 -1.075,1.672 -1.643,2.806 -1.702,3.404 -0.061,0.597 0.269,1.614 0.986,3.047 0.596,1.194 1.103,2.03 1.523,2.509 0.417,0.477 0.807,0.717 1.165,0.717 0.834,0 1.94,-0.717 3.315,-2.151 1.373,-1.433 2.957,-3.584 4.749,-6.451 0.717,-1.075 1.344,-2.002 1.881,-2.778 0.538,-0.778 0.866,-1.226 0.987,-1.344 0.595,-0.358 1.492,-0.03 2.687,0.985 1.194,1.014 2.389,2.479 3.584,4.391 0.955,1.552 1.582,3.164 1.882,4.839 0.297,1.672 0.328,3.643 0.09,5.914 -0.241,2.389 -0.658,4.659 -1.255,6.81 -0.599,2.15 -1.495,4.539 -2.688,7.168 l -1.254,2.868 0.358,0.717 c 0.358,0.475 0.835,0.954 1.434,1.433 0.596,0.476 1.013,0.717 1.254,0.717 0.834,0 2.209,-2.002 4.123,-6.004 1.909,-4.004 3.164,-7.558 3.762,-10.663 0.477,-2.15 0.717,-4.452 0.717,-6.899 0,-2.45 -0.24,-4.511 -0.717,-6.183 -0.358,-1.554 -1.075,-3.226 -2.15,-5.018 -1.075,-1.792 -2.392,-3.525 -3.943,-5.196 l -1.792,-2.151 1.613,-1.434 c 1.793,-1.674 4.122,-3.315 6.989,-4.928 2.867,-1.613 7.406,-3.794 13.62,-6.541 4.301,-2.033 7.943,-3.883 10.932,-5.555 2.984,-1.675 5.673,-3.467 8.064,-5.376 1.313,-1.076 2.926,-2.571 4.838,-4.481 1.91,-1.912 3.164,-3.345 3.764,-4.301 0.358,-0.358 0.655,-0.716 0.895,-1.075 0.239,-0.358 0.418,-0.538 0.538,-0.538 0.118,0 0.207,1.283 0.269,3.854 0.059,2.567 0.09,5.107 0.09,7.616 v 3.584 c 0,0.597 -0.062,0.955 -0.179,1.075 -0.121,0.118 -0.569,0.297 -1.345,0.538 -0.778,0.237 -1.643,0.476 -2.598,0.717 -1.912,0.596 -3.943,1.312 -6.093,2.15 -2.15,0.834 -4.063,1.672 -5.734,2.509 -3.943,2.03 -7.617,4.866 -11.022,8.513 -3.404,3.642 -6.183,7.853 -8.333,12.634 -1.195,2.508 -1.943,4.897 -2.24,7.168 -0.3,2.268 -0.569,6.927 -0.807,13.978 -0.24,6.21 -0.447,10.394 -0.627,12.544 -0.178,2.15 -0.568,4.36 -1.165,6.631 -0.24,0.955 -0.358,1.551 -0.358,1.792 0,0.238 0.118,0.476 0.358,0.717 0.238,0.238 0.777,0.596 1.613,1.075 0.834,0.476 1.373,0.717 1.613,0.717 0.596,0 1.255,-1.375 1.971,-4.122 0.717,-2.749 1.255,-5.796 1.614,-9.139 0.117,-0.958 0.237,-2.361 0.358,-4.212 0.117,-1.853 0.237,-3.556 0.359,-5.107 0.358,-6.452 0.716,-10.752 1.075,-12.903 0.358,-2.15 1.075,-4.363 2.15,-6.631 1.314,-2.75 3.074,-5.465 5.286,-8.154 2.21,-2.687 4.449,-4.749 6.721,-6.183 2.15,-1.433 4.776,-2.808 7.885,-4.121 3.105,-1.316 5.794,-2.15 8.064,-2.508 1.075,-0.121 1.731,0.058 1.972,0.537 0.237,0.475 0.596,2.447 1.075,5.914 0.476,3.225 1.044,6.121 1.702,8.691 0.655,2.568 1.403,4.928 2.24,7.078 0.834,1.793 1.314,2.957 1.434,3.495 0.117,0.538 0.059,0.924 -0.18,1.165 0,0.118 -0.24,0.297 -0.716,0.538 -0.479,0.238 -0.957,0.476 -1.434,0.716 -1.674,0.717 -3.404,1.552 -5.196,2.509 -1.793,0.955 -3.227,1.852 -4.302,2.689 -1.316,0.834 -3.167,2.447 -5.555,4.838 -2.391,2.388 -4.122,4.301 -5.197,5.735 -2.509,3.464 -4.511,7.048 -6.004,10.752 -1.495,3.702 -2.48,7.527 -2.956,11.47 -0.121,1.433 -0.09,2.419 0.089,2.957 0.18,0.537 0.686,1.044 1.523,1.522 0.835,0.358 1.582,0.628 2.241,0.807 0.655,0.179 1.103,0.148 1.343,-0.09 0.239,-1.075 0.359,-2.091 0.359,-3.046 0.118,-2.033 0.448,-4.064 0.986,-6.093 0.537,-2.033 1.344,-4.122 2.419,-6.272 0.597,-1.196 1.372,-2.54 2.329,-4.033 0.955,-1.495 1.552,-2.36 1.793,-2.598 0.237,-0.241 0.537,-0.179 0.896,0.18 0.358,0.358 0.775,0.954 1.254,1.792 1.193,2.029 2.061,4.479 2.599,7.346 0.537,2.868 0.865,6.69 0.985,11.47 0,1.551 0.028,2.806 0.09,3.764 0.059,0.954 0.149,1.492 0.269,1.612 0.117,0.118 0.268,0.207 0.448,0.268 C -0.448,-0.21 -0.241,-0.121 0,0"
       style="fill:#999;fill-opacity:1;fill-rule:nonzero;stroke:none"
       transform="matrix(0.35277776,0,0,-0.35277776,114.48192,11.704815)"
       clip-path="url(#clipPath77)" />
  </g>
</svg>
