<?xml version="1.0" encoding="UTF-8" standalone="no"?>
<!-- Created with Inkscape (http://www.inkscape.org/) -->

<svg
   width="100%"
   height="100%"
   viewBox="0 0 130.54541 139.6116"
   version="1.1"
   id="svg1"
   xml:space="preserve"
   xmlns="http://www.w3.org/2000/svg"
   xmlns:svg="http://www.w3.org/2000/svg"><defs
     id="defs1" /><g
     id="layer1"
     transform="translate(-34.100095,-103.03328)"><path
       id="path984"
       style="fill:#999;fill-opacity:1;stroke:none;stroke-width:0.264583"
       d="m 119.79863,132.04263 c -1.4552,0 -4.78895,0.84667 -9.02229,5.08 -3.0427,3.04271 -8.25499,8.255 -12.329579,12.32958 -1.481666,1.21709 -2.566458,2.8575 -6.6675,6.85271 -3.81,3.70417 -7.567083,7.24959 -9.022291,8.75771 -1.455208,1.50813 -3.704167,6.13833 -4.365625,7.27604 -0.635,1.13771 -0.582083,1.00542 0.3175,0.44979 0.899583,-0.55562 1.322917,-0.44979 2.513542,-0.87312 1.217083,-0.44979 5.265208,-3.4925 6.720416,-4.60375 1.455208,-1.08479 0.740833,0.635 0.740833,1.37583 0,0.74084 -0.185208,1.16417 -0.978958,1.61396 -0.79375,0.44979 -4.497917,2.8575 -5.503333,2.8575 -1.005417,0 -4.259792,0.58208 -5.635625,2.48708 -1.375833,1.905 -0.47625,1.27 0.05292,0.71438 0.555625,-0.55563 1.666875,-1.24354 1.666875,-1.24354 2.06375,-1.08479 6.482291,-0.50271 8.837083,-1.61396 2.328333,-1.08479 25.611662,-15.92792 26.881662,-16.69521 1.29646,-0.76729 1.45521,-1.11125 1.61396,1.13771 0.15875,2.27542 -3.14854,10.4775 -8.01687,13.0175 -4.89479,2.56646 -12.012086,6.05896 -15.769169,7.99042 -3.757083,1.93145 -4.074583,1.64041 -8.5725,1.32291 -4.497916,-0.3175 -6.614583,0.15875 -9.154583,1.56104 -2.566458,1.42875 -4.233333,4.07459 -4.233333,4.07459 -1.508125,2.56646 1.296458,0.58208 2.143125,-0.26459 0.846666,-0.84666 4.683125,-2.75166 7.831666,-2.75166 3.148542,0 5.55625,0.71437 7.646458,0.71437 2.090209,0 9.498542,-3.86291 14.604996,-6.05896 5.10646,-2.19604 10.00125,-5.79437 11.98563,-7.8052 1.98437,-1.98438 4.18041,-7.62 4.18041,-10.53042 0,-1.50813 -0.0529,-5.97958 -0.0794,-10.68917 0,-5.68854 0,-10.95375 0,-12.11791 0,-1.87855 0.87312,-2.64584 1.69333,-3.09563 0.74083,-0.37042 1.37583,-1.27 -0.0794,-1.27 z m 13.83771,-18.7325 a 3.6777083,3.6777083 0 0 1 -3.67771,3.67771 3.6777083,3.6777083 0 0 1 -3.67771,-3.67771 3.6777083,3.6777083 0 0 1 3.67771,-3.67771 3.6777083,3.6777083 0 0 1 3.67771,3.67771 z m 26.14084,31.72354 c 1.82562,0 2.11666,0.84667 2.80458,1.53459 0.71437,0.71437 2.06375,3.78354 2.06375,10.0277 0,6.24417 -2.72521,15.13417 -4.52438,17.64771 -1.79916,2.51354 -5.66208,5.66209 -6.50875,6.50875 -0.84666,0.84667 -1.53458,0.66146 -0.8202,-1.29646 0,0 3.14854,-6.50875 4.7625,-11.58875 1.61395,-5.05354 1.79916,-10.18645 1.79916,-13.89062 0,-3.70417 -0.15875,-7.01146 -0.79375,-8.09625 -0.60854,-1.05833 1.21709,-0.84667 1.21709,-0.84667 z m -49.05375,15.50459 c 2.61937,-1.56105 3.25437,-2.06375 3.12208,-1.66688 -0.13229,0.42333 -2.64583,7.09083 -6.95854,9.65729 -4.31271,2.56646 -16.483542,9.12813 -18.362084,9.81604 -1.878541,0.68792 -5.265208,-0.47625 -7.223124,-0.29104 -1.957917,0.18521 -2.54,0.26459 -3.439584,0.52917 -0.899583,0.26458 -4.445,1.98437 -4.445,1.69333 0,-0.29104 3.942292,-4.28625 6.085417,-4.28625 2.143125,0 3.4925,0.58209 4.683125,0.34396 1.190625,-0.23812 1.640416,-0.13229 3.413125,-1.13771 1.772708,-1.00541 23.124585,-14.65791 23.124585,-14.65791 z m -63.261876,62.70625 c 0,0 26.855208,-23.15105 28.178124,-24.20938 1.322917,-1.03187 1.402292,-1.03187 2.143125,-3.01625 0.740834,-1.95792 1.772709,-7.59354 2.037292,-8.51958 0.238125,-0.92604 0.07937,-0.84667 -0.767292,-0.71438 -0.846666,0.13229 -3.889375,0.55563 -5.820833,2.11667 -1.931458,1.56104 -33.655,27.54312 -35.136666,28.78667 -1.481667,1.24354 -1.296459,0.79375 -2.090209,0.79375 -0.79375,0 -0.9525,-0.68792 -0.687916,-1.32292 0.291041,-0.635 34.422291,-28.65438 35.877499,-29.76563 1.455209,-1.11125 5.847292,-3.33375 8.546042,-3.33375 2.69875,0 3.01625,0.39688 3.01625,1.11125 0,0.71438 -1.11125,7.67292 -1.772708,10.4775 -0.635,2.80459 -0.79375,2.80459 -1.931459,3.78355 -1.11125,0.9525 -29.183541,24.79145 -30.427083,25.79687 -1.243541,1.00542 -2.725208,1.11125 -3.413125,1.11125 -0.687916,0 -1.42875,-0.10583 -0.529166,-1.00542 0.926041,-0.87312 2.778125,-2.0902 2.778125,-2.0902 z m 30.003749,-32.0675 c 0,0 -1.164166,4.1275 -1.640416,5.37104 -0.47625,1.24354 -2.804584,2.88396 -2.804584,2.88396 0,0 -28.416249,24.02416 -29.633333,25.24125 -1.217083,1.21708 -4.868333,3.51895 -6.6675,3.51895 -1.799166,0 -2.619375,-0.84666 -2.619375,-2.61937 0,-1.77271 0.396875,-2.8575 3.201459,-5.66208 2.804583,-2.80459 32.384999,-26.69646 34.633958,-28.41625 2.248958,-1.7198 3.042708,-2.11667 4.683125,-2.11667 1.666875,0.0265 1.164166,0.635 0.846666,1.79917 z m 19.949583,-71.91375 h 19.050004 v 0 c 0.58208,0.0265 2.46062,0.0794 5.15937,1.34937 1.93146,1.905 3.96875,4.04813 5.45042,5.55625 2.7252,2.80458 8.22854,9.10167 12.32958,11.27125 4.10104,2.16958 14.04937,4.89479 14.9225,4.89479 0.87312,0 1.32292,-0.79375 0.55562,-2.03729 -0.76729,-1.24354 -2.77812,-4.445 -3.41312,-6.45583 -0.635,-2.01084 -1.77271,-6.27063 -2.61938,-10.08063 -0.84666,-3.81 -3.30729,-11.90625 -8.22854,-16.8275 -4.92125,-4.92125 -13.73187,-4.73604 -19.18229,-1.93146 0,0 -3.51896,4.33917 -7.09083,4.49792 -3.57188,0.15875 -17.409584,1.32292 -17.409584,1.32292 0,0 16.430624,3.91583 19.923124,5.66208 -6.48288,0.74485 -12.97445,1.8365 -19.446874,2.77813 z m 32.543744,-10.87438 c 2.72521,0 4.94771,2.2225 4.94771,4.94771 0,2.72521 -2.2225,4.94771 -4.94771,4.94771 -2.7252,0 -4.9477,-2.2225 -4.9477,-4.94771 0,-2.75167 2.2225,-4.94771 4.9477,-4.94771 z m -11.16536,13.17631 c 1.90499,2.69875 3.88906,6.85281 4.44469,7.77885 0.79374,1.37583 0.84697,2.59261 0.84697,2.59261 0,0 -0.9524,-0.23782 -2.27531,1.11156 -1.34938,1.34937 -1.29656,3.57188 -1.29656,4.49792 0,0.92605 0.0264,16.19219 0.0264,20.71656 0,4.52437 -1.21708,8.2549 -1.98437,10.08052 -0.79375,1.82563 -2.24896,3.49281 -2.24896,3.49281 -4.20688,3.78355 -17.620945,9.86886 -20.848858,11.13886 -3.227913,1.27 -5.159686,2.38114 -6.932393,2.53989 -1.772706,0.15875 -4.127295,-0.0791 -4.81521,3.22823 -0.687916,3.30729 -0.714272,3.91552 -0.952397,6.56136 -0.211666,2.35479 3.783339,6.77354 7.19646,7.7525 0,0 2.302086,0.84655 6.032707,1.61385 -0.582082,2.2225 0.37021,4.65667 0.978752,5.29167 0.44979,0.44979 1.137915,1.42895 2.063956,1.53479 l 7.854303,24.47396 h -0.0227 c 0.0205,0.0282 0.0297,0.0479 0.046,0.0729 l 0.11266,0.35037 0.0785,0.15399 c 4.7e-4,0.002 5.4e-4,0.003 0.001,0.005 0.89958,2.38125 0.26458,2.43396 0.26458,2.43396 0,0 -3.20157,1.08499 -4.07468,1.53479 -0.87313,0.44979 -0.15865,1.61386 -0.15865,1.61386 0,0 1.11115,-0.71407 3.20135,-0.74053 2.0902,-0.0529 2.19585,-0.79375 4.02146,-0.79375 1.82563,0 3.5721,0.92574 5.50354,1.53428 1.905,0.60855 5.74136,-0.15865 6.50865,-0.15865 0.76729,0 1.95802,1.32292 1.42885,0 -0.50271,-1.32291 -1.79947,-0.9524 -4.68343,-0.9524 -2.8575,0 -6.24407,-1.77301 -7.96386,-1.90531 -0.36906,-0.0264 -1.63066,-0.44783 -2.68665,-3.12022 l -7.79074,-25.21655 c 1.79917,-1.79917 2.09,-2.30187 3.49229,-3.70416 0.29104,-0.29104 0.55574,-0.71406 0.7674,-1.26969 0.7673,0.0265 1.56105,0.0527 2.38125,0.0527 0.21167,0.10583 0.44969,0.185 0.68781,0.185 0.23813,0 1.98468,0.1327 4.94802,-0.37001 -0.26459,0.47625 -0.50291,0.9524 -0.74104,1.34928 -1.27,2.16957 -0.34375,3.41291 0.34416,4.15375 0.68792,0.74083 2.14303,1.93166 3.20136,3.25458 1.08479,1.32292 12.14437,19.39366 13.75833,22.30406 1.61396,2.91042 0.50281,2.32854 0.50281,2.32854 0,0 -3.20157,1.08501 -4.07468,1.53479 -0.87313,0.44979 -0.15865,1.61386 -0.15865,1.61386 0,0 1.11115,-0.71459 3.20135,-0.74104 2.0902,-0.0529 2.19585,-0.79375 4.02146,-0.79375 1.82563,0 3.57209,0.92625 5.50354,1.53479 1.905,0.60854 5.74135,-0.15865 6.50865,-0.15865 0.76729,0 1.95801,1.32292 1.42885,0 -0.52917,-1.40229 -1.82542,-1.03198 -4.68291,-1.03198 -2.8575,0 -6.24459,-1.77301 -7.96438,-1.90531 -1.71978,-0.13229 -16.61552,-26.2201 -16.61552,-26.2201 -0.79375,-1.29646 -0.74073,-2.09001 -0.42323,-2.83084 0.26458,-0.55562 1.21667,-3.09552 1.9575,-5.97948 4.89479,-1.66686 11.27157,-4.76271 18.70636,-10.53062 17.1979,-13.33499 19.65823,-31.32668 19.65823,-44.31771 0,-2.03729 -0.37042,-4.60385 -1.85209,-4.60385 -1.48165,0 -14.20792,-2.11678 -23.07146,-10.55698 -1.79916,-1.71979 -3.67781,-4.02125 -5.3976,-6.32313 0,0 1.5e-4,-0.0269 -0.0263,-0.0269 -3.88938,-4.78895 -6.37647,-5.87344 -7.9375,-6.16448 z" /></g></svg>
