<?xml version="1.0" encoding="UTF-8" standalone="no"?>
<!-- Created with Inkscape (http://www.inkscape.org/) -->

<svg
   width="100%"
   height="100%"
   viewBox="0 0 64.737541 64.74234"
   version="1.1"
   id="svg1"
   xmlns="http://www.w3.org/2000/svg"
   xmlns:svg="http://www.w3.org/2000/svg">
  <defs
     id="defs1">
    <clipPath
       clipPathUnits="userSpaceOnUse"
       id="clipPath27">
      <path
         d="M 0,500 H 500 V 0 H 0 Z"
         transform="translate(-261.29026,-172.0527)"
         id="path27" />
    </clipPath>
  </defs>
  <g
     id="layer1"
     transform="translate(-92.074961,-14.816667)">
    <path
       id="path26"
       d="m 0,0 h -22.58 -22.76 c 0,-0.121 1.104,-0.6 3.316,-1.434 2.21,-0.837 3.97,-1.493 5.287,-1.971 3.225,-0.955 6.599,-1.762 10.125,-2.419 3.522,-0.655 7.078,-1.165 10.663,-1.524 1.551,-0.118 2.805,-0.118 3.762,0 0.956,0.12 1.792,0.359 2.509,0.717 1.91,1.195 4.002,2.57 6.273,4.121 C -1.137,-0.958 0,-0.121 0,0 m -12.903,162.182 c -1.076,0.476 -1.792,0.775 -2.151,0.896 -0.358,0.117 -0.895,0.179 -1.612,0.179 -0.48,0 -0.927,-0.031 -1.345,-0.09 -0.42,-0.062 -0.747,-0.089 -0.985,-0.089 -4.659,-0.599 -8.812,-1.345 -12.455,-2.241 -3.646,-0.896 -7.378,-2.122 -11.2,-3.673 -1.434,-0.479 -3.377,-1.316 -5.825,-2.509 -2.45,-1.196 -3.673,-1.854 -3.673,-1.971 10.631,-0.121 19.651,-0.18 27.06,-0.18 11.945,0 19.443,0.028 22.49,0.09 3.047,0.059 4.508,0.148 4.391,0.269 -0.241,0.238 -1.047,0.865 -2.419,1.882 -1.375,1.013 -2.54,1.881 -3.495,2.598 -1.554,0.955 -3.108,1.882 -4.659,2.778 -1.554,0.896 -2.929,1.582 -4.122,2.061 M 25.447,32.974 c 0,0.117 -2.63,0.207 -7.885,0.268 -5.258,0.059 -20.788,0.09 -46.593,0.09 H -50.357 -67.65 c -4.959,0 -8.871,-0.061 -11.739,-0.18 h -4.3 c 3.463,-4.779 6.151,-8.363 8.064,-10.752 0.717,-0.958 1.344,-1.733 1.881,-2.33 0.538,-0.598 0.865,-0.957 0.986,-1.075 0.237,0 4.121,-0.03 11.649,-0.089 7.526,-0.061 18.696,-0.09 33.511,-0.09 l 44.622,-0.179 0.538,0.538 c 0.238,0.117 1.551,2.299 3.943,6.541 2.389,4.239 3.701,6.658 3.942,7.258 m -6.809,100.893 h -46.952 c -18.28,0 -30.707,-0.031 -37.276,-0.09 -6.571,-0.061 -9.976,-0.151 -10.215,-0.269 -0.12,0 -0.33,-0.179 -0.627,-0.537 -0.299,-0.359 -0.627,-0.779 -0.985,-1.255 -1.075,-1.553 -2.75,-4.004 -5.019,-7.347 -2.27,-3.346 -3.404,-5.079 -3.404,-5.197 h 4.121 c 2.747,0 6.631,-0.031 11.649,-0.089 5.018,-0.062 10.931,-0.09 17.742,-0.09 h 22.58 21.684 c 6.809,0 12.751,0.028 17.831,0.09 5.076,0.058 9.108,0.089 12.096,0.089 h 4.48 c 0,0.118 -1.164,2.389 -3.494,6.81 -2.33,4.418 -3.616,6.869 -3.853,7.347 z M 34.229,66.844 h -4.123 c -2.75,0.117 -6.809,0.179 -12.185,0.179 H -2.33 -30.823 c -28.914,0 -46.984,-0.031 -54.21,-0.09 -7.231,-0.061 -10.843,-0.151 -10.843,-0.268 0.597,-2.868 1.075,-5.259 1.434,-7.169 0.716,-2.749 1.193,-4.6 1.433,-5.555 0.238,-0.958 0.477,-1.496 0.717,-1.613 0.118,-0.121 3.195,-0.211 9.229,-0.269 6.032,-0.061 23.684,-0.089 52.957,-0.089 H 31.72 l 0.178,0.537 c 0.119,0.717 0.539,3.226 1.255,7.527 0.717,4.301 1.076,6.569 1.076,6.81 m -2.151,33.332 -19.713,0.179 h -43.01 -43.009 c -13.144,-0.12 -19.775,-0.241 -19.892,-0.358 -0.12,0 -0.268,-0.479 -0.448,-1.434 -0.179,-0.958 -0.569,-2.808 -1.165,-5.555 -0.24,-1.913 -0.657,-4.242 -1.254,-6.989 0,-0.121 4.391,-0.21 13.172,-0.269 8.78,-0.062 26.191,-0.09 52.238,-0.09 h 65.41 l -0.178,0.538 c 0,0.117 -0.09,0.865 -0.27,2.24 -0.179,1.372 -0.447,2.957 -0.806,4.749 -0.241,1.792 -0.448,3.374 -0.628,4.749 -0.178,1.372 -0.33,2.12 -0.447,2.24 m -49.819,69.353 c 1.433,0.117 3.762,0.179 6.988,0.179 3.227,0 5.494,-0.062 6.811,-0.179 5.493,-0.359 10.87,-1.255 16.128,-2.688 5.255,-1.316 10.333,-3.136 15.232,-5.466 4.897,-2.33 9.616,-5.107 14.158,-8.333 4.538,-3.226 8.78,-6.872 12.724,-10.932 3.701,-3.824 7.106,-7.946 10.215,-12.365 2.984,-4.421 5.583,-9.08 7.795,-13.978 2.209,-4.9 3.97,-9.918 5.287,-15.053 1.312,-5.259 2.209,-10.573 2.687,-15.95 0.118,-1.674 0.18,-4.032 0.18,-7.078 0,-3.047 -0.062,-5.349 -0.18,-6.9 C 79.447,61.227 77.207,52.117 73.564,43.457 69.918,34.794 64.932,26.581 58.601,18.816 57.404,17.383 55.523,15.411 52.955,12.902 50.385,10.394 48.324,8.481 46.772,7.168 40.797,2.268 34.436,-1.792 27.687,-5.019 20.937,-8.244 13.857,-10.573 6.451,-12.007 0,-13.32 -6.603,-13.917 -13.351,-13.799 c -6.752,0.12 -13.233,0.957 -19.444,2.509 -6.692,1.674 -13.082,4.062 -19.175,7.168 -6.093,3.105 -11.769,6.779 -17.025,11.021 -5.258,4.24 -10.035,9.05 -14.336,14.426 -4.184,5.256 -7.768,10.99 -10.753,17.204 -2.509,5.135 -4.479,10.364 -5.913,15.68 -1.434,5.315 -2.392,10.843 -2.867,16.577 -0.121,1.91 -0.18,4.57 -0.18,7.975 0,3.405 0.117,6.062 0.358,7.974 0.717,8.482 2.658,16.725 5.825,24.731 3.164,8.003 7.437,15.471 12.813,22.401 2.389,3.105 5.135,6.211 8.243,9.319 3.106,3.105 6.273,5.852 9.498,8.243 7.048,5.494 14.723,9.767 23.029,12.813 8.301,3.047 16.814,4.808 25.537,5.287"
       style="fill:#999;fill-opacity:1;fill-rule:nonzero;stroke:none"
       transform="matrix(0.35277776,0,0,-0.35277776,128.42659,74.685876)"
       clip-path="url(#clipPath27)" />
  </g>
</svg>
