<?xml version="1.0" encoding="UTF-8" standalone="no"?>
<!-- Created with Inkscape (http://www.inkscape.org/) -->

<svg
   width="100%"
   height="100%"
   viewBox="0 0 64.78093 64.780586"
   version="1.1"
   id="svg1"
   xmlns="http://www.w3.org/2000/svg"
   xmlns:svg="http://www.w3.org/2000/svg">
  <defs
     id="defs1">
    <clipPath
       clipPathUnits="userSpaceOnUse"
       id="clipPath93">
      <path
         d="M 0,500 H 500 V 0 H 0 Z"
         transform="translate(-262.80301,-326.38431)"
         id="path93" />
    </clipPath>
  </defs>
  <g
     id="layer1"
     transform="translate(-65.30668,-67.567595)">
    <path
       id="path92"
       d="m 0,0 c 36.682,-6.107 64.652,-37.972 64.652,-76.387 0,-9.492 -1.715,-18.582 -4.841,-26.987 z m 27.518,-111.867 v 36.02 l 20.789,-36.02 z m -40.325,-41.97 c -23.881,0 -45.231,10.818 -59.439,27.813 H 46.641 c -14.209,-16.995 -35.563,-27.813 -59.448,-27.813 m -40.318,77.99 v -36.02 h -20.787 z m -37.132,-0.54 c 0,38.418 27.974,70.285 64.652,76.388 l -59.811,-103.375 c -3.126,8.405 -4.841,17.495 -4.841,26.987 m 103.618,-9.137 c 0,-7.289 -2.57,-13.502 -7.706,-18.637 -5.139,-5.139 -11.29,-7.706 -18.458,-7.706 -7.169,0 -13.323,2.567 -18.459,7.706 -5.138,5.135 -7.705,11.348 -7.705,18.637 0,7.169 2.567,13.32 7.705,18.459 5.136,5.134 11.29,7.706 18.459,7.706 7.168,0 13.319,-2.572 18.458,-7.706 5.136,-5.139 7.706,-11.29 7.706,-18.459 m -48.924,40.322 22.76,39.246 22.759,-39.246 z m 22.756,60.635 c -50.7,0 -91.811,-41.11 -91.811,-91.82 0,-50.7 41.111,-91.81 91.811,-91.81 50.709,0 91.82,41.11 91.82,91.81 0,50.71 -41.111,91.82 -91.82,91.82"
       style="fill:#999;fill-opacity:1;fill-rule:nonzero;stroke:none"
       transform="matrix(0.35277776,0,0,-0.35277776,102.21358,73.012018)"
       clip-path="url(#clipPath93)" />
  </g>
</svg>
