<?xml version="1.0" encoding="utf-8"?>
<!-- Generator: Adobe Illustrator 23.0.4, SVG Export Plug-In . SVG Version: 6.00 Build 0)  -->
<svg version="1.1" id="Layer_1" xmlns="http://www.w3.org/2000/svg" xmlns:xlink="http://www.w3.org/1999/xlink" x="0px" y="0px"
	 viewBox="0 0 792 792" style="enable-background:new 0 0 792 792;" xml:space="preserve">
<path d="M625.81,161.19C564.43,99.81,482.81,66,396,66s-168.43,33.81-229.81,95.19C104.81,222.57,71,304.19,71,391
	s33.81,168.43,95.19,229.81C227.57,682.19,309.19,716,396,716s168.43-33.81,229.81-95.19C687.19,559.43,721,477.81,721,391
	S687.19,222.57,625.81,161.19z M671,391c0,33.55-5.98,66.17-17.42,96.68l-212.46-368c56.3,9.24,108.19,35.72,149.33,76.87
	C642.4,248.49,671,317.54,671,391z M476.42,280.81H315.58L396,141.53L476.42,280.81z M253.14,516.53h-73.65l73.65-127.56V516.53z
	 M303.14,423.67c0-51.2,41.66-92.86,92.86-92.86c51.2,0,92.86,41.66,92.86,92.86c0,51.2-41.66,92.86-92.86,92.86
	C344.8,516.53,303.14,474.87,303.14,423.67z M538.86,388.96l73.65,127.56h-73.65V388.96z M201.55,196.55
	c41.14-41.14,93.03-67.63,149.33-76.87l-212.46,368C126.99,457.17,121,424.55,121,391C121,317.54,149.6,248.49,201.55,196.55z
	 M396,666c-73.46,0-142.51-28.6-194.45-80.55c-6.08-6.08-11.82-12.4-17.25-18.93h68.85h285.71h68.85
	c-5.43,6.53-11.18,12.85-17.25,18.93C538.51,637.4,469.46,666,396,666z"/>
</svg>
