<?xml version="1.0" encoding="UTF-8" standalone="no"?>
<!-- Created with Inkscape (http://www.inkscape.org/) -->

<svg
   width="100%"
   height="100%"
   viewBox="0 0 64.560143 57.370174"
   version="1.1"
   id="svg1"
   xmlns="http://www.w3.org/2000/svg"
   xmlns:svg="http://www.w3.org/2000/svg">
  <defs
     id="defs1">
    <clipPath
       clipPathUnits="userSpaceOnUse"
       id="clipPath62">
      <path
         d="M 0,500 H 500 V 0 H 0 Z"
         transform="translate(-235.18826,-317.43001)"
         id="path62" />
    </clipPath>
  </defs>
  <g
     id="layer1"
     transform="translate(-116.41678,-36.777083)">
    <path
       id="path61"
       d="m 0,0 c 6.928,0.717 13.889,0.358 20.878,-1.075 6.989,-1.434 15.56,-4.422 25.716,-8.961 4.419,-1.912 7.913,-3.108 10.483,-3.584 2.569,-0.479 5.346,-0.42 8.333,0.18 3.464,0.595 6.57,1.402 9.32,2.419 2.747,1.013 7.106,3.074 13.082,6.182 l 11.648,5.735 2.509,-1.076 c 2.268,-0.957 3.584,-3.287 3.942,-6.989 0.359,-3.704 0.477,-17.265 0.359,-40.68 -0.121,-20.311 -0.241,-32.408 -0.359,-36.289 -0.12,-3.883 -0.478,-6.182 -1.075,-6.899 -0.479,-0.479 -1.702,-1.255 -3.674,-2.33 -1.971,-1.075 -4.152,-2.212 -6.541,-3.404 -7.288,-3.467 -13.65,-5.915 -19.085,-7.348 -5.438,-1.434 -10.724,-1.972 -15.86,-1.613 -3.467,0.238 -6.751,0.835 -9.857,1.792 -3.107,0.955 -7.109,2.627 -12.006,5.018 -6.213,2.867 -11.231,4.808 -15.053,5.824 -3.825,1.013 -8.306,1.523 -13.441,1.523 -6.452,0 -12.875,-0.896 -19.264,-2.688 -6.393,-1.792 -14.427,-5.017 -24.104,-9.677 -4.422,-2.033 -7.109,-3.198 -8.064,-3.495 -0.958,-0.299 -2.092,-0.151 -3.406,0.449 -2.15,0.954 -3.404,3.225 -3.762,6.809 -0.359,3.584 -0.538,16.426 -0.538,38.53 0,18.159 0.058,29.418 0.179,33.78 0.118,4.36 0.476,7.079 1.076,8.154 0.475,1.075 1.402,2.061 2.777,2.957 1.372,0.896 4.449,2.536 9.229,4.928 7.168,3.584 13.62,6.301 19.355,8.154 C -11.469,-1.823 -5.734,-0.6 0,0 m -67.202,13.261 c 5.136,1.433 9.467,0.386 12.992,-3.136 3.522,-3.525 4.629,-7.796 3.315,-12.813 -0.358,-1.317 -0.778,-2.419 -1.253,-3.316 -0.48,-0.895 -1.197,-1.764 -2.152,-2.599 l -2.329,-2.15 -0.18,-68.099 c -0.12,-38.829 -0.358,-60.184 -0.716,-64.066 -0.359,-3.884 -2.391,-5.824 -6.093,-5.824 -1.554,0 -2.689,0.09 -3.405,0.269 -0.717,0.179 -1.316,0.51 -1.792,0.986 -0.717,0.716 -1.137,4.06 -1.254,10.035 -0.121,5.973 -0.18,25.627 -0.18,58.959 v 67.74 l -2.509,2.15 c -3.584,3.344 -4.718,7.528 -3.404,12.545 1.312,5.018 4.301,8.123 8.96,9.319"
       style="fill:#999;fill-opacity:1;fill-rule:nonzero;stroke:none"
       transform="matrix(0.35277776,0,0,-0.35277776,143.47164,41.67439)"
       clip-path="url(#clipPath62)" />
  </g>
</svg>
