<?xml version="1.0" encoding="UTF-8" standalone="no"?>
<!-- Created with Inkscape (http://www.inkscape.org/) -->

<svg
   width="100%"
   height="100%"
   viewBox="0 -25 96 96"
   version="1.1"
   id="svg1"
   xmlns="http://www.w3.org/2000/svg"
   xmlns:svg="http://www.w3.org/2000/svg">
  <defs
     id="defs1">
    <clipPath
       clipPathUnits="userSpaceOnUse"
       id="clipPath25">
      <path
         d="M 0,500 H 500 V 0 H 0 Z"
         transform="translate(-378.93876,-311.88351)"
         id="path25" />
    </clipPath>
  </defs>
  <g
     id="layer1"
     transform="translate(-55.297876,-0.26458143)">
    <path
       id="path24"
       d="m 0,0 h -0.358 c -0.121,0 -0.21,-0.062 -0.269,-0.179 -0.061,-0.121 -0.031,-0.241 0.09,-0.359 h 0.268 c 0.059,0 0.09,0.059 0.09,0.18 C -0.062,-0.358 0,-0.241 0,0 m -73.653,-84.944 h -0.538 -0.269 c -0.061,0 -0.09,-0.12 -0.09,-0.358 0,-0.241 0.059,-0.359 0.18,-0.359 0.475,0.359 0.717,0.597 0.717,0.717 m -66.845,49.999 c 0.835,0.954 1.552,1.792 2.15,2.508 0.597,0.717 0.955,1.076 1.076,1.076 4.777,-2.75 8.781,-5.079 12.006,-6.989 3.344,-1.913 6.273,-3.646 8.782,-5.197 2.508,-1.554 3.942,-2.391 4.3,-2.509 0.835,-0.479 1.462,-0.927 1.882,-1.344 0.417,-0.42 0.687,-0.807 0.807,-1.165 0,-0.358 -0.062,-0.627 -0.179,-0.807 -0.121,-0.179 -0.599,-0.688 -1.434,-1.523 -1.076,-1.195 -2.898,-3.077 -5.466,-5.645 -2.571,-2.57 -4.811,-4.69 -6.72,-6.361 l -1.434,-1.434 1.613,-13.441 c 0.476,-3.825 0.896,-7.078 1.255,-9.766 0.358,-2.689 0.538,-4.094 0.538,-4.211 0.117,-0.122 0.685,0.268 1.702,1.164 1.014,0.896 3.016,2.778 6.003,5.645 2.15,1.91 3.971,3.553 5.466,4.928 1.493,1.372 2.24,1.999 2.24,1.882 0.118,0 0.476,-1.733 1.075,-5.197 0.597,-3.467 0.897,-5.438 0.897,-5.914 0,-0.121 -0.062,-0.331 -0.18,-0.628 -0.12,-0.298 -0.179,-0.508 -0.179,-0.627 -0.241,-0.358 -1.523,-1.881 -3.853,-4.569 -2.329,-2.688 -6.183,-7.14 -11.559,-13.351 -1.434,-1.554 -2.66,-2.929 -3.674,-4.122 -1.016,-1.196 -1.585,-1.853 -1.702,-1.971 -0.12,-0.12 -0.241,-0.21 -0.358,-0.269 -0.12,-0.061 -0.3,-0.031 -0.538,0.09 -0.121,0.117 -1.496,0.954 -4.122,2.509 -2.75,1.551 -5.707,3.254 -8.871,5.107 -3.167,1.851 -6.124,3.613 -8.871,5.286 -2.749,1.552 -4.242,2.448 -4.479,2.689 -0.121,0.117 -0.27,0.268 -0.448,0.448 -0.18,0.179 -0.331,0.327 -0.449,0.447 0,0.239 -0.12,1.076 -0.358,2.509 -0.24,1.435 -0.479,3.106 -0.717,5.019 -0.24,1.909 -0.627,4.838 -1.165,8.781 -0.537,3.942 -1.105,7.706 -1.702,11.29 -0.479,3.822 -0.897,7.078 -1.255,9.766 -0.358,2.689 -0.537,4.091 -0.537,4.212 0.117,0.238 0.238,0.476 0.358,0.716 0.118,0.239 0.239,0.476 0.359,0.717 0.358,0.359 2.567,2.868 6.631,7.527 4.059,4.659 7.764,8.899 11.11,12.724 m 3.764,10.573 c -0.479,0.118 -0.869,0.179 -1.165,0.179 -0.3,0 -0.689,-0.061 -1.165,-0.179 -0.241,0 -2.033,-1.882 -5.376,-5.645 -3.346,-3.763 -8.543,-9.767 -15.591,-18.01 -0.479,-0.479 -1.017,-1.048 -1.614,-1.703 -0.598,-0.658 -1.075,-1.165 -1.433,-1.523 -0.717,-0.837 -1.165,-1.523 -1.344,-2.061 -0.18,-0.538 -0.21,-1.165 -0.09,-1.882 0.118,-0.358 0.18,-0.627 0.18,-0.806 0,-0.179 -0.062,-0.331 -0.18,-0.448 -0.12,0 -0.03,-1.165 0.269,-3.495 0.297,-2.329 1.165,-8.811 2.598,-19.444 0.597,-3.824 1.104,-7.347 1.524,-10.572 0.417,-3.226 0.627,-5.081 0.627,-5.556 0.118,-0.6 0.238,-1.344 0.358,-2.24 0.118,-0.896 0.239,-1.702 0.359,-2.419 0.238,-1.197 0.418,-1.944 0.538,-2.241 0.117,-0.299 0.358,-0.626 0.717,-0.985 0.358,-0.479 1.971,-1.585 4.838,-3.315 2.868,-1.734 8.123,-4.811 15.77,-9.23 1.792,-1.075 3.434,-2.06 4.929,-2.957 1.492,-0.895 2.419,-1.464 2.777,-1.702 0.597,-0.358 1.193,-0.658 1.792,-0.896 0.597,-0.241 1.255,-0.42 1.972,-0.538 0.955,0 1.792,0.297 2.508,0.896 0.717,0.597 2.806,2.927 6.273,6.989 1.792,2.03 3.852,4.391 6.183,7.079 2.329,2.688 4.269,4.928 5.824,6.72 1.551,1.672 2.895,3.195 4.032,4.57 1.134,1.372 1.761,2.119 1.881,2.241 0.238,0.237 0.387,0.506 0.448,0.805 0.059,0.297 0.09,0.987 0.09,2.062 0,1.192 -0.062,2.329 -0.18,3.405 -0.12,1.075 -0.42,3.284 -0.895,6.63 -0.359,2.03 -1.075,7.107 -2.151,15.232 -1.075,8.124 -1.792,13.441 -2.15,15.95 -0.358,2.627 -0.627,4.301 -0.807,5.018 -0.179,0.716 -0.448,1.313 -0.806,1.792 -0.359,0.238 -2.061,1.282 -5.108,3.136 -3.046,1.851 -7.856,4.687 -14.426,8.512 -1.792,1.075 -3.495,2.089 -5.107,3.047 -1.613,0.955 -2.599,1.551 -2.957,1.792 -1.075,0.717 -1.823,1.164 -2.24,1.344 -0.42,0.179 -0.986,0.327 -1.702,0.448 m -51.433,-59.138 0.358,3.405 -0.537,0.896 c -0.121,0.238 -0.21,0.417 -0.269,0.537 -0.062,0.118 -0.089,0.118 -0.089,0 0.237,-0.837 0.327,-1.495 0.268,-1.971 -0.061,-0.479 -0.268,-1.375 -0.626,-2.688 -0.48,-1.434 -0.779,-2.599 -0.897,-3.495 -0.12,-0.896 -0.179,-1.823 -0.179,-2.777 0,-0.48 -0.031,-0.958 -0.09,-1.434 -0.061,-0.479 -0.089,-0.896 -0.089,-1.255 l -0.179,-1.075 -1.075,0.717 c -0.241,0.238 -0.51,0.477 -0.807,0.717 -0.3,0.238 -0.448,0.417 -0.448,0.538 -0.12,0.117 -0.241,0.386 -0.359,0.806 -0.12,0.418 -0.241,0.865 -0.358,1.344 -0.358,1.076 -0.538,2.061 -0.538,2.957 0,0.896 0.06,1.761 0.18,2.599 0.117,0.358 0.207,0.655 0.268,0.896 0.059,0.237 0.029,0.358 -0.09,0.358 l -4.838,-3.584 c -3.346,-2.392 -6.989,-5.049 -10.931,-7.975 -3.943,-2.928 -7.589,-5.645 -10.932,-8.154 -3.347,-2.509 -5.079,-3.825 -5.197,-3.942 l -0.179,-0.359 0.717,-0.179 c 0.834,-0.121 1.73,-0.33 2.687,-0.627 0.956,-0.3 2.509,-0.869 4.66,-1.703 3.343,-1.316 5.914,-2.27 7.706,-2.867 1.792,-0.599 3.702,-1.016 5.735,-1.255 0.954,-0.12 2.956,-0.478 6.003,-1.075 3.047,-0.598 4.569,-0.957 4.569,-1.075 h -0.895 c -0.479,0 -1.017,-0.062 -1.613,-0.179 h -2.33 l 1.076,-0.716 1.075,-0.539 h -0.717 c -0.358,0 -0.51,-0.03 -0.448,-0.089 0.058,-0.062 0.448,-0.21 1.165,-0.448 0.358,-0.121 0.834,-0.299 1.433,-0.538 0.597,-0.241 1.076,-0.42 1.434,-0.538 1.192,-0.598 3.136,-1.137 5.824,-1.612 2.689,-0.479 6.003,-0.958 9.947,-1.434 1.075,-0.12 2.329,-0.3 3.762,-0.538 1.434,-0.24 2.627,-0.42 3.584,-0.537 1.672,-0.241 2.837,-0.39 3.495,-0.448 0.656,-0.062 1.104,-0.09 1.344,-0.09 0.118,0.118 0.118,0.207 0,0.269 -0.12,0.059 -0.42,0.208 -0.895,0.448 -0.242,0.118 -0.6,0.328 -1.076,0.628 -0.479,0.297 -0.838,0.507 -1.075,0.627 -0.358,0.238 -0.717,0.475 -1.075,0.716 -0.359,0.239 -0.658,0.417 -0.896,0.538 -0.6,0.358 -1.375,0.865 -2.331,1.523 -0.957,0.655 -1.612,1.224 -1.97,1.703 -0.241,0.237 -0.39,0.447 -0.449,0.627 -0.061,0.179 -0.089,0.565 -0.089,1.165 l 0.179,1.075 -0.896,0.717 c -0.24,0.237 -0.599,0.537 -1.075,0.896 -0.12,0 -0.21,-0.062 -0.269,-0.179 -0.061,-0.121 -0.151,-0.3 -0.268,-0.538 l -0.359,-0.896 -1.792,1.971 c -1.075,1.075 -2.061,2.269 -2.957,3.584 -0.896,1.313 -1.703,2.688 -2.42,4.122 -0.837,1.792 -1.464,3.433 -1.881,4.929 -0.421,1.492 -0.806,3.314 -1.165,5.466 -0.121,1.433 -0.179,2.956 -0.179,4.569 0,1.613 0.118,3.433 0.358,5.466 m 139.244,95.338 c 0.834,0.117 2.029,0.179 3.584,0.179 1.551,0 2.447,-0.062 2.688,-0.179 0.118,0 0.297,-0.121 0.538,-0.359 0.238,-0.24 0.475,-0.42 0.717,-0.537 0.475,-0.359 0.745,-0.599 0.806,-0.717 0.059,-0.121 -0.031,-0.241 -0.269,-0.359 -0.12,-0.12 -0.179,-0.21 -0.179,-0.269 0,-0.061 0.059,-0.089 0.179,-0.089 0.358,-0.121 1.582,-0.269 3.673,-0.448 2.089,-0.179 3.674,-0.21 4.749,-0.09 h 1.792 c 0.477,0 0.956,0.118 1.434,0.359 0.955,0.358 1.94,0.448 2.957,0.268 1.014,-0.179 3.254,-0.688 6.721,-1.523 0.596,-0.12 1.254,-0.269 1.971,-0.448 0.716,-0.179 1.254,-0.33 1.613,-0.448 0.358,-0.12 0.865,-0.299 1.523,-0.538 0.655,-0.24 1.224,-0.478 1.702,-0.716 1.076,-0.479 1.703,-0.748 1.882,-0.807 0.179,-0.061 0.327,-0.03 0.448,0.09 0.118,0.238 0.269,0.358 0.448,0.358 h 1.165 C -7.109,5.435 -5.556,5.135 -4.122,4.659 -2.688,4.181 -1.495,3.643 -0.537,3.046 -0.062,2.568 0.448,2.12 0.985,1.703 1.523,1.282 1.792,1.014 1.792,0.896 1.552,0.775 1.372,0.655 1.255,0.538 1.134,0.538 1.014,0.507 0.896,0.448 0.775,0.386 0.775,0.358 0.896,0.358 2.209,0 3.284,-0.241 4.122,-0.358 4.956,-0.599 6.031,-0.837 7.348,-1.075 7.106,-1.554 6.869,-1.913 6.631,-2.15 6.272,-2.629 6.031,-2.988 5.914,-3.226 5.794,-3.467 5.734,-3.884 5.734,-4.48 v -0.896 c 0,-0.241 -0.061,-0.479 -0.178,-0.717 -0.242,-0.12 -0.359,-0.269 -0.359,-0.448 0,-0.179 0.117,-0.51 0.359,-0.986 L 5.914,-8.244 5.018,-8.781 C 4.539,-9.022 4.091,-9.14 3.674,-9.14 c -0.42,0 -1.047,0.059 -1.882,0.18 -0.24,0 -0.537,0.028 -0.896,0.089 -0.358,0.059 -0.658,0.09 -0.896,0.09 l -0.896,0.179 v -0.896 c 0.118,-0.358 0.238,-0.658 0.359,-0.896 0.117,-0.241 0.417,-0.599 0.895,-1.075 l 0.897,-1.075 H 0.18 c -1.317,-0.121 -2.33,-0.121 -3.047,0 -0.717,0.117 -1.375,0.358 -1.972,0.716 -0.24,0.238 -1.464,0.656 -3.674,1.255 -2.212,0.596 -3.494,0.896 -3.852,0.896 -0.12,0 -0.241,-0.062 -0.359,-0.179 -0.12,-0.121 -0.241,-0.241 -0.358,-0.359 l -0.358,-0.537 -1.434,0.896 c -1.075,0.716 -1.972,1.165 -2.688,1.344 -0.717,0.179 -2.212,0.268 -4.48,0.268 -3.226,0 -5.466,0.208 -6.721,0.628 -1.254,0.417 -1.822,1.164 -1.702,2.24 l 0.179,0.717 -1.075,0.179 c -0.359,0 -0.779,0.059 -1.254,0.179 -0.48,0.117 -0.897,0.238 -1.255,0.359 -1.075,0.358 -2.271,0.537 -3.584,0.537 -1.317,0 -4.122,-0.179 -8.423,-0.537 -3.825,-0.359 -6.72,-0.689 -8.691,-0.986 -1.972,-0.3 -4.928,-0.807 -8.871,-1.524 l -3.405,-0.537 -0.538,-1.075 c -0.358,-0.717 -0.778,-1.375 -1.254,-1.972 -0.479,-0.599 -1.136,-1.254 -1.971,-1.971 -0.837,-0.717 -1.644,-1.285 -2.419,-1.702 -0.779,-0.42 -1.227,-0.51 -1.344,-0.269 -0.121,0.118 -0.6,-0.627 -1.435,-2.24 -0.837,-1.613 -1.374,-2.66 -1.612,-3.136 -0.12,-0.241 -0.09,-0.359 0.09,-0.359 h 1.881 c 0.596,0 1.551,0.028 2.868,0.09 1.312,0.059 2.626,0.089 3.942,0.089 l 4.659,0.18 -2.867,-2.688 0.717,-0.538 c 0.358,-0.241 0.775,-0.717 1.254,-1.434 0.477,-0.716 0.655,-1.136 0.538,-1.254 -0.241,-0.241 -0.42,-0.358 -0.538,-0.358 -0.358,-0.121 -0.537,-0.241 -0.537,-0.359 0,-0.12 0.179,-0.179 0.537,-0.179 0.358,0 0.865,-0.21 1.523,-0.628 0.656,-0.419 0.986,-0.688 0.986,-0.806 0,-0.12 -0.031,-0.269 -0.089,-0.448 -0.062,-0.179 -0.09,-0.33 -0.09,-0.448 -0.241,-0.479 -0.807,-0.806 -1.702,-0.985 -0.897,-0.18 -2.84,-0.331 -5.824,-0.449 -1.317,-0.12 -2.599,-0.21 -3.854,-0.268 -1.254,-0.062 -2.122,-0.152 -2.598,-0.269 h -1.254 l 0.895,-1.076 c 0.477,-0.358 0.865,-0.626 1.165,-0.806 0.297,-0.179 0.807,-0.389 1.524,-0.627 l 1.792,-0.538 -0.179,-0.896 v -0.627 -0.448 c -0.958,0 -1.734,-0.061 -2.33,-0.179 -0.717,0 -1.495,-0.062 -2.33,-0.179 0,-0.121 0.09,-0.628 0.269,-1.524 0.179,-0.896 0.448,-2.002 0.806,-3.315 l 1.255,-4.659 -0.897,0.358 c -0.24,0 -0.537,0.118 -0.895,0.358 -0.12,-1.912 -0.18,-3.525 -0.18,-4.838 v -4.66 l 0.897,-1.433 c 0.238,-0.479 0.448,-0.986 0.627,-1.523 0.179,-0.538 0.328,-0.986 0.448,-1.344 l 0.179,-1.255 0.717,0.717 c 0.238,0.238 0.417,0.386 0.537,0.448 0.118,0.059 0.417,0.09 0.897,0.09 0.475,-0.121 0.895,-0.331 1.254,-0.628 0.358,-0.299 0.655,-0.747 0.896,-1.344 0.117,-0.358 0.179,-0.627 0.179,-0.806 0,-0.179 -0.062,-0.569 -0.179,-1.165 -0.241,-1.316 -0.358,-2.061 -0.358,-2.24 0,-0.179 0.297,-0.031 0.895,0.448 0.239,0.117 0.477,0.238 0.717,0.359 0.118,0 0.238,-0.121 0.359,-0.359 0.118,-0.241 0.296,-0.538 0.538,-0.896 0.237,-0.599 0.385,-1.047 0.448,-1.344 0.058,-0.3 0.089,-0.689 0.089,-1.165 -0.12,-0.958 -0.448,-1.912 -0.986,-2.867 -0.538,-0.958 -1.106,-1.554 -1.702,-1.792 l -0.717,-0.359 0.179,-1.254 c 0,-0.479 0.059,-0.896 0.18,-1.254 0.117,-0.359 0.358,-0.838 0.717,-1.434 0.475,-0.837 0.775,-1.523 0.895,-2.061 0.118,-0.538 0.059,-1.165 -0.179,-1.882 -0.358,-0.957 -0.538,-1.495 -0.538,-1.613 0,-0.12 0.239,0 0.717,0.359 0.238,0.238 0.597,0.565 1.075,0.986 0.477,0.417 0.955,0.865 1.434,1.343 0.477,0.476 1.075,1.014 1.792,1.613 0.717,0.597 1.313,1.075 1.792,1.434 1.193,0.955 2.089,1.761 2.688,2.419 0.597,0.655 1.076,1.403 1.434,2.24 0.238,0.359 0.538,0.835 0.896,1.434 0.476,-0.358 0.834,-0.658 1.076,-0.896 l 1.075,-0.896 0.358,0.358 c 0.117,0.118 0.327,0.238 0.627,0.359 0.297,0.117 0.566,0.179 0.807,0.179 0.358,0 0.807,0.148 1.344,0.448 0.538,0.297 1.343,0.745 2.42,1.344 1.55,0.955 2.626,1.582 3.225,1.882 0.596,0.297 1.134,0.507 1.612,0.627 0.359,0.117 1.076,0.686 2.151,1.702 1.075,1.014 2.089,2.12 3.047,3.316 1.075,1.433 2.15,2.536 3.225,3.315 1.075,0.776 2.509,1.462 4.301,2.061 1.193,0.476 2.479,1.013 3.854,1.613 1.372,0.596 3.015,1.372 4.927,2.33 1.434,0.716 2.299,1.192 2.599,1.433 0.297,0.238 0.565,0.538 0.807,0.896 0.237,0.596 0.506,1.045 0.806,1.344 0.296,0.297 0.806,0.627 1.523,0.986 0.358,0.118 0.835,0.327 1.433,0.627 0.597,0.297 1.135,0.566 1.614,0.806 1.192,0.717 2.178,1.193 2.957,1.434 0.775,0.238 1.582,0.358 2.419,0.358 0.596,0 1.075,-0.089 1.433,-0.268 0.359,-0.179 0.655,-0.51 0.897,-0.986 0.117,-0.358 0.089,-0.748 -0.09,-1.165 -0.179,-0.42 -0.627,-0.985 -1.344,-1.702 l -1.434,-1.255 0.538,-0.179 c 0.476,-0.12 0.835,-0.358 1.075,-0.717 0.238,-0.358 0.417,-0.837 0.538,-1.433 0.117,-0.717 0,-1.317 -0.359,-1.793 -0.358,-0.478 -0.958,-0.778 -1.792,-0.896 -0.479,0 -0.748,-0.03 -0.806,-0.089 -0.062,-0.061 0.028,-0.151 0.268,-0.269 0.239,0 0.417,-0.062 0.538,-0.179 0.118,-0.12 0.179,-0.3 0.179,-0.538 0.238,-0.717 0.18,-1.374 -0.179,-1.971 -0.358,-0.599 -0.958,-1.017 -1.792,-1.254 -0.479,-0.121 -1.047,-0.18 -1.703,-0.18 -0.658,0 -1.165,0.059 -1.523,0.18 -0.24,0.237 -0.389,0.327 -0.447,0.268 -0.062,-0.061 -0.152,-0.151 -0.27,-0.268 0,-0.121 -0.03,-0.359 -0.089,-0.717 -0.061,-0.359 -0.09,-0.717 -0.09,-1.075 -0.12,-1.316 -0.478,-2.302 -1.075,-2.957 -0.599,-0.659 -1.495,-0.986 -2.688,-0.986 -0.359,0 -0.658,0.059 -0.896,0.179 -0.241,0.118 -0.479,0.238 -0.717,0.359 l -0.538,0.358 -1.254,-1.613 c -0.958,-1.195 -1.943,-2.301 -2.957,-3.315 -1.016,-1.017 -2.123,-1.943 -3.315,-2.778 -3.226,-2.271 -5.466,-3.853 -6.721,-4.749 -1.254,-0.896 -2.419,-1.823 -3.494,-2.778 -0.717,-0.478 -1.643,-1.164 -2.777,-2.06 -1.138,-0.896 -2.182,-1.644 -3.137,-2.24 -1.792,-1.196 -3.167,-2.212 -4.121,-3.047 -0.958,-0.838 -3.167,-2.929 -6.631,-6.272 -0.838,-0.717 -1.675,-1.434 -2.509,-2.151 -0.838,-0.716 -1.433,-1.195 -1.792,-1.433 -0.358,-0.359 -0.748,-0.689 -1.165,-0.986 -0.42,-0.299 -0.689,-0.568 -0.806,-0.806 -0.12,-0.241 -0.3,-0.51 -0.538,-0.807 -0.241,-0.3 -0.42,-0.568 -0.538,-0.807 -0.241,-0.24 -0.389,-0.478 -0.448,-0.716 -0.061,-0.241 -0.09,-0.537 -0.09,-0.896 0.119,-0.358 0.149,-0.628 0.09,-0.807 -0.061,-0.179 -0.268,-0.448 -0.627,-0.806 -0.837,-0.717 -1.943,-1.585 -3.315,-2.599 -1.375,-1.016 -2.361,-1.702 -2.957,-2.06 -0.24,-0.12 -0.569,-0.269 -0.986,-0.449 -0.419,-0.178 -0.689,-0.268 -0.806,-0.268 -0.241,0 -0.537,-0.062 -0.896,-0.18 -0.358,-0.12 -0.658,-0.299 -0.896,-0.537 -0.359,-0.12 -0.689,-0.21 -0.986,-0.268 -0.299,-0.062 -0.627,-0.09 -0.986,-0.09 -0.478,0 -0.837,-0.032 -1.075,-0.09 -0.24,-0.062 -0.657,-0.269 -1.254,-0.627 -0.241,-0.241 -0.985,-0.658 -2.24,-1.255 -1.255,-0.599 -2.599,-1.195 -4.032,-1.792 -1.434,-0.599 -2.719,-1.165 -3.853,-1.702 -1.138,-0.538 -1.823,-0.868 -2.062,-0.985 -0.12,-0.122 -0.419,-0.359 -0.895,-0.717 -0.48,-0.359 -0.897,-0.78 -1.255,-1.255 -1.195,-1.317 -2.329,-2.271 -3.404,-2.867 -1.076,-0.6 -2.689,-1.137 -4.839,-1.614 -1.316,-0.24 -2.66,-0.568 -4.032,-0.985 -1.375,-0.42 -4.749,-1.405 -10.125,-2.957 -2.033,-0.717 -3.943,-1.315 -5.735,-1.792 -1.793,-0.479 -2.868,-0.778 -3.226,-0.896 -0.957,-0.121 -1.764,-0.299 -2.419,-0.538 -0.658,-0.241 -1.285,-0.538 -1.882,-0.896 -0.479,-0.358 -2.48,-0.957 -6.003,-1.792 -3.525,-0.837 -6.602,-1.495 -9.229,-1.971 -3.467,-0.478 -8.664,-0.868 -15.591,-1.165 -6.931,-0.3 -12.607,-0.268 -17.025,0.09 -5.377,0.237 -10.066,0.717 -14.068,1.434 -4.004,0.716 -8.036,1.73 -12.096,3.046 -0.838,0.238 -1.913,0.566 -3.226,0.986 -1.316,0.417 -2.45,0.744 -3.405,0.985 -0.958,0.359 -2.271,0.807 -3.942,1.344 -1.675,0.538 -3.226,1.045 -4.66,1.523 -3.108,1.076 -5.765,1.972 -7.975,2.689 -2.212,0.717 -3.914,1.192 -5.107,1.433 -1.075,0.359 -3.136,0.834 -6.183,1.434 -3.046,0.597 -5.227,1.014 -6.541,1.254 -0.957,0.118 -2.66,0.538 -5.107,1.255 -2.449,0.717 -6.303,1.91 -11.559,3.584 l -4.301,1.255 v 1.075 c 0.118,0.955 0.328,1.612 0.627,1.971 0.297,0.358 0.924,0.835 1.882,1.433 1.194,0.717 2.447,1.493 3.764,2.33 1.313,0.834 1.971,1.314 1.971,1.434 -0.599,0.117 -1.137,0.18 -1.613,0.18 -0.599,0 -1.048,0.027 -1.344,0.088 -0.299,0.06 -0.569,0.149 -0.806,0.27 -0.6,0.358 -0.897,0.775 -0.897,1.254 0,0.476 0.239,0.955 0.717,1.433 0.238,0.359 1.282,1.076 3.137,2.151 1.851,1.075 3.494,1.972 4.928,2.688 0.716,0.359 1.94,0.776 3.673,1.254 1.731,0.477 2.658,0.655 2.778,0.538 -0.12,-0.241 -0.179,-0.42 -0.179,-0.538 -0.121,-0.12 -0.18,-0.299 -0.18,-0.537 0.597,0.238 1.076,0.476 1.434,0.717 0.477,0.358 0.807,0.627 0.986,0.807 0.179,0.178 0.327,0.385 0.448,0.627 0,0.475 0.179,0.833 0.538,1.075 0.358,0.238 1.075,0.655 2.15,1.255 l 1.972,1.075 -0.359,0.358 c -0.121,0.117 -0.21,0.237 -0.269,0.359 -0.062,0.117 -0.089,0.237 -0.089,0.358 0,0.117 0.386,0.565 1.164,1.344 0.776,0.775 1.703,1.523 2.778,2.24 1.434,0.955 2.509,1.761 3.226,2.419 0.717,0.655 1.075,1.103 1.075,1.344 0.117,0.596 0.327,1.014 0.627,1.255 0.297,0.238 0.865,0.596 1.703,1.075 0.359,0.238 0.806,0.448 1.344,0.627 0.537,0.179 0.924,0.328 1.165,0.448 0.476,0.118 0.806,0.179 0.985,0.179 0.179,0 0.387,-0.061 0.627,-0.179 0.359,-0.12 0.597,-0.179 0.717,-0.179 0.118,0 0.297,0.179 0.538,0.537 0.237,0.359 0.447,0.776 0.627,1.255 0.18,0.476 0.269,1.013 0.269,1.613 0,0.955 0.238,1.792 0.716,2.509 0.477,0.717 1.194,1.313 2.151,1.792 0.717,0.358 1.372,0.565 1.972,0.627 0.596,0.059 1.192,0.028 1.792,-0.09 0.238,-0.24 0.417,-0.358 0.538,-0.358 0.117,0 0.178,0.059 0.178,0.179 0.118,0.118 0.359,0.448 0.717,0.986 0.359,0.538 0.835,1.165 1.434,1.881 1.552,2.151 3.702,4.481 6.451,6.99 2.747,2.508 5.494,4.659 8.244,6.451 0.955,0.717 1.761,1.344 2.419,1.882 0.655,0.537 1.403,1.223 2.24,2.061 1.672,1.671 3.764,3.463 6.273,5.376 2.508,1.909 4.479,3.284 5.913,4.121 0.955,0.597 1.703,1.076 2.24,1.434 0.538,0.359 1.703,1.255 3.495,2.688 1.792,1.552 3.763,3.164 5.913,4.839 2.152,1.672 3.702,2.867 4.66,3.584 0.476,0.359 1.193,0.806 2.151,1.344 0.955,0.537 1.909,1.044 2.867,1.523 2.268,1.193 3.701,1.999 4.301,2.419 0.596,0.418 0.955,0.925 1.075,1.524 0.118,0.238 0.238,0.417 0.358,0.537 0.118,0.118 0.477,0.297 1.076,0.538 0.476,0.238 0.775,0.417 0.896,0.538 0.117,0.117 0.179,0.238 0.179,0.358 -0.12,0.476 0,0.924 0.358,1.344 0.359,0.417 1.255,0.986 2.689,1.703 0.716,0.475 1.612,0.985 2.687,1.523 1.075,0.537 2.03,1.044 2.868,1.523 1.193,0.596 2.03,0.986 2.509,1.165 0.476,0.179 0.896,0.269 1.254,0.269 h 0.896 c 0.238,0 0.417,0.058 0.538,0.179 0.358,0.118 1.075,0.328 2.15,0.627 1.075,0.297 1.73,0.448 1.972,0.448 0.238,0 0.565,-0.09 0.985,-0.269 0.417,-0.179 0.686,-0.389 0.807,-0.627 0.238,-0.241 0.417,-0.389 0.538,-0.448 0.117,-0.062 0.296,-0.031 0.537,0.09 0.596,0 0.924,0.089 0.985,0.268 0.06,0.18 -0.03,0.507 -0.268,0.986 0,0.238 -0.062,0.538 -0.179,0.896 0.954,0.359 1.73,0.597 2.329,0.717 2.627,0.834 5.346,1.82 8.154,2.957 2.806,1.134 5.345,2.24 7.616,3.315 1.91,0.955 3.165,1.613 3.764,1.972 0.596,0.358 1.013,0.775 1.254,1.254 0.477,0.596 1.672,1.434 3.584,2.509 1.91,1.075 3.764,1.909 5.556,2.509 0.475,0.238 1.075,0.476 1.792,0.716 0.717,0.239 1.313,0.476 1.792,0.717 1.551,0.835 3.135,1.462 4.749,1.882 1.613,0.417 3.674,0.865 6.182,1.344 0.955,0.118 1.999,0.297 3.136,0.538 1.135,0.238 2.24,0.476 3.316,0.717 l 3.405,1.075 2.15,-0.538 c 1.075,-0.12 1.91,-0.21 2.509,-0.269 0.597,-0.061 1.792,-0.031 3.584,0.09 1.193,0 2.24,0.028 3.137,0.089 0.895,0.059 1.461,0.09 1.702,0.09 h 0.717 c 0.117,0 0.179,-0.061 0.179,-0.179 -0.121,-0.121 -0.031,-0.21 0.269,-0.269 0.297,-0.062 0.985,-0.089 2.06,-0.089 2.031,-0.121 3.433,-0.152 4.212,-0.09 0.776,0.059 1.641,0.207 2.598,0.448 0.477,0.118 0.986,0.238 1.523,0.358 0.539,0.118 0.987,0.18 1.345,0.18"
       style="fill:#999;fill-opacity:1;fill-rule:nonzero;stroke:none"
       transform="matrix(0.35277776,0,0,-0.35277776,148.86371,4.500384)"
       clip-path="url(#clipPath25)" />
  </g>
</svg>
