<?xml version="1.0" encoding="UTF-8" standalone="no"?>
<!-- Created with Inkscape (http://www.inkscape.org/) -->

<svg
   width="100%"
   height="100%"
   viewBox="0 0 55.859146 64.746208"
   version="1.1"
   id="svg1"
   xmlns="http://www.w3.org/2000/svg"
   xmlns:svg="http://www.w3.org/2000/svg">
  <defs
     id="defs1">
    <clipPath
       clipPathUnits="userSpaceOnUse"
       id="clipPath68">
      <path
         d="M 0,500 H 500 V 0 H 0 Z"
         transform="translate(-282.11651,-271.67141)"
         id="path68" />
    </clipPath>
  </defs>
  <g
     id="layer1"
     transform="translate(-91.810358,-81.756246)">
    <path
       id="path67"
       d="m 0,0 c 2.03,-2.867 3.822,-5.797 5.376,-8.781 1.552,-2.989 2.868,-6.093 3.943,-9.319 -0.358,0 -0.628,-0.031 -0.806,-0.089 -0.18,-0.062 -0.39,-0.09 -0.627,-0.09 -3.109,-0.359 -6.245,-0.658 -9.409,-0.897 -3.166,-0.24 -6.362,-0.537 -9.587,-0.895 -0.121,0 -0.121,0.028 0,0.09 0.117,0.058 0.117,0.148 0,0.268 -0.48,0.717 -1.317,1.999 -2.509,3.853 -1.196,1.851 -2.272,3.495 -3.226,4.928 -0.121,0.118 2.24,1.761 7.078,4.928 4.839,3.164 7.617,4.867 8.333,5.108 0.239,0.118 0.477,0.268 0.717,0.448 C -0.479,-0.269 -0.24,-0.121 0,0 m -18.638,-0.358 c -1.315,-1.197 -2.48,-2.182 -3.494,-2.957 -1.016,-0.779 -1.585,-1.165 -1.702,-1.165 -1.792,0.955 -3.525,1.971 -5.197,3.046 -1.675,1.076 -3.346,2.151 -5.018,3.226 0,0.117 0.059,0.238 0.179,0.358 0.118,0.118 0.18,0.239 0.18,0.359 1.433,2.747 2.777,5.555 4.032,8.423 1.254,2.867 2.477,5.734 3.674,8.601 1.671,-0.837 4.121,-2.181 7.346,-4.032 3.227,-1.854 6.094,-4.152 8.603,-6.899 0.358,-0.241 -0.51,-1.344 -2.599,-3.316 -2.092,-1.971 -4.094,-3.852 -6.004,-5.644 m -20.608,14.067 c -1.554,-2.929 -2.809,-5.944 -3.764,-9.05 -1.315,0.117 -2.57,0.238 -3.762,0.359 -1.197,0.117 -2.451,0.238 -3.764,0.358 -1.554,0 -2.66,0.09 -3.316,0.269 -0.658,0.179 -1.165,0.865 -1.523,2.061 -1.434,4.06 -3.763,7.437 -6.988,10.125 -3.227,2.688 -7.231,4.688 -12.007,6.003 -1.675,0.477 -3.316,0.865 -4.929,1.165 -1.612,0.297 -3.257,0.627 -4.928,0.985 0,0.119 -0.031,0.18 -0.089,0.18 -0.062,0 -0.09,0.059 -0.09,0.179 1.91,0.118 3.792,0.297 5.645,0.538 1.851,0.238 3.674,0.475 5.466,0.717 5.376,0.596 10.632,0.565 15.77,-0.09 5.135,-0.658 10.273,-1.524 15.412,-2.599 1.192,-0.24 2.388,-0.568 3.584,-0.985 1.193,-0.42 2.388,-0.807 3.584,-1.165 -1.316,-3.108 -2.749,-6.124 -4.301,-9.05 m -42.651,-29.658 c -3.466,-0.121 -6.989,0.027 -10.574,0.447 -3.584,0.418 -7.168,0.628 -10.752,0.628 1.076,-3.108 2.568,-6.841 4.481,-11.201 1.909,-4.362 2.388,-8.333 1.433,-11.917 z m 69.173,-40.143 c -0.716,-2.987 -1.464,-5.914 -2.24,-8.781 -0.778,-2.867 -1.522,-5.796 -2.239,-8.781 -0.718,-3.226 0,-6.751 2.15,-10.574 2.151,-3.824 5.256,-7.409 9.319,-10.751 0.475,-0.48 -3.704,-0.39 -12.545,0.268 -8.842,0.655 -15.353,1.523 -19.534,2.599 -4.3,2.626 -6.75,7.733 -7.347,15.322 -0.599,7.585 -1.075,12.393 -1.434,14.426 -0.717,0.358 -3.107,-3.736 -7.168,-12.276 -4.062,-8.543 -11.889,-17.114 -23.475,-25.715 -3.467,-2.51 -7.679,-4.839 -12.635,-6.99 -4.959,-2.15 -9.47,-3.881 -13.53,-5.197 -0.359,-0.238 -0.747,-0.417 -1.164,-0.537 -0.42,-0.118 -0.927,-0.238 -1.524,-0.359 0.359,1.674 2.599,5.497 6.72,11.469 4.122,5.973 4.15,14.574 0.09,25.806 5.135,1.792 8.898,3.405 11.29,4.839 2.388,1.433 5.017,3.343 7.885,5.734 3.343,2.986 6.062,6.748 8.154,11.29 2.089,4.539 3.136,9.078 3.136,13.62 0,5.376 -4.122,7.107 -12.366,5.197 -8.243,-1.913 -13.56,-2.809 -15.949,-2.688 -0.12,1.671 0.359,3.701 1.434,6.093 1.075,2.389 1.971,4.419 2.688,6.093 1.672,3.464 3.733,6.569 6.183,9.319 2.447,2.746 5.224,5.196 8.333,7.347 3.942,2.868 8.092,5.077 12.455,6.631 4.359,1.551 8.93,2.33 13.709,2.33 5.376,0 10.332,-0.987 14.874,-2.957 4.539,-1.972 8.72,-4.811 12.545,-8.513 3.822,-3.584 6.838,-7.588 9.05,-12.007 2.209,-4.421 3.732,-9.26 4.569,-14.516 0.477,-2.987 0.538,-5.944 0.18,-8.87 -0.359,-2.929 -0.897,-5.886 -1.614,-8.871 m 32.617,23.476 c -0.122,4.18 -0.807,8.303 -2.062,12.365 -1.254,4.061 -2.839,7.886 -4.749,11.47 -3.226,5.972 -6.988,11.348 -11.29,16.129 -4.301,4.776 -9.677,9.018 -16.128,12.723 -4.78,2.746 -9.829,5.135 -15.143,7.168 -5.318,2.031 -10.842,3.584 -16.577,4.659 -4.542,0.956 -9.081,1.641 -13.62,2.061 -4.542,0.418 -9.139,0.566 -13.799,0.448 -2.508,-0.12 -5.079,-0.358 -7.706,-0.717 -2.629,-0.358 -5.196,-0.716 -7.705,-1.075 -1.434,-0.24 -2.808,-0.478 -4.122,-0.717 -1.316,-0.24 -2.688,-0.537 -4.122,-0.895 -2.27,5.851 -4.511,11.676 -6.72,17.473 -2.213,5.793 -4.69,11.497 -7.437,17.114 2.268,0.596 4.508,1.134 6.721,1.612 2.209,0.477 4.449,0.835 6.719,1.075 2.509,0.359 5.077,0.687 7.706,0.986 2.626,0.297 5.256,0.507 7.885,0.628 5.019,0.237 9.975,0.268 14.874,0.088 4.898,-0.178 9.795,-0.688 14.695,-1.522 6.332,-0.958 12.514,-2.302 18.548,-4.032 6.032,-1.734 11.977,-3.854 17.831,-6.362 5.973,-2.509 11.707,-5.438 17.204,-8.782 5.494,-3.345 10.691,-6.988 15.591,-10.931 3.823,-3.108 7.168,-6.393 10.035,-9.857 2.868,-3.466 5.436,-7.288 7.707,-11.469 2.268,-3.825 4.3,-8.005 6.092,-12.545 1.792,-4.659 3.254,-9.379 4.391,-14.157 1.135,-4.779 1.882,-9.559 2.24,-14.336 0.238,-4.9 0.059,-9.559 -0.537,-13.978 h -2.688 c -3.943,0.596 -7.916,1.165 -11.917,1.703 -4.004,0.537 -7.975,0.985 -11.917,1.344 0,0.358 0.027,0.716 0.088,1.075 0.06,0.358 0.029,0.775 -0.088,1.254"
       style="fill:#999;fill-opacity:1;fill-rule:nonzero;stroke:none"
       transform="matrix(0.35277776,0,0,-0.35277776,131.06994,106.48405)"
       clip-path="url(#clipPath68)" />
  </g>
</svg>
