<?xml version="1.0" encoding="UTF-8" standalone="no"?>
<!-- Created with Inkscape (http://www.inkscape.org/) -->

<svg
   width="100%"
   height="100%"
   viewBox="0 0 73.580856 64.75103"
   version="1.1"
   id="svg1"
   xmlns="http://www.w3.org/2000/svg"
   xmlns:svg="http://www.w3.org/2000/svg">
  <defs
     id="defs1">
    <clipPath
       clipPathUnits="userSpaceOnUse"
       id="clipPath79">
      <path
         d="M 0,500 H 500 V 0 H 0 Z"
         transform="translate(-243.43101,-341.77301)"
         id="path79" />
    </clipPath>
  </defs>
  <g
     id="layer1"
     transform="translate(-77.258158,-26.722917)">
    <path
       id="path78"
       d="m 0,0 h 7.258 c 3.164,0 5.466,-0.062 6.899,-0.179 2.031,0 3.584,-0.061 4.659,-0.179 1.076,-0.121 2.509,-0.3 4.302,-0.538 7.527,-1.196 14.516,-2.957 20.967,-5.287 6.451,-2.329 12.304,-5.286 17.562,-8.87 3.464,-2.391 6.72,-5.107 9.767,-8.154 3.046,-3.047 5.704,-6.244 7.975,-9.588 1.192,-1.674 2.357,-3.614 3.494,-5.824 1.135,-2.212 2.061,-4.211 2.778,-6.003 1.313,-3.108 2.329,-6.334 3.046,-9.678 0.717,-3.346 1.193,-6.871 1.434,-10.573 v -5.376 -5.734 c -0.359,-5.618 -0.896,-11.052 -1.613,-16.308 -0.716,-5.376 -1.643,-10.483 -2.778,-15.322 -1.137,-4.839 -2.48,-9.47 -4.031,-13.889 -1.435,-4.301 -3.109,-8.305 -5.019,-12.007 -2.032,-4.062 -4.39,-7.706 -7.078,-10.931 -2.688,-3.226 -5.466,-5.796 -8.333,-7.706 -0.717,-0.479 -1.613,-0.986 -2.688,-1.523 -1.076,-0.538 -1.854,-0.868 -2.33,-0.986 -0.241,-0.12 -0.538,-0.3 -0.896,-0.537 -0.12,-0.242 -0.21,-0.897 -0.269,-1.972 -0.061,-1.075 -0.089,-2.688 -0.089,-4.839 v -4.121 l 0.358,-0.18 c 2.03,-0.24 3.554,-0.42 4.569,-0.537 1.014,-0.121 2.299,-0.18 3.854,-0.18 1.672,0 2.984,0.029 3.942,0.09 0.955,0.059 2.151,0.269 3.584,0.627 1.075,0.118 2.031,0.297 2.867,0.538 0.835,0.238 1.792,0.596 2.868,1.076 2.15,0.716 4.39,1.702 6.72,2.957 2.329,1.254 4.211,2.357 5.645,3.315 1.552,1.192 3.612,3.046 6.182,5.555 2.569,2.509 4.509,4.659 5.825,6.452 l 1.255,1.433 h 2.508 c 1.551,0 2.806,-0.031 3.764,-0.089 0.954,-0.062 1.492,-0.152 1.612,-0.269 0.239,-0.121 0.328,-0.3 0.269,-0.538 -0.062,-0.24 -0.21,-0.717 -0.447,-1.434 -0.6,-1.912 -1.555,-4.3 -2.868,-7.168 -1.316,-2.867 -2.509,-5.197 -3.585,-6.989 -1.792,-3.225 -3.704,-6.124 -5.734,-8.691 -2.032,-2.568 -4.184,-4.749 -6.451,-6.541 -1.912,-1.552 -4.004,-2.867 -6.273,-3.943 -2.27,-1.075 -4.42,-1.851 -6.451,-2.33 -0.837,-0.117 -1.853,-0.207 -3.047,-0.268 -1.195,-0.059 -2.867,-0.149 -5.017,-0.269 -4.659,-0.118 -9.588,0.03 -14.784,0.447 -5.198,0.42 -8.513,0.869 -9.947,1.345 -0.241,0.12 -0.42,0.21 -0.537,0.269 -0.121,0.061 -0.241,0.21 -0.359,0.448 -0.24,0.837 -0.657,2.629 -1.254,5.376 -0.6,2.75 -1.017,5.256 -1.255,7.526 -0.358,2.151 -0.537,4.419 -0.537,6.81 0,2.389 0.117,4.36 0.358,5.914 0.359,2.509 0.955,4.839 1.792,6.989 0.834,2.151 1.972,4.36 3.406,6.631 1.312,1.909 2.387,4.001 3.225,6.273 0.834,2.267 1.909,5.913 3.226,10.93 l 1.075,4.122 h 1.254 c 2.03,0.118 3.405,0.239 4.122,0.359 0.717,0.118 1.134,0.297 1.255,0.538 0.117,0.237 0.297,1.075 0.537,2.509 0.238,1.433 0.597,3.522 1.075,6.272 0.118,1.434 0.27,2.716 0.448,3.853 0.18,1.133 0.328,1.82 0.449,2.06 0.238,1.314 0.806,5.494 1.702,12.545 0.896,7.048 1.344,11.228 1.344,12.544 0,1.193 -0.179,1.91 -0.538,2.15 -0.358,0.239 -1.613,0.359 -3.763,0.359 h -2.867 v 5.377 c -0.241,8.718 -0.569,15.201 -0.986,19.443 -0.42,4.239 -1.165,7.975 -2.24,11.2 -0.958,2.986 -2.419,6.004 -4.391,9.051 -1.971,3.046 -4.152,5.763 -6.541,8.153 -1.674,1.672 -3.435,3.106 -5.286,4.301 -1.854,1.193 -4.153,2.447 -6.899,3.764 -3.347,1.552 -6.334,2.716 -8.961,3.494 -2.629,0.776 -5.556,1.283 -8.781,1.523 -3.584,0.359 -7.41,0.507 -11.469,0.449 -4.064,-0.062 -7.527,-0.269 -10.395,-0.627 -2.987,-0.48 -6.003,-1.227 -9.049,-2.241 -3.046,-1.016 -6.124,-2.36 -9.229,-4.032 -2.15,-1.075 -3.915,-2.092 -5.287,-3.047 -1.375,-0.957 -2.839,-2.212 -4.391,-3.762 -3.225,-3.347 -5.824,-6.872 -7.795,-10.574 -1.971,-3.705 -3.495,-8.005 -4.57,-12.903 -0.358,-1.434 -0.627,-2.929 -0.807,-4.479 -0.178,-1.555 -0.268,-3.647 -0.268,-6.273 -0.12,-2.033 -0.21,-5.049 -0.269,-9.05 -0.061,-4.005 -0.09,-6.662 -0.09,-7.974 v -1.793 h -2.867 c -2.391,0 -3.794,-0.179 -4.211,-0.537 -0.421,-0.359 -0.509,-1.375 -0.269,-3.047 0.118,-0.359 0.207,-0.986 0.269,-1.882 0.059,-0.896 0.149,-1.764 0.269,-2.598 0.597,-5.975 1.523,-13.113 2.777,-21.416 1.255,-8.304 2.062,-12.634 2.42,-12.992 0.237,-0.12 0.744,-0.24 1.523,-0.358 0.776,-0.12 1.94,-0.241 3.495,-0.359 h 1.612 l 0.897,-3.584 c 1.192,-4.9 2.267,-8.601 3.225,-11.11 0.955,-2.51 2.209,-5.019 3.764,-7.527 1.075,-1.792 1.85,-3.167 2.329,-4.122 0.476,-0.958 0.896,-2.091 1.255,-3.405 0.238,-0.837 0.448,-1.702 0.627,-2.598 0.179,-0.896 0.328,-1.944 0.448,-3.136 0.117,-1.196 0.179,-3.019 0.179,-5.466 0,-2.45 -0.062,-4.332 -0.179,-5.646 -0.358,-2.508 -0.807,-5.224 -1.344,-8.153 -0.538,-2.927 -0.986,-4.867 -1.345,-5.824 -0.12,-0.358 -0.33,-0.597 -0.626,-0.717 -0.3,-0.118 -0.749,-0.238 -1.344,-0.358 -2.151,-0.477 -5.946,-0.835 -11.38,-1.075 -5.438,-0.239 -10.187,-0.297 -14.247,-0.18 -2.033,0 -3.494,0.061 -4.391,0.18 -0.895,0.12 -1.822,0.298 -2.777,0.537 -4.901,1.195 -9.56,3.883 -13.979,8.064 -4.421,4.181 -8.243,9.498 -11.468,15.949 -1.076,2.151 -2.123,4.481 -3.137,6.99 -1.016,2.508 -1.644,4.3 -1.881,5.376 -0.121,0.596 -0.031,0.923 0.269,0.985 0.296,0.06 1.582,0.09 3.852,0.09 h 3.942 l 1.972,-2.329 c 3.464,-4.422 7.465,-8.216 12.007,-11.38 4.539,-3.167 9.14,-5.407 13.799,-6.721 1.672,-0.478 3.405,-0.807 5.197,-0.985 1.792,-0.18 4.121,-0.269 6.989,-0.269 2.151,0.117 3.673,0.207 4.57,0.269 0.895,0.058 1.582,0.207 2.06,0.448 l 0.717,0.179 v 10.753 l -1.971,0.895 c -1.554,0.597 -2.928,1.282 -4.122,2.062 -1.195,0.775 -2.509,1.819 -3.942,3.135 -3.705,3.226 -7.199,7.885 -10.484,13.979 -3.287,6.093 -6.003,12.961 -8.154,20.608 -1.675,5.494 -2.987,11.08 -3.942,16.756 -0.958,5.673 -1.675,11.976 -2.151,18.906 -0.12,2.151 -0.179,4.988 -0.179,8.513 0,3.523 0.059,6.003 0.179,7.437 0.359,3.343 0.896,6.51 1.613,9.498 0.717,2.985 1.613,5.914 2.688,8.781 0.476,1.075 1.194,2.626 2.151,4.659 0.955,2.03 1.792,3.584 2.508,4.659 3.943,6.57 9.11,12.366 15.502,17.383 6.39,5.019 13.768,9.02 22.132,12.007 3.343,1.193 6.928,2.24 10.752,3.137 3.822,0.895 7.645,1.64 11.47,2.24 0.834,0 2.06,0.058 3.674,0.179 C -2.957,-0.24 -1.434,-0.12 0,0"
       style="fill:#999;fill-opacity:1;fill-rule:nonzero;stroke:none"
       transform="matrix(0.35277776,0,0,-0.35277776,111.73127,26.722916)"
       clip-path="url(#clipPath79)" />
  </g>
</svg>
