<?xml version="1.0" encoding="UTF-8" standalone="no"?>
<!-- Created with Inkscape (http://www.inkscape.org/) -->

<svg
   width="100%"
   height="100%"
   viewBox="0 -10 80 80"
   version="1.1"
   id="svg1"
   xmlns="http://www.w3.org/2000/svg"
   xmlns:svg="http://www.w3.org/2000/svg">
  <defs
     id="defs1">
    <clipPath
       clipPathUnits="userSpaceOnUse"
       id="clipPath105">
      <path
         d="M 0,500 H 500 V 0 H 0 Z"
         transform="translate(-223.38801,-300.26761)"
         id="path105" />
    </clipPath>
  </defs>
  <g
     id="layer1"
     transform="translate(-105.30416,25.664582)">
    <path
       id="path104"
       clip-path="url(#clipPath105)"
       style="fill:#999;fill-opacity:1;fill-rule:nonzero;stroke:none"
       transform="matrix(0.35277776,0,0,-0.35277776,135.20726,-11.060926)"
       d="M 0,0 50.356,-50.357 8.96,-91.933 l -41.397,41.576 24.91,24.91 23.297,-23.477 c -1.434,-1.433 -7.348,-7.347 -8.782,-8.78 l -15.411,15.411 -9.139,-8.96 24.55,-24.372 26.881,26.701 L -7.527,-7.526 -50.537,-50.357 8.96,-109.854 68.456,-50.357 8.96,9.14 Z m 93.545268,-98.384802 c -0.957,0 -1.912,-0.179 -2.867,-0.537 -0.957,-0.359 -1.792,-0.897 -2.509,-1.612998 l -27.239,-25.806 h -130.104 V 25.627198 H 122.21927 v -14.158 H 90.319268 V -0.35880181 H 122.21927 V -16.487802 H 90.319268 v -11.648 h 31.900002 v -16.308 H 90.319268 v -11.648 h 31.900002 v -16.308 H 90.319268 v -11.648 h 31.900002 v -14.337 z m 42.114002,137.452 c -1.554,1.551 -3.405,2.329 -5.555,2.329 H -76.879732 c -2.15,0 -4.004,-0.778 -5.555,-2.329 -1.554,-1.555 -2.33,-3.405 -2.33,-5.556 V -134.0468 c 0,-2.268 0.776,-4.15 2.33,-5.645 1.551,-1.492 3.405,-2.24 5.555,-2.24 h 140.857 c 0.954,0 1.909,0.18 2.867,0.538 0.955,0.359 1.792,0.896 2.509,1.613 l 27.239,25.805 h 33.512002 c 2.15,0 4.001,0.745 5.555,2.24 1.551,1.493 2.329,3.374 2.329,5.646 V 33.511198 c 0,2.151 -0.778,4.001 -2.329,5.556" />
  </g>
</svg>
