<?xml version="1.0" encoding="UTF-8"?>
<svg width="1137px" height="936px" viewBox="0 0 1137 936" version="1.1" xmlns="http://www.w3.org/2000/svg" xmlns:xlink="http://www.w3.org/1999/xlink">
    <title>Salvaged Memories</title>
    <g id="Salvaged-Memories" stroke="none" stroke-width="1" fill="none" fill-rule="evenodd">
        <rect fill="#FFFFFF" x="0" y="0" width="1137" height="936"></rect>
        <g id="NISEI-SM20-icon-spiral-final" transform="translate(40.000000, 40.000000)">
            <polygon id="path1559-7-path" stroke="#000000" stroke-width="80" stroke-linejoin="round" transform="translate(528.779331, 427.732303) scale(-1, 1) rotate(-180.000000) translate(-528.779331, -427.732303) " points="0.784112969 855.286707 0.784112969 0.177898687 719.451655 0.177898687 870.464913 142.76277 1056.77455 142.76277 1056.77455 855.286707"></polygon>
            <line x1="853.465347" y1="570.321133" x2="1056.77498" y2="570.321133" id="path1559-7-path" stroke="#000000" stroke-width="60" transform="translate(955.120165, 570.321133) scale(-1, 1) rotate(-180.000000) translate(-955.120165, -570.321133) "></line>
            <line x1="853.465347" y1="427.732057" x2="1056.77498" y2="427.732057" id="path1559-7-path" stroke="#000000" stroke-width="60" transform="translate(955.120165, 427.732057) scale(-1, 1) rotate(-180.000000) translate(-955.120165, -427.732057) "></line>
            <line x1="853.465347" y1="285.145216" x2="1056.77498" y2="285.145216" id="path1559-7-path" stroke="#000000" stroke-width="60" transform="translate(955.120165, 285.145216) scale(-1, 1) rotate(-180.000000) translate(-955.120165, -285.145216) "></line>
            <line x1="853.465347" y1="142.765832" x2="1056.77498" y2="142.765832" id="path1559-7-path" stroke="#000000" stroke-width="60" transform="translate(955.120165, 142.765832) scale(-1, 1) rotate(-180.000000) translate(-955.120165, -142.765832) "></line>
            <g id="Group" transform="translate(135.000000, 124.000000)" fill="#000000" fill-rule="nonzero">
                <path d="M303.95695,0.796882014 L607.408125,304.268092 L303.904362,607.796882 L0.408124799,304.278106 L219.48189,85.1855576 L430.675796,296.395148 L407.634636,319.433007 C375.092229,351.977855 349.284257,377.792501 316.742017,410.337401 L293.703356,433.37526 L168.975141,308.637769 L215.052437,262.554538 L293.703356,341.211298 C308.490939,326.422605 323.72843,311.183982 338.516179,296.395148 L219.48189,177.349519 L92.5627298,304.278106 L303.901862,515.630433 L515.251007,304.268092 L257.879641,46.8776129 L303.95695,0.796882014 Z" id="rect1070-path" transform="translate(303.908125, 304.296882) rotate(-360.000000) translate(-303.908125, -304.296882) "></path>
            </g>
        </g>
    </g>
</svg>