<?xml version="1.0" encoding="UTF-8" standalone="no"?>
<!-- Created with Inkscape (http://www.inkscape.org/) -->

<svg
   width="100%"
   height="100%"
   viewBox="0 0 64.661263 64.674042"
   version="1.1"
   id="svg1"
   xmlns="http://www.w3.org/2000/svg"
   xmlns:svg="http://www.w3.org/2000/svg">
  <defs
     id="defs1">
    <clipPath
       clipPathUnits="userSpaceOnUse"
       id="clipPath23">
      <path
         d="M 0,500 H 500 V 0 H 0 Z"
         transform="translate(-245.77083,-279.8379)"
         id="path23" />
    </clipPath>
  </defs>
  <g
     id="layer1"
     transform="translate(-34.925011,-25.399999)">
    <path
       id="path22"
       d="m 0,0 c 3.822,0.358 7.585,-0.062 11.29,-1.254 3.701,-1.196 7.048,-3.108 10.035,-5.735 3.226,-2.867 5.673,-6.424 7.348,-10.663 1.672,-4.242 2.267,-8.574 1.792,-12.992 -0.6,-5.377 -2.629,-10.187 -6.093,-14.426 -3.467,-4.243 -7.768,-7.258 -12.903,-9.05 -1.554,-0.479 -2.929,-0.807 -4.122,-0.986 -1.196,-0.179 -2.688,-0.269 -4.48,-0.269 -1.433,0 -2.481,0.028 -3.137,0.09 -0.657,0.059 -1.343,0.148 -2.06,0.269 -4.421,0.954 -8.364,2.777 -11.827,5.466 -3.467,2.688 -6.155,5.941 -8.065,9.766 -1.792,3.943 -2.688,8.003 -2.688,12.186 0,4.181 0.896,8.182 2.688,12.007 1.314,2.747 3.075,5.225 5.286,7.437 2.21,2.21 4.688,3.971 7.438,5.287 1.434,0.834 2.957,1.492 4.569,1.971 C -3.315,-0.42 -1.675,-0.12 0,0 M 9.318,15.412 C 8.243,15.529 6.361,15.619 3.674,15.681 0.985,15.739 -0.958,15.65 -2.15,15.412 -8.484,14.695 -14.309,12.693 -19.623,9.409 -24.94,6.121 -29.391,1.792 -32.975,-3.584 c -1.673,-2.391 -3.077,-5.138 -4.211,-8.244 -1.136,-3.108 -1.943,-6.213 -2.418,-9.318 -0.242,-1.196 -0.39,-2.839 -0.449,-4.928 -0.061,-2.092 -0.031,-3.736 0.089,-4.928 0.36,-3.585 1.135,-7.051 2.33,-10.394 1.194,-3.347 2.689,-6.452 4.481,-9.319 3.342,-5.139 7.616,-9.381 12.813,-12.724 5.196,-3.346 10.842,-5.497 16.935,-6.452 1.551,-0.24 3.584,-0.358 6.093,-0.358 2.508,0 4.539,0.118 6.093,0.358 7.285,1.076 13.768,3.674 19.444,7.796 5.672,4.121 10.125,9.408 13.35,15.86 1.434,2.985 2.51,6.062 3.227,9.229 0.717,3.164 1.075,6.421 1.075,9.767 0,5.734 -1.075,11.228 -3.227,16.487 -2.15,5.255 -5.257,9.915 -9.318,13.978 -1.675,1.671 -3.436,3.164 -5.286,4.48 -1.855,1.313 -3.854,2.509 -6.004,3.584 -2.15,1.075 -4.211,1.91 -6.183,2.509 -1.971,0.597 -4.152,1.134 -6.541,1.613 m -35.84,46.235 c 0.237,0 0.595,0.059 1.075,0.179 0.358,0 1.044,-0.089 2.06,-0.268 1.014,-0.18 1.821,-0.39 2.419,-0.628 0.835,-0.241 1.792,-0.627 2.867,-1.164 l 2.689,-1.345 c 0.358,-0.24 0.448,-0.358 0.268,-0.358 -0.178,0 -1.405,0.238 -3.673,0.717 -1.674,0.238 -2.778,0.358 -3.316,0.358 -0.537,0 -1.225,-0.299 -2.06,-0.896 -0.599,-0.358 -1.227,-0.868 -1.882,-1.523 -0.657,-0.658 -1.523,-1.585 -2.599,-2.778 -0.957,-1.195 -1.554,-2.033 -1.792,-2.508 -0.24,-0.479 -0.358,-1.255 -0.358,-2.33 0,-1.434 0.238,-2.929 0.717,-4.48 0.476,-1.555 1.134,-2.988 1.971,-4.301 0.597,-1.075 1.314,-1.882 2.151,-2.42 0.835,-0.537 2.03,-1.106 3.584,-1.702 1.672,-0.599 3.853,-1.165 6.541,-1.702 2.688,-0.538 5.225,-0.928 7.616,-1.165 0.835,0 1.613,-0.062 2.33,-0.18 0.717,-0.12 1.254,-0.179 1.612,-0.179 1.672,-0.479 3.227,-1.495 4.66,-3.046 1.434,-1.554 2.568,-3.526 3.405,-5.914 l 0.358,-1.255 -0.358,-2.15 c 0,-0.599 -0.062,-1.165 -0.179,-1.703 -0.12,-0.537 -0.18,-0.927 -0.18,-1.164 v -0.359 l 0.359,0.179 c 0.955,0.477 2,1.165 3.136,2.061 1.134,0.896 1.999,1.761 2.599,2.599 0.954,1.193 1.612,2.329 1.971,3.404 0.358,1.076 0.596,2.568 0.717,4.481 0,1.434 0.148,2.778 0.448,4.032 0.297,1.255 0.685,2.537 1.165,3.853 0.475,1.193 1.461,3.343 2.957,6.451 1.492,3.106 2.477,4.956 2.956,5.556 1.076,1.551 2.358,3.046 3.853,4.48 1.493,1.434 3.136,2.688 4.928,3.763 1.075,0.597 2.089,1.075 3.047,1.434 0.955,0.358 2.089,0.655 3.405,0.896 3.343,0.717 6.272,1.013 8.782,0.896 2.508,-0.12 4.538,-0.658 6.092,-1.613 0.954,-0.717 1.941,-1.913 2.957,-3.584 1.014,-1.674 1.82,-3.584 2.419,-5.735 0.239,-0.957 0.269,-1.374 0.09,-1.254 -0.18,0.117 -0.806,1.013 -1.882,2.688 -0.478,0.717 -1.136,1.613 -1.971,2.688 -0.717,0.596 -1.674,0.986 -2.868,1.165 -1.195,0.179 -2.928,0.207 -5.197,0.09 -1.433,-0.121 -2.36,-0.21 -2.777,-0.269 -0.42,-0.062 -0.807,-0.21 -1.165,-0.448 -1.075,-0.599 -2.181,-1.792 -3.316,-3.584 -1.136,-1.793 -1.942,-3.585 -2.419,-5.377 -0.358,-1.316 -0.478,-2.45 -0.358,-3.404 0.117,-0.958 0.538,-2.151 1.255,-3.584 0.954,-2.034 2.15,-4.122 3.584,-6.273 1.433,-2.15 3.164,-4.421 5.196,-6.81 1.194,-1.554 2,-2.808 2.42,-3.763 0.417,-0.958 0.627,-2.092 0.627,-3.405 0,-1.196 -0.151,-2.392 -0.448,-3.584 -0.299,-1.196 -0.747,-2.391 -1.344,-3.584 L 43.905,10.573 39.066,6.989 C 37.751,6.032 36.138,4.777 34.229,3.226 c -0.122,-0.241 1.013,-0.42 3.404,-0.538 2.388,-0.12 4.06,-0.062 5.017,0.179 0.955,0.359 1.793,0.717 2.51,1.076 0.717,0.358 1.492,0.896 2.329,1.613 1.91,1.792 3.644,3.105 5.198,3.942 1.55,0.835 3.88,1.792 6.989,2.867 0.717,0.239 1.522,0.538 2.419,0.896 0.896,0.359 1.64,0.597 2.24,0.717 1.672,0.597 3.046,0.986 4.122,1.165 1.075,0.179 2.388,0.269 3.942,0.269 1.551,0 2.895,-0.062 4.033,-0.179 1.133,-0.121 2.357,-0.359 3.673,-0.717 0.955,-0.241 1.82,-0.538 2.598,-0.896 0.776,-0.359 1.642,-0.837 2.599,-1.434 2.627,-1.674 4.839,-3.405 6.631,-5.197 1.792,-1.792 2.985,-3.525 3.584,-5.197 0.358,-1.075 0.448,-2.36 0.268,-3.853 -0.179,-1.495 -0.627,-3.077 -1.344,-4.749 -0.24,-0.716 -0.658,-1.612 -1.254,-2.688 -0.599,-1.075 -0.896,-1.554 -0.896,-1.434 0.238,1.434 0.476,2.985 0.717,4.66 0.117,0.596 0.207,1.134 0.268,1.613 0.06,0.476 0.09,0.834 0.09,1.075 -0.12,0.358 -0.358,0.865 -0.717,1.523 -0.358,0.655 -0.778,1.283 -1.254,1.882 C 90.678,0.538 89.631,1.462 88.259,2.599 86.884,3.732 86.019,4.418 85.66,4.66 85.302,4.777 84.703,4.867 83.868,4.928 83.031,4.987 82.256,4.956 81.539,4.839 79.626,4.48 77.744,3.853 75.894,2.957 74.04,2.061 72.816,1.134 72.22,0.179 c -1.075,-1.433 -2.033,-3.914 -2.867,-7.437 -0.837,-3.525 -1.434,-7.378 -1.792,-11.558 -0.242,-1.555 -0.479,-2.689 -0.717,-3.406 -0.241,-0.716 -0.6,-1.495 -1.075,-2.329 -0.717,-0.958 -1.614,-1.823 -2.689,-2.599 -1.075,-0.778 -2.27,-1.405 -3.584,-1.881 -1.195,-0.479 -2.06,-0.748 -2.599,-0.807 -0.537,-0.061 -2.002,0.09 -4.39,0.448 -1.195,0.118 -2.688,0.297 -4.48,0.538 0,-0.121 0.359,-0.538 1.076,-1.254 0.716,-0.717 1.312,-1.255 1.792,-1.613 0.716,-0.479 1.402,-0.896 2.06,-1.255 0.655,-0.359 1.282,-0.599 1.882,-0.717 0.238,-0.12 0.685,-0.21 1.344,-0.268 0.655,-0.062 1.344,-0.09 2.061,-0.09 1.434,-0.12 2.598,-0.269 3.494,-0.448 0.897,-0.179 1.999,-0.448 3.316,-0.807 1.433,-0.478 3.763,-1.495 6.989,-3.046 3.226,-1.554 5.435,-2.75 6.63,-3.584 0.717,-0.479 1.82,-1.464 3.315,-2.957 1.493,-1.495 2.537,-2.66 3.137,-3.495 0.954,-1.433 1.702,-2.688 2.24,-3.763 0.537,-1.075 0.986,-2.212 1.344,-3.405 0.834,-3.584 1.192,-6.841 1.075,-9.766 -0.12,-2.93 -0.717,-5.108 -1.792,-6.541 -0.717,-0.958 -1.733,-1.855 -3.047,-2.689 -1.315,-0.837 -2.867,-1.495 -4.659,-1.971 -0.837,-0.359 -1.554,-0.599 -2.15,-0.717 -0.6,-0.12 -0.837,-0.12 -0.717,0 1.192,0.717 2.15,1.372 2.867,1.971 0.717,0.476 1.372,0.955 1.972,1.434 0.596,0.476 0.954,0.775 1.075,0.896 0.358,0.476 0.596,1.076 0.717,1.792 0.117,0.717 0.179,1.671 0.179,2.868 0,1.672 -0.062,3.105 -0.179,4.3 -0.121,1.193 -0.3,2.031 -0.538,2.509 -0.359,0.955 -1.316,1.972 -2.867,3.047 -1.554,1.075 -3.288,1.909 -5.198,2.509 -0.957,0.358 -1.853,0.565 -2.687,0.627 -0.838,0.059 -1.613,0.028 -2.33,-0.09 -1.792,-0.479 -4.184,-1.644 -7.168,-3.494 -2.989,-1.854 -6.093,-4.094 -9.32,-6.721 -1.315,-1.195 -2.449,-1.971 -3.404,-2.329 -0.958,-0.358 -2.271,-0.479 -3.942,-0.358 -1.075,0 -2.092,0.117 -3.047,0.358 -0.958,0.237 -1.972,0.655 -3.047,1.254 l -1.434,0.538 -2.508,3.226 c -0.837,1.192 -1.434,1.999 -1.792,2.419 -0.359,0.418 -0.599,0.628 -0.717,0.628 -0.24,-0.6 -0.389,-1.882 -0.448,-3.854 -0.062,-1.971 0.028,-3.494 0.269,-4.569 0.237,-0.958 0.596,-1.824 1.075,-2.599 0.476,-0.778 1.014,-1.523 1.613,-2.24 1.792,-1.912 3.136,-3.736 4.032,-5.466 0.896,-1.733 2.06,-4.69 3.495,-8.871 1.075,-3.108 1.729,-5.138 1.971,-6.093 0.238,-0.957 0.358,-2.509 0.358,-4.659 0,-1.675 -0.061,-2.929 -0.179,-3.764 -0.121,-0.837 -0.358,-1.97 -0.716,-3.404 -0.242,-1.075 -0.539,-2.033 -0.897,-2.867 -0.358,-0.838 -0.837,-1.734 -1.434,-2.689 -1.792,-2.747 -3.556,-4.987 -5.286,-6.72 -1.733,-1.731 -3.436,-2.895 -5.107,-3.495 -0.48,-0.238 -0.868,-0.358 -1.165,-0.358 h -1.524 c -0.958,0 -1.912,0.12 -2.867,0.358 -0.958,0.242 -2.212,0.659 -3.763,1.255 -0.479,0.241 -1.196,0.627 -2.151,1.164 -0.958,0.538 -1.375,0.807 -1.254,0.807 h 0.717 c 3.226,-0.717 5.166,-1.103 5.824,-1.165 0.655,-0.059 1.344,0.09 2.061,0.448 0.597,0.359 1.254,0.868 1.971,1.524 0.716,0.658 1.613,1.585 2.688,2.777 1.193,1.434 1.91,2.42 2.15,2.957 0.239,0.538 0.359,1.345 0.359,2.42 0,1.671 -0.359,3.522 -1.075,5.555 -0.717,2.03 -1.613,3.584 -2.688,4.659 -1.076,1.193 -3.347,2.3 -6.81,3.315 -3.467,1.014 -7.706,1.762 -12.724,2.24 -0.837,0.119 -1.612,0.239 -2.329,0.359 -0.717,0.118 -1.196,0.18 -1.434,0.18 -1.554,0.595 -2.988,1.671 -4.302,3.225 -1.315,1.551 -2.329,3.405 -3.045,5.556 l -0.538,1.254 0.716,4.839 c 0.239,1.433 0.477,3.105 0.717,5.017 -0.12,0.117 -0.51,-0.33 -1.165,-1.344 -0.657,-1.016 -1.105,-1.823 -1.344,-2.419 -0.24,-0.599 -0.388,-1.137 -0.448,-1.613 -0.061,-0.478 -0.15,-1.375 -0.268,-2.688 -0.241,-2.629 -0.627,-4.78 -1.166,-6.451 -0.537,-1.675 -1.822,-4.542 -3.852,-8.602 -0.479,-1.196 -0.985,-2.302 -1.523,-3.315 -0.538,-1.017 -0.927,-1.704 -1.166,-2.062 -1.673,-2.391 -3.793,-4.541 -6.361,-6.451 -2.57,-1.912 -5.107,-3.164 -7.616,-3.764 -2.867,-0.717 -5.556,-1.075 -8.065,-1.075 -2.508,0 -4.542,0.241 -6.092,0.717 -1.076,0.479 -2.034,1.137 -2.867,1.971 -0.838,0.834 -1.614,1.911 -2.331,3.226 -0.599,1.075 -1.136,2.33 -1.613,3.764 -0.478,1.433 -0.717,2.267 -0.717,2.509 0.119,0 0.359,-0.242 0.717,-0.717 0.359,-0.479 0.777,-1.075 1.255,-1.792 0.476,-0.717 0.955,-1.375 1.434,-1.972 0.475,-0.599 0.775,-0.957 0.895,-1.075 0.597,-0.479 1.524,-0.807 2.778,-0.985 1.254,-0.18 2.957,-0.21 5.108,-0.09 1.433,0.118 2.329,0.238 2.687,0.358 0.359,0.118 0.777,0.238 1.255,0.358 1.075,0.597 2.179,1.792 3.316,3.584 1.133,1.792 1.94,3.644 2.419,5.556 0.238,1.314 0.297,2.447 0.179,3.405 -0.121,0.954 -0.599,2.209 -1.433,3.763 -0.958,2.03 -2.241,4.239 -3.854,6.631 -1.612,2.389 -3.377,4.719 -5.286,6.989 -0.958,1.075 -1.613,2.151 -1.972,3.226 -0.358,1.075 -0.478,2.33 -0.358,3.763 0,1.076 0.118,2.089 0.358,3.046 0.239,0.955 0.656,1.972 1.255,3.047 0.359,0.717 0.627,1.193 0.807,1.434 0.179,0.238 0.565,0.597 1.164,1.075 0.955,0.717 1.434,1.134 1.434,1.255 0,0.117 -0.479,0.117 -1.434,0 -0.717,0 -1.285,-0.031 -1.702,-0.09 -0.42,-0.061 -0.927,-0.21 -1.524,-0.448 -0.957,-0.359 -1.702,-0.689 -2.24,-0.986 -0.537,-0.299 -1.344,-0.926 -2.419,-1.881 -1.792,-1.675 -3.494,-2.929 -5.107,-3.764 -1.613,-0.837 -4.511,-1.971 -8.692,-3.404 -2.987,-0.958 -5.048,-1.555 -6.182,-1.792 -1.137,-0.242 -2.66,-0.359 -4.571,-0.359 -2.867,0 -5.317,0.269 -7.346,0.806 -2.033,0.538 -4.122,1.523 -6.273,2.957 -2.75,1.792 -4.99,3.674 -6.72,5.645 -1.733,1.971 -2.719,3.791 -2.956,5.466 -0.239,1.075 -0.18,2.299 0.178,3.674 0.359,1.372 0.897,2.836 1.614,4.39 0.358,0.955 0.775,1.792 1.253,2.509 0.477,0.717 0.656,0.955 0.539,0.717 0,-0.12 -0.062,-0.538 -0.18,-1.255 -0.12,-0.716 -0.3,-1.495 -0.537,-2.329 -0.241,-1.554 -0.359,-2.509 -0.359,-2.867 0,-0.359 0.059,-0.779 0.179,-1.255 0.118,-0.717 0.597,-1.554 1.434,-2.509 0.835,-0.958 2.089,-2.15 3.763,-3.583 1.076,-0.838 1.821,-1.345 2.241,-1.524 0.417,-0.18 1.223,-0.268 2.419,-0.268 1.193,0 2.208,0.088 3.046,0.268 0.834,0.179 1.851,0.507 3.046,0.985 1.434,0.597 2.599,1.224 3.495,1.882 0.896,0.656 1.582,1.462 2.061,2.42 0.955,1.671 1.792,4.149 2.509,7.437 0.717,3.284 1.255,6.899 1.613,10.841 0.237,1.434 0.447,2.479 0.627,3.137 0.179,0.655 0.507,1.403 0.985,2.24 0.717,1.075 1.762,2.061 3.137,2.957 1.372,0.896 2.836,1.641 4.391,2.24 l 1.254,0.358 2.688,-0.358 c 0.717,-0.121 1.372,-0.21 1.971,-0.269 0.596,-0.062 0.955,-0.09 1.075,-0.09 0.118,-0.12 0.208,-0.12 0.269,0 0.059,0.118 0.089,0.359 0.089,0.717 0,0.359 -0.061,0.628 -0.178,0.807 -0.12,0.179 -0.42,0.565 -0.897,1.164 -1.075,0.955 -2.181,1.762 -3.315,2.42 -1.137,0.655 -2.24,1.044 -3.315,1.164 -0.241,0.118 -0.689,0.208 -1.344,0.269 -0.659,0.059 -1.286,0.09 -1.882,0.09 -2.033,0.117 -3.914,0.476 -5.645,1.075 -1.733,0.597 -4.332,1.731 -7.796,3.405 -2.629,1.313 -4.242,2.12 -4.838,2.42 -0.599,0.296 -1.255,0.686 -1.971,1.164 -1.317,0.955 -2.54,2.061 -3.674,3.316 -1.137,1.254 -2.181,2.657 -3.136,4.211 -0.958,1.434 -1.675,2.926 -2.15,4.48 -0.48,1.551 -0.897,3.522 -1.255,5.914 -0.24,1.434 -0.359,2.985 -0.359,4.659 0,1.672 0.119,2.985 0.359,3.943 0.476,1.792 1.344,3.284 2.598,4.48 1.255,1.193 3.136,2.209 5.645,3.046 0.835,0.359 2.03,0.717 3.585,1.076 -0.958,-0.717 -1.792,-1.375 -2.509,-1.972 -0.838,-0.479 -1.523,-0.926 -2.061,-1.344 -0.537,-0.42 -0.868,-0.688 -0.986,-0.806 -0.478,-0.599 -0.806,-1.523 -0.985,-2.778 -0.18,-1.254 -0.21,-2.957 -0.09,-5.107 0.117,-1.316 0.207,-2.212 0.269,-2.688 0.058,-0.479 0.207,-0.838 0.448,-1.075 0.717,-1.434 2.24,-2.809 4.569,-4.122 2.33,-1.316 4.449,-2.033 6.363,-2.151 h 1.433 c 0.359,0 0.776,0.118 1.254,0.359 1.793,0.476 4.122,1.612 6.989,3.405 2.868,1.792 5.736,3.942 8.603,6.451 0.475,0.358 0.954,0.717 1.433,1.075 0.476,0.359 0.776,0.597 0.896,0.717 1.552,0.835 3.344,1.193 5.376,1.075 2.03,-0.12 4.122,-0.717 6.272,-1.792 l 1.434,-0.717 1.972,-2.688 c 0.596,-0.837 1.372,-1.792 2.329,-2.867 l 0.358,0.179 c 0.118,0.118 0.18,0.269 0.18,0.448 v 1.165 c -0.12,0.717 -0.33,1.492 -0.627,2.33 -0.3,0.834 -0.628,1.551 -0.986,2.15 -0.121,0.239 -0.359,0.597 -0.717,1.075 -0.359,0.477 -0.779,0.896 -1.254,1.255 -1.434,1.672 -2.599,3.344 -3.495,5.018 -0.896,1.671 -2.002,4.48 -3.315,8.423 -1.196,3.225 -1.913,5.493 -2.151,6.809 -0.24,1.314 -0.299,3.047 -0.179,5.198 0,1.792 0.179,3.494 0.537,5.107 0.359,1.613 0.777,3.016 1.255,4.211 0.834,1.792 2.12,3.791 3.853,6.003 1.73,2.21 3.254,3.853 4.57,4.929 0.717,0.476 1.524,0.924 2.419,1.344 0.897,0.417 1.582,0.686 2.062,0.806"
       style="fill:#999;fill-opacity:1;fill-rule:nonzero;stroke:none"
       transform="matrix(0.35277776,0,0,-0.35277776,65.763677,47.210836)"
       clip-path="url(#clipPath23)" />
  </g>
</svg>
