<?xml version="1.0" encoding="UTF-8" standalone="no"?>
<!-- Created with Inkscape (http://www.inkscape.org/) -->

<svg
   width="100%"
   height="100%"
   viewBox="0 0 51.840343 64.715904"
   version="1.1"
   id="svg1"
   xmlns="http://www.w3.org/2000/svg"
   xmlns:svg="http://www.w3.org/2000/svg">
  <defs
     id="defs1">
    <clipPath
       clipPathUnits="userSpaceOnUse"
       id="clipPath21">
      <path
         d="M 0,500 H 500 V 0 H 0 Z"
         transform="translate(-246.95311,-341.60441)"
         id="path21" />
    </clipPath>
  </defs>
  <g
     id="layer1"
     transform="translate(-149.22496,43.127085)">
    <path
       id="path20"
       d="m 0,0 c 0.717,0.118 2.268,0.148 4.659,0.09 2.389,-0.062 4.061,-0.152 5.018,-0.269 6.452,-0.837 12.365,-2.808 17.742,-5.914 5.376,-3.108 9.557,-6.989 12.544,-11.648 0.955,-1.434 1.792,-2.988 2.509,-4.659 0.716,-1.675 1.255,-3.226 1.613,-4.66 l 0.358,-1.075 H -10.035 V -42.651 H 44.98 V -53.403 H -10.035 V -67.74 H 44.98 v -10.752 h -55.015 v -14.337 h 27.239 20.16 c 4.598,0 6.9,-0.062 6.9,-0.179 -0.241,-0.837 -0.479,-1.495 -0.717,-1.971 -1.912,-6.334 -5.706,-11.68 -11.379,-16.039 -5.676,-4.363 -12.397,-7.258 -20.161,-8.691 -1.317,-0.242 -2.419,-0.39 -3.316,-0.449 -0.895,-0.061 -2.598,-0.09 -5.107,-0.09 -2.987,0 -5.169,0.09 -6.541,0.269 -1.375,0.18 -3.257,0.507 -5.645,0.986 -4.063,1.076 -7.885,2.598 -11.469,4.57 -3.584,1.971 -6.693,4.39 -9.319,7.257 -1.674,1.793 -3.108,3.644 -4.3,5.556 -1.197,1.91 -2.152,3.943 -2.869,6.093 -0.837,2.268 -1.285,4.539 -1.343,6.81 -0.062,2.268 -0.152,11.228 -0.269,26.881 0,9.677 0.028,16.935 0.09,21.774 0.059,4.838 0.089,7.675 0.089,8.512 0.476,4.777 1.971,9.198 4.48,13.261 2.509,4.06 6.032,7.644 10.574,10.753 3.105,2.029 6.63,3.701 10.573,5.017 C -8.423,-1.195 -4.301,-0.358 0,0 m -64.873,-60.93 h 4.839 3.763 3.046 l 0.18,-4.301 v -4.749 -5.287 c -0.121,-2.867 -0.121,-5.348 0,-7.437 0.117,-2.091 0.358,-4.331 0.717,-6.72 0.834,-6.572 2.447,-12.544 4.838,-17.921 2.388,-5.376 5.435,-9.918 9.139,-13.619 4.661,-4.66 10.333,-8.154 17.026,-10.484 6.689,-2.33 14.336,-3.494 22.938,-3.494 12.066,0 22.281,2.239 30.644,6.72 8.361,4.48 14.812,11.201 19.354,20.16 1.792,3.464 3.226,7.079 4.301,10.843 1.075,3.763 1.972,7.913 2.689,12.454 0.117,1.434 0.207,2.868 0.268,4.302 0.059,1.433 0.09,4.48 0.09,9.139 l 0.179,10.215 h 17.383 v -10.574 c -0.121,-5.376 -0.241,-8.96 -0.358,-10.752 -0.121,-1.792 -0.358,-4.122 -0.717,-6.989 -1.075,-7.288 -2.957,-14.219 -5.645,-20.788 -2.688,-6.572 -6.003,-12.306 -9.947,-17.204 -5.496,-6.93 -12.068,-12.396 -19.711,-16.397 -7.648,-4.004 -16.371,-6.603 -26.164,-7.796 l -3.585,-0.537 v -13.799 h 29.749 v -17.383 h -75.805 v 17.383 h 28.673 v 13.799 l -1.434,0.179 c -1.075,0.118 -2.391,0.297 -3.942,0.538 -1.554,0.238 -2.867,0.417 -3.943,0.537 -7.767,1.552 -14.756,4.06 -20.967,7.527 -6.213,3.464 -11.621,7.885 -16.218,13.261 -4.601,5.376 -8.275,11.648 -11.022,18.817 -2.867,7.048 -4.72,14.933 -5.554,23.655 -0.242,1.314 -0.359,2.957 -0.359,4.928 v 9.946 11.649 z"
       style="fill:#999;fill-opacity:1;fill-rule:nonzero;stroke:none"
       transform="matrix(0.35277776,0,0,-0.35277776,174.0704,-43.085219)"
       clip-path="url(#clipPath21)" />
  </g>
</svg>
