<?xml version="1.0" encoding="utf-8"?>
<!-- Generator: Adobe Illustrator 25.2.0, SVG Export Plug-In . SVG Version: 6.00 Build 0)  -->
<svg version="1.1" id="Layer_1" xmlns="http://www.w3.org/2000/svg" xmlns:xlink="http://www.w3.org/1999/xlink" x="0px" y="0px"
	 viewBox="0 0 474 474" style="enable-background:new 0 0 474 474;" xml:space="preserve">
<style type="text/css">
	.st0{fill-rule:evenodd;clip-rule:evenodd;fill:#999}
</style>
<g id="SystemUpdateGlyph">
	<g id="Group-2">
		<path id="Path" class="st0" d="M456.5,189.8c12.7,61.1,0.2,127.2-40.3,181c-67.7,89.8-189.8,114.4-285.8,62.6L107,473.9L36.2,354.6l138.8,1.6
			L155.4,390c74.4,39.3,168.6,20.1,220.9-49.3c33.3-44.2,42.3-99.3,29.3-149.1l-0.4-1.5L456.5,189.8z"/>
		<path id="Path_1_" class="st0" d="M362.6,0l72.9,118.1l-138.8,0.8l21-37.9c-74.3-38.9-168.2-19.6-220.3,49.6c-33.6,44.6-42.4,100.2-29,150.3
			l-51.2,0.3c-12.6-61.1-0.1-127,40.4-180.7C124.9,11.1,246.2-13.7,342,37.2L362.6,0z"/>
	</g>
	<g id="Group" transform="translate(128.000000, 163.000000)">
		<path id="Fill-1" class="st0" d="M47.7,90v26.8h77.8V148h-113V74.3c0-4.5,1.7-8.3,5.1-11.4c3.4-3.1,7.6-4.6,12.6-4.6h60.1V31.6
			H12.5V0h95.6c4.8,0,8.9,1.5,12.3,4.6c3.4,3.1,5.1,6.7,5.1,11V90H47.7z"/>
		<polygon id="Fill-4" class="st0" points="205.5,1 205.5,148 170.5,148 170.5,32.3 148.5,32.3 148.5,1 		"/>
	</g>
</g>
</svg>
