<?xml version="1.0" encoding="utf-8"?>
<!-- Generator: Adobe Illustrator 25.2.0, SVG Export Plug-In . SVG Version: 6.00 Build 0)  -->
<svg version="1.1" id="Layer_1" xmlns="http://www.w3.org/2000/svg" xmlns:xlink="http://www.w3.org/1999/xlink" x="0px" y="0px"
	 viewBox="0 0 712 712" style="enable-background:new 0 0 712 712;" xml:space="preserve">
<style type="text/css">
	.st0{fill:#999;fill-rule:evenodd;clip-rule:evenodd;}
</style>
<g id="System-Gateway">
	<path id="Shape" class="st0" d="M370.2,121.1c158.4,7,285.5,135,292.5,294.4c0,0.6-0.6,1.1-1.7,1.7l-0.4,0.2
		c-0.1,0.1-0.3,0.1-0.4,0.2l-0.4,0.2l-0.6,0.2l-0.6,0.2l-0.5,0.2l-0.8,0.3l-0.9,0.3l-0.9,0.3l-0.6,0.2l-1,0.3l-1,0.3l-1.4,0.4
		l-1.4,0.4l-2.3,0.5l-3.1,0.7l-6,1.4l-2,0.5l-1.9,0.5l-1.9,0.5l-1.1,0.3l-1.4,0.4l-0.7,0.2l-0.6,0.2l-0.6,0.2l-0.6,0.2l-0.6,0.2
		l-0.5,0.2l-0.5,0.2l-0.5,0.2l-0.5,0.2c-1.7,0.7-2.7,1.5-2.7,2.2c0,0.5,0.5,1,1.3,1.4l0.3,0.2l0.2,0.1l0.4,0.2l0.2,0.1l0.4,0.2
		l0.4,0.2l0.5,0.2l0.2,0.1l0.5,0.2l0.5,0.2l0.9,0.3l0.6,0.2l0.6,0.2l1.3,0.4l1.4,0.4l1.8,0.5l2.6,0.6l6.3,1.4l3.6,0.8l2.7,0.6
		l1.1,0.3l1.5,0.4l1.4,0.4l1,0.3l1,0.3l0.9,0.3l0.6,0.2l0.8,0.3l0.5,0.2l0.6,0.2l0.6,0.2l0.4,0.2c1.5,0.7,2.4,1.3,2.3,2
		c-1.6,38.2-10.2,74.7-24.4,108.1l73.7,0v40H0v-40l74.7,0c-14.3-33.4-22.8-69.9-24.4-108.2c0-0.4,0.4-0.9,1.2-1.3l0.3-0.2l0.3-0.2
		l0.2-0.1l0.4-0.2l0.4-0.2l0.7-0.3l0.5-0.2l0.8-0.3l0.5-0.2l0.9-0.3l0.9-0.3l1-0.3l1.3-0.3l1.4-0.3l1.5-0.3l1.9-0.4l2-0.4l4-0.8
		l5.6-1.2l2.4-0.5l1.5-0.3l1.5-0.3l1.1-0.3l1.1-0.3l0.7-0.2l1.3-0.3l1.2-0.3l0.6-0.2l0.6-0.2l0.5-0.2l0.5-0.2l0.5-0.2l0.6-0.2
		l0.5-0.2c0.1-0.1,0.3-0.1,0.4-0.2l0.4-0.2c1.1-0.5,1.7-1.1,1.7-1.6c0-0.6-0.8-1.2-2.1-1.8l-0.4-0.2l-0.4-0.2l-0.6-0.2l-0.9-0.3
		l-0.5-0.2l-0.8-0.3l-0.9-0.3l-0.6-0.2l-1-0.3l-0.7-0.2l-1.4-0.4l-1.1-0.3l-1.5-0.4l-1.5-0.3l-2-0.4l-10.2-2.2l-2.3-0.5l-2.2-0.5
		l-1.1-0.3l-1.4-0.3l-1-0.3l-1-0.3l-0.6-0.2l-0.9-0.3l-0.6-0.2l-0.5-0.2l-0.5-0.2l-0.5-0.2l-0.5-0.2l-0.4-0.2l-0.4-0.2l-0.4-0.2
		c-1.3-0.6-2-1.2-2-1.8c6.9-159.3,133.9-287.3,292.2-294.5c0.8,0,1.5,0.9,2.3,2.5l0.2,0.5c0.1,0.2,0.1,0.3,0.2,0.5l0.2,0.5l0.2,0.6
		c0,0.1,0.1,0.2,0.1,0.3l0.2,0.6c0,0.1,0.1,0.2,0.1,0.3l0.3,0.8l0.3,0.9l0.3,0.9l0.3,0.9l0.3,0.9l0.4,1.5l0.4,1.5l0.7,2.6l1.2,4.7
		l0.5,2l0.3,1l0.4,1.5l0.1,0.5l0.4,1.4l0.3,0.9c0,0.1,0.1,0.3,0.1,0.4l0.3,0.8l0.2,0.6l0.2,0.6c0,0.1,0.1,0.2,0.1,0.3l0.2,0.6
		c0.1,0.2,0.1,0.4,0.2,0.5l0.2,0.5c0.8,1.7,1.6,2.8,2.4,2.8c0.7,0,1.4-0.8,2.1-2.1l0.2-0.4l0.2-0.4c0-0.1,0.1-0.2,0.1-0.2l0.2-0.5
		l0.2-0.5l0.2-0.5l0.2-0.6l0.2-0.6l0.3-0.9l0.2-0.6l0.3-1l0.4-1.4l0.5-1.8l0.7-2.6l2-7.2l0.5-1.9l0.4-1.5l0.3-1.1l0.3-1l0.2-0.7
		l0.2-0.6l0.3-0.9l0.3-0.9l0.2-0.6l0.3-0.7l0.3-0.6c0.1-0.2,0.1-0.3,0.2-0.5l0.2-0.4C368.8,122,369.5,121.1,370.2,121.1z M356,177.9
		c-137.5,0-249,112.2-249,250.5c0,44.5,11.5,86.3,31.8,122.5h24.5c-21.7-34.8-34.3-75.9-34.3-120c0-125.4,101.6-227,227-227
		s227,101.6,227,227c0,44.1-12.6,85.2-34.3,120h24.5c20.2-36.2,31.8-78,31.8-122.5C605,290,493.5,177.9,356,177.9z M356,245.9
		c-102.2,0-185,82.8-185,185c0,45.8,16.6,87.7,44.2,120h281.6c27.6-32.3,44.2-74.2,44.2-120C541,328.7,458.2,245.9,356,245.9z"/>
</g>
</svg>
