<?xml version="1.0" encoding="UTF-8" standalone="no"?>
<!-- Created with Inkscape (http://www.inkscape.org/) -->

<svg
   width="100%"
   height="100%"
   viewBox="0 0 64.737541 64.73719"
   version="1.1"
   id="svg1"
   xmlns="http://www.w3.org/2000/svg"
   xmlns:svg="http://www.w3.org/2000/svg">
  <defs
     id="defs1">
    <clipPath
       clipPathUnits="userSpaceOnUse"
       id="clipPath70">
      <path
         d="M 0,500 H 500 V 0 H 0 Z"
         transform="translate(-318.45726,-257.16851)"
         id="path70" />
    </clipPath>
  </defs>
  <g
     id="layer1"
     transform="translate(-72.916292,-67.660246)">
    <path
       id="path69"
       d="m 0,0 c 1.672,0 3.105,-0.6 4.301,-1.792 1.192,-1.196 1.792,-2.63 1.792,-4.302 0,-1.674 -0.6,-3.107 -1.792,-4.301 C 3.105,-11.59 1.672,-12.187 0,-12.187 c -0.958,0 -1.854,0.208 -2.688,0.627 -0.837,0.418 -1.554,1.045 -2.151,1.882 1.314,0 2.358,0.239 3.136,0.717 0.776,0.477 1.403,1.255 1.882,2.33 v 1.792 c -0.479,1.075 -1.047,1.851 -1.702,2.33 -0.659,0.476 -1.524,0.776 -2.599,0.896 0.476,0.476 1.075,0.865 1.792,1.165 C -1.613,-0.151 -0.838,0 0,0 m -135.48,-7.348 c 0.475,-0.958 1.075,-1.643 1.792,-2.06 0.716,-0.421 1.551,-0.69 2.508,-0.807 -0.478,-0.599 -1.105,-1.075 -1.882,-1.433 -0.778,-0.359 -1.584,-0.539 -2.418,-0.539 -1.675,0 -3.109,0.597 -4.301,1.792 -1.196,1.194 -1.792,2.627 -1.792,4.301 0,1.672 0.596,3.106 1.792,4.302 1.192,1.192 2.626,1.792 4.301,1.792 0.955,0 1.82,-0.21 2.598,-0.628 0.776,-0.42 1.462,-0.927 2.061,-1.522 -1.196,-0.121 -2.151,-0.421 -2.867,-0.897 -0.717,-0.478 -1.317,-1.255 -1.792,-2.33 z M 0,-17.204 c 3.105,0 5.763,1.075 7.975,3.225 2.209,2.151 3.315,4.778 3.315,7.885 0,3.106 -1.106,5.763 -3.315,7.975 C 5.763,4.091 3.105,5.196 0,5.196 c -2.271,0 -4.332,-0.657 -6.183,-1.97 -1.853,-1.317 -3.198,-2.989 -4.032,-5.018 h -13.082 -11.29 c -1.075,0 -1.972,-0.27 -2.688,-0.807 -0.717,-0.538 -1.254,-1.344 -1.613,-2.42 -1.075,-4.659 -2.181,-9.318 -3.315,-13.977 -1.137,-4.659 -2.24,-9.319 -3.316,-13.979 -0.358,-0.957 -0.658,-1.943 -0.896,-2.957 -0.24,-1.015 -0.479,-2.06 -0.717,-3.135 -0.12,0.238 -0.179,0.417 -0.179,0.538 -0.479,3.104 -0.896,6.241 -1.254,9.408 -0.359,3.164 -0.779,6.3 -1.254,9.408 -0.48,4.539 -1.017,9.05 -1.614,13.53 -0.599,4.48 -1.195,8.989 -1.792,13.53 -0.599,4.06 -1.136,8.182 -1.613,12.365 -0.478,4.181 -1.016,8.361 -1.612,12.545 -0.6,4.659 -1.196,9.257 -1.792,13.799 -0.6,4.539 -1.196,9.139 -1.792,13.798 -0.121,1.194 -0.331,2.358 -0.628,3.496 -0.299,1.133 -1.164,1.999 -2.598,2.597 h -2.151 c -0.957,-0.358 -1.674,-0.895 -2.151,-1.612 -0.478,-0.717 -0.778,-1.613 -0.895,-2.689 -0.358,-1.912 -0.748,-3.793 -1.165,-5.644 -0.42,-1.854 -0.807,-3.674 -1.165,-5.466 -2.032,-9.201 -4.004,-18.431 -5.914,-27.687 -1.912,-9.26 -3.883,-18.49 -5.913,-27.688 -0.241,-1.195 -0.48,-2.419 -0.717,-3.674 -0.241,-1.254 -0.538,-2.54 -0.897,-3.852 -0.12,0.358 -0.21,0.627 -0.268,0.805 -0.062,0.18 -0.151,0.387 -0.269,0.628 -0.958,3.343 -1.971,6.69 -3.047,10.036 -1.075,3.343 -2.15,6.689 -3.225,10.036 -0.958,2.867 -1.912,5.761 -2.867,8.691 -0.958,2.926 -1.913,5.824 -2.867,8.691 -0.359,1.193 -0.958,2.061 -1.792,2.599 -0.838,0.537 -1.855,0.744 -3.047,0.627 -0.717,-0.241 -1.317,-0.6 -1.792,-1.075 -0.479,-0.479 -0.897,-1.075 -1.255,-1.792 -2.032,-4.659 -4.094,-9.291 -6.183,-13.889 -2.092,-4.6 -4.152,-9.229 -6.182,-13.888 -0.241,-0.479 -0.51,-0.837 -0.806,-1.076 -0.3,-0.241 -0.69,-0.358 -1.165,-0.358 h -3.584 -2.51 c -0.717,2.15 -2.032,3.942 -3.942,5.376 -1.912,1.433 -4.121,2.15 -6.63,2.15 -2.988,0 -5.587,-1.075 -7.796,-3.225 -2.212,-2.151 -3.316,-4.78 -3.316,-7.885 0,-3.108 1.076,-5.766 3.226,-7.975 2.15,-2.212 4.777,-3.315 7.886,-3.315 2.388,0 4.508,0.655 6.361,1.972 1.851,1.312 3.195,2.984 4.032,5.017 1.551,0.117 2.986,0.149 4.301,0.089 1.314,-0.062 3.047,-0.089 5.197,-0.089 1.193,0 2.151,0.237 2.868,0.717 0.716,0.476 1.313,1.254 1.792,2.329 1.551,3.344 3.074,6.749 4.569,10.215 1.493,3.464 3.017,6.869 4.57,10.215 0.117,0.118 0.207,0.268 0.269,0.448 0.058,0.179 0.148,0.387 0.268,0.627 0.119,-0.24 0.208,-0.448 0.27,-0.627 0.058,-0.18 0.148,-0.39 0.268,-0.627 2.269,-6.931 4.508,-13.86 6.721,-20.788 2.209,-6.931 4.449,-13.86 6.72,-20.788 0.117,-0.359 0.238,-0.717 0.358,-1.075 0.117,-0.359 0.297,-0.659 0.538,-0.897 0.476,-0.717 1.076,-1.195 1.792,-1.433 0.717,-0.241 1.493,-0.299 2.329,-0.179 0.956,0.238 1.672,0.717 2.151,1.433 0.476,0.717 0.835,1.493 1.075,2.33 1.075,5.135 2.15,10.274 3.227,15.412 1.075,5.135 2.15,10.243 3.225,15.322 1.075,5.076 2.151,10.184 3.226,15.322 1.075,5.136 2.15,10.274 3.225,15.412 0.118,0.596 0.269,1.224 0.449,1.881 0.178,0.655 0.327,1.345 0.447,2.062 0.358,-1.792 0.655,-3.526 0.896,-5.198 0.239,-1.674 0.476,-3.405 0.717,-5.197 0.476,-3.824 0.955,-7.646 1.434,-11.469 0.476,-3.825 0.955,-7.647 1.433,-11.469 0.477,-3.466 0.955,-6.961 1.434,-10.484 0.476,-3.525 0.955,-7.019 1.434,-10.483 0.476,-3.467 0.923,-6.931 1.344,-10.394 0.417,-3.466 0.865,-6.93 1.344,-10.394 0.358,-3.584 0.775,-7.168 1.254,-10.752 0.476,-3.585 0.955,-7.169 1.434,-10.753 0.118,-1.195 0.328,-2.419 0.627,-3.674 0.297,-1.254 1.165,-2.122 2.599,-2.599 h 2.15 c 0.834,0.359 1.524,0.897 2.061,1.614 0.538,0.717 0.924,1.551 1.165,2.509 1.909,8.481 3.911,16.935 6.003,25.357 2.089,8.423 4.15,16.874 6.183,25.358 0,0.118 0.028,0.297 0.089,0.537 0.059,0.239 0.149,0.477 0.269,0.717 h 1.255 8.96 10.753 c 0.834,-2.27 2.209,-4.093 4.121,-5.466 1.91,-1.375 4.06,-2.06 6.452,-2.06 m 23.297,10.035 -91.754,-91.753 -91.754,91.753 91.754,91.754 z"
       style="fill:#999;fill-opacity:1;fill-rule:nonzero;stroke:none"
       transform="matrix(0.35277776,0,0,-0.35277776,129.43517,97.499956)"
       clip-path="url(#clipPath70)" />
  </g>
</svg>
