<?xml version="1.0" encoding="UTF-8"?>
<svg id="Layer_2" data-name="Layer 2" xmlns="http://www.w3.org/2000/svg" viewBox="0 0 300 300">
  <defs>
    <style>
      .cls-1 {
        stroke-width: 0px;
        fill: white;
      }
    </style>
  </defs>
  <g id="Layer_1-2" data-name="Layer 1">
    <path class="cls-1" d="m300,176.6v-53.2l-31.98-9.29c-2.39-7.68-5.52-15.04-9.29-21.99l16.15-29.38-37.62-37.62-29.82,16.39c-6.76-3.55-13.89-6.5-21.32-8.76L176.6,0h-53.2l-9.52,32.75c-7.43,2.26-14.56,5.21-21.32,8.76l-29.82-16.39L25.12,62.74l16.15,29.39c-3.76,6.95-6.89,14.3-9.28,21.97L0,123.4v53.2l31.32,9.1c2.36,8.09,5.52,15.85,9.41,23.16l-15.61,28.4,37.62,37.62,27.96-15.37c7.5,4.11,15.48,7.47,23.83,9.96l8.87,30.53h53.2l8.87-30.53c8.35-2.49,16.33-5.84,23.83-9.95l27.96,15.36,37.62-37.62-15.6-28.39c3.88-7.32,7.05-15.07,9.41-23.17l31.31-9.1Zm-150,29.41c-30.37,0-55-24.62-55-55s24.63-55,55-55,55,24.63,55,55-24.62,55-55,55Z"/>
  </g>
</svg>