<?xml version="1.0" encoding="UTF-8"?>
<svg id="Layer_2" data-name="Layer 2" xmlns="http://www.w3.org/2000/svg" viewBox="0 0 300 220.08">
  <defs>
    <style>
      .cls-1 {
        stroke-width: 0px;
      }
    </style>
  </defs>
  <g id="Layer_1-2" data-name="Layer 1">
    <polygon class="cls-1" points="236.42 61.12 236.42 56.65 193.21 56.65 193.21 82.84 236.42 82.84 236.42 77.02 283.44 77.02 283.44 103.21 236.42 103.21 236.42 98.74 193.21 98.74 193.21 124.71 236.42 124.71 236.42 119.56 283.44 119.56 283.44 145.75 236.42 145.75 236.42 140.6 193.21 140.6 193.21 166.8 236.42 166.8 236.42 161.65 300 161.65 300 204.18 219.86 204.18 219.86 199.03 209.78 199.03 209.78 220.08 46.35 220.08 41.87 214.93 0 173.06 0 0 209.78 0 209.78 23.74 219.86 23.74 219.86 18.59 300 18.59 300 61.12 236.42 61.12"/>
  </g>
</svg>