<?xml version="1.0" encoding="UTF-8"?>
<svg id="Layer_2" data-name="Layer 2" xmlns="http://www.w3.org/2000/svg" viewBox="0 0 325.24 317.62">
  <defs>
    <style>
      .cls-1 {
        stroke-width: 0px;
      }
    </style>
  </defs>
  <g id="Layer_1-2" data-name="Layer 1">
    <path class="cls-1" d="m325.24,272.62c0,24.85-20.14,45-45,45s-45-20.15-45-45c0-5.8,1.1-11.34,3.09-16.43l-51.05-39.22c-9.87,8.23-22.57,13.18-36.42,13.18-31.43,0-56.92-25.49-56.92-56.92,0-2.04.11-4.05.31-6.03l-52.78-17.94c-4.4,3.86-10.16,6.2-16.47,6.2-13.81,0-25-11.19-25-25s11.19-25,25-25c12.15,0,22.27,8.66,24.52,20.14l52.78,17.93c10.01-16.32,28.01-27.21,48.56-27.21,11.19,0,21.62,3.23,30.42,8.81l58.4-58.4c-3.56-6.44-5.59-13.85-5.59-21.73,0-24.85,20.14-45,45-45s45,20.15,45,45-20.15,45-45,45c-7.88,0-15.29-2.03-21.73-5.59l-58.4,58.4c5.58,8.8,8.81,19.23,8.81,30.42,0,8.54-1.88,16.65-5.26,23.92l51.07,39.22c7.46-5.5,16.68-8.75,26.66-8.75,24.86,0,45,20.14,45,45Z"/>
  </g>
</svg>