<?xml version="1.0" encoding="UTF-8" standalone="no"?>
<svg width="100%" height="100%" viewBox="0 0 53.610683 53.610683" version="1.1" id="svg1" xmlns="http://www.w3.org/2000/svg" xmlns:svg="http://www.w3.org/2000/svg">
  <defs
     id="defs1" />
  <g
     id="layer1"
     transform="translate(-65.967035,-79)">
    <path
       id="path10"
       style="fill: #999;"
       transform="matrix(1.1607817,0,0,1.1607817,28.845783,0.8134466)"
       d="m 57.510779,99.84805 -7.600729,-10e-7 -3.800364,-6.582424 3.800365,-6.582425 7.600729,10e-7 3.800364,6.582424 z m -3.854677,-27.280924 -8.932222,5.22827 v 8.333446 l -12.744354,-5.718865 11.164833,8.278692 -7.025488,4.084583 v 10.347918 l 8.932222,5.17395 7.134558,-4.1389 1.52521,14.59589 1.524318,-14.54202 7.025931,4.08503 8.932222,-5.17395 V 92.773252 l -6.971173,-4.030275 11.219147,-8.333 -12.852986,5.827938 v -8.442519 z m 0,3.360713 6.129773,3.520089 v 7.55125 l 2.463217,3.81169 6.140009,3.556594 v 0.0069 7.146138 l -6.127991,3.52677 -6.166276,-3.52766 h -4.877463 l -6.165833,3.52766 -6.127991,-3.52677 v -7.146138 -0.0069 l 6.140011,-3.556594 2.462772,-3.81169 v -7.55125 z" />
  </g>
</svg>
