<?xml version="1.0" encoding="UTF-8" standalone="no"?>
<svg
   xmlns:dc="http://purl.org/dc/elements/1.1/"
   xmlns:cc="http://creativecommons.org/ns#"
   xmlns:rdf="http://www.w3.org/1999/02/22-rdf-syntax-ns#"
   xmlns:svg="http://www.w3.org/2000/svg"
   xmlns="http://www.w3.org/2000/svg"
   xmlns:sodipodi="http://sodipodi.sourceforge.net/DTD/sodipodi-0.dtd"
   xmlns:inkscape="http://www.inkscape.org/namespaces/inkscape"
   width="5400"
   height="5400"
   viewBox="0 0 5400 5400"
   version="1.1"
   xml:space="preserve"
   style="clip-rule:evenodd;fill-rule:evenodd;stroke-linejoin:round;stroke-miterlimit:2"
   id="svg4"
   sodipodi:docname="NISEI_CLICK.svg"
   inkscape:version="1.0.2-2 (e86c870879, 2021-01-15)"><metadata
     id="metadata10"><rdf:RDF><cc:Work
         rdf:about=""><dc:format>image/svg+xml</dc:format><dc:type
           rdf:resource="http://purl.org/dc/dcmitype/StillImage" /><dc:title></dc:title></cc:Work></rdf:RDF></metadata><defs
     id="defs8" /><sodipodi:namedview
     pagecolor="#ffffff"
     bordercolor="#666666"
     borderopacity="1"
     objecttolerance="10"
     gridtolerance="10"
     guidetolerance="10"
     inkscape:pageopacity="0"
     inkscape:pageshadow="2"
     inkscape:window-width="1920"
     inkscape:window-height="1017"
     id="namedview6"
     showgrid="false"
     fit-margin-top="0"
     fit-margin-left="0"
     fit-margin-right="0"
     fit-margin-bottom="0"
     inkscape:zoom="0.072439066"
     inkscape:cx="2175.4755"
     inkscape:cy="3679.969"
     inkscape:window-x="-8"
     inkscape:window-y="-8"
     inkscape:window-maximized="1"
     inkscape:current-layer="svg4" /><path
     d="m 3558.8554,319.09759 c -2551.07,3050.27001 -2551.07,3050.27001 0,0 z m 1768.85,1409.18001 c 23.584,322.323 -27.516,658.403 -153.3,1008.24 -220.123,601.407 -605.338,1130.1 -1155.64,1586.06 l -147.404,-176.884 c 522.792,-428.454 886.388,-923.73 1090.79,-1485.83 117.923,-322.322 165.093,-626.957 141.508,-913.902 -19.654,-275.154 -102.2,-514.931 -247.638,-719.33 -263.361,-377.35401 -674.126,-573.89201 -1232.3,-589.61501 l -82.546,259.43 c 255.5,27.516 479.553,104.166 672.161,229.95 243.707,165.09201 412.73,389.14601 507.068,672.16101 l -424.522,141.507 c -62.892,-184.745 -171.971,-330.184 -327.236,-436.314 -155.266,-106.131 -346.89,-163.127 -574.875,-170.989 l -412.73,1255.88 c 23.585,23.584 43.238,49.134 58.961,76.65 35.377,74.684 35.377,155.265 0,241.742 -31.446,90.407 -90.407,167.057 -176.884,229.949 -86.477,62.893 -174.919,94.339 -265.327,94.339 -23.584,0 -47.169,-3.931 -70.753,-11.793 l -1261.78,896.215 c 78.615,82.546 172.954,149.369 283.015,200.469 110.062,51.1 235.846,82.546 377.354,94.338 l -35.377,442.211 c -491.346,-39.307 -854.942,-241.742 -1090.78996,-607.303 -125.784,-196.538 -195.555,-420.592 -209.313,-672.161 -13.757,-251.569 26.533,-510.999 120.871,-778.291 106.131,-290.877 269.258,-566.03 489.37996,-825.461 l 341.977,288.911 c -184.746,220.123 -320.357,450.073 -406.834,689.85 -137.57696,373.422 -139.54196,695.745 -5.896,966.968 l 1185.12,-949.28 c 0,-43.238 7.862,-86.477 23.585,-129.715 47.169,-133.646 139.542,-229.95 277.119,-288.911 l 477.588,-1202.81 c -483.484,70.753 -929.626,298.738 -1338.43,683.953 l -306.599,-324.288 c 267.292,-251.569 562.099,-450.073 884.422,-595.51101 318.392,-141.508 634.818,-216.192 949.279,-224.054 l 94.339,-241.742 c -424.523,31.446 -851.011,167.058 -1279.46,406.834 l -112.027,-194.573 c 530.653,-298.738 1055.41,-448.107 1574.27,-448.107 322.323,0 611.234,59.944 866.734,179.833 255.5,119.888 461.865,291.859 619.096,515.913 165.092,235.84501 259.43,510.99901 283.015,825.46001 z m -2494.07,908.007 c 11.793,-31.446 11.793,-56.996 0,-76.65 -3.93,-7.862 -11.792,-13.758 -23.584,-17.688 -7.862,-3.931 -17.689,-5.897 -29.481,-5.897 -15.723,0 -31.446,1.966 -47.169,5.897 -94.339,27.515 -157.231,82.546 -188.677,165.092 -11.792,35.377 -11.792,62.892 0,82.546 7.862,11.792 25.55,17.688 53.065,17.688 47.17,0 93.356,-17.688 138.56,-53.065 45.204,-35.377 77.632,-74.685 97.286,-117.923 z m -1002.35,2323.08 c 577.823,0 1153.68,-192.608 1727.57,-577.823 l 123.82,188.677 c -613.2,408.8 -1230.33,613.2 -1851.39,613.2 -322.323,0 -611.234,-59.945 -866.73296,-179.833 -255.5,-119.888 -461.865,-289.894 -619.096,-510.017 -165.092,-239.776 -259.429994,-516.895 -283.014995,-831.356 -27.514999,-318.392 23.585001,-652.507 153.299995,-1002.35 125.784,-349.838 316.426,-681.987 571.926,-996.448 243.70796,-302.669 528.68796,-567.996 854.94196,-795.98001 l 129.715,182.78001 c -310.531,216.192 -581.753,467.761 -813.66896,754.707 -235.845,294.807 -414.695,605.338 -536.549,931.591 -113.992,318.392 -159.196,621.061 -135.611,908.007 19.653,275.154 100.234,514.93 241.742,719.33 137.576,192.608 317.409,340.011 539.49696,442.211 222.088,102.2 476.605,153.3 763.551,153.3 z m 2836.05,-2211.05 c -184.746,503.138 -512.965,935.522 -984.656,1297.15 -467.762,365.561 -959.107,567.996 -1474.04,607.303 l -35.377,-442.211 c 428.453,-35.377 843.149,-208.33 1244.09,-518.861 400.938,-310.53 676.091,-676.091 825.461,-1096.68 86.476,-231.915 117.922,-450.073 94.338,-654.473 l 442.211,-47.169 c 31.446,271.223 -5.896,556.204 -112.027,854.942 z"
     style="fill-rule:nonzero"
     id="path2" /></svg>
