<?xml version="1.0" encoding="UTF-8" standalone="no"?><!DOCTYPE svg PUBLIC "-//W3C//DTD SVG 1.1//EN" "http://www.w3.org/Graphics/SVG/1.1/DTD/svg11.dtd"><svg width="100%" height="100%" viewBox="0 0 5867 5867" version="1.1" xmlns="http://www.w3.org/2000/svg" xmlns:xlink="http://www.w3.org/1999/xlink" xml:space="preserve" xmlns:serif="http://www.serif.com/" style="fill-rule:evenodd;clip-rule:evenodd;stroke-linejoin:round;stroke-miterlimit:2;"><path d="M5350.75,819.564l-336.081,0c-314.461,636.784 -471.691,959.107 -471.691,966.969l318.392,-0l-448.108,919.799l-701.641,-0l-0,229.949l583.718,0l-1214.61,2441.01l-377.353,-760.603c-86.477,3.931 -191.625,5.897 -315.444,5.897l-698.694,-0c-94.338,-137.577 -161.161,-237.812 -200.469,-300.704l742.915,0l-347.873,-595.511l371.457,0c-90.407,-180.815 -145.438,-290.876 -165.092,-330.184l-1031.83,-0c-90.407,-137.577 -155.265,-237.811 -194.572,-300.704l1079,0c-51.1,-106.13 -214.227,-432.384 -489.381,-978.76l725.226,-0l0,-206.365l-1303.05,-0c-43.239,-82.546 -74.685,-139.542 -94.338,-170.989l949.279,0l0,-165.092l-1043.62,0l-336.08,-560.134l560.134,0l-265.327,-524.757l4870.22,0l-165.092,330.184Zm-1874.98,23.585l-849.045,0c-7.862,161.161 -7.862,361.63 -0,601.407c7.861,239.777 17.688,440.246 29.48,601.407c11.793,161.162 25.55,361.631 41.273,601.407c15.723,239.777 25.55,440.246 29.481,601.407l648.576,0c7.862,-184.746 22.602,-437.297 44.221,-757.655c21.62,-320.357 38.325,-615.164 50.118,-884.422c11.792,-269.257 13.757,-523.774 5.896,-763.551Zm-849.045,3278.26l849.045,0l-0,-424.523l-849.045,0l-0,424.523Z" style="fill-rule:nonzero;"/></svg>