<?xml version="1.0" encoding="UTF-8" standalone="no"?><!DOCTYPE svg PUBLIC "-//W3C//DTD SVG 1.1//EN" "http://www.w3.org/Graphics/SVG/1.1/DTD/svg11.dtd"><svg width="100%" height="100%" viewBox="0 0 5867 5867" version="1.1" xmlns="http://www.w3.org/2000/svg" xmlns:xlink="http://www.w3.org/1999/xlink" xml:space="preserve" xmlns:serif="http://www.serif.com/" style="fill-rule:evenodd;clip-rule:evenodd;stroke-linejoin:round;stroke-miterlimit:2;"><path d="M731.122,1344.32l4404.42,-0l0,2694.54l-790.083,-0l-678.057,483.484l-2936.28,0l0,-3178.02Zm4103.72,477.588l-0,-176.885l-383.25,0l0,176.885l383.25,-0Zm-383.25,1261.78l0,182.781l383.25,-0l-0,-182.781l-383.25,0Zm0,-483.484l0,182.781l383.25,-0l-0,-182.781l-383.25,0Zm0,-477.588l0,182.781l383.25,-0l-0,-182.781l-383.25,0Zm-878.526,2099.03l577.823,-406.835l-0,-2169.78l-3119.06,0l-0,2576.62l2541.24,-0Zm878.526,-660.369l0,182.781l383.25,-0l-0,-182.781l-383.25,0Z" style="fill-rule:nonzero;"/></svg>