<?xml version="1.0" encoding="UTF-8" standalone="no"?>
<!DOCTYPE svg PUBLIC "-//W3C//DTD SVG 1.1//EN" "http://www.w3.org/Graphics/SVG/1.1/DTD/svg11.dtd">
<svg width="100%" height="100%" viewBox="0 0 5867 5867" version="1.1" xmlns="http://www.w3.org/2000/svg" xmlns:xlink="http://www.w3.org/1999/xlink" xml:space="preserve" xmlns:serif="http://www.serif.com/" style="fill-rule:evenodd;clip-rule:evenodd;stroke-linejoin:round;stroke-miterlimit:2;">
  <path d="M1530.05,2267.07l-241.742,-100.235l0,-766.499l241.742,241.742l0,624.992Zm-843.149,748.81l341.977,0l442.211,436.315l-241.742,100.235l-542.446,-536.55Zm3891.46,-1609.65l0,760.603l-241.742,100.235l0,-624.992l241.742,-235.846Zm-878.526,-117.923l766.5,0l-241.742,235.846l-619.096,0l94.338,-235.846Zm878.526,2411.52l0,766.5l-241.742,-241.742l0,-624.992l241.742,100.234Zm-2411.52,878.526l-766.499,0l241.742,-235.845l624.992,-0l-100.235,235.845Zm-878.526,-112.026l0,-766.5l241.742,-100.234l0,624.992l-241.742,241.742Zm3891.46,-1450.45l-536.549,536.55l-241.742,-100.235l442.211,-436.315l336.08,0Zm-1574.27,1326.63l619.096,-0l241.742,235.845l-766.5,0l-94.338,-235.845Zm1574.27,-1491.73l-341.976,0l-442.211,-436.315l241.742,-100.234l542.445,536.549Zm-2328.98,-1827.81l-436.315,442.211l-100.234,-241.742l536.549,-536.55l0,336.081Zm-536.549,3614.34l100.234,-241.742l436.315,442.211l0,341.976l-536.549,-542.445Zm1238.19,-3407.97l-100.235,241.742l-436.315,-442.211l0,-341.977l536.55,542.446Zm-536.55,3950.42l0,-336.08l436.315,-442.211l100.235,241.742l-536.55,536.549Zm-748.81,-3655.61l-624.992,0l-241.742,-235.846l766.499,0l100.235,235.846Zm-1043.62,790.084l241.742,100.234l-442.211,436.315l-336.081,0l536.55,-536.549Zm-760.603,701.641l607.303,601.407l-241.742,100.235l-707.538,-701.642l341.977,0Zm1686.3,2022.38l100.234,-241.742l601.407,607.303l0,341.977l-701.641,-707.538Zm-1020.03,-3797.12l0,860.838l-241.742,-100.235l0,-996.449l241.742,235.846Zm2588.41,-412.73l-100.235,241.742l-601.407,-607.303l0,-341.977l701.642,707.538Zm-2653.27,1415.08l-607.304,607.303l-336.08,0l701.642,-701.641l241.742,94.338Zm3673.3,2382.04l0,-860.838l241.742,100.235l0,996.449l-241.742,-235.846Zm-3608.44,-860.838l0,860.838l-241.742,241.742l0,-1002.35l241.742,-100.235Zm3608.44,-1662.71l0,-860.838l241.742,-235.846l0,996.449l-241.742,100.235Zm672.161,913.902l336.081,0l-701.642,701.642l-241.742,-94.338l607.303,-607.304Zm-4410.32,1963.42l241.742,-241.742l854.941,0l-94.338,241.742l-1002.35,0Zm2016.48,430.419l607.304,-607.303l94.338,241.742l-701.642,701.642l0,-336.081Zm754.707,-672.161l854.942,0l241.742,241.742l-996.449,0l-100.235,-241.742Zm1633.23,-1886.77l-607.303,-601.407l241.742,-100.234l707.538,701.641l-341.977,0Zm-3307.74,-1721.67l-854.941,0l-241.742,-241.742l996.449,0l100.234,241.742Zm2771.19,-241.742l-241.742,241.742l-854.942,0l100.235,-241.742l996.449,0Zm-2016.48,-430.419l-607.303,607.304l-94.338,-241.742l701.641,-701.642l0,336.08Zm1326.63,3726.37l-725.226,-0l-518.861,512.964l-518.861,-512.964l-725.226,-0l0,-731.123l-518.861,-512.965l518.861,-518.86l0,-731.123l725.226,0l518.861,-512.965l518.861,512.965l725.226,0l0,731.123l518.861,518.86l-518.861,512.965l0,731.123Z"
  style="fill: #999; fill-rule: nonzero;"/>
</svg>