<?xml version="1.0" encoding="UTF-8" standalone="no"?>
<svg
   xmlns:dc="http://purl.org/dc/elements/1.1/"
   xmlns:cc="http://creativecommons.org/ns#"
   xmlns:rdf="http://www.w3.org/1999/02/22-rdf-syntax-ns#"
   xmlns:svg="http://www.w3.org/2000/svg"
   xmlns="http://www.w3.org/2000/svg"
   xmlns:sodipodi="http://sodipodi.sourceforge.net/DTD/sodipodi-0.dtd"
   xmlns:inkscape="http://www.inkscape.org/namespaces/inkscape"
   width="100%"
   height="100%"
   viewBox="0 0 4500 4500"
   version="1.1"
   xml:space="preserve"
   style="clip-rule:evenodd;fill-rule:evenodd;stroke-linecap:round;stroke-linejoin:round;stroke-miterlimit:10"
   id="svg12"
   sodipodi:docname="trash_cost.svg"
   inkscape:version="1.0.2-2 (e86c870879, 2021-01-15)"><metadata
     id="metadata18"><rdf:RDF><cc:Work
         rdf:about=""><dc:format>image/svg+xml</dc:format><dc:type
           rdf:resource="http://purl.org/dc/dcmitype/StillImage" /><dc:title></dc:title></cc:Work></rdf:RDF></metadata><defs
     id="defs16" /><sodipodi:namedview
     pagecolor="#ffffff"
     bordercolor="#666666"
     borderopacity="1"
     objecttolerance="10"
     gridtolerance="10"
     guidetolerance="10"
     inkscape:pageopacity="0"
     inkscape:pageshadow="2"
     inkscape:window-width="1920"
     inkscape:window-height="1017"
     id="namedview14"
     showgrid="false"
     inkscape:zoom="0.11313708"
     inkscape:cx="992.97435"
     inkscape:cy="1628.6807"
     inkscape:window-x="-8"
     inkscape:window-y="-8"
     inkscape:window-maximized="1"
     inkscape:current-layer="svg12"
     inkscape:document-rotation="0" /><path
     id="path2"
     style="fill:#999;font-style:normal;font-variant:normal;font-weight:normal;font-stretch:normal;font-size:medium;line-height:normal;font-family:sans-serif;font-variant-ligatures:normal;font-variant-position:normal;font-variant-caps:normal;font-variant-numeric:normal;font-variant-alternates:normal;font-variant-east-asian:normal;font-feature-settings:normal;font-variation-settings:normal;text-indent:0;text-align:start;text-decoration:none;text-decoration-line:none;text-decoration-style:solid;text-decoration-color:#000000;letter-spacing:normal;word-spacing:normal;text-transform:none;writing-mode:lr-tb;direction:ltr;text-orientation:mixed;dominant-baseline:auto;baseline-shift:baseline;text-anchor:start;white-space:normal;shape-padding:0;shape-margin:0;inline-size:0;clip-rule:nonzero;display:inline;overflow:visible;visibility:visible;opacity:1;isolation:auto;mix-blend-mode:normal;color-interpolation:sRGB;color-interpolation-filters:linearRGB;solid-color:#000000;solid-opacity:1;vector-effect:none;fill-opacity:1;fill-rule:nonzero;stroke:none;stroke-width:1.06086;stroke-linecap:butt;stroke-linejoin:miter;stroke-miterlimit:10;stroke-dasharray:none;stroke-dashoffset:0;stroke-opacity:1;color-rendering:auto;image-rendering:auto;shape-rendering:auto;text-rendering:auto;enable-background:accumulate;stop-color:#000000;stop-opacity:1"
     d="m 1637.0396,255.93109 c -102.7521,0 -209.9426,52.81038 -268.6518,144.6931 -0.1681,0.264 -0.3352,0.52852 -0.5015,0.79357 l -82.3967,130.7652 h -192.6741 c -53.0117,0 -126.14416,13.59266 -175.80607,71.85031 -49.66196,58.25766 -49.4397,116.94441 -49.4397,153.39545 v 291.62398 c 2.3e-4,1.8797 0.0362,3.7594 0.10774,5.6378 1.39858,36.8211 -1.40611,94.4883 56.06178,153.5426 4.21058,4.3268 8.4601,8.3241 12.73442,12.032 v 245.9844 0.1346 c 0.5284,7.7032 0.75774,15.6064 1.70833,22.3443 l 12.69921,83.3312 H 252.77789 v 164.926 H 976.0176 l 59.6422,391.3716 H 45.577067 v 164.9282 H 1060.793 l 22.4395,147.254 c -131.31494,0 -262.62989,0 -393.94486,0 v 164.926 c 139.6927,0 279.38543,0 419.07806,0 l 233.2085,1530.3182 c 11.0617,72.5443 73.4423,126.1385 146.8251,126.1447 h 1917.7115 c 73.5954,-0.011 136.0893,-53.904 146.908,-126.7 L 3944.2515,1501.092 c 1.0731,-7.2239 1.6118,-14.517 1.612,-21.8202 v -283.6571 c 39.079,-42.9181 57.5184,-101.5998 57.5184,-152.9976 V 762.12384 c 0,-41.58172 -3.1112,-103.41287 -53.3578,-160.62875 -50.2466,-57.21588 -123.7717,-72.15282 -179.4238,-72.15282 h -184.5312 l -93.5564,-137.88662 c -0.1067,-0.15768 -0.2139,-0.31514 -0.3212,-0.47242 -26.2438,-38.36225 -64.4701,-80.46876 -115.8614,-105.10571 -51.3912,-24.63695 -99.691,-28.37427 -144.9728,-29.86563 -1.6294,-0.0538 -3.2596,-0.0807 -4.8899,-0.0808 z m -5.2442,297.01941 c 1.4785,0.006 3.2076,0.0207 5.2442,0.0207 h 1585.8619 c 10.3332,0.38596 16.8044,1.01723 21.329,1.58507 1.0157,1.44275 0.539,0.84901 2.4802,3.67364 l 0.3109,0.45998 c 0.011,0.01 -4e-4,8.1e-4 0.011,0.0106 l 137.4288,202.55128 c 27.6423,40.73506 73.6714,65.12817 122.8999,65.13086 h 198.9832 V 969.43682 H 1164.612 V 829.22309 h 202.8434 c 51.014,-0.002 98.4574,-26.18436 125.6557,-69.3432 L 1618.6984,560.5609 c 4.0368,-6.3178 3.173,-7.42956 9.3591,-7.58968 v 0 c 1.031,-0.0266 2.258,-0.0274 3.7358,-0.0207 z m -398.2816,713.5489 2415.3096,0.3606 v 201.4428 l -370.8028,2496.5853 h -1662.02 L 1233.5138,1455.0089 Z"
     sodipodi:nodetypes="scccsssccscccccccccccccccccccccccsssscccsscscsccccccccccccccssscccccccc" /></svg>
