<?xml version="1.0" encoding="UTF-8" standalone="no"?>
<svg
   xmlns:dc="http://purl.org/dc/elements/1.1/"
   xmlns:cc="http://creativecommons.org/ns#"
   xmlns:rdf="http://www.w3.org/1999/02/22-rdf-syntax-ns#"
   xmlns:svg="http://www.w3.org/2000/svg"
   xmlns="http://www.w3.org/2000/svg"
   xmlns:sodipodi="http://sodipodi.sourceforge.net/DTD/sodipodi-0.dtd"
   xmlns:inkscape="http://www.inkscape.org/namespaces/inkscape"
   width="100%"
   height="100%"
   viewBox="0 0 4500 4500"
   version="1.1"
   xml:space="preserve"
   style="clip-rule:evenodd;fill-rule:evenodd;stroke-linejoin:round;stroke-miterlimit:2"
   id="svg4"
   sodipodi:docname="NISEI_TRASH_ABILITY.svg"
   inkscape:version="1.0.2-2 (e86c870879, 2021-01-15)"><metadata
     id="metadata10"><rdf:RDF><cc:Work
         rdf:about=""><dc:format>image/svg+xml</dc:format><dc:type
           rdf:resource="http://purl.org/dc/dcmitype/StillImage" /><dc:title></dc:title></cc:Work></rdf:RDF></metadata><defs
     id="defs8" /><sodipodi:namedview
     pagecolor="#ffffff"
     bordercolor="#666666"
     borderopacity="1"
     objecttolerance="10"
     gridtolerance="10"
     guidetolerance="10"
     inkscape:pageopacity="0"
     inkscape:pageshadow="2"
     inkscape:window-width="1920"
     inkscape:window-height="1017"
     id="namedview6"
     showgrid="false"
     inkscape:zoom="0.14487813"
     inkscape:cx="1991.186"
     inkscape:cy="2241.9682"
     inkscape:window-x="-8"
     inkscape:window-y="-8"
     inkscape:window-maximized="1"
     inkscape:current-layer="svg4" /><path
     d="m 4208.686,1170.9706 c 3.931,3.931 5.896,9.827 5.896,17.688 v 2877.32 c 0,35.377 -11.792,66.823 -35.377,94.339 -23.584,27.515 -55.031,45.203 -94.338,53.065 l -878.526,129.715 -448.107,70.754 94.338,-241.742 c 43.238,-110.062 55.031,-224.054 35.377,-341.977 -27.515,-184.746 -114.975,-332.149 -262.379,-442.211 -147.403,-110.061 -313.478,-151.334 -498.224,-123.819 -117.923,19.654 -222.088,64.858 -312.496,135.612 l -170.988,135.611 -159.196,-524.757 -53.066,-165.092 H 930.428 v -147.404 h 454.003 l -58.961,-182.781 H 234.68 v -153.299 H 1278.3 l -141.508,-454.004 H 452.839 v -147.403 h 636.784 l -29.481,-100.235 c -3.931,-3.931 -5.896,-9.827 -5.896,-17.688 l -41.273,-271.223 c -47.169,-35.377 -76.65,-82.546 -88.442,-141.508 l -35.377,-235.84608 147.404,-23.584 -147.404,23.584 -11.792,-88.442 c -7.862,-58.961 6.878,-113.009 44.221,-162.144 37.342,-49.134 85.494,-79.598 144.455,-91.39 l 117.923,-17.689 94.339,-11.792 47.169,-94.338 41.273,-100.235 c 43.238,-90.407 115.957,-143.473 218.157,-159.196 l 88.443,-11.792 1544.79,-235.846001 82.546,-11.7919999 c 102.2,-11.793 184.746,17.6879999 247.638,88.4419999 l 147.404,165.092001 123.819,-23.584 88.442,-11.793 c 62.893,-7.861 118.906,5.896 168.041,41.273 49.134,35.377 77.632,82.546 85.494,141.508 l 11.792,70.754 -147.404,23.584 147.404,-23.584 41.273,253.534 c 7.862,62.892 -5.896,117.923 -41.273,165.092 l 35.377,271.22308 z M 1183.966,935.12452 v 11.792 l 23.585,165.09208 2700.43,-406.83408 -29.48,-170.988 h -11.793 l -23.584,-147.404 23.584,147.404 -288.911,47.169 -206.365,-229.95 112.027,-100.234 -112.027,100.234 -35.377,-41.273 -76.65,5.896 -17.688,-129.715 17.688,129.715 -1538.89,235.846 -82.546,11.793 -153.3,330.184 -300.704,41.273 z m 2004.69,3113.17008 725.227,-112.027 v -2735.81 l -29.481,-188.677 -2564.82,383.249 23.584,188.677 58.962,176.885 h 471.692 v 147.403 h -424.523 l 141.507,454.004 h 530.654 v 153.299 h -483.484 l 58.961,182.781 h 347.873 v 147.404 h -300.704 l 64.858,212.261 c 86.477,-43.238 178.85,-72.719 277.119,-88.442 263.361,-39.308 502.155,20.636 716.382,179.832 214.226,159.196 340.994,370.475 380.301,633.836 15.723,86.477 17.689,174.919 5.896,265.327 z m -1067.2,-595.511 c 141.507,-19.654 270.24,12.775 386.197,97.286 115.958,84.512 184.746,198.504 206.366,341.977 21.619,143.473 -10.81,272.205 -97.287,386.198 -86.477,113.992 -200.469,182.78 -341.976,206.365 l -88.443,5.896 h -1079 v -147.404 h 725.227 c -82.547,-82.546 -131.681,-182.78 -147.404,-300.703 -23.585,-141.508 7.861,-270.24 94.338,-386.198 86.477,-115.958 200.469,-183.763 341.977,-203.417 z m 294.807,483.484 c -7.861,-62.892 -35.377,-112.027 -82.546,-147.404 -43.238,-31.446 -88.442,-47.169 -135.611,-47.169 -11.793,0 -23.585,1.965 -35.377,5.896 -39.308,3.931 -74.685,18.671 -106.131,44.221 -31.446,25.55 -54.048,56.996 -67.806,94.339 -13.757,37.342 -16.705,75.667 -8.844,114.975 7.862,58.961 36.36,107.113 85.494,144.455 49.135,37.342 104.166,52.083 165.092,44.221 60.927,-7.861 110.062,-37.342 147.404,-88.442 37.342,-51.1 50.117,-106.131 38.325,-165.092 z m -1792.43,554.238 v -147.404 h 277.119 v 147.404 z"
     style="fill-rule:nonzero"
     id="path2" /></svg>
